<svg width="145" height="145" viewBox="0 0 145 145" fill="none" xmlns="http://www.w3.org/2000/svg">
<path d="M73.9385 12.159C73.3596 12.159 72.8154 12.0448 72.3058 11.8165C71.7962 11.5842 71.3478 11.2642 70.9605 10.8565C70.5773 10.4488 70.2756 9.97797 70.0555 9.44393C69.8394 8.90581 69.7314 8.331 69.7314 7.7195C69.7314 7.10392 69.8394 6.52911 70.0555 5.99507C70.2756 5.45695 70.5773 4.98609 70.9605 4.5825C71.3478 4.17484 71.7962 3.85686 72.3058 3.62856C72.8154 3.39619 73.3596 3.28001 73.9385 3.28001C74.6315 3.28001 75.2695 3.44104 75.8525 3.76309C76.4355 4.08107 76.9186 4.50709 77.3018 5.04113L75.9687 5.75659C75.7282 5.45899 75.4285 5.2205 75.0698 5.04113C74.7151 4.86176 74.338 4.77207 73.9385 4.77207C73.5635 4.77207 73.2108 4.84953 72.8806 5.00444C72.5504 5.15528 72.261 5.36726 72.0123 5.6404C71.7636 5.90946 71.57 6.22336 71.4314 6.58211C71.2928 6.93678 71.2234 7.31591 71.2234 7.7195C71.2234 8.12717 71.2928 8.50834 71.4314 8.86301C71.574 9.21767 71.7697 9.53158 72.0184 9.80471C72.2671 10.0738 72.5545 10.2858 72.8806 10.4407C73.2108 10.5915 73.5635 10.6669 73.9385 10.6669C74.3462 10.6669 74.7253 10.5772 75.0759 10.3979C75.4306 10.2144 75.7282 9.9739 75.9687 9.6763L77.3018 10.3979C76.9186 10.9278 76.4355 11.3538 75.8525 11.6759C75.2695 11.998 74.6315 12.159 73.9385 12.159Z" fill="black"/>
<path d="M83.4553 13.1989C82.8844 13.1036 82.3663 12.9014 81.9013 12.5923C81.4369 12.2793 81.0473 11.8898 80.7324 11.4239C80.4175 10.9581 80.1954 10.4436 80.0662 9.88065C79.9376 9.31363 79.9237 8.72855 80.0243 8.12539C80.125 7.52223 80.3278 6.97539 80.6329 6.48487C80.9386 5.99033 81.316 5.57388 81.7651 5.23552C82.2142 4.89717 82.7089 4.65734 83.2491 4.51604C83.79 4.37072 84.3459 4.34571 84.9169 4.441C85.4919 4.53696 86.0116 4.74148 86.476 5.05456C86.941 5.36363 87.331 5.75108 87.6459 6.21694C87.9608 6.6828 88.1805 7.1989 88.3051 7.76524C88.4343 8.32824 88.4486 8.91131 88.3479 9.51447C88.2473 10.1176 88.0441 10.6665 87.7384 11.161C87.4373 11.6522 87.0623 12.067 86.6132 12.4053C86.1641 12.7437 85.6691 12.9855 85.1282 13.1309C84.588 13.2722 84.0304 13.2948 83.4553 13.1989ZM83.7009 11.7272C84.0709 11.7889 84.4315 11.7705 84.7827 11.6721C85.1339 11.5736 85.4543 11.4122 85.7438 11.1877C86.0381 10.9599 86.2828 10.6825 86.4779 10.3555C86.677 10.0292 86.8098 9.66695 86.8762 9.26887C86.9426 8.87078 86.9347 8.48508 86.8523 8.11176C86.7706 7.73442 86.6273 7.39225 86.4223 7.08526C86.2213 6.77893 85.9707 6.52219 85.6705 6.31504C85.3743 6.10855 85.0412 5.97444 84.6713 5.91271C84.3014 5.85097 83.9408 5.86932 83.5896 5.96777C83.2384 6.06621 82.9156 6.22934 82.6214 6.45714C82.3318 6.6816 82.0875 6.957 81.8883 7.28334C81.6932 7.61036 81.5625 7.97291 81.496 8.37099C81.4289 8.7731 81.4366 9.16081 81.5189 9.53413C81.6013 9.90745 81.7426 10.2493 81.9429 10.5596C82.1479 10.8666 82.3985 11.1234 82.6947 11.3298C82.9956 11.533 83.331 11.6654 83.7009 11.7272Z" fill="black"/>
<path d="M89.5868 14.5114L92.3665 6.41427L93.8934 6.93844L95.4075 13.6584L97.3116 8.11186L98.7228 8.59631L95.9431 16.6935L94.422 16.1713L92.9021 9.44934L90.9981 14.9959L89.5868 14.5114Z" fill="black"/>
<path d="M108.889 13.8631L108.179 15.1753L105.877 13.9297L102.513 20.1466L101.2 19.4365L104.565 13.2195L102.263 11.9739L102.973 10.6617L108.889 13.8631Z" fill="black"/>
<path d="M114.835 18.2553L116.191 19.3108L113.388 27.9783L112.139 27.0055L112.636 25.4708L109.74 23.2172L108.375 24.0759L107.125 23.1031L114.835 18.2553ZM111.086 22.374L113.118 23.9553L114.267 20.3784L111.086 22.374Z" fill="black"/>
<path d="M117.438 32.7128C117.046 32.2869 116.762 31.8092 116.584 31.2797C116.41 30.7474 116.342 30.2007 116.38 29.6397C116.42 29.0816 116.562 28.5408 116.806 28.0171C117.055 27.4937 117.405 27.0249 117.855 26.6107C118.308 26.1938 118.804 25.884 119.343 25.6812C119.888 25.4787 120.439 25.3818 120.996 25.3903C121.558 25.3992 122.095 25.5137 122.608 25.734C123.125 25.9515 123.579 26.2732 123.971 26.6991C124.44 27.209 124.754 27.7875 124.912 28.4345C125.073 29.0787 125.086 29.7227 124.953 30.3663L123.524 29.8701C123.58 29.4916 123.552 29.1096 123.441 28.7242C123.333 28.3418 123.144 28.0036 122.873 27.7097C122.619 27.4338 122.323 27.2268 121.986 27.0888C121.651 26.948 121.299 26.8786 120.93 26.8807C120.563 26.8799 120.201 26.9501 119.843 27.0911C119.488 27.2293 119.163 27.4351 118.866 27.7085C118.566 27.9846 118.332 28.2937 118.165 28.6359C118.001 28.9811 117.902 29.3377 117.87 29.7056C117.84 30.0708 117.879 30.4258 117.986 30.7707C118.099 31.1158 118.282 31.4263 118.536 31.7022C118.812 32.0022 119.135 32.2203 119.504 32.3568C119.88 32.4935 120.258 32.5495 120.64 32.5249L121.012 33.9944C120.362 34.0714 119.722 34.0045 119.09 33.7938C118.458 33.583 117.908 33.2227 117.438 32.7128Z" fill="black"/>
<path d="M132.146 38.3045L130.897 39.1206L129.465 36.9295L123.547 40.7958L122.731 39.5467L128.649 35.6804L127.218 33.4893L128.467 32.6733L132.146 38.3045Z" fill="black"/>
<path d="M130.564 58.4349C130.395 57.771 130.41 57.147 130.607 56.5631C130.805 55.983 131.141 55.4857 131.617 55.0709C132.096 54.6552 132.669 54.3628 133.337 54.1936L138.175 52.9687L138.541 54.4151L133.704 55.64C133.308 55.7401 132.963 55.9053 132.668 56.1356C132.378 56.3688 132.17 56.6488 132.042 56.9754C131.92 57.3051 131.909 57.6694 132.01 58.0686C132.112 58.4717 132.295 58.787 132.559 59.0146C132.826 59.2412 133.142 59.3841 133.506 59.4433C133.875 59.5055 134.257 59.4865 134.652 59.3864L139.49 58.1615L139.856 59.6079L135.019 60.8328C134.517 60.9599 134.026 61 133.548 60.953C133.073 60.905 132.633 60.7768 132.227 60.5685C131.821 60.3601 131.473 60.0759 131.184 59.7159C130.897 59.3598 130.69 58.9328 130.564 58.4349Z" fill="black"/>
<path d="M132.002 68.2038C131.963 67.7325 131.999 67.2735 132.109 66.8266C132.224 66.3835 132.406 65.988 132.655 65.6401C132.908 65.2918 133.224 65.0305 133.603 64.856L134.23 66.2091C134.072 66.2794 133.934 66.4075 133.814 66.5933C133.694 66.7791 133.604 67.0013 133.544 67.26C133.484 67.5186 133.465 67.7921 133.489 68.0806C133.514 68.3772 133.581 68.6497 133.692 68.8983C133.807 69.1505 133.952 69.3492 134.128 69.4941C134.308 69.6388 134.507 69.702 134.727 69.6838C134.95 69.6653 135.126 69.5669 135.254 69.3885C135.387 69.2098 135.485 68.987 135.549 68.7199C135.613 68.4528 135.655 68.1793 135.677 67.8993C135.72 67.2862 135.82 66.7319 135.975 66.2363C136.13 65.7407 136.369 65.3385 136.691 65.0295C137.013 64.7247 137.449 64.5495 137.997 64.5041C138.513 64.4613 138.977 64.5722 139.387 64.8368C139.798 65.1014 140.131 65.4665 140.386 65.9321C140.641 66.3978 140.792 66.9109 140.839 67.4716C140.878 67.9388 140.842 68.3958 140.732 68.8426C140.621 69.2895 140.439 69.687 140.186 70.0353C139.933 70.3876 139.615 70.6512 139.233 70.826L138.611 69.4663C138.769 69.3959 138.908 69.2679 139.027 69.082C139.147 68.8962 139.235 68.6742 139.291 68.4159C139.351 68.1573 139.37 67.8837 139.346 67.5953C139.326 67.3065 139.256 67.0361 139.137 66.7842C139.023 66.536 138.877 66.3374 138.701 66.1883C138.525 66.0393 138.332 65.9735 138.121 65.991C137.848 66.0136 137.649 66.1057 137.524 66.2675C137.398 66.4333 137.314 66.6469 137.27 66.9083C137.23 67.1693 137.197 67.4584 137.17 67.7756C137.128 68.3518 137.021 68.8903 136.85 69.3913C136.679 69.8923 136.429 70.3037 136.099 70.6255C135.774 70.9469 135.358 71.1287 134.85 71.1708C134.334 71.2136 133.869 71.1048 133.454 70.8446C133.044 70.5841 132.711 70.221 132.456 69.7554C132.201 69.2898 132.049 68.7726 132.002 68.2038Z" fill="black"/>
<path d="M135.029 86.593L134.069 90.3868L132.622 90.0205L133.583 86.2267L135.029 86.593Z" fill="black"/>
<path d="M121.448 106.159C121.764 105.675 122.157 105.282 122.627 104.98C123.1 104.68 123.614 104.48 124.167 104.379C124.718 104.281 125.277 104.286 125.844 104.394C126.413 104.507 126.953 104.731 127.465 105.065C127.981 105.402 128.403 105.807 128.732 106.28C129.062 106.758 129.291 107.269 129.419 107.81C129.549 108.357 129.57 108.907 129.482 109.458C129.398 110.012 129.197 110.531 128.881 111.016C128.502 111.596 128.018 112.042 127.43 112.354C126.844 112.668 126.224 112.839 125.567 112.868L125.697 111.361C126.078 111.322 126.441 111.202 126.788 110.999C127.132 110.801 127.413 110.534 127.632 110.2C127.837 109.886 127.965 109.548 128.016 109.187C128.07 108.828 128.051 108.47 127.958 108.112C127.869 107.757 127.712 107.423 127.488 107.111C127.266 106.801 126.987 106.535 126.649 106.314C126.308 106.092 125.951 105.941 125.578 105.863C125.203 105.789 124.833 105.781 124.469 105.84C124.107 105.901 123.773 106.025 123.465 106.214C123.158 106.407 122.902 106.661 122.697 106.975C122.474 107.317 122.341 107.683 122.3 108.075C122.259 108.472 122.298 108.853 122.416 109.217L121.082 109.938C120.848 109.328 120.756 108.69 120.805 108.026C120.854 107.362 121.068 106.74 121.448 106.159Z" fill="black"/>
<path d="M115.373 113.552C115.765 113.126 116.218 112.803 116.731 112.583C117.247 112.365 117.786 112.252 118.348 112.243C118.911 112.235 119.463 112.33 120.005 112.53C120.55 112.732 121.047 113.041 121.497 113.455C121.947 113.869 122.294 114.338 122.538 114.862C122.784 115.388 122.927 115.932 122.964 116.493C123.002 117.054 122.932 117.599 122.755 118.129C122.581 118.661 122.298 119.14 121.906 119.566C121.511 119.995 121.055 120.318 120.539 120.536C120.026 120.756 119.488 120.87 118.926 120.879C118.364 120.888 117.812 120.79 117.27 120.584C116.728 120.384 116.232 120.077 115.782 119.663C115.332 119.249 114.983 118.779 114.737 118.252C114.49 117.732 114.348 117.191 114.31 116.63C114.273 116.069 114.341 115.522 114.515 114.99C114.692 114.46 114.978 113.981 115.373 113.552ZM116.471 114.563C116.217 114.839 116.035 115.151 115.925 115.498C115.816 115.846 115.776 116.203 115.805 116.568C115.835 116.939 115.933 117.296 116.1 117.638C116.265 117.983 116.495 118.292 116.792 118.566C117.089 118.839 117.416 119.043 117.774 119.178C118.135 119.316 118.499 119.384 118.869 119.38C119.235 119.379 119.587 119.31 119.925 119.172C120.259 119.037 120.554 118.831 120.808 118.555C121.062 118.279 121.244 117.967 121.353 117.62C121.463 117.272 121.503 116.912 121.473 116.541C121.444 116.176 121.347 115.821 121.183 115.476C121.015 115.134 120.783 114.826 120.487 114.553C120.187 114.276 119.858 114.071 119.5 113.936C119.143 113.8 118.779 113.732 118.41 113.73C118.041 113.733 117.689 113.803 117.354 113.938C117.019 114.078 116.725 114.287 116.471 114.563Z" fill="black"/>
<path d="M110.918 117.972L116.176 124.728L114.902 125.72L108.448 123.312L112.05 127.939L110.873 128.856L105.614 122.1L106.883 121.112L113.342 123.516L109.74 118.889L110.918 117.972Z" fill="black"/>
<path d="M104.388 132.6L102.877 133.418L96.0653 127.37L97.4582 126.617L98.664 127.688L101.891 125.942L101.653 124.346L103.046 123.593L104.388 132.6ZM102.122 127.513L99.8582 128.739L102.672 131.228L102.122 127.513Z" fill="black"/>
<path d="M90.2383 138.346L89.7539 136.935L92.2293 136.085L89.9341 129.399L91.3453 128.915L93.6405 135.601L96.1159 134.751L96.6004 136.162L90.2383 138.346Z" fill="black"/>
<path d="M80.4522 131.329C81.0232 131.234 81.5788 131.257 82.119 131.398C82.6599 131.544 83.1549 131.785 83.604 132.124C84.0491 132.463 84.4241 132.878 84.7292 133.368C85.0309 133.863 85.2321 134.412 85.3327 135.016C85.434 135.623 85.4221 136.208 85.2969 136.77C85.1683 137.337 84.9483 137.851 84.6367 138.312C84.3218 138.778 83.9319 139.165 83.4668 139.475C83.0024 139.788 82.4848 139.992 81.9138 140.087C81.2302 140.201 80.5744 140.147 79.9464 139.926C79.319 139.708 78.7724 139.367 78.3065 138.904L79.5036 137.978C79.7898 138.232 80.1246 138.418 80.508 138.536C80.8874 138.655 81.2741 138.681 81.6682 138.615C82.0381 138.554 82.3732 138.419 82.6734 138.212C82.9742 138.009 83.2248 137.752 83.4252 137.442C83.6262 137.136 83.7655 136.794 83.8432 136.417C83.9215 136.045 83.9274 135.659 83.861 135.261C83.7939 134.859 83.6628 134.495 83.4677 134.168C83.2686 133.841 83.0239 133.564 82.7337 133.335C82.4441 133.111 82.1257 132.949 81.7785 132.85C81.428 132.756 81.0677 132.739 80.6978 132.801C80.2957 132.868 79.9365 133.019 79.6202 133.254C79.3006 133.493 79.0466 133.779 78.8584 134.112L77.4247 133.62C77.7155 133.034 78.1218 132.534 78.6438 132.121C79.1658 131.707 79.7686 131.443 80.4522 131.329Z" fill="black"/>
<path d="M67.7218 140.589V139.097H70.339V132.028H71.8311V139.097H74.4483V140.589H67.7218Z" fill="black"/>
<path d="M51.7436 128.252C52.3913 128.475 52.9058 128.828 53.287 129.312C53.6642 129.795 53.8965 130.349 53.9838 130.974C54.0697 131.602 54.0008 132.242 53.7771 132.894L52.1569 137.614L50.7457 137.129L52.3659 132.41C52.4982 132.024 52.5487 131.645 52.5172 131.272C52.4805 130.902 52.3603 130.574 52.1566 130.288C51.9477 130.005 51.6486 129.797 51.2591 129.663C50.8658 129.528 50.5018 129.509 50.167 129.605C49.8309 129.705 49.5386 129.892 49.2899 130.164C49.036 130.439 48.8429 130.769 48.7106 131.155L47.0904 135.874L45.6792 135.39L47.2993 130.67C47.4675 130.181 47.7021 129.748 48.0032 129.373C48.3031 129.002 48.6512 128.703 49.0478 128.478C49.4443 128.252 49.8722 128.116 50.3316 128.071C50.7871 128.025 51.2577 128.085 51.7436 128.252Z" fill="black"/>
<path d="M42.7748 124.113C43.1907 124.338 43.5556 124.619 43.8693 124.956C44.1776 125.294 44.4092 125.663 44.5641 126.062C44.717 126.465 44.7631 126.872 44.7023 127.284L43.2263 127.069C43.2537 126.899 43.2223 126.713 43.1322 126.511C43.0421 126.309 42.9052 126.112 42.7218 125.92C42.5383 125.728 42.3193 125.563 42.0647 125.426C41.803 125.284 41.5378 125.192 41.2693 125.148C40.9952 125.106 40.7494 125.119 40.532 125.187C40.3126 125.259 40.1505 125.391 40.0457 125.585C39.939 125.782 39.9252 125.983 40.0043 126.188C40.0815 126.397 40.2144 126.601 40.4031 126.8C40.5918 127 40.7974 127.185 41.0199 127.356C41.5095 127.728 41.9192 128.114 42.2492 128.515C42.5791 128.916 42.7853 129.336 42.8678 129.775C42.9467 130.211 42.8551 130.672 42.5932 131.156C42.3468 131.611 42.0005 131.938 41.5545 132.137C41.1084 132.336 40.6207 132.415 40.0912 132.374C39.5617 132.334 39.0496 132.179 38.5548 131.912C38.1425 131.688 37.7794 131.408 37.4656 131.072C37.1519 130.735 36.9185 130.365 36.7655 129.963C36.609 129.558 36.5621 129.148 36.6248 128.733L38.1033 128.956C38.0759 129.126 38.1073 129.312 38.1974 129.514C38.2875 129.716 38.4253 129.911 38.6108 130.099C38.7942 130.291 39.0133 130.456 39.2678 130.594C39.5204 130.735 39.7848 130.825 40.0608 130.863C40.3313 130.903 40.5771 130.89 40.7981 130.824C41.0191 130.758 41.1801 130.632 41.281 130.446C41.411 130.205 41.4426 129.989 41.3759 129.795C41.3056 129.599 41.1731 129.412 40.9783 129.232C40.7815 129.056 40.5577 128.87 40.3068 128.674C39.8476 128.323 39.4551 127.94 39.1293 127.522C38.8035 127.105 38.596 126.67 38.5066 126.219C38.4154 125.771 38.491 125.323 38.7335 124.874C38.9799 124.419 39.3253 124.089 39.7697 123.885C40.2122 123.684 40.6982 123.604 41.2277 123.645C41.7572 123.686 42.2729 123.842 42.7748 124.113Z" fill="black"/>
<path d="M25.724 116.589L23.0734 113.71L24.1711 112.699L26.8217 115.578L25.724 116.589Z" fill="black"/>
<path d="M16.7719 94.5172C17.0044 95.0473 17.1185 95.5916 17.1141 96.15C17.106 96.71 16.9931 97.2492 16.7753 97.7676C16.5559 98.2823 16.2459 98.7477 15.8453 99.1638C15.4393 99.5778 14.9563 99.9077 14.3963 100.153C13.8325 100.401 13.2627 100.533 12.6869 100.549C12.1057 100.564 11.5533 100.477 11.0297 100.288C10.5008 100.097 10.0295 99.814 9.61576 99.439C9.19826 99.0657 8.87325 98.614 8.64072 98.0838C8.36233 97.4492 8.25352 96.8002 8.31428 96.137C8.3713 95.4754 8.56738 94.8619 8.90252 94.2964L10.0932 95.2298C9.91728 95.5696 9.81924 95.9398 9.79908 96.3404C9.77728 96.7373 9.84663 97.1186 10.0071 97.4845C10.1578 97.8279 10.3703 98.1198 10.6449 98.3599C10.9156 98.6017 11.226 98.7816 11.5761 98.8997C11.9223 99.0193 12.2876 99.0706 12.6718 99.0534C13.0523 99.0378 13.4273 98.949 13.7969 98.7869C14.1702 98.6231 14.4915 98.4066 14.7606 98.1372C15.0281 97.864 15.2369 97.5587 15.3872 97.2213C15.5337 96.8855 15.6124 96.5371 15.6232 96.1762C15.6287 95.8133 15.5561 95.46 15.4055 95.1166C15.2417 94.7432 15.0073 94.4321 14.7022 94.183C14.3917 93.9319 14.0519 93.756 13.6828 93.6553L13.8081 92.1447C14.4473 92.2827 15.0315 92.554 15.5606 92.9585C16.0897 93.363 16.4935 93.8825 16.7719 94.5172Z" fill="black"/>
<path d="M13.9045 85.3901C14.0466 85.9513 14.0695 86.5069 13.9733 87.0569C13.8731 87.6079 13.673 88.1212 13.3729 88.5967C13.0728 89.0722 12.6909 89.4822 12.2272 89.8267C11.7596 90.1722 11.2294 90.42 10.6366 90.5702C10.0438 90.7203 9.46157 90.7542 8.88983 90.6719C8.31413 90.5906 7.78115 90.4123 7.29088 90.1369C6.80062 89.8616 6.38228 89.5049 6.03588 89.067C5.68552 88.63 5.43929 88.131 5.29718 87.5698C5.15407 87.0047 5.13259 86.4466 5.23275 85.8955C5.32896 85.3455 5.52713 84.8327 5.82724 84.3572C6.12736 83.8817 6.51173 83.4732 6.98034 83.1316C7.444 82.7871 7.97222 82.5398 8.56501 82.3897C9.1578 82.2396 9.74204 82.2052 10.3177 82.2865C10.8885 82.3648 11.419 82.5417 11.9092 82.817C12.3995 83.0924 12.8198 83.4485 13.1702 83.8855C13.5166 84.3234 13.7613 84.825 13.9045 85.3901ZM12.4581 85.7564C12.366 85.3928 12.2043 85.07 11.9731 84.7879C11.7419 84.5058 11.4653 84.2773 11.1434 84.1023C10.8166 83.9243 10.4643 83.8117 10.0864 83.7644C9.70758 83.7131 9.32253 83.737 8.93129 83.8361C8.54005 83.9352 8.19004 84.0974 7.88125 84.3228C7.56851 84.5492 7.31275 84.8179 7.11397 85.129C6.91419 85.4361 6.77975 85.7687 6.71064 86.1269C6.64053 86.481 6.65151 86.8399 6.74358 87.2035C6.83565 87.5671 6.9973 87.8899 7.22854 88.172C7.45978 88.454 7.73881 88.6841 8.06563 88.862C8.38751 89.0371 8.73787 89.1502 9.11671 89.2014C9.49456 89.2487 9.8791 89.2228 10.2703 89.1238C10.6655 89.0237 11.0175 88.861 11.3263 88.6356C11.6351 88.4102 11.8914 88.1434 12.0951 87.8353C12.2939 87.5242 12.4283 87.1916 12.4984 86.8374C12.5636 86.4803 12.5501 86.1199 12.4581 85.7564Z" fill="black"/>
<path d="M12.6406 79.2426L4.10884 79.9496L3.97553 78.3407L9.52134 74.2548L3.67709 74.7391L3.55388 73.2521L12.0856 72.5452L12.2184 74.1479L6.67313 78.2399L12.5174 77.7556L12.6406 79.2426Z" fill="black"/>
<path d="M4.29656 61.8307L5.78353 61.9539L5.5674 64.5622L12.6122 65.146L12.489 66.6329L5.44418 66.0492L5.22805 68.6575L3.74109 68.5343L4.29656 61.8307Z" fill="black"/>
<path d="M5.92739 54.6165L6.34922 52.9507L15.4123 52.0351L15.0235 53.5704L13.4183 53.7316L12.5176 57.2883L13.8526 58.1941L13.4638 59.7295L5.92739 54.6165ZM11.2048 56.3945L11.8368 53.8988L8.09968 54.2834L11.2048 56.3945Z" fill="black"/>
<path d="M18.1151 46.4306C17.8826 46.9607 17.5594 47.4132 17.1457 47.7882C16.7282 48.1615 16.255 48.4436 15.7261 48.6345C15.1988 48.8217 14.6465 48.9088 14.069 48.8959C13.4894 48.8776 12.9196 48.7457 12.3596 48.5C11.7959 48.2528 11.3129 47.9229 10.9106 47.5105C10.5062 47.0928 10.1962 46.6274 9.98053 46.1143C9.76276 45.5959 9.6517 45.0575 9.64733 44.4991C9.63922 43.9391 9.75144 43.3941 9.98397 42.8639C10.2624 42.2293 10.6661 41.7097 11.1952 41.3052C11.7206 40.8991 12.3048 40.6278 12.9478 40.4914L13.0675 41.9996C12.6983 42.1003 12.3596 42.2789 12.0512 42.5354C11.7445 42.7881 11.5108 43.0974 11.3504 43.4633C11.1997 43.8068 11.129 44.1608 11.1382 44.5254C11.1437 44.8884 11.2216 45.2386 11.3718 45.5761C11.5183 45.9119 11.728 46.2153 12.0009 46.4864C12.27 46.7558 12.5893 46.9715 12.9589 47.1336C13.3323 47.2974 13.7092 47.387 14.0896 47.4026C14.4718 47.4144 14.8378 47.3613 15.1878 47.2433C15.5341 47.1236 15.8437 46.9456 16.1166 46.7091C16.3874 46.4673 16.5981 46.1747 16.7487 45.8312C16.9125 45.4579 16.9826 45.0747 16.9592 44.6815C16.9337 44.2831 16.833 43.9139 16.657 43.5741L17.8533 42.6432C18.1847 43.207 18.3808 43.8205 18.4416 44.4837C18.5023 45.147 18.3935 45.7959 18.1151 46.4306Z" fill="black"/>
<path d="M17.3256 30.7093L18.5747 31.5253L17.1432 33.7164L23.0612 37.5827L22.2451 38.8318L16.3272 34.9655L14.8957 37.1566L13.6466 36.3405L17.3256 30.7093Z" fill="black"/>
<path d="M36.4029 24.0735C35.8624 24.4941 35.2853 24.7316 34.6714 24.7858C34.0607 24.8375 33.47 24.729 32.8993 24.4603C32.326 24.1884 31.8278 23.7806 31.4046 23.2369L28.3398 19.2993L29.5172 18.3828L32.5821 22.3205C32.8325 22.6422 33.1224 22.8918 33.4517 23.0694C33.7818 23.2413 34.122 23.32 34.4724 23.3056C34.8235 23.2854 35.1615 23.1489 35.4865 22.896C35.8146 22.6406 36.0299 22.3465 36.1324 22.0135C36.2324 21.6774 36.2364 21.3308 36.1444 20.9736C36.0531 20.6107 35.8822 20.2684 35.6318 19.9467L32.567 16.0091L33.7444 15.0926L36.8093 19.0303C37.1273 19.4389 37.3609 19.8718 37.5102 20.329C37.6569 20.783 37.7164 21.2378 37.6887 21.6934C37.661 22.1489 37.5403 22.5812 37.3266 22.9903C37.1162 23.3969 36.8083 23.758 36.4029 24.0735Z" fill="black"/>
<path d="M44.7756 18.8326C44.3597 19.0576 43.9251 19.2094 43.4716 19.288C43.0197 19.361 42.5844 19.3532 42.1657 19.2646C41.745 19.1724 41.3787 18.9882 41.067 18.7119L42.0541 17.5937C42.1819 17.71 42.3549 17.7855 42.5731 17.8204C42.7913 17.8553 43.0309 17.8484 43.292 17.7999C43.5531 17.7513 43.8109 17.6581 44.0655 17.5203C44.3272 17.3787 44.5497 17.2073 44.7329 17.0062C44.9177 16.7996 45.0413 16.5867 45.1035 16.3676C45.1637 16.145 45.1415 15.9368 45.0367 15.7432C44.93 15.546 44.7692 15.4244 44.5543 15.3785C44.3374 15.329 44.0939 15.3287 43.8237 15.3776C43.5535 15.4264 43.2858 15.4971 43.0207 15.5896C42.4418 15.7963 41.8943 15.928 41.3781 15.9849C40.8619 16.0417 40.3977 15.9847 39.9854 15.8138C39.5766 15.641 39.2413 15.3126 38.9794 14.8286C38.733 14.3732 38.6485 13.9044 38.7259 13.4222C38.8033 12.9399 39.0039 12.4884 39.3277 12.0675C39.6515 11.6465 40.0608 11.3022 40.5556 11.0345C40.9679 10.8113 41.4008 10.6605 41.8543 10.582C42.3078 10.5034 42.7449 10.5102 43.1656 10.6024C43.5899 10.6926 43.9588 10.8777 44.2725 11.1576L43.2772 12.2733C43.1494 12.1571 42.9763 12.0815 42.7582 12.0466C42.54 12.0117 42.3013 12.0204 42.0421 12.0725C41.781 12.1211 41.5232 12.2143 41.2686 12.3521C41.0121 12.4862 40.7924 12.6584 40.6095 12.8687C40.4283 13.0734 40.3048 13.2862 40.239 13.5072C40.1732 13.7283 40.1907 13.932 40.2916 14.1184C40.4216 14.3587 40.5859 14.5038 40.7845 14.5539C40.9867 14.6021 41.2163 14.5938 41.4732 14.5289C41.7282 14.4604 42.0063 14.3748 42.3076 14.272C42.8523 14.0793 43.3884 13.9607 43.9159 13.9162C44.4435 13.8717 44.9207 13.9356 45.3477 14.1079C45.7727 14.2765 46.1064 14.5849 46.349 15.0331C46.5954 15.4884 46.6826 15.958 46.6108 16.4419C46.5369 16.9222 46.3381 17.3728 46.0143 17.7937C45.6905 18.2147 45.2776 18.5609 44.7756 18.8326Z" fill="black"/>
<path d="M60.3942 8.6737L64.2544 8.02949L64.5 9.5012L60.6398 10.1454L60.3942 8.6737Z" fill="black"/>
</svg>
