<svg width="798" height="514" viewBox="0 0 798 514" fill="none" xmlns="http://www.w3.org/2000/svg">
<mask id="mask0_206_15844" style="mask-type:luminance" maskUnits="userSpaceOnUse" x="-7" y="0" width="805" height="543">
<path d="M797.434 0.000305176H-7V542.387H797.434V0.000305176Z" fill="white"/>
</mask>
<g mask="url(#mask0_206_15844)">
<g opacity="0.309998">
<path d="M665.297 542.387C710.999 540.289 755.864 520.89 777.798 487.546C798.083 456.708 801.851 408.939 792.776 374.622C785.156 345.81 763.391 320.876 738.567 299.765C688.412 257.111 623.786 226.172 581.399 178.065C557.841 151.328 542.161 120.337 519.509 93.0651C475.461 40.0357 402.523 2.40869 324.967 0.104858C247.413 -2.19897 168.01 34.005 135.785 92.6C108.064 143.005 115.29 204.096 81.16 251.716C65.4727 273.602 42.0862 290.99 24.853 312.062C-5.80713 349.561 -15.0698 398.582 0.281006 442.072C15.6339 485.561 55.3054 522.68 105.503 540.518" fill="#C5E1F9"/>
</g>
</g>
<mask id="mask1_206_15844" style="mask-type:luminance" maskUnits="userSpaceOnUse" x="70" y="157" width="562" height="382">
<path d="M631.801 157.477H70.7497V538.211H631.801V157.477Z" fill="white"/>
</mask>
<g mask="url(#mask1_206_15844)">
<g opacity="0.309998">
<path d="M162.909 538.211C131.035 536.829 99.7419 524.044 84.4445 502.066C70.2969 481.744 67.6705 450.26 73.9981 427.646C79.3123 408.655 94.495 392.221 111.807 378.309C146.786 350.198 191.859 329.806 221.423 298.101C237.852 280.478 257.512 239.777 273.31 221.804C304.032 186.855 340.505 163.904 394.314 158.18C463.688 150.799 509.74 203.156 532.214 241.775C551.547 274.996 546.508 315.257 570.312 346.64C581.254 361.066 597.564 372.524 609.582 386.414C630.966 411.127 637.428 443.434 626.72 472.097C616.015 500.76 588.343 525.223 553.337 536.978" fill="#C5E1F9"/>
</g>
</g>
<path d="M364.908 232.133C368.484 240.425 371.221 248.441 372.551 256.681C373.882 264.918 374.341 273.316 376.389 281.407C378.2 288.556 381.22 295.339 384.468 301.962C384.763 302.565 385.07 303.197 385.068 303.87C385.062 305.182 383.93 306.181 382.871 306.953C366.768 318.728 344.435 321.388 326.018 313.724" fill="#4B3C51"/>
<path d="M353.323 267.968C353.323 278.868 360.43 287.703 369.196 287.703C377.96 287.703 385.067 278.868 385.067 267.968C385.067 257.069 377.96 248.233 369.196 248.233C360.43 248.233 353.323 257.069 353.323 267.968Z" fill="#00B7D8"/>
<path d="M345.856 270.759C345.856 281.659 352.963 290.496 361.729 290.496C370.493 290.496 377.6 281.659 377.6 270.759C377.6 259.862 370.493 251.024 361.729 251.024C352.963 251.024 345.856 259.862 345.856 270.759Z" fill="#04A2BC"/>
<path d="M326.017 313.787L359.136 244.308C362.801 256.514 366.467 268.722 369.928 280.991C371.078 285.072 372.214 289.187 372.593 293.412C372.925 297.106 372.67 300.854 371.84 304.47C371.033 307.991 369.63 311.469 367.162 314.107C366.716 314.58 366.204 314.982 365.707 315.4C352.777 319.326 338.512 318.986 326.017 313.787Z" fill="#3E3244"/>
<path d="M332.977 311.401C331.481 319.834 330.24 329.408 335.477 336.187C336.625 337.673 338.119 339.126 338.202 341C338.309 343.46 335.96 345.269 333.757 346.372C325.244 350.629 314.948 351.163 306.04 347.807C305.304 347.528 304.542 347.201 304.047 346.587C302.925 345.202 303.645 343.167 304.332 341.523C310.655 326.433 310.473 308.747 303.845 293.79" fill="#E8A17E"/>
<path d="M333.727 308.943C332.267 314.867 331.303 320.567 331.952 326.635C331.972 326.843 331.986 327.079 331.845 327.231C331.651 327.437 331.317 327.356 331.053 327.261C329.11 326.558 327.142 325.843 325.436 324.68C322.559 322.718 319.172 319.11 317.69 315.959C315.643 311.603 314.64 307.34 315.01 302.542" fill="#D88D6C"/>
<path d="M353.23 233.28C359.243 239.993 360.646 249.553 361.436 258.529C362.134 266.439 362.562 274.436 361.44 282.297C360.319 290.159 357.558 297.937 352.472 304.037C350.33 306.608 347.797 308.852 344.988 310.671C343.051 311.924 340.959 312.985 338.702 313.47C334.417 314.39 329.988 313.161 325.816 311.809C316.315 308.73 306.532 304.563 300.666 296.478C293.024 285.943 287.969 258.22 285.984 245.357" fill="#E8A17E"/>
<path d="M365.208 241.456C356.325 249.139 345.291 254.309 333.704 256.219C326.985 257.327 320.139 257.357 313.332 257.211C310.785 257.157 308.212 257.076 305.736 256.47C302.302 255.631 299.032 253.69 297.156 250.693C295.28 247.697 295.028 243.592 297.019 240.672" fill="#D88D6C"/>
<path d="M288.516 206.327C305.456 198.137 329.983 199.833 342.309 206.887C354.634 213.943 359.742 220.257 366.177 234.956C366.563 235.835 368.786 241.244 368.449 242.141C368.115 243.032 367.685 243.528 366.798 243.867C351.57 249.676 338.187 250.725 321.91 251.53C316.489 251.798 310.988 251.807 305.714 250.529C298.252 275.532 302.141 293.454 314.571 316.395C306.48 319.808 275.02 321.771 260.045 310.175C256.183 307.182 252.659 303.643 250.311 299.36C244.358 288.494 246.913 275.095 250.151 263.135C252.56 254.234 255.289 245.341 259.663 237.221C266.38 224.751 275.511 211.94 288.516 206.327Z" fill="#4B3C51"/>
<path d="M347.853 288.369C346.616 292.187 345.194 295.708 341.816 297.873C338.467 300.019 333.986 299.768 330.386 298.079C326.782 296.393 323.356 292.161 320.834 289.084C329.58 289.901 339.201 289.895 347.853 288.369Z" fill="white"/>
<path d="M277.615 308.466C278.642 307.65 279.568 306.655 280.061 305.439C281.021 303.074 280.188 300.41 279.454 297.966C278.209 293.827 277.251 289.542 277.403 285.226C277.556 280.905 278.899 276.517 281.791 273.305C285.981 268.658 292.562 267.185 298.698 265.954C299.986 265.697 301.275 265.439 302.561 265.182C300.269 283.106 304.639 298.196 314.502 316.396C306.411 319.807 274.949 321.772 259.978 310.174C259.43 309.748 258.909 309.289 258.377 308.842C259.297 309.358 260.216 309.885 261.205 310.269C266.573 312.361 273.102 312.046 277.615 308.466Z" fill="#3E3244"/>
<path d="M332.799 265.82C337.017 263.584 340.253 265.729 340.292 265.755L341.106 264.558C340.944 264.451 337.104 261.901 332.12 264.544L332.799 265.82Z" fill="#161119"/>
<path d="M302.501 265.418L306.283 265.353V263.904H302.701L302.501 265.418Z" fill="#161119"/>
<path d="M337.676 268.43L342.258 282.471L335.046 283.055" fill="#D88D6C"/>
<path d="M323.367 257.262C323.076 257.082 322.763 256.93 322.455 256.785C322.269 256.698 322.083 256.615 321.893 256.536C321.962 256.564 322.031 256.593 322.098 256.623C321.629 256.423 321.148 256.247 320.662 256.091C320.058 255.901 319.446 255.738 318.825 255.612C318.427 255.53 318.025 255.463 317.621 255.408C317.699 255.418 317.776 255.43 317.853 255.439C316.695 255.285 315.522 255.245 314.356 255.327C313.998 255.352 313.637 255.39 313.277 255.437C313.354 255.428 313.431 255.418 313.509 255.408C312.329 255.568 311.167 255.851 310.045 256.247C309.699 256.37 309.358 256.502 309.02 256.645C309.089 256.617 309.156 256.585 309.226 256.558C307.967 257.092 306.769 257.761 305.641 258.537C305.463 258.658 305.174 258.679 304.972 258.622C304.77 258.567 304.553 258.412 304.454 258.224C304.349 258.022 304.293 257.779 304.365 257.555C304.44 257.332 304.57 257.169 304.766 257.037C306.536 255.821 308.493 254.86 310.558 254.26C312.244 253.771 314.011 253.529 315.765 253.551C317.206 253.569 318.653 253.761 320.048 254.111C321.081 254.371 322.085 254.729 323.054 255.16C323.454 255.337 323.856 255.527 324.228 255.754C324.232 255.758 324.236 255.762 324.242 255.764C324.43 255.883 324.58 256.067 324.642 256.283C324.699 256.49 324.671 256.767 324.555 256.952C324.434 257.138 324.256 257.302 324.036 257.351C323.812 257.401 323.567 257.387 323.367 257.262Z" fill="#3E3244"/>
<path d="M346.716 257.369C346.97 257.14 347.249 256.932 347.526 256.734C347.692 256.613 347.86 256.498 348.032 256.386C347.971 256.425 347.908 256.467 347.844 256.508C348.272 256.227 348.713 255.966 349.163 255.725C349.723 255.428 350.297 255.156 350.881 254.919C351.259 254.767 351.641 254.626 352.028 254.499C351.953 254.525 351.88 254.547 351.807 254.573C352.917 254.208 354.063 253.957 355.223 253.826C355.581 253.785 355.943 253.757 356.304 253.737L356.072 253.749C357.262 253.694 358.455 253.759 359.631 253.945C359.993 254.003 360.353 254.07 360.709 254.149C360.636 254.133 360.565 254.115 360.492 254.102C361.828 254.396 360.05 255.301 362.501 254.662C362.728 254.602 360.903 252.297 358.764 252.085C357.018 251.911 355.235 251.996 353.515 252.336C352.102 252.617 350.714 253.068 349.404 253.668C348.438 254.111 347.516 254.642 346.641 255.246C346.279 255.493 345.921 255.752 345.596 256.043C345.592 256.047 345.586 256.051 345.582 256.055C345.418 256.205 345.303 256.415 345.283 256.639C345.267 256.853 345.343 257.12 345.493 257.28C345.643 257.441 345.849 257.569 346.075 257.577C346.305 257.587 346.542 257.528 346.716 257.369Z" fill="#3E3244"/>
<path d="M322.82 266.926C322.792 266.886 322.764 266.849 322.737 266.811C322.762 266.845 322.786 266.88 322.814 266.912C322.699 266.766 322.58 266.625 322.456 266.489C322.262 266.275 322.054 266.069 321.84 265.879C321.692 265.744 321.539 265.618 321.379 265.495C321.415 265.521 321.448 265.548 321.48 265.572C321.106 265.283 320.706 265.026 320.28 264.812C320.15 264.747 320.019 264.686 319.887 264.63C319.924 264.646 319.964 264.662 320.003 264.678C319.627 264.519 319.233 264.399 318.834 264.317C318.715 264.294 318.594 264.274 318.475 264.256C318.517 264.262 318.563 264.268 318.606 264.274C318.218 264.224 317.826 264.212 317.436 264.24C317.318 264.248 317.201 264.26 317.084 264.278C317.128 264.27 317.171 264.264 317.215 264.258C316.773 264.319 316.342 264.426 315.924 264.577C315.792 264.624 315.663 264.674 315.534 264.729C315.574 264.711 315.611 264.693 315.653 264.678C315.083 264.917 314.543 265.228 314.036 265.578C313.872 265.691 313.713 265.81 313.559 265.928C313.593 265.903 313.624 265.877 313.658 265.851C313.525 265.956 313.393 266.061 313.264 266.17C313.159 266.257 313.05 266.314 312.914 266.314C312.793 266.314 312.647 266.261 312.563 266.17C312.476 266.075 312.413 265.952 312.419 265.82C312.423 265.697 312.465 265.554 312.563 265.471C313.135 264.99 313.743 264.549 314.4 264.189C314.946 263.888 315.528 263.64 316.13 263.474C316.655 263.33 317.199 263.249 317.741 263.237C318.23 263.227 318.723 263.28 319.202 263.385C319.645 263.482 320.071 263.635 320.486 263.821C320.837 263.975 321.171 264.161 321.49 264.369C321.808 264.577 322.113 264.81 322.4 265.056C322.614 265.238 322.82 265.434 323.016 265.639C323.154 265.784 323.289 265.934 323.416 266.091C323.503 266.198 323.59 266.305 323.669 266.415C323.671 266.419 323.673 266.423 323.675 266.425C323.746 266.526 323.756 266.694 323.724 266.807C323.693 266.922 323.604 267.047 323.497 267.104C323.382 267.163 323.243 267.195 323.115 267.152C322.988 267.112 322.897 267.037 322.82 266.926Z" fill="#3E3244"/>
<path d="M358.773 265.629C358.746 265.59 358.718 265.552 358.688 265.514C358.714 265.548 358.74 265.584 358.765 265.615C358.653 265.469 358.532 265.328 358.407 265.192C358.213 264.978 358.007 264.772 357.792 264.58C357.645 264.448 357.491 264.321 357.333 264.198C357.366 264.224 357.4 264.25 357.433 264.275C357.057 263.986 356.658 263.729 356.234 263.515C356.103 263.448 355.971 263.389 355.838 263.331C355.876 263.349 355.917 263.365 355.955 263.381C355.579 263.222 355.187 263.1 354.785 263.021C354.669 262.997 354.548 262.975 354.427 262.959C354.471 262.965 354.516 262.971 354.558 262.977C354.172 262.926 353.78 262.914 353.388 262.943C353.271 262.951 353.152 262.963 353.036 262.979C353.079 262.973 353.125 262.967 353.166 262.961C352.727 263.023 352.295 263.129 351.876 263.28C351.745 263.325 351.615 263.377 351.486 263.43C351.525 263.414 351.565 263.397 351.605 263.381C351.035 263.62 350.494 263.931 349.988 264.281C349.825 264.394 349.667 264.513 349.511 264.632C349.544 264.604 349.578 264.58 349.612 264.554C349.479 264.657 349.344 264.764 349.216 264.873C349.113 264.96 349.004 265.018 348.865 265.018C348.745 265.018 348.598 264.964 348.515 264.873C348.428 264.778 348.365 264.655 348.371 264.523C348.377 264.4 348.418 264.258 348.515 264.174C349.087 263.693 349.697 263.25 350.352 262.89C350.898 262.591 351.482 262.342 352.084 262.177C352.606 262.033 353.15 261.952 353.693 261.94C354.182 261.93 354.676 261.981 355.153 262.086C355.599 262.185 356.024 262.338 356.44 262.524C356.788 262.678 357.125 262.864 357.443 263.072C357.76 263.28 358.065 263.513 358.352 263.759C358.568 263.941 358.771 264.137 358.967 264.341C359.106 264.487 359.241 264.638 359.369 264.794C359.456 264.901 359.543 265.008 359.621 265.119C359.623 265.122 359.626 265.124 359.628 265.128C359.698 265.229 359.71 265.396 359.678 265.508C359.644 265.625 359.557 265.75 359.45 265.805C359.336 265.867 359.197 265.898 359.068 265.855C358.94 265.815 358.851 265.74 358.773 265.629Z" fill="#3E3244"/>
<mask id="mask2_206_15844" style="mask-type:luminance" maskUnits="userSpaceOnUse" x="305" y="273" width="14" height="13">
<path d="M318.082 273.536H305.678V285.938H318.082V273.536Z" fill="white"/>
</mask>
<g mask="url(#mask2_206_15844)">
<g opacity="0.449997">
<path d="M305.678 279.737C305.678 283.161 308.453 285.938 311.879 285.938C315.303 285.938 318.082 283.161 318.082 279.737C318.082 276.313 315.303 273.534 311.879 273.534C308.453 273.534 305.678 276.313 305.678 279.737Z" fill="#F27B53"/>
</g>
</g>
<mask id="mask3_206_15844" style="mask-type:luminance" maskUnits="userSpaceOnUse" x="351" y="272" width="11" height="11">
<path d="M361.728 272.098H351.275V282.551H361.728V272.098Z" fill="white"/>
</mask>
<g mask="url(#mask3_206_15844)">
<g opacity="0.449997">
<path d="M351.276 277.328C351.276 280.213 353.615 282.555 356.503 282.555C359.388 282.555 361.728 280.213 361.728 277.328C361.728 274.44 359.388 272.1 356.503 272.1C353.615 272.1 351.276 274.44 351.276 277.328Z" fill="#F27B53"/>
</g>
</g>
<path d="M353.9 253.577C360.584 253.577 366.025 259.018 366.025 265.704C366.025 272.388 360.584 277.829 353.9 277.829C347.214 277.829 341.774 272.388 341.774 265.704C341.774 259.018 347.214 253.577 353.9 253.577ZM353.9 279.41C361.457 279.41 367.606 273.261 367.606 265.704C367.606 258.145 361.457 251.998 353.9 251.998C346.342 251.998 340.194 258.145 340.194 265.704C340.194 273.261 346.342 279.41 353.9 279.41Z" fill="#161119"/>
<path d="M319.42 253.577C326.106 253.577 331.547 259.018 331.547 265.704C331.547 272.388 326.106 277.829 319.42 277.829C312.736 277.829 307.296 272.388 307.296 265.704C307.296 259.018 312.736 253.577 319.42 253.577ZM319.42 279.41C326.979 279.41 333.126 273.261 333.126 265.704C333.126 258.145 326.979 251.998 319.42 251.998C311.864 251.998 305.714 258.145 305.714 265.704C305.714 273.261 311.864 279.41 319.42 279.41Z" fill="#161119"/>
<path d="M328.816 305.227C328.618 307.277 330.583 309.144 333.206 309.397C335.828 309.651 338.114 308.194 338.312 306.143C338.508 304.093 336.545 302.224 333.922 301.971C331.3 301.72 329.014 303.176 328.816 305.227Z" fill="#161119"/>
<path d="M324.931 306.424C327.033 306.628 329.184 306.699 331.383 306.612L331.302 304.556C306.455 305.545 287.348 285.474 287.158 285.27L285.655 286.677C285.835 286.871 302.374 304.247 324.931 306.424Z" fill="#161119"/>
<path d="M367.938 249.588C365.951 235.662 358.656 220.325 346.699 212.452C335.992 205.4 321.668 204.953 309.868 209.477C299.701 213.376 292.971 222.067 289.652 232.197C286.83 240.822 286.448 249.689 285.791 258.653C285.575 261.608 280.94 261.634 281.157 258.653C281.785 250.123 282.131 241.622 284.467 233.327C287.507 222.53 293.735 212.612 303.825 207.189C315.833 200.733 331.746 200.044 344.15 205.736C354.236 210.364 361.611 219.381 366.29 229.24C369.13 235.215 371.467 241.772 372.406 248.355C372.823 251.272 368.358 252.531 367.938 249.588Z" fill="#00B7D8"/>
<path d="M270.114 273.535C270.114 284.434 277.219 293.27 285.985 293.27C294.749 293.27 301.856 284.434 301.856 273.535C301.856 262.635 294.749 253.8 285.985 253.8C277.219 253.8 270.114 262.635 270.114 273.535Z" fill="#00B7D8"/>
<path d="M268.407 273.536C268.407 283.889 275.158 292.285 283.485 292.285C291.813 292.285 298.562 283.889 298.562 273.536C298.562 263.183 291.813 254.787 283.485 254.787C275.158 254.787 268.407 263.183 268.407 273.536Z" fill="#04A2BC"/>
<mask id="mask4_206_15844" style="mask-type:luminance" maskUnits="userSpaceOnUse" x="160" y="120" width="98" height="66">
<path d="M257.43 120.9H160.799V185.645H257.43V120.9Z" fill="white"/>
</mask>
<g mask="url(#mask4_206_15844)">
<g opacity="0.0700073">
<path d="M170.223 185.645H248.006C253.212 185.645 257.432 181.425 257.432 176.219V130.325C257.432 125.12 253.212 120.902 248.006 120.902H170.223C165.018 120.902 160.798 125.12 160.798 130.325V176.219C160.798 181.425 165.018 185.645 170.223 185.645Z" fill="#26476D"/>
</g>
</g>
<path d="M172.492 183.469H250.278C255.483 183.469 259.703 179.249 259.703 174.044V128.149C259.703 122.944 255.483 118.726 250.278 118.726H172.492C167.287 118.726 163.067 122.944 163.067 128.149V174.044C163.067 179.249 167.287 183.469 172.492 183.469Z" fill="white"/>
<path d="M214.403 169.498C214.096 169.805 213.732 169.957 213.31 169.957H210.037C209.615 169.957 209.251 169.805 208.944 169.498C208.639 169.193 208.485 168.829 208.485 168.405V165.132C208.485 164.71 208.639 164.346 208.944 164.039C209.251 163.732 209.615 163.58 210.037 163.58H213.31C213.732 163.58 214.096 163.732 214.403 164.039C214.71 164.346 214.86 164.71 214.86 165.132V168.405C214.86 168.829 214.71 169.193 214.403 169.498ZM218.454 130.576C220.426 131.517 221.977 132.817 223.105 134.483C224.238 136.15 224.802 137.997 224.802 140.027C224.802 141.559 224.542 142.909 224.024 144.077C223.507 145.246 222.874 146.242 222.128 147.065C221.382 147.889 220.396 148.817 219.171 149.85C217.524 151.267 216.299 152.532 215.493 153.642C214.692 154.753 214.288 156.132 214.288 157.779V158.582C214.288 159.004 214.134 159.368 213.829 159.675C213.522 159.98 213.158 160.134 212.736 160.134H210.613C210.189 160.134 209.825 159.98 209.52 159.675C209.213 159.368 209.061 159.004 209.061 158.582V157.377C209.061 155.845 209.33 154.493 209.866 153.328C210.401 152.158 211.042 151.172 211.79 150.367C212.536 149.563 213.54 148.587 214.805 147.437C216.416 146.06 217.611 144.843 218.395 143.79C219.181 142.737 219.572 141.482 219.572 140.027C219.572 138.188 218.809 136.734 217.275 135.661C215.743 134.588 213.904 134.052 211.76 134.052C209.69 134.052 207.97 134.57 206.589 135.604C205.209 136.637 204.253 138.226 203.719 140.372C203.642 140.756 203.46 141.06 203.173 141.292C202.886 141.522 202.569 141.634 202.227 141.634H199.755C199.408 141.634 199.103 141.512 198.834 141.262C198.565 141.013 198.45 140.716 198.49 140.372C198.607 138.572 199.171 136.809 200.184 135.087C201.199 133.363 202.694 131.946 204.665 130.836C206.638 129.725 209.001 129.169 211.76 129.169C214.25 129.169 216.481 129.638 218.454 130.576Z" fill="#FFCE45"/>
<mask id="mask5_206_15844" style="mask-type:luminance" maskUnits="userSpaceOnUse" x="357" y="60" width="97" height="80">
<path d="M453.746 60.3939H357.112V139.828H453.746V60.3939Z" fill="white"/>
</mask>
<g mask="url(#mask5_206_15844)">
<g opacity="0.0700073">
<path d="M366.92 60.3939H443.94C449.355 60.3939 453.745 64.7838 453.745 70.201V115.331C453.745 120.746 449.355 125.136 443.94 125.136H389.311L368.612 139.828V125.136H366.92C361.503 125.136 357.113 120.746 357.113 115.331V70.201C357.113 64.7838 361.503 60.3939 366.92 60.3939Z" fill="#26476D"/>
</g>
</g>
<path d="M369.233 58.2924H446.253C451.668 58.2924 456.058 62.6823 456.058 68.0994V113.23C456.058 118.645 451.668 123.037 446.253 123.037H391.624L370.925 137.727V123.037H369.233C363.818 123.037 359.426 118.645 359.426 113.23V68.0994C359.426 62.6823 363.818 58.2924 369.233 58.2924Z" fill="white"/>
<path d="M369.554 75.007H395.358H436.49H445.933C446.926 75.007 446.928 76.5508 445.933 76.5508H420.128H378.997H369.554C368.561 76.5508 368.559 75.007 369.554 75.007Z" fill="#FFCE45"/>
<path d="M369.554 85.0734H395.358H436.49H445.933C446.926 85.0734 446.928 86.6172 445.933 86.6172H420.128H378.997H369.554C368.561 86.6172 368.559 85.0734 369.554 85.0734Z" fill="#FFCE45"/>
<path d="M392.37 95.1398H410.438H439.269H445.931C446.925 95.1398 446.927 96.6836 445.931 96.6836H427.863H399.03H392.37C391.376 96.6836 391.374 95.1398 392.37 95.1398Z" fill="#FFCE45"/>
<path d="M392.37 105.206H410.438H439.269H445.931C446.925 105.206 446.927 106.75 445.931 106.75H427.863H399.03H392.37C391.376 106.75 391.374 105.206 392.37 105.206Z" fill="#FFCE45"/>
<mask id="mask6_206_15844" style="mask-type:luminance" maskUnits="userSpaceOnUse" x="401" y="140" width="64" height="53">
<path d="M464.574 140.837H401.799V192.441H464.574V140.837Z" fill="white"/>
</mask>
<g mask="url(#mask6_206_15844)">
<g opacity="0.0700073">
<path d="M408.171 140.835H458.204C461.723 140.835 464.575 143.687 464.575 147.206V176.525C464.575 180.044 461.723 182.894 458.204 182.894H422.716L409.271 192.438V182.894H408.171C404.652 182.894 401.8 180.044 401.8 176.525V147.206C401.8 143.687 404.652 140.835 408.171 140.835Z" fill="#26476D"/>
</g>
</g>
<path d="M409.672 139.472H459.707C463.226 139.472 466.078 142.324 466.078 145.843V175.161C466.078 178.68 463.226 181.532 459.707 181.532H424.22L410.775 191.074V181.532H409.672C406.155 181.532 403.301 178.68 403.301 175.161V145.843C403.301 142.324 406.155 139.472 409.672 139.472Z" fill="white"/>
<path d="M409.881 150.332H426.645H453.364H459.498C460.145 150.332 460.145 151.336 459.498 151.336H442.736H416.016H409.881C409.236 151.336 409.236 150.332 409.881 150.332Z" fill="#FFCE45"/>
<path d="M409.881 156.868H426.645H453.364H459.498C460.145 156.868 460.145 157.871 459.498 157.871H442.736H416.016H409.881C409.236 157.871 409.236 156.868 409.881 156.868Z" fill="#FFCE45"/>
<path d="M424.704 163.411H436.443H455.172H459.499C460.144 163.411 460.146 164.414 459.499 164.414H447.76H429.033H424.704C424.059 164.414 424.057 163.411 424.704 163.411Z" fill="#FFCE45"/>
<path d="M424.704 169.95H436.443H455.172H459.499C460.144 169.95 460.146 170.953 459.499 170.953H447.76H429.033H424.704C424.059 170.953 424.057 169.95 424.704 169.95Z" fill="#FFCE45"/>
<mask id="mask7_206_15844" style="mask-type:luminance" maskUnits="userSpaceOnUse" x="497" y="213" width="97" height="65">
<path d="M593.699 213.22H497.065V277.965H593.699V213.22Z" fill="white"/>
</mask>
<g mask="url(#mask7_206_15844)">
<g opacity="0.0700073">
<path d="M506.49 277.965H584.273C589.479 277.965 593.699 273.745 593.699 268.54V222.646C593.699 217.44 589.479 213.22 584.273 213.22H506.49C501.285 213.22 497.065 217.44 497.065 222.646V268.54C497.065 273.745 501.285 277.965 506.49 277.965Z" fill="#26476D"/>
</g>
</g>
<path d="M509.359 275.395H587.142C592.347 275.395 596.567 271.175 596.567 265.969V220.075C596.567 214.87 592.347 210.652 587.142 210.652H509.359C504.153 210.652 499.934 214.87 499.934 220.075V265.969C499.934 271.175 504.153 275.395 509.359 275.395Z" fill="white"/>
<path d="M547.418 223.967C550.486 230.659 543.132 233.568 543.132 233.568C539.345 236.561 545.19 245.26 545.19 245.26C545.19 245.26 550.866 254.073 555.117 251.781C555.117 251.781 560.698 246.177 565.629 251.642C570.559 257.108 568.643 262.468 562.27 265.585C562.27 265.585 553.307 269.663 539.525 248.716C526.143 227.153 533.285 221.532 533.285 221.532C538.67 216.917 544.35 217.276 547.418 223.967Z" fill="#FFCE45"/>
<path d="M245.318 529.346C222.149 518.009 206.117 496.405 193.747 474.199C171.304 433.907 157.771 387.285 165.282 342.024C166.756 333.147 169.978 323.221 178.414 319.589C182.402 317.871 187.035 317.907 191.213 319.114C199.471 321.501 205.858 328.167 209.705 335.678C213.553 343.19 215.2 351.562 216.74 359.821C227.639 418.341 235.34 477.91 256.225 533.793" fill="#00B7D8"/>
<mask id="mask8_206_15844" style="mask-type:luminance" maskUnits="userSpaceOnUse" x="173" y="361" width="77" height="170">
<path d="M249.339 361.756H173.179V530.293H249.339V361.756Z" fill="white"/>
</mask>
<g mask="url(#mask8_206_15844)">
<g opacity="0.110001">
<path d="M249.34 530.289C231.414 521.959 210.893 496.407 200.934 479.346C182.867 448.395 169.47 416.266 174.101 380.767C175.01 373.804 177.227 365.982 183.57 362.957C186.565 361.528 190.095 361.451 193.308 362.302C199.655 363.981 204.684 369.042 207.796 374.819C210.909 380.596 212.364 387.094 213.735 393.509C223.451 438.95 230.751 485.278 248.008 528.435" fill="#345D95"/>
</g>
</g>
<path d="M186.335 343.962C188.251 357.965 190.25 371.96 192.665 385.894C195.06 399.707 197.866 413.462 201.397 427.048C204.659 439.586 208.556 451.933 213.528 463.931C218.442 475.792 224.229 487.317 230.806 498.383C237.245 509.213 244.451 519.632 252.552 529.35C253.536 530.53 254.535 531.699 255.545 532.855C255.758 533.103 255.396 533.461 255.181 533.213C246.923 523.741 239.558 513.55 232.962 502.919C226.147 491.941 220.144 480.479 214.99 468.673C209.833 456.855 205.676 444.707 202.272 432.309C198.519 418.654 195.546 404.809 193.029 390.893C190.507 376.958 188.441 362.947 186.501 348.924C186.272 347.269 186.046 345.615 185.819 343.962C185.775 343.641 186.292 343.645 186.335 343.962Z" fill="white"/>
<path d="M236.278 526.832C220.214 530.783 198.013 533.866 182.267 534.781C152.602 536.501 116.249 535.424 92.6947 517.312C85.0549 511.438 78.3869 501.815 81.5101 492.698C83.4933 486.907 89.1024 482.935 95.0203 481.373C100.938 479.812 107.187 480.295 113.269 480.995C157.168 486.04 199.783 501.92 236.278 526.832Z" fill="#00B7D8"/>
<mask id="mask9_206_15844" style="mask-type:luminance" maskUnits="userSpaceOnUse" x="108" y="491" width="122" height="41">
<path d="M229.595 491.066H108.824V531.551H229.595V491.066Z" fill="white"/>
</mask>
<g mask="url(#mask9_206_15844)">
<g opacity="0.110001">
<path d="M229.594 525.394C217.133 528.272 199.908 530.503 187.688 531.15C164.668 532.369 136.454 531.526 118.146 518.194C112.208 513.869 107.019 506.798 109.429 500.108C110.961 495.859 115.308 492.951 119.897 491.813C124.489 490.675 129.34 491.041 134.061 491.562C168.137 495.332 201.234 507.051 229.594 525.394Z" fill="#345D95"/>
</g>
</g>
<path d="M243.375 524.414C209.704 522.655 172.143 502.672 145.17 482.443C127.414 469.126 109.878 454.999 96.7679 437.095C86.0286 422.431 78.4937 405.433 74.84 387.63C72.4452 375.956 72.8588 361.461 82.9252 355.087C88.3601 351.648 95.4596 351.636 101.52 353.789C107.582 355.942 112.764 360.024 117.461 364.417C130.854 376.946 141.122 392.372 151.555 407.454C178.726 446.731 212.454 488.018 243.375 524.414Z" fill="#00B7D8"/>
<mask id="mask10_206_15844" style="mask-type:luminance" maskUnits="userSpaceOnUse" x="103" y="392" width="132" height="128">
<path d="M234.292 392.924H103.184V519.668H234.292V392.924Z" fill="white"/>
</mask>
<g mask="url(#mask10_206_15844)">
<g opacity="0.110001">
<path d="M234.291 519.668C208.286 518.374 179.274 503.654 158.441 488.756C144.729 478.951 131.183 468.547 121.057 455.361C112.764 444.562 106.943 432.046 104.121 418.933C102.273 410.338 102.591 399.66 110.368 394.967C114.564 392.433 120.046 392.426 124.731 394.013C129.412 395.596 133.412 398.603 137.04 401.839C147.385 411.066 155.316 422.425 163.375 433.532C184.357 462.458 210.409 492.863 234.291 519.668Z" fill="#345D95"/>
</g>
</g>
<path d="M96.017 383.254C105.881 395.309 115.748 407.364 125.612 419.42C134.368 430.12 143.061 440.877 151.999 451.424C160.229 461.138 168.7 470.658 177.719 479.648C186.646 488.546 196.12 496.934 206.371 504.287C216.544 511.588 227.487 517.859 239.131 522.498C240.56 523.068 242.003 523.612 243.451 524.135C243.798 524.259 243.649 524.818 243.297 524.693C231.548 520.459 220.451 514.599 210.117 507.604C199.72 500.566 190.099 492.434 181.064 483.735C171.841 474.854 163.21 465.379 154.867 455.675C146.066 445.437 137.571 434.939 129.021 424.493C119.124 412.4 109.226 400.305 99.3302 388.213C98.0892 386.695 96.8483 385.179 95.6073 383.663C95.3737 383.376 95.7795 382.965 96.017 383.254Z" fill="white"/>
<mask id="mask11_206_15844" style="mask-type:luminance" maskUnits="userSpaceOnUse" x="34" y="406" width="102" height="88">
<path d="M135.399 406.575H34.9419V493.125H135.399V406.575Z" fill="white"/>
</mask>
<g mask="url(#mask11_206_15844)">
<g opacity="0.380005">
<path d="M134.759 490.579C127.984 488.491 121.94 484.683 116.257 480.529C113.251 478.33 110.31 476.036 107.359 473.764C104.131 471.278 100.912 468.778 97.7318 466.233C91.6813 461.392 85.7575 456.394 79.9683 451.244C74.1593 446.075 68.4828 440.752 62.9509 435.286C57.417 429.821 52.0276 424.21 46.7886 418.46C46.1532 417.766 45.5199 417.065 44.8905 416.366C44.4412 415.87 45.1735 415.127 45.6228 415.626C50.7866 421.362 56.0988 426.965 61.5536 432.428C67.0083 437.89 72.6036 443.209 78.3315 448.382C84.0633 453.552 89.9277 458.573 95.9189 463.44C102.039 468.412 108.279 473.243 114.575 477.99C120.162 482.199 126.017 486.271 132.608 488.747C133.407 489.049 134.219 489.323 135.034 489.574C135.674 489.772 135.4 490.779 134.759 490.579Z" fill="#00B7D8"/>
<path d="M47.8166 418.322C47.4267 413.859 44.7508 409.639 40.8438 407.45C39.2742 406.572 37.1228 406.085 35.8086 407.314C34.8408 408.22 34.7359 409.782 35.2366 411.007C35.7374 412.232 36.729 413.186 37.7502 414.033C40.7705 416.545 44.2817 418.463 48.0264 419.652" fill="#00B7D8"/>
<path d="M52.0782 423.628C53.9545 422.409 54.7937 420.099 55.2074 417.896C55.4983 416.349 55.6349 414.734 55.2311 413.21C54.8293 411.688 53.8081 410.261 52.3375 409.696C52.1158 409.609 51.8724 409.544 51.6368 409.582C51.4073 409.621 51.2054 409.754 51.0253 409.904C50.1386 410.645 49.6833 411.81 49.5883 412.962C49.4914 414.116 49.7229 415.27 50.002 416.394C50.6433 418.961 51.5656 421.459 52.7472 423.828" fill="#00B7D8"/>
<path d="M61.7675 432.832C62.5453 432.575 63.147 431.967 63.719 431.381C65.2727 429.786 66.9095 428.028 67.2084 425.822C67.3588 424.709 67.149 423.573 66.8402 422.491C66.3533 420.798 65.5161 419.059 63.9525 418.243C63.436 417.972 62.8323 417.818 62.2643 417.956C61.5676 418.126 61.0352 418.72 60.766 419.383C60.4948 420.046 60.4513 420.777 60.4414 421.493C60.384 425.843 60.6651 428.622 61.7675 432.832Z" fill="#00B7D8"/>
<path d="M72.5259 443.937C72.7258 444.115 73.0365 443.959 73.2463 443.796C75.1998 442.304 76.9059 440.444 77.9806 438.235C79.0553 436.028 79.4631 433.453 78.8574 431.072C78.5843 429.991 78.0439 428.893 77.0603 428.368C75.7975 427.693 74.1449 428.208 73.1691 429.251C72.1914 430.294 71.7718 431.745 71.5778 433.164C71.0553 436.976 71.9242 440.829 72.7891 444.578" fill="#00B7D8"/>
<path d="M84.5927 455.109C85.6872 454.743 86.5165 453.857 87.2646 452.976C89.0914 450.82 90.7619 448.443 91.512 445.718C92.2622 442.993 91.9633 439.854 90.1701 437.666C89.4536 436.792 88.3868 436.057 87.2646 436.214C86.4155 436.334 85.7109 436.938 85.1745 437.607C82.9796 440.35 82.9083 444.196 83.2567 447.691C83.4764 449.874 83.8168 452.048 84.2819 454.193" fill="#00B7D8"/>
<path d="M100.117 467.492C104.822 463.801 107.757 457.948 107.905 451.969C107.963 449.669 107.323 446.946 105.182 446.099C103.796 445.552 102.154 446.027 101.027 447.001C99.9012 447.977 99.2204 449.374 98.7711 450.793C97.1877 455.801 98.1714 461.212 99.1689 466.37" fill="#00B7D8"/>
<path d="M61.3017 433.439C57.8519 431.933 53.9013 432.343 50.1764 432.899C49.2719 433.031 48.2289 433.273 47.8449 434.104C47.5025 434.85 47.8805 435.741 48.4228 436.356C49.3729 437.429 50.8019 438.003 52.2329 438.106C53.6619 438.209 55.0928 437.88 56.4367 437.38C58.5486 436.592 60.5258 435.345 61.9568 433.601" fill="#00B7D8"/>
<path d="M51.8696 423.298C48.4198 421.792 44.4673 422.203 40.7424 422.758C39.8398 422.892 38.7948 423.134 38.4128 423.965C38.0704 424.709 38.4465 425.6 38.9888 426.215C39.9388 427.29 41.3678 427.864 42.7988 427.965C44.2298 428.07 45.6607 427.741 47.0026 427.238C49.1165 426.451 51.0917 425.206 52.5227 423.46" fill="#00B7D8"/>
<path d="M72.4096 443.741C68.0869 441.655 62.7965 441.707 58.5134 443.874C57.5654 444.355 56.5916 445.028 56.3244 446.061C56.0928 446.956 56.4808 447.933 57.1438 448.577C57.8069 449.224 58.7054 449.572 59.6119 449.764C61.698 450.204 63.8949 449.859 65.8742 449.066C67.8514 448.274 69.6327 447.053 71.2893 445.713C71.9504 445.18 72.6293 444.565 72.8054 443.735" fill="#00B7D8"/>
<path d="M84.4453 454.397C80.2513 452.938 75.6279 453.787 71.3329 454.924C69.6684 455.361 67.8495 455.971 67.0182 457.479C65.9851 459.355 67.1212 461.886 69.0074 462.904C70.8936 463.921 73.229 463.711 75.2518 463.007C79.0678 461.675 82.1751 458.724 84.289 455.278" fill="#00B7D8"/>
<path d="M99.3573 466.49C96.1371 465.435 92.5784 465.851 89.3879 466.993C86.1974 468.133 83.3018 469.958 80.4339 471.769C79.0445 472.646 77.5066 473.76 77.376 475.399C77.2869 476.519 77.9381 477.61 78.8426 478.279C79.7471 478.948 80.8713 479.248 81.9856 479.401C87.7531 480.187 93.6056 477.115 97.1662 472.511C98.6823 470.548 99.8857 468.149 99.6363 465.679" fill="#00B7D8"/>
<path d="M117.723 481.557C117.897 481.852 118.349 481.646 118.598 481.413C122.956 477.306 125.11 470.988 124.172 465.076C123.991 463.946 123.697 462.808 123.079 461.844C122.131 460.356 120.52 459.426 118.897 458.737C118.511 458.574 118.097 458.418 117.686 458.483C117.151 458.57 116.748 459.006 116.419 459.439C114.107 462.483 113.351 466.521 113.808 470.315C114.27 474.109 115.853 477.692 117.832 480.961" fill="#00B7D8"/>
<path d="M118.781 481.497C116.283 480.404 113.456 480.25 110.755 480.63C108.057 481.008 105.458 481.895 102.897 482.825C101.009 483.51 99.0615 484.266 97.6899 485.732C96.3183 487.199 95.7186 489.586 96.8606 491.237C97.9749 492.848 100.209 493.166 102.169 493.121C106.011 493.032 109.908 492.072 113.049 489.861C116.188 487.646 118.484 484.086 118.656 480.248" fill="#00B7D8"/>
</g>
</g>
<mask id="mask12_206_15844" style="mask-type:luminance" maskUnits="userSpaceOnUse" x="126" y="310" width="49" height="126">
<path d="M174.526 310.012H126.57V435.414H174.526V310.012Z" fill="white"/>
</mask>
<g mask="url(#mask12_206_15844)">
<g opacity="0.380005">
<path d="M167.405 435.216C163.09 429.591 160.364 422.986 158.138 416.31C156.962 412.775 155.891 409.203 154.801 405.642C153.607 401.745 152.432 397.844 151.312 393.927C149.182 386.477 147.244 378.972 145.508 371.423C143.763 363.841 142.215 356.217 140.871 348.557C139.523 340.898 138.377 333.202 137.433 325.483C137.32 324.545 137.21 323.609 137.101 322.675C137.023 322.01 138.051 321.828 138.128 322.495C139.017 330.162 140.101 337.806 141.386 345.418C142.672 353.028 144.153 360.607 145.833 368.14C147.509 375.673 149.384 383.164 151.45 390.6C153.562 398.196 155.852 405.749 158.237 413.264C160.355 419.932 162.771 426.642 166.71 432.476C167.191 433.187 167.692 433.878 168.21 434.556C168.618 435.089 167.814 435.752 167.405 435.216Z" fill="#00B7D8"/>
<path d="M138.356 325.963C140.62 322.099 140.881 317.11 138.963 313.062C138.192 311.437 136.721 309.794 134.936 310.036C133.624 310.214 132.632 311.423 132.333 312.716C132.032 314.006 132.29 315.358 132.628 316.638C133.639 320.435 135.391 324.031 137.756 327.168" fill="#00B7D8"/>
<path d="M138.756 332.758C140.993 332.851 143.013 331.454 144.625 329.898C145.759 328.804 146.804 327.565 147.36 326.09C147.912 324.616 147.906 322.862 147.035 321.55C146.901 321.348 146.744 321.156 146.529 321.051C146.319 320.948 146.075 320.94 145.844 320.958C144.69 321.049 143.647 321.736 142.901 322.621C142.156 323.505 141.673 324.58 141.252 325.657C140.288 328.123 139.595 330.694 139.186 333.309" fill="#00B7D8"/>
<path d="M141.327 345.871C142.11 346.113 142.952 345.966 143.759 345.82C145.95 345.418 148.297 344.931 149.821 343.306C150.591 342.485 151.076 341.44 151.448 340.379C152.032 338.717 152.357 336.811 151.557 335.243C151.29 334.722 150.886 334.246 150.346 334.032C149.679 333.769 148.901 333.943 148.295 334.327C147.694 334.709 147.233 335.281 146.811 335.859C144.246 339.374 142.864 341.8 141.327 345.871Z" fill="#00B7D8"/>
<path d="M143.671 361.153C143.731 361.412 144.075 361.464 144.344 361.454C146.797 361.367 149.265 360.84 151.42 359.661C153.575 358.483 155.398 356.621 156.283 354.331C156.685 353.29 156.881 352.082 156.384 351.083C155.747 349.804 154.102 349.264 152.701 349.551C151.299 349.836 150.118 350.776 149.138 351.819C146.504 354.626 144.982 358.269 143.515 361.828" fill="#00B7D8"/>
<path d="M147.038 377.251C148.144 377.587 149.332 377.344 150.452 377.057C153.189 376.36 155.929 375.388 158.12 373.599C160.309 371.812 161.88 369.081 161.684 366.26C161.607 365.13 161.164 363.915 160.156 363.392C159.394 362.996 158.47 363.084 157.647 363.319C154.268 364.283 151.984 367.38 150.244 370.43C149.158 372.338 148.18 374.308 147.317 376.323" fill="#00B7D8"/>
<path d="M152.528 396.336C158.501 396.047 164.282 392.977 167.865 388.189C169.242 386.347 170.299 383.756 169.044 381.826C168.231 380.577 166.616 380.015 165.133 380.158C163.651 380.298 162.289 381.042 161.1 381.943C156.91 385.106 154.576 390.09 152.405 394.869" fill="#00B7D8"/>
<path d="M140.598 346.093C138.658 342.867 135.197 340.916 131.84 339.21C131.025 338.794 130.033 338.388 129.241 338.845C128.529 339.253 128.321 340.197 128.408 341.015C128.56 342.438 129.396 343.736 130.5 344.648C131.604 345.559 132.964 346.121 134.35 346.489C136.529 347.069 138.86 347.2 141.037 346.604" fill="#00B7D8"/>
<path d="M138.778 332.367C136.838 329.141 133.376 327.189 130.019 325.481C129.206 325.067 128.214 324.662 127.423 325.119C126.71 325.527 126.502 326.471 126.589 327.288C126.74 328.711 127.575 330.009 128.679 330.922C129.786 331.832 131.146 332.394 132.531 332.763C134.708 333.343 137.042 333.473 139.219 332.877" fill="#00B7D8"/>
<path d="M143.689 360.924C141.373 356.722 137.031 353.7 132.283 352.987C131.232 352.829 130.046 352.815 129.231 353.502C128.524 354.098 128.275 355.119 128.443 356.027C128.611 356.938 129.14 357.745 129.769 358.424C131.214 359.99 133.207 360.981 135.279 361.482C137.351 361.981 139.509 362.016 141.636 361.882C142.482 361.83 143.394 361.722 144.017 361.148" fill="#00B7D8"/>
<path d="M147.334 376.58C144.759 372.962 140.498 370.977 136.338 369.415C134.729 368.811 132.892 368.253 131.342 369.001C129.412 369.933 128.874 372.657 129.822 374.577C130.772 376.499 132.795 377.68 134.853 378.274C138.736 379.4 142.978 378.792 146.697 377.205" fill="#00B7D8"/>
<path d="M152.491 395.077C150.474 392.35 147.335 390.63 144.071 389.711C140.807 388.795 137.391 388.605 134.007 388.425C132.364 388.336 130.466 388.352 129.411 389.61C128.689 390.475 128.588 391.738 128.938 392.809C129.288 393.878 130.029 394.776 130.85 395.544C135.097 399.524 141.647 400.407 147.216 398.715C149.591 397.994 151.96 396.734 153.188 394.576" fill="#00B7D8"/>
<path d="M158.738 417.996C158.71 418.339 159.197 418.432 159.535 418.382C165.465 417.559 170.88 413.656 173.538 408.292C174.045 407.265 174.463 406.168 174.52 405.024C174.609 403.263 173.833 401.571 172.909 400.068C172.689 399.714 172.444 399.346 172.068 399.162C171.581 398.922 170.999 399.045 170.483 399.207C166.835 400.351 163.88 403.205 162.057 406.566C160.234 409.925 159.45 413.761 159.171 417.573" fill="#00B7D8"/>
<path d="M159.636 418.563C158.233 416.226 156.014 414.462 153.594 413.207C151.175 411.955 148.543 411.175 145.914 410.446C143.981 409.914 141.954 409.403 139.987 409.803C138.021 410.205 136.149 411.804 136.123 413.813C136.099 415.77 137.738 417.324 139.361 418.423C142.544 420.574 146.279 422.047 150.118 422.062C153.962 422.074 157.895 420.501 160.256 417.471" fill="#00B7D8"/>
</g>
</g>
<mask id="mask13_206_15844" style="mask-type:luminance" maskUnits="userSpaceOnUse" x="374" y="337" width="78" height="112">
<path d="M451.159 337.329H374.693V448.512H451.159V337.329Z" fill="white"/>
</mask>
<g mask="url(#mask13_206_15844)">
<g opacity="0.380005">
<path d="M382.147 447.947C383.223 440.941 386.107 434.405 389.389 428.179C391.126 424.883 392.965 421.639 394.784 418.387C396.773 414.833 398.774 411.284 400.828 407.763C404.735 401.071 408.817 394.482 413.066 388.004C417.331 381.502 421.769 375.11 426.368 368.837C430.968 362.567 435.732 356.418 440.656 350.395C441.25 349.665 441.85 348.938 442.452 348.21C442.879 347.695 443.718 348.311 443.291 348.829C438.368 354.775 433.6 360.845 428.993 367.038C424.385 373.231 419.94 379.543 415.661 385.968C411.382 392.392 407.267 398.926 403.326 405.562C399.302 412.343 395.431 419.221 391.659 426.142C388.306 432.285 385.133 438.67 383.645 445.552C383.463 446.387 383.31 447.229 383.18 448.072C383.079 448.735 382.044 448.612 382.147 447.947Z" fill="#00B7D8"/>
<path d="M440.944 351.395C445.302 350.358 449.084 347.096 450.681 342.91C451.321 341.228 451.489 339.029 450.082 337.911C449.044 337.085 447.485 337.206 446.345 337.881C445.205 338.558 444.407 339.678 443.716 340.808C441.674 344.165 440.288 347.918 439.659 351.797" fill="#00B7D8"/>
<path d="M436.314 356.379C437.795 358.06 440.204 358.554 442.44 358.642C444.016 358.701 445.633 358.6 447.079 357.98C448.528 357.359 449.791 356.142 450.135 354.606C450.189 354.37 450.218 354.121 450.145 353.893C450.074 353.674 449.912 353.492 449.737 353.337C448.875 352.565 447.655 352.288 446.501 352.361C445.346 352.435 444.239 352.831 443.168 353.272C440.724 354.281 438.387 355.558 436.213 357.072" fill="#00B7D8"/>
<path d="M428.624 367.311C428.992 368.044 429.679 368.55 430.342 369.031C432.149 370.336 434.124 371.697 436.35 371.672C437.477 371.658 438.567 371.286 439.592 370.818C441.198 370.092 442.795 369.007 443.375 367.347C443.567 366.793 443.632 366.173 443.412 365.631C443.141 364.968 442.478 364.528 441.781 364.358C441.087 364.188 440.356 364.249 439.646 364.344C435.335 364.922 432.626 365.607 428.624 367.311Z" fill="#00B7D8"/>
<path d="M419.213 379.57C419.066 379.794 419.266 380.079 419.458 380.265C421.22 381.977 423.308 383.394 425.649 384.134C427.99 384.876 430.597 384.902 432.863 383.958C433.892 383.528 434.9 382.834 435.276 381.785C435.759 380.437 435.011 378.877 433.837 378.064C432.659 377.248 431.163 377.047 429.732 377.058C425.885 377.1 422.201 378.521 418.615 379.924" fill="#00B7D8"/>
<path d="M409.916 393.143C410.438 394.174 411.438 394.863 412.417 395.475C414.816 396.969 417.411 398.275 420.218 398.62C423.022 398.962 426.084 398.21 427.984 396.118C428.748 395.279 429.318 394.117 428.999 393.028C428.758 392.205 428.055 391.599 427.315 391.166C424.283 389.393 420.465 389.885 417.059 390.741C414.931 391.277 412.833 391.932 410.779 392.702" fill="#00B7D8"/>
<path d="M399.933 410.308C404.271 414.422 410.488 416.473 416.424 415.746C418.708 415.467 421.31 414.438 421.833 412.196C422.173 410.747 421.465 409.193 420.337 408.219C419.206 407.248 417.726 406.777 416.255 406.541C411.072 405.704 405.86 407.465 400.904 409.203" fill="#00B7D8"/>
<path d="M427.957 366.94C428.942 363.307 427.959 359.457 426.868 355.853C426.603 354.978 426.211 353.98 425.334 353.723C424.547 353.494 423.719 353.996 423.193 354.622C422.268 355.718 421.908 357.218 422.015 358.649C422.122 360.076 422.656 361.446 423.349 362.701C424.438 364.676 425.956 366.45 427.891 367.609" fill="#00B7D8"/>
<path d="M436.614 356.126C437.6 352.494 436.616 348.644 435.525 345.04C435.26 344.165 434.868 343.168 433.992 342.911C433.204 342.681 432.377 343.184 431.85 343.809C430.926 344.906 430.566 346.406 430.672 347.835C430.779 349.264 431.314 350.634 432.004 351.888C433.095 353.864 434.613 355.637 436.549 356.797" fill="#00B7D8"/>
<path d="M419.387 379.428C420.82 374.85 419.998 369.621 417.227 365.701C416.616 364.834 415.804 363.967 414.745 363.854C413.825 363.755 412.915 364.283 412.376 365.034C411.836 365.782 411.618 366.724 411.563 367.648C411.43 369.774 412.093 371.899 413.164 373.74C414.237 375.583 415.707 377.164 417.275 378.609C417.898 379.183 418.605 379.767 419.452 379.82" fill="#00B7D8"/>
<path d="M410.604 392.891C411.435 388.528 409.919 384.079 408.171 379.994C407.494 378.415 406.626 376.701 405.014 376.101C403.006 375.351 400.666 376.847 399.936 378.86C399.203 380.875 399.754 383.153 400.747 385.053C402.622 388.633 405.992 391.276 409.709 392.863" fill="#00B7D8"/>
<path d="M400.816 409.41C401.39 406.072 400.458 402.61 398.865 399.619C397.269 396.629 395.043 394.03 392.834 391.461C391.761 390.214 390.435 388.852 388.794 388.963C387.672 389.038 386.688 389.84 386.16 390.833C385.629 391.825 385.495 392.983 385.509 394.109C385.572 399.928 389.465 405.27 394.54 408.12C396.703 409.335 399.252 410.174 401.659 409.567" fill="#00B7D8"/>
<path d="M388.585 429.778C388.32 429.992 388.591 430.41 388.86 430.622C393.557 434.333 400.12 435.542 405.832 433.751C406.927 433.408 408.007 432.951 408.87 432.201C410.204 431.045 410.891 429.315 411.334 427.607C411.441 427.203 411.534 426.772 411.408 426.374C411.243 425.858 410.752 425.523 410.277 425.26C406.929 423.417 402.824 423.259 399.136 424.266C395.449 425.274 392.138 427.362 389.191 429.798" fill="#00B7D8"/>
<path d="M388.8 430.812C389.516 428.184 389.255 425.362 388.489 422.747C387.719 420.133 386.462 417.69 385.168 415.291C384.216 413.526 383.182 411.709 381.532 410.567C379.881 409.423 377.433 409.178 375.966 410.549C374.533 411.885 374.547 414.143 374.878 416.075C375.525 419.861 377.045 423.578 379.689 426.361C382.337 429.146 386.197 430.898 390.017 430.508" fill="#00B7D8"/>
</g>
</g>
<path d="M305.972 337.113C285.186 337.996 262.692 344.268 247.476 358.457C246.191 359.656 244.921 360.976 244.359 362.641C243.539 365.081 244.382 367.728 245.16 370.178C254.15 398.493 254.635 429.446 246.532 458.028C244.41 465.509 241.703 472.902 240.972 480.644C240.244 488.387 241.784 496.767 247.132 502.412C249.435 504.84 252.321 506.641 255.306 508.152C271.947 516.561 291.486 516.249 310.115 515.475C321.6 514.998 333.198 514.396 344.256 511.255C355.314 508.114 365.933 502.172 372.65 492.848C379.583 483.223 381.753 471.002 382.633 459.176C384.634 432.314 380.991 405.38 380.484 378.449C380.337 370.617 380.502 362.546 383.558 355.332C369.365 345.517 352.401 339.553 335.476 336.187C331.842 341.026 326.744 343.229 320.699 343.538C314.657 343.846 310.079 341.556 305.972 337.113Z" fill="#FFCE45"/>
<path d="M249.778 477.262C250.451 469.519 244.953 460.561 246.912 453.079C251.888 434.065 261.275 415.573 259.257 395.933C263.524 398.073 267.391 400.899 269.592 405.117C271.399 408.584 271.864 412.618 271.91 416.547C271.997 424.394 270.532 432.177 270.221 440.018C269.911 447.86 270.896 456.125 275.31 462.546C280.408 469.958 289.196 473.699 297.768 475.993C303.538 477.539 309.42 478.6 315.31 479.528C322.083 480.597 328.973 481.493 335.771 480.618C342.57 479.744 349.359 476.911 353.826 471.601C360.908 463.179 360.698 450.95 361.972 439.92C363.372 427.801 367.025 415.959 372.686 405.218C374.38 401.996 376.373 398.75 379.437 396.86C379.445 396.854 379.455 396.852 379.463 396.848C380.516 416.515 391.9 437.164 390.55 456.785C389.737 468.612 377.778 479.842 371.376 489.463C365.171 498.792 355.366 504.731 345.153 507.872C334.942 511.015 324.23 511.613 313.626 512.092C296.422 512.866 278.38 513.179 263.013 504.769C260.256 503.261 257.59 501.458 255.464 499.027C250.526 493.384 249.103 485.002 249.778 477.262Z" fill="#FFA748"/>
<path d="M374.904 349.989C368.484 378.531 374.014 412.208 381.143 440.58C383.263 449.009 382.815 458.246 379.795 462.537C376.668 466.975 371.27 469.625 366.34 471.897C354.88 477.178 346.918 483.408 338.17 492.503C334.667 496.147 331.452 500.253 329.936 505.077C328.424 509.902 328.864 515.571 332.086 519.468C335.169 523.191 340.262 524.732 345.095 524.727C349.93 524.721 354.647 523.383 359.353 522.282C367.235 520.436 375.266 519.232 383.342 518.684C390.328 518.211 397.44 518.215 404.161 516.246C413.727 513.443 421.945 506.636 426.982 498.035C432.015 489.433 433.937 479.151 432.927 469.235C432.387 463.919 431.041 458.723 429.656 453.562C423.916 432.19 416.001 413.478 408.749 392.572C405.782 384.014 400.327 374.357 395.1 366.963C389.871 359.568 383.831 351.515 374.904 349.989Z" fill="#FFCE45"/>
<path d="M372.564 404.343C368.692 386.709 370.066 367.197 374.207 349.8C374.422 348.894 375.818 349.279 375.602 350.186C372.651 362.586 371.511 375.364 372.13 388.098C372.388 393.385 372.821 398.776 373.957 403.96C374.157 404.868 372.764 405.254 372.564 404.343Z" fill="white"/>
<path d="M262.885 347.843C253.51 348.928 243.259 359.851 236.773 369.296C230.285 378.739 225.876 389.423 221.511 400.014L197.001 459.507C194.469 465.653 191.92 471.853 190.687 478.387C189.668 483.81 189.575 489.405 190.418 494.86C191.109 499.327 192.48 503.806 195.275 507.361C199.223 512.386 205.46 514.943 211.435 517.213C224.043 522.005 236.977 526.5 250.434 527.426C255.738 527.792 261.06 527.598 266.373 527.406C281.045 526.87 295.78 526.328 310.216 523.652C311.255 523.46 312.334 523.238 313.169 522.591C314.034 521.92 314.519 520.887 314.974 519.893L319.331 510.371C320.142 508.6 320.971 506.727 320.815 504.786C320.605 502.181 318.687 500.061 316.77 498.288C311.679 493.581 305.82 489.708 299.497 486.87C286.485 481.033 271.627 479.574 259.406 472.228C257.925 471.339 256.482 470.355 255.297 469.1C250.794 464.317 251.059 456.613 253.587 450.549C256.114 444.483 257.884 438.692 260.366 432.609C265.886 419.077 268.643 410.246 268.946 398.682C269.375 382.214 268.142 363.455 262.885 347.843Z" fill="#FFCE45"/>
<path d="M268.869 405.119C270.069 386.253 268.62 365.879 262.187 348.037C261.873 347.16 263.268 346.78 263.583 347.653C270.051 365.598 271.523 386.149 270.314 405.119C270.257 406.046 268.81 406.052 268.869 405.119Z" fill="white"/>
<path d="M361.89 529.906H560.664L570.265 391.899H375.474L361.89 529.906Z" fill="#26476D"/>
<path d="M368.65 529.906H567.422L577.025 391.899H382.234L368.65 529.906Z" fill="#C5E1F9"/>
<mask id="mask14_206_15844" style="mask-type:luminance" maskUnits="userSpaceOnUse" x="460" y="449" width="25" height="24">
<path d="M484.707 449.035H460.968V472.773H484.707V449.035Z" fill="white"/>
</mask>
<g mask="url(#mask14_206_15844)">
<g opacity="0.270004">
<path d="M460.968 460.904C460.968 467.461 466.284 472.773 472.837 472.773C479.395 472.773 484.707 467.461 484.707 460.904C484.707 454.349 479.395 449.035 472.837 449.035C466.284 449.035 460.968 454.349 460.968 460.904Z" fill="#26476D"/>
</g>
</g>
<mask id="mask15_206_15844" style="mask-type:luminance" maskUnits="userSpaceOnUse" x="368" y="415" width="208" height="115">
<path d="M575.357 415.758H368.651V529.793H575.357V415.758Z" fill="white"/>
</mask>
<g mask="url(#mask15_206_15844)">
<g opacity="0.0700073">
<path d="M575.357 415.756L567.422 529.789H368.65L371.303 502.836C475.926 489.31 547.988 438.278 575.357 415.756Z" fill="#26476D"/>
</g>
</g>
</svg>
