<svg width="77" height="55" viewBox="0 0 77 55" fill="none" xmlns="http://www.w3.org/2000/svg">
<path d="M67.1831 29.5212C67.1795 29.5878 67.1697 29.6232 67.1626 29.6861C66.8652 30.4844 66.5652 31.255 66.2626 32.055C66.2332 32.1195 66.2062 32.1545 66.1535 32.225C66.0877 32.3364 66.0477 32.4122 66.0077 32.488C66.0077 32.488 66.0151 32.4947 65.988 32.5027C65.5428 32.9685 65.1247 33.4264 64.7067 33.8843C64.6791 33.8861 64.6561 33.8973 64.6005 33.9403C64.1216 34.2115 63.6798 34.4603 63.238 34.7091C63.1925 34.7216 63.147 34.734 63.0544 34.7646C62.4295 34.9213 61.8519 35.06 61.2743 35.1987C61.1605 35.2002 61.0467 35.2017 60.8621 35.2031C60.3513 35.2058 59.9113 35.2085 59.4712 35.2112C59.4104 35.2032 59.3495 35.1952 59.2336 35.1726C58.9487 35.1227 58.7188 35.0876 58.489 35.0524C58.454 35.0426 58.419 35.0328 58.3356 35.0048C57.9213 34.86 57.5554 34.7335 57.1895 34.607C57.15 34.582 57.1105 34.5569 57.0345 34.5097C56.9534 34.4736 56.9089 34.4597 56.8643 34.4457C56.8643 34.4457 56.8551 34.453 56.8481 34.426C56.5757 34.2225 56.3103 34.0461 56.0449 33.8696C56.0408 33.8426 56.0268 33.8224 55.9752 33.7781C55.8149 33.6279 55.6823 33.5085 55.5497 33.3892C55.5125 33.3413 55.4753 33.2934 55.4113 33.2076C55.1689 32.8842 54.9533 32.5988 54.7377 32.3133C54.7085 32.2499 54.6793 32.1865 54.6348 32.0853C54.6095 32.0228 54.5914 32.0084 54.5651 32.0045C54.5651 32.0045 54.5652 32.0038 54.5631 31.9743C54.2564 31.1024 53.9147 30.271 53.659 29.414C53.4663 28.7678 53.3837 28.0887 53.2521 27.4242C53.2521 27.3367 53.2521 27.2492 53.2434 27.13C53.1997 26.5978 53.1647 26.0973 53.1117 25.5691C53.0941 25.4011 53.0945 25.261 53.0965 25.049C53.0896 23.8352 53.0928 22.6929 53.0662 21.5513C53.0558 21.108 52.9781 20.6662 52.931 20.2238C52.9319 20.1875 52.9327 20.1511 52.9322 20.0535C52.8751 19.688 52.8195 19.3839 52.7639 19.0798C52.762 19.0431 52.76 19.0065 52.7481 18.944C52.5181 17.6836 52.005 16.6217 50.9268 15.9075C50.462 15.5996 49.9466 15.4498 49.3556 15.5455C49.2935 15.5623 49.257 15.5609 49.1633 15.5627C48.6615 15.8093 48.2167 16.0526 47.772 16.2958C47.7493 16.3092 47.7266 16.3226 47.6722 16.3664C47.4977 16.6103 47.3546 16.8237 47.2116 17.0371C47.1823 17.0742 47.1529 17.1113 47.0984 17.1874C47.0329 17.3251 46.9927 17.4238 46.9525 17.5226C46.9228 17.5792 46.8931 17.6359 46.8418 17.7393C46.7552 17.9648 46.6663 18.1387 46.6289 18.3231C46.2913 19.986 46.3752 21.6553 46.6039 23.3198C46.6292 23.504 46.8284 23.7385 47.0051 23.8145C47.6485 24.0911 48.1753 24.4949 48.5938 25.0495C48.5938 25.0495 48.5935 25.0507 48.5951 25.0767C48.648 25.1693 48.6994 25.2361 48.7508 25.3028C48.7508 25.3028 48.7551 25.2952 48.7532 25.3225C48.7793 25.3869 48.8074 25.424 48.8355 25.461C48.8484 25.5067 48.8613 25.5523 48.8957 25.6439C49.25 26.4588 49.3072 27.2598 49.195 28.0805C49.1857 28.116 49.1764 28.1515 49.1481 28.2349C48.8109 28.8389 48.4926 29.395 48.1744 29.9512C48.1744 29.9512 48.1828 29.9571 48.154 29.9596C47.9805 30.0951 47.8359 30.2282 47.6913 30.3612C47.6483 30.3806 47.6054 30.3999 47.5223 30.4389C47.4155 30.5073 47.3488 30.556 47.282 30.6048C47.2373 30.62 47.1925 30.6353 47.1012 30.6699C46.3611 30.9659 45.6386 31.1135 44.9085 30.9345C44.3778 30.8043 43.8752 30.5593 43.3601 30.3655C43.3601 30.3655 43.3584 30.3678 43.3496 30.3429C43.2672 30.2748 43.1937 30.2316 43.1203 30.1884C43.114 30.161 43.098 30.1414 43.044 30.1006C42.9118 29.9796 42.8079 29.8878 42.704 29.7959C42.6677 29.7459 42.6313 29.6959 42.5676 29.608C42.3119 29.0955 42.006 28.6409 41.8773 28.1406C41.7517 27.6521 41.807 27.1171 41.7828 26.6025C41.7912 26.5669 41.7995 26.5313 41.824 26.4455C42.0734 25.8925 42.3065 25.3897 42.5396 24.8868C42.562 24.8716 42.5844 24.8564 42.6393 24.8136C42.7943 24.6574 42.9169 24.529 43.0394 24.4005C43.067 24.3981 43.0888 24.3856 43.1363 24.3404C43.2137 24.2737 43.2596 24.2295 43.3055 24.1853C43.3055 24.1853 43.3027 24.1686 43.3341 24.1709C43.6274 24.03 43.8783 23.8582 44.1542 23.7506C44.5155 23.6097 44.6057 23.3844 44.5932 23.0055C44.5274 21.0032 44.2797 18.9852 44.9937 17.0344C45.0228 16.9713 45.0519 16.9081 45.1039 16.8011C45.2194 16.55 45.312 16.3428 45.4046 16.1356C45.4046 16.1356 45.4035 16.1344 45.4265 16.1191C45.6282 15.8163 45.8068 15.5289 45.9854 15.2415C45.9854 15.2415 45.9783 15.2346 46.0046 15.2303C46.0779 15.1589 46.125 15.0918 46.172 15.0246C46.172 15.0246 46.1641 15.0147 46.1941 15.0068C46.4936 14.7493 46.7632 14.4997 47.0327 14.2501C47.0573 14.2391 47.0818 14.2281 47.1433 14.195C47.2977 14.0929 47.4152 14.0129 47.5328 13.933C47.5783 13.9201 47.6239 13.9072 47.7151 13.8745C47.9576 13.7726 48.1546 13.6906 48.3516 13.6085C48.4123 13.6005 48.4731 13.5926 48.5954 13.5777C49.3297 13.598 50.0322 13.5135 50.6668 13.6831C51.3161 13.8566 51.8989 14.2789 52.5108 14.5924C52.5108 14.5924 52.5202 14.584 52.5244 14.6125C52.7696 14.8681 53.0107 15.0951 53.2518 15.3222C53.2518 15.3222 53.2559 15.3165 53.2571 15.3465C53.5002 15.7139 53.7421 16.0513 53.9839 16.3887C53.9839 16.3887 53.9889 16.3786 53.9884 16.4125C54.126 16.7233 54.2643 17.0002 54.4026 17.2772C54.4026 17.2772 54.4011 17.2791 54.4014 17.311C54.5673 18.0302 54.7329 18.7174 54.8985 19.4046C54.8967 19.4413 54.8949 19.4781 54.8946 19.5764C54.9505 20.1331 55.0049 20.6282 55.0594 21.1233C55.0567 21.1849 55.054 21.2464 55.059 21.3381C55.1059 23.0129 55.1451 24.6577 55.2015 26.331C55.2207 26.4997 55.2227 26.6398 55.2333 26.814C55.2745 28.1086 55.5048 29.3283 56.0196 30.5123C56.0535 30.5767 56.0654 30.6223 56.0984 30.7115C56.3084 31.0373 56.4972 31.3196 56.686 31.6018C56.686 31.6018 56.6874 31.6004 56.686 31.6011C57.1333 32.2965 57.8045 32.7009 58.5595 32.953C60.1756 33.4927 61.7455 33.3762 63.2255 32.4953C64.2005 31.9149 64.6586 30.9556 64.979 29.9312C65.1601 29.3523 65.2389 28.7414 65.3568 28.1103C65.3565 28.0395 65.3631 28.0035 65.3836 27.9135C65.4926 26.9996 65.4614 26.9654 64.6428 26.7791C64.2245 26.6839 63.8138 26.5549 63.3997 26.4412C63.3611 26.4152 63.3226 26.3891 63.2465 26.3378C63.0013 26.189 62.7936 26.0654 62.586 25.9418C62.5566 25.9141 62.5273 25.8864 62.4633 25.8305C62.2097 25.6279 61.9908 25.4535 61.7718 25.279C61.768 25.2523 61.7544 25.2321 61.7038 25.188C61.5702 25.0654 61.4639 24.9734 61.3576 24.8815C61.2404 24.7524 61.1232 24.6234 60.976 24.4565C60.8112 24.2728 60.6764 24.127 60.5417 23.9811C60.5417 23.9811 60.5372 23.9873 60.5355 23.9573C60.2924 23.6139 60.0509 23.3006 59.8094 22.9873C59.791 22.9471 59.7726 22.9069 59.7331 22.8263C59.5251 22.5024 59.3382 22.219 59.1514 21.9356C59.1514 21.9356 59.1467 21.942 59.1474 21.9106C58.7142 21.1032 58.2804 20.3272 57.8465 19.5511C57.8465 19.5511 57.8439 19.5173 57.834 19.4743C57.4953 18.5787 57.1665 17.7261 56.8377 16.8736C56.8847 16.775 56.9317 16.6765 57.0282 16.5553C57.2517 16.4403 57.404 16.3506 57.3303 16.0978C57.0004 14.9672 56.6814 13.8334 56.3585 12.7008C56.3496 12.6296 56.3408 12.5583 56.3147 12.4369C56.264 12.273 56.2305 12.1593 56.197 12.0455C56.1963 12.0089 56.1956 11.9723 56.1915 11.8793C56.139 11.6509 56.0898 11.479 56.0406 11.3071C56.0396 11.2709 56.0387 11.2347 56.0289 11.1726C55.9837 10.8892 55.9474 10.6317 55.8911 10.3505C55.8717 10.2904 55.8723 10.254 55.8646 10.1913C55.8109 9.62342 55.7224 9.08127 55.7294 8.54038C55.7406 7.68492 55.8159 6.83031 55.8587 5.94107C55.8626 5.87185 55.872 5.83689 55.9017 5.75428C55.9884 5.47275 56.0492 5.2371 56.1223 5.00531C56.4347 4.01478 57.0151 3.19434 57.7426 2.46842C57.7957 2.4331 57.8488 2.39779 57.9385 2.33549C58.0685 2.22998 58.1618 2.15147 58.2552 2.07296C58.2552 2.07296 58.2454 2.0679 58.2755 2.06845C58.3709 2.01595 58.4362 1.9629 58.5015 1.90984C58.5015 1.90984 58.4913 1.9044 58.5237 1.90409C58.7618 1.77089 58.9675 1.63802 59.1732 1.50514C59.1732 1.50514 59.2037 1.50115 59.2436 1.48929C59.4834 1.37433 59.6833 1.27123 59.8833 1.16813C59.9289 1.1559 59.9745 1.14367 60.067 1.11249C60.3368 1.00883 60.5597 0.924102 60.7826 0.839378C60.8763 0.825825 60.9699 0.812275 61.1223 0.784997C61.7024 0.68378 62.2236 0.596287 62.7448 0.508794C62.7813 0.509224 62.8177 0.509653 62.9071 0.502321C63.0791 0.335484 63.1981 0.176406 63.3171 0.0173298C64.0278 0.0211042 64.7385 0.0248763 65.5034 0.0554917C65.5575 0.784191 65.5575 1.48605 65.5575 2.2322C64.8069 2.2322 64.0751 2.238 63.3437 2.22473C63.2541 2.22311 63.1662 2.1194 63.0776 2.06301C63.0749 2.02701 63.0722 1.99101 63.0695 1.89575C62.995 1.74692 62.9194 1.57856 62.8462 1.57956C61.6341 1.59615 60.4907 1.86957 59.467 2.55016C59.467 2.55016 59.4735 2.55452 59.4431 2.55465C59.2664 2.66154 59.1201 2.7683 58.9737 2.87505C58.9737 2.87505 58.9828 2.88034 58.9527 2.88058C58.8329 2.96291 58.7433 3.04501 58.6536 3.1271C58.6043 3.16379 58.5551 3.20047 58.4688 3.2644C58.2574 3.47972 58.0828 3.66779 57.9082 3.85586C57.9082 3.85586 57.9159 3.86483 57.8874 3.86962C57.7146 4.08863 57.5703 4.30284 57.4259 4.51705C57.4259 4.51705 57.4282 4.51869 57.4037 4.53347C56.4736 6.45344 56.7042 8.42866 57.0144 10.4416C57.0233 10.5602 57.0357 10.6463 57.0407 10.7647C57.1909 11.5406 57.3486 12.2839 57.5054 13.0555C57.5149 13.1196 57.5253 13.1555 57.5317 13.2135C57.5435 13.2597 57.5592 13.284 57.5722 13.3302C57.579 13.3795 57.5886 13.4069 57.5936 13.4669C57.6712 13.778 57.7535 14.0566 57.8345 14.3639C57.8449 14.4285 57.8566 14.4646 57.8656 14.519C57.8687 14.5649 57.8853 14.5818 57.915 14.5844C57.9175 14.5805 57.9104 14.5863 57.9092 14.6186C57.9965 14.9332 58.0995 15.2119 58.1698 15.4987C58.2593 15.8638 58.4686 15.983 58.8506 15.8795C58.9624 15.8904 59.0443 15.8946 59.1297 15.9308C59.3565 16.5651 59.5798 17.1674 59.8027 17.7938C59.8274 17.8575 59.8525 17.8969 59.8783 17.9669C60.1261 18.4942 60.373 18.991 60.6219 19.5118C60.6514 19.5738 60.6789 19.6117 60.7083 19.6783C60.8675 19.9645 61.0248 20.2221 61.1845 20.4744C61.1869 20.4692 61.1797 20.4781 61.1827 20.5065C61.322 20.7335 61.4584 20.932 61.597 21.1274C61.5992 21.1242 61.5931 21.1291 61.5969 21.1573C61.8736 21.5458 62.1465 21.9061 62.4261 22.2856C62.4472 22.3299 62.4684 22.3459 62.5005 22.3805C62.7754 22.6892 63.0463 22.9703 63.3175 23.2513C63.3179 23.2511 63.3175 23.2517 63.3263 23.2775C63.4904 23.4257 63.6457 23.5481 63.805 23.6667C63.809 23.6629 63.7993 23.6684 63.8102 23.6929C63.9245 23.7823 64.028 23.8472 64.1336 23.909C64.1357 23.906 64.1298 23.9105 64.143 23.9355C64.9469 24.5078 65.8505 24.4813 66.7511 24.4706C68.0841 24.4547 69.1141 23.8438 69.9453 22.8435C69.9437 22.8421 69.9465 22.8452 69.9728 22.8367C70.2798 22.4507 70.5606 22.0734 70.8601 21.6836C70.8972 21.6307 70.9154 21.5902 70.9586 21.5366C71.3196 20.9273 71.6556 20.3312 71.9916 19.7352C72.0159 19.6957 72.0403 19.6562 72.0885 19.5781C72.1519 19.4402 72.1914 19.3409 72.231 19.2417C72.2573 19.2032 72.2836 19.1647 72.3352 19.0866C72.4564 18.8135 72.5523 18.58 72.6483 18.3466C72.6483 18.3466 72.6436 18.3428 72.6694 18.3299C73.0056 17.5636 73.3159 16.8101 73.6262 16.0567C73.6262 16.0567 73.6273 16.0545 73.6456 16.0462C73.685 16.0214 73.698 15.9999 73.7029 15.9735C73.7029 15.9735 73.7077 15.9741 73.7451 15.9744C74.0523 15.8926 74.4393 16.173 74.5671 15.6511C74.8448 14.5177 75.2374 13.4083 75.4517 12.2645C75.703 10.9228 75.8148 9.55501 75.9871 8.19855C75.9925 7.92389 75.998 7.64924 76.0039 7.30038C75.9721 6.81971 75.9803 6.40514 75.9006 6.00823C75.578 4.40229 74.6916 3.21085 73.2154 2.47464C73.2154 2.47464 73.2158 2.47356 73.2084 2.45758C73.1832 2.42017 73.1619 2.41569 73.137 2.42817C73.073 2.39042 73.009 2.35268 72.9003 2.2887C72.3207 2.09315 71.7857 1.92383 71.2508 1.7545C71.2164 1.74282 71.182 1.73114 71.0954 1.70113C70.607 1.63608 70.1708 1.58935 69.7347 1.54263C69.6756 2.23365 69.6755 2.24414 69.0534 2.24252C68.4276 2.24089 67.8018 2.21548 67.1759 2.2005C67.1753 1.53171 67.1746 0.862921 67.2019 0.149532C67.3435 0.0753303 67.457 0.0457285 67.5705 0.0161265C67.9815 0.0174447 68.3925 0.0187601 68.8763 0.0194991C69.1177 0.0126141 69.2863 0.00630832 69.4549 0C69.4854 0.00954854 69.5159 0.0190947 69.5804 0.0592488C69.6586 0.474539 69.8942 0.566877 70.2539 0.581678C71.7927 0.644966 73.1849 1.14498 74.4295 2.05421C74.5927 2.17341 74.7623 2.28374 74.9289 2.39818C74.9289 2.39818 74.9338 2.39253 74.9405 2.42026C75.6236 3.03587 76.1766 3.72107 76.4874 4.56651C76.6872 5.11003 76.8188 5.67864 76.9809 6.23602C76.9793 6.27314 76.9778 6.31026 76.9773 6.40994C76.9856 7.34901 76.9928 8.22553 77 9.10205C76.9909 9.18895 76.9818 9.27584 76.9607 9.42278C76.9162 9.72473 76.903 9.97106 76.8484 10.2078C76.4037 12.1374 75.9552 14.0661 75.4956 15.9921C75.4454 16.2026 75.4233 16.3675 75.6492 16.4614C75.9626 16.5916 75.9615 16.8353 75.8941 17.1041C75.8578 17.2488 75.8223 17.3957 75.7651 17.5327C75.3788 18.4571 74.9868 19.3791 74.5967 20.3019C74.5709 20.3406 74.5451 20.3793 74.4911 20.4546C74.2087 20.9462 73.9546 21.4013 73.7004 21.8564C73.7004 21.8564 73.7062 21.8603 73.6798 21.8708C73.2591 22.472 72.8648 23.0627 72.4704 23.6535C72.4704 23.6535 72.4777 23.6602 72.4506 23.6672C72.331 23.8043 72.2385 23.9344 72.1459 24.0644C72.1459 24.0644 72.1517 24.0693 72.125 24.0773C72.0039 24.2148 71.9096 24.3442 71.8153 24.4737C71.7428 24.5427 71.6703 24.6118 71.564 24.7133C71.1612 25.0893 70.7922 25.4328 70.4233 25.7763C70.4233 25.7763 70.4355 25.7823 70.4021 25.7831C69.763 26.0836 69.1574 26.3833 68.5518 26.683C68.5156 26.6852 68.4794 26.6875 68.387 26.6974C68.1101 26.7683 67.8819 26.814 67.6716 26.9024C67.5676 26.9461 67.43 27.0628 67.4219 27.1565C67.3762 27.6806 67.3655 28.2077 67.3429 28.7338C67.3347 28.7693 67.3265 28.8048 67.321 28.8675C67.2748 29.0932 67.2259 29.2915 67.1831 29.5212ZM43.6433 25.7118C43.2549 26.195 43.0818 26.7379 43.1047 27.3656C43.1648 29.0115 44.6947 30.2126 46.424 29.5711C47.9635 29 48.4888 27.2662 47.5787 25.8686C46.8116 24.6907 44.804 24.3241 43.6433 25.7118Z" fill="#FA7E23"/>
<path d="M71.3055 15.7786C70.1086 16.8659 68.7725 17.6383 67.1774 17.8268C65.3667 18.0408 63.837 17.3534 62.5234 16.1581C62.1048 15.7773 61.7596 15.3126 61.4039 14.8677C61.3 14.7378 61.2759 14.544 61.2584 14.3521C62.8395 15.8246 64.6808 16.6058 66.8171 16.55C68.9435 16.4945 70.7946 15.7637 72.2014 14.0488C72.3951 14.2753 72.3522 14.5332 72.1991 14.7381C71.9318 15.0959 71.6194 15.4199 71.3055 15.7786Z" fill="#91BB56"/>
<path d="M26.1258 9.88907C26.3343 11.0694 26.5311 12.224 26.7458 13.406C26.7617 13.4696 26.7598 13.5059 26.7572 13.6056C26.7619 13.8324 26.7609 13.9961 26.7737 14.1588C26.9439 16.3146 26.8302 18.4577 26.4146 20.5771C26.2428 21.4535 25.9587 22.3078 25.7256 23.1722C25.712 23.2023 25.6985 23.2323 25.6593 23.3052C25.2725 24.0791 24.9114 24.8103 24.5502 25.5414C24.5502 25.5414 24.532 25.5604 24.5106 25.5865C24.4762 25.6411 24.4633 25.6695 24.4504 25.6979C24.4504 25.6979 24.4581 25.6998 24.4365 25.7048C24.4051 25.7359 24.3952 25.7619 24.3854 25.7879C24.3854 25.7879 24.3804 25.787 24.3577 25.801C24.0757 26.1585 23.8164 26.5021 23.5571 26.8456C23.5571 26.8456 23.5614 26.8498 23.5399 26.8533C23.5064 26.8818 23.4943 26.9067 23.4822 26.9317C23.4077 27.0009 23.3331 27.0702 23.2242 27.1719C23.07 27.3323 22.9503 27.4603 22.8305 27.5883C22.8305 27.5883 22.8263 27.5859 22.8076 27.5935C22.764 27.6167 22.7498 27.6391 22.7462 27.6682C22.7462 27.6682 22.7446 27.6673 22.7241 27.6728C22.6883 27.7011 22.6731 27.7239 22.6579 27.7467C22.6579 27.7467 22.6629 27.7486 22.6349 27.753C22.5035 27.8575 22.4 27.9577 22.2965 28.0579C22.2965 28.0579 22.2711 28.0621 22.2418 28.0752C22.1978 28.111 22.183 28.1337 22.1683 28.1563C22.1683 28.1563 22.172 28.1582 22.1429 28.1614C21.4718 28.568 20.8299 28.9715 20.1881 29.3749C20.1881 29.3749 20.1558 29.378 20.1119 29.3865C17.6788 30.4759 15.1501 30.8731 12.5528 30.8841C8.50447 30.9013 4.45602 30.8901 0.407627 30.8895C0.271752 30.8895 0.135875 30.8746 0 30.8667C0 30.8667 0.00343248 30.8618 0.00538466 30.8227C0.00761644 20.8298 0.00789605 10.8761 0.0081781 0.922376C0.0081781 0.922376 0.00380441 0.918687 0.0436215 0.915856C1.30876 0.909837 2.53417 0.896267 3.7594 0.905434C7.2572 0.9316 10.7558 0.931578 14.2523 1.01416C15.9304 1.05379 17.5752 1.41787 19.139 2.04479C19.9549 2.3719 20.7279 2.80619 21.5202 3.19208C21.5202 3.19208 21.5429 3.21403 21.5709 3.24251C22.1155 3.68864 22.6322 4.10629 23.1489 4.52394C23.1489 4.52394 23.1524 4.51747 23.1572 4.54637C23.6738 5.21744 24.1856 5.85961 24.6973 6.50179C24.6973 6.50179 24.7048 6.53467 24.717 6.5753C24.8557 6.81926 24.9823 7.0226 25.1088 7.22594C25.1088 7.22594 25.1134 7.21655 25.1123 7.2506C25.4419 8.10693 25.7725 8.92922 26.1032 9.75151C26.1069 9.78877 26.1105 9.82604 26.1258 9.88907ZM19.6326 12.3458C19.5801 12.1345 19.5324 11.9219 19.4745 11.712C19.0651 10.2278 18.4086 8.88951 17.2293 7.84965C15.7591 6.55318 13.9924 6.01334 12.0894 5.9299C10.3884 5.85533 8.68197 5.90582 6.97792 5.90335C6.90089 5.90324 6.82382 5.92504 6.71479 5.94145C6.71479 6.12235 6.71479 6.28346 6.71479 6.44456C6.71491 10.3435 6.71503 14.2425 6.71515 18.1414C6.71522 20.5817 6.72396 23.022 6.70646 25.4621C6.70369 25.8483 6.82439 25.9431 7.19222 25.9368C8.41882 25.9161 9.64682 25.9567 10.8726 25.9193C11.7405 25.8929 12.6171 25.8429 13.47 25.6915C16.6376 25.1292 18.622 23.2274 19.4507 20.151C20.1385 17.5977 20.1079 15.0067 19.6326 12.3458Z" fill="#8DBB4C"/>
<path d="M17.6707 42.2541C17.6439 42.1128 17.5954 41.9718 17.594 41.8304C17.5864 41.0593 17.5904 40.2882 17.5904 39.4524C18.2681 39.4524 18.9137 39.4524 19.6285 39.4536C19.7549 39.3703 19.8121 39.2859 19.8693 39.2014C19.8743 38.0006 19.8792 36.7998 19.8868 35.5301C19.8889 35.3743 19.8883 35.2874 19.8878 35.2005C19.8878 35.2005 19.8817 35.195 19.9221 35.1925C21.299 35.1892 22.6355 35.1883 23.9721 35.1875C23.9721 35.1875 23.971 35.1939 23.9712 35.2326C23.9714 36.6535 23.9714 38.0357 23.9714 39.4382C24.1445 39.4382 24.2632 39.4382 24.3819 39.4382C25.3595 39.4448 26.3371 39.4515 27.3568 39.4954C27.4005 40.4305 27.4021 41.3284 27.4038 42.2263C27.4038 42.2263 27.4072 42.2299 27.3673 42.2291C26.3335 42.2296 25.3396 42.2352 24.3457 42.2288C24.1097 42.2273 23.9657 42.2543 23.967 42.552C23.9784 45.0845 23.9688 47.6171 23.9877 50.1494C23.9908 50.5803 24.0825 51.0174 24.4581 51.3187C24.4989 51.3651 24.5397 51.4115 24.6143 51.4924C25.5493 52.0576 26.4421 51.8862 27.3324 51.4952C27.3324 51.4952 27.3559 51.5006 27.3749 51.5312C27.3996 52.4566 27.4164 53.3517 27.3989 54.2461C27.3963 54.3763 27.2554 54.5737 27.1336 54.619C26.718 54.7734 26.2823 54.8738 25.8542 54.9948C25.7404 54.9954 25.6266 54.996 25.4419 54.9977C23.7092 55.0465 22.1181 54.8653 20.8586 53.6081C20.8586 53.6081 20.8624 53.6022 20.8535 53.5758C20.7195 53.3587 20.5438 53.1837 20.4785 52.9743C20.257 52.2629 20.0744 51.5393 19.8769 50.8203C19.879 48.2006 19.8811 45.5809 19.8853 42.8963C19.8814 42.794 19.8756 42.7565 19.8697 42.7191C19.8743 42.6833 19.8789 42.6474 19.8856 42.551C19.8006 42.4041 19.715 42.2451 19.626 42.2431C18.9746 42.2291 18.3226 42.2465 17.6707 42.2541Z" fill="#FD7C20"/>
<path d="M68.5888 54.8351C68.5149 54.8365 68.4789 54.8309 68.4159 54.83C67.7724 54.693 67.1354 54.608 66.5454 54.3937C65.9282 54.1695 65.3563 53.821 64.7361 53.5232C64.7077 53.5195 64.7081 53.5175 64.6977 53.4941C64.6144 53.4292 64.5416 53.3876 64.4689 53.3461C64.4689 53.3461 64.4626 53.3524 64.457 53.3244C64.1283 52.9881 63.8053 52.6799 63.4823 52.3716C63.4823 52.3716 63.4815 52.3724 63.4763 52.3444C63.3334 52.1165 63.1671 51.9304 63.0634 51.7142C62.7268 51.0124 62.4132 50.2996 62.0907 49.5911C62.0892 49.5546 62.0877 49.5182 62.082 49.4235C61.7163 47.5267 61.7487 45.6949 62.2707 43.8949C62.4687 43.2119 62.8075 42.5698 63.0821 41.909C63.0821 41.909 63.0747 41.9013 63.1023 41.8942C63.3259 41.6182 63.5218 41.3494 63.7178 41.0806C63.7409 41.0633 63.764 41.0461 63.8207 41.0003C64.3041 40.6014 64.7537 40.2309 65.2034 39.8604C65.2034 39.8604 65.1993 39.857 65.2254 39.8593C65.2887 39.8327 65.3258 39.8038 65.3629 39.775C65.4075 39.7595 65.4521 39.744 65.5417 39.7094C66.2045 39.4954 66.8103 39.2267 67.443 39.1242C68.2664 38.9909 69.1112 38.9897 69.9467 38.9316C70.0596 38.9421 70.1725 38.9526 70.3447 38.9775C71.2209 39.2368 72.0379 39.4817 72.8548 39.7266C72.8548 39.7266 72.8605 39.7162 72.8739 39.7449C73.1044 39.9123 73.3214 40.0509 73.5384 40.1896C73.5384 40.1896 73.5433 40.1845 73.551 40.2118C73.7631 40.4199 73.9675 40.6007 74.172 40.7814C74.172 40.7814 74.1978 40.7587 74.1924 40.7967C74.5754 41.4621 74.9637 42.0895 75.3521 42.7169C75.3624 42.7627 75.3727 42.8085 75.3998 42.9021C75.555 43.3915 75.6934 43.8331 75.8318 44.2747C75.8329 44.3109 75.834 44.3471 75.8405 44.4422C75.9526 45.2975 76.0591 46.0939 76.1657 46.8903C76.1636 47.0041 76.1614 47.118 76.1573 47.2983C76.1562 47.4788 76.157 47.5927 76.1579 47.7067C76.1579 47.7067 76.1606 47.7094 76.1214 47.7149C75.8783 47.7269 75.6745 47.7389 75.4706 47.7389C72.4078 47.7394 69.3449 47.7384 66.282 47.7377C66.1223 47.7376 65.9626 47.7377 65.7613 47.7377C65.7717 47.9239 65.7661 48.0584 65.7883 48.1881C66.2674 50.9874 68.5685 52.0494 71.2518 51.7155C71.2883 51.7167 71.3247 51.7179 71.4223 51.7183C72.5516 51.4167 73.6197 51.1161 74.6878 50.8154C74.7082 50.8335 74.7286 50.8517 74.7554 50.9226C74.7629 51.9579 74.7641 52.9405 74.7653 53.923C74.7653 53.923 74.77 53.9264 74.7384 53.931C73.8559 54.1794 73.0048 54.4232 72.1537 54.667C72.1171 54.6674 72.0805 54.6678 71.984 54.6715C71.5642 54.7264 71.2043 54.778 70.8444 54.8297C70.8079 54.8275 70.7714 54.8253 70.7083 54.8305C69.9967 54.8346 69.3117 54.8313 68.5888 54.8351ZM71.6089 42.9014C70.801 41.7457 69.6342 41.5863 68.3735 41.7867C66.4646 42.0902 65.7537 44.2024 65.7833 45.5433C67.9532 45.5433 70.1238 45.5433 72.3398 45.5433C72.2816 44.6099 72.104 43.7446 71.6089 42.9014Z" fill="#FD7D20"/>
<path d="M44.8291 8.61097C44.828 10.0256 44.828 11.4398 44.828 12.9176C44.4347 12.8684 44.103 12.8031 43.7692 12.7892C42.2181 12.7246 40.6664 12.6361 39.1149 12.6332C38.1933 12.6315 37.2723 12.7858 36.3493 12.843C35.9831 12.8657 35.9188 13.0302 35.9194 13.3624C35.9293 18.529 35.9264 23.6958 35.9264 28.8625C35.9264 29.5145 35.9264 30.1665 35.9264 30.8624C35.7473 30.8734 35.6039 30.8897 35.4606 30.8898C33.7565 30.8914 32.0523 30.8787 30.3485 30.8992C29.954 30.9039 29.8498 30.7898 29.8506 30.3977C29.8626 24.3585 29.8588 18.3193 29.8582 12.2801C29.8582 12.1166 29.8541 11.9531 29.8419 11.7521C29.836 11.6796 29.8402 11.6445 29.848 11.5474C29.8453 11.2618 29.839 11.0381 29.8326 10.8145C29.9378 10.6626 30.0429 10.5108 30.1943 10.3341C30.6471 10.0812 31.0536 9.8532 31.4601 9.6252C31.4876 9.61943 31.5151 9.61365 31.5841 9.5963C31.6481 9.5644 31.6706 9.54408 31.6931 9.52376C31.6931 9.52376 31.7204 9.5226 31.7621 9.51442C32.7481 9.17173 33.6765 8.77847 34.6407 8.51745C35.8671 8.18546 37.1224 7.96057 38.3653 7.6895C38.402 7.69036 38.4388 7.69121 38.5393 7.69353C39.5381 7.69705 40.4754 7.65946 41.4077 7.71109C42.6024 7.77725 43.7799 7.965 44.8286 8.61199C44.8286 8.61199 44.8302 8.61063 44.8291 8.61097Z" fill="#8DBB4C"/>
<path d="M44.0958 52.8342C43.2417 53.6182 42.2995 54.2332 41.1777 54.4975C38.7326 55.0735 36.3288 55.0397 33.9904 53.8999C33.9603 53.8936 33.946 53.8864 33.9226 53.8617C32.9592 53.2414 32.1934 52.473 31.7429 51.4512C31.4439 50.7731 31.2477 50.0495 31.0054 49.3463C31.0052 49.3096 31.0049 49.273 31.0017 49.1768C30.9453 48.8122 30.8919 48.5071 30.8385 48.202C30.8392 48.1145 30.8399 48.0269 30.8412 47.8697C30.8361 47.142 30.8303 46.4841 30.8245 45.8262C30.832 45.7391 30.8395 45.6519 30.8594 45.505C30.9154 45.1357 30.9537 44.8252 31.0036 44.5167C31.4687 41.6404 32.9024 39.7577 35.944 39.1923C37.0313 38.9902 38.1606 39.0146 39.2707 38.9355C39.3578 38.944 39.4448 38.9525 39.5915 38.9737C40.156 39.0756 40.6649 39.1471 41.1652 39.2576C42.2701 39.5016 43.2253 40.0457 44.0865 40.7668C44.0865 40.7668 44.0951 40.7592 44.0991 40.7881C44.9396 41.694 45.4626 42.7425 45.7067 43.9164C45.8712 44.7073 45.9464 45.5168 46.0615 46.318C46.0577 46.6212 46.0539 46.9244 46.0403 47.2936C45.893 48.2672 45.8041 49.1855 45.6053 50.0795C45.3786 51.0988 44.8068 51.963 44.1647 52.7758C44.1379 52.7801 44.117 52.7935 44.0958 52.8342ZM41.911 44.3866C41.4648 42.8068 40.4079 41.9671 38.7844 41.8579C36.8677 41.7291 35.3649 42.3611 34.8722 44.4824C34.5317 45.9487 34.5234 47.4299 34.8125 48.9008C34.9906 49.8067 35.3329 50.6612 36.1152 51.2387C38.2987 52.8506 41.3719 51.6819 41.9597 49.0241C42.2974 47.497 42.2724 45.9723 41.911 44.3866Z" fill="#FD7C20"/>
<path d="M1.22621 37.0953C2.18076 35.6579 3.50736 34.7773 5.13933 34.3478C5.60925 34.2241 6.09587 34.1639 6.60197 34.0576C6.66556 34.0426 6.70203 34.0446 6.76489 34.0386C7.36284 34.03 7.93446 34.035 8.50594 34.0281C10.2713 34.0067 11.9257 34.4557 13.542 35.2001C13.5717 35.2028 13.5737 35.1996 13.5754 35.2381C13.5772 36.4941 13.5772 37.7116 13.5772 38.9823C13.3424 38.8717 13.1755 38.7931 13.0086 38.7146C13.0086 38.7146 13.0098 38.7103 12.997 38.6863C12.8031 38.5677 12.6219 38.473 12.4407 38.3783C12.4019 38.3522 12.3631 38.3262 12.2865 38.2735C11.8492 38.072 11.4497 37.8972 11.0502 37.7224C11.0502 37.7224 11.0472 37.7284 11.0339 37.7017C10.3195 37.5107 9.61848 37.3464 8.91745 37.1821C8.77765 37.1714 8.63785 37.1607 8.43626 37.1386C7.49184 37.1113 6.62252 37.1537 5.86822 37.6996C5.86822 37.6996 5.86483 37.7158 5.83796 37.7125C5.69176 37.8129 5.57244 37.9165 5.45311 38.0202C5.45311 38.0202 5.46058 38.0311 5.42946 38.0367C4.55917 38.9152 4.56197 40.4499 5.40401 41.1623C5.40401 41.1623 5.40276 41.1646 5.41199 41.1903C6.07581 41.9401 6.98326 42.176 7.85896 42.4635C9.6893 43.0644 11.5872 43.5014 13.1659 44.6986C13.2847 44.8241 13.4034 44.9495 13.5455 45.0861C14.3765 46.0551 14.7283 47.171 14.7325 48.4126C14.7384 50.102 14.2369 51.5995 13.0676 52.8784C13.057 52.9031 13.0577 52.9084 13.0326 52.9191C12.7884 53.1238 12.5693 53.3179 12.3502 53.512C12.3502 53.512 12.3559 53.516 12.3257 53.5169C12.1152 53.6415 11.9348 53.7651 11.7544 53.8888C11.7544 53.8888 11.7514 53.894 11.7212 53.8977C11.1749 54.1054 10.6708 54.3516 10.1396 54.502C9.58361 54.6595 9.00162 54.725 8.43102 54.8307C8.39438 54.828 8.35774 54.8254 8.29429 54.8298C7.0909 54.7788 5.91178 54.7514 4.73838 54.6546C3.47513 54.5504 2.25807 54.2252 1.10054 53.6989C0.982301 53.6452 0.881738 53.5525 0.754089 53.4566C0.738976 52.3971 0.742748 51.3591 0.747576 50.2561C0.74292 50.154 0.737203 50.1169 0.731489 50.0797C0.736636 50.0434 0.741784 50.0072 0.764958 49.9304C0.9024 49.9327 1.03252 49.9576 1.13959 50.0212C2.41412 50.7787 3.76565 51.3243 5.24174 51.5338C5.27741 51.5417 5.31309 51.5497 5.40231 51.5734C6.57855 51.7507 7.6983 51.8317 8.79831 51.4517C10.4223 50.8907 10.9408 48.6751 9.65152 47.6218C9.16259 47.2224 8.51621 47.0157 7.94159 46.7212C7.90147 46.6978 7.86135 46.6745 7.77812 46.6296C6.22387 46.0445 4.71272 45.4809 3.20156 44.9173C3.20156 44.9173 3.19342 44.9242 3.18582 44.897C2.6372 44.4825 2.09618 44.0952 1.55516 43.7078C1.51678 43.6569 1.4784 43.6059 1.41271 43.5183C1.25348 43.3077 1.12155 43.1338 0.989623 42.9599C0.989623 42.9599 0.985771 42.9644 0.986862 42.935C0.940063 42.8279 0.892173 42.7502 0.844282 42.6725C0.844282 42.6725 0.848311 42.6504 0.838943 42.6109C0.689687 41.9937 0.549801 41.4159 0.409912 40.8382C0.411994 40.8011 0.414076 40.764 0.416488 40.6627C0.370612 39.4165 0.63479 38.3009 1.13812 37.2368C1.1663 37.1977 1.19448 37.1586 1.22621 37.0953Z" fill="#FD7C20"/>
<path d="M49.9638 53.8422C49.9685 53.7818 49.9732 53.7215 49.9807 53.594C49.9855 49.458 49.9852 45.389 49.9963 41.3201C49.9968 41.1337 50.0985 40.9475 50.1531 40.7612C50.1531 40.7612 50.1476 40.7571 50.1789 40.7558C51.8905 39.8503 53.6794 39.2692 55.5727 39.0622C56.818 38.926 58.0681 38.9632 59.2825 39.3481C59.579 39.4421 59.8481 39.555 59.8185 39.941C59.8144 40.5699 59.8103 41.1987 59.8038 41.8973C59.8031 42.0538 59.8048 42.1406 59.8064 42.2274C59.8064 42.2274 59.7906 42.2559 59.7566 42.2711C57.8769 42.0527 56.0307 42.0226 54.1807 42.247C53.857 42.2862 53.8369 42.4591 53.8373 42.7202C53.8431 46.4413 53.8349 50.1624 53.85 53.8834C53.8516 54.2841 53.7322 54.3928 53.3438 54.382C52.4176 54.3563 51.4894 54.3498 50.5638 54.3851C50.1338 54.4014 49.9208 54.2932 49.9638 53.8422Z" fill="#FD7C20"/>
<path d="M71.1742 9.74546C70.9571 10.2713 70.7021 10.7562 70.0779 10.7241C69.447 10.6918 69.2087 10.191 69.0379 9.66385C68.7981 8.92348 68.8553 8.20431 69.2606 7.54112C69.7419 6.75361 70.5437 6.77497 71.0008 7.57786C71.3875 8.25723 71.3987 8.97868 71.1742 9.74546Z" fill="#8FBB51"/>
<path d="M63.012 10.477C62.3453 9.72191 62.2195 8.42556 62.7121 7.58969C63.2006 6.76065 64.0404 6.7459 64.497 7.59382C64.9702 8.47249 64.9462 9.37848 64.4197 10.2356C64.071 10.8032 63.5876 10.8769 63.012 10.477Z" fill="#8FBB51"/>
<path d="M43.6642 25.6905C44.804 24.3239 46.8116 24.6905 47.5786 25.8684C48.4887 27.266 47.9634 28.9998 46.424 29.5709C44.6946 30.2124 43.1647 29.0113 43.1047 27.3654C43.0818 26.7377 43.2548 26.1948 43.6642 25.6905Z" fill="#90B949"/>
</svg>
