<svg width="183" height="112" viewBox="0 0 183 112" fill="none" xmlns="http://www.w3.org/2000/svg">
<path d="M59.2233 42.192C59.5484 42.192 59.7195 42.3971 59.7195 42.8159C59.7195 43.2603 59.5398 43.6705 59.1805 44.0636C58.5473 44.7643 57.9654 45.6445 57.4435 46.7042C56.6392 48.3108 56.237 49.755 56.237 51.0369C56.237 51.5411 56.3226 51.9 56.5023 52.1307C56.682 52.3614 56.8873 52.4725 57.1184 52.4725C57.8029 52.4725 58.6072 51.9171 59.5227 50.7976C60.3356 49.755 60.9602 48.7381 61.3881 47.7468C61.4993 47.516 61.6191 47.422 61.7303 47.4477C61.8416 47.4733 61.8501 47.6015 61.756 47.8322C61.1656 49.1312 60.4982 50.2763 59.7538 51.2676C59.3687 51.7974 58.8896 52.2333 58.3163 52.5836C57.743 52.934 57.1782 53.1135 56.605 53.1135C56.0402 53.1135 55.6124 52.8913 55.3215 52.4384C55.0306 51.9854 54.8937 51.4556 54.8937 50.8403C54.8937 50.225 54.9707 49.6183 55.1161 49.0201C55.2616 48.4219 55.4669 47.9519 55.7065 47.6271C54.2605 49.3619 52.7203 50.7463 51.086 51.7889C50.2303 52.3187 49.272 52.6349 48.2281 52.7289C48.1254 52.746 47.9629 52.7545 47.7233 52.7545C47.4837 52.7545 47.2013 52.6691 46.8762 52.4982C45.8408 52.0709 45.3275 51.0198 45.3275 49.3534C45.3275 47.6869 45.8751 45.8838 46.9618 43.9354C47.535 42.9013 48.1682 41.9955 48.8527 41.2093C47.8944 40.7478 47.1757 40.2607 46.7051 39.7309C46.3628 39.3463 46.1917 38.8763 46.1917 38.3379C46.1917 37.791 46.3029 37.4492 46.5168 37.3039C46.6623 37.1159 46.7906 37.0817 46.9019 37.1928C46.9874 37.321 46.9874 37.4748 46.9104 37.6628C46.8334 37.8508 46.7906 38.0303 46.7906 38.2012C46.7906 38.5858 46.996 39.013 47.4152 39.4916C47.8345 39.9616 48.442 40.3889 49.2378 40.7564C52.6091 37.0219 56.1001 35.1504 59.7281 35.1504C60.8576 35.1504 61.756 35.4068 62.4234 35.911C63.0908 36.4152 63.4245 37.0732 63.4245 37.8765C63.4245 38.7481 62.9368 39.5942 61.9613 40.406C61.4736 40.8333 60.7805 41.2093 59.8736 41.5255C58.496 42.0126 56.8617 42.2519 54.9621 42.2519C53.0626 42.2519 51.4882 42.0553 50.2475 41.6537C48.8014 43.6961 47.8003 45.3967 47.2612 46.7469C46.7136 48.0971 46.4484 49.1483 46.4484 49.8917C46.4484 50.0456 46.4569 50.1908 46.4655 50.319C46.6366 51.5069 47.2356 52.0965 48.2709 52.0965C49.4346 52.0965 50.778 51.4641 52.3096 50.2079C53.3963 49.2935 54.4658 48.2082 55.5097 46.9435C56.5536 45.6872 57.3323 44.5763 57.8371 43.6192C58.3676 42.6706 58.8211 42.192 59.2233 42.192ZM62.5517 37.6201C62.5517 37.0048 62.2951 36.5348 61.7902 36.2015C61.2854 35.8768 60.5837 35.7059 59.6939 35.7059C58.804 35.7059 57.9227 35.8511 57.0413 36.1331C56.16 36.4152 55.3386 36.8424 54.5685 37.3979C53.7984 37.9534 53.1225 38.5259 52.5235 39.1156C51.9245 39.7053 51.2914 40.406 50.5983 41.2178C51.6764 41.5597 52.9941 41.7306 54.5514 41.7306C57.4863 41.7306 59.634 41.2606 60.9773 40.312C62.0298 39.5942 62.5517 38.6969 62.5517 37.6201Z" fill="#564F52"/>
<path d="M64.3743 43.1319C64.3743 43.7729 63.9636 44.3882 63.1507 44.9607C63.4331 44.9778 63.8181 44.9778 64.2973 44.9778C64.7765 44.9778 65.384 44.9436 66.1113 44.8667C66.137 44.9094 66.1541 45.0205 66.1541 45.2085C66.1541 45.3965 66.0685 45.67 65.8974 46.0375C65.7262 46.4049 65.5722 46.7126 65.4353 46.9775C65.2984 47.2424 65.1701 47.4902 65.0503 47.7295C64.9305 47.9688 64.7936 48.2594 64.6396 48.6012C64.4855 48.943 64.3658 49.2592 64.2631 49.5498C63.9037 50.6351 63.9636 51.182 64.4342 51.182C65.0332 51.182 65.923 49.9856 67.1038 47.5928C67.2065 47.4048 67.2835 47.3364 67.352 47.3791C67.4204 47.4219 67.4461 47.4732 67.4461 47.5415C67.4461 47.6099 67.352 47.8235 67.1637 48.2081C66.9755 48.5841 66.7787 48.9772 66.5648 49.3788C66.3509 49.7805 66.0086 50.242 65.5551 50.7718C65.0075 51.4298 64.4855 51.7631 63.9893 51.7631C63.4331 51.7631 63.048 51.4298 62.8256 50.7547C62.7828 50.6265 62.7571 50.43 62.7571 50.1736C62.7571 49.9172 62.8427 49.5754 63.0053 49.1396C63.1678 48.7123 63.4331 48.191 63.7925 47.5757C64.1518 46.9604 64.3486 46.6015 64.3914 46.4904C64.4342 46.3793 64.4599 46.2768 64.4599 46.1828C64.4599 45.7384 63.8866 45.5076 62.74 45.4735L62.4833 46.1571C61.5849 48.5157 60.7121 50.0967 59.8821 50.9C59.7367 51.0282 59.6682 50.9854 59.6682 50.7718C59.6682 50.7291 59.6853 50.6778 59.711 50.618C60.5153 49.5583 61.2084 48.3106 61.7988 46.8579C62.3892 45.4051 62.7914 44.0378 63.0224 42.7388C63.1079 42.2945 63.3047 42.0723 63.6213 42.0723C63.9379 42.0723 64.169 42.2774 64.3059 42.6705C64.3572 42.8157 64.3743 42.961 64.3743 43.1319Z" fill="#564F52"/>
<path d="M66.5306 50.0284C66.5306 48.8405 67.1039 46.8494 68.2504 44.0635H67.1295C67.0611 44.0635 67.0097 44.0207 66.9926 43.9438C66.9755 43.8669 66.9755 43.79 67.0183 43.7045C67.0525 43.6276 67.1039 43.5849 67.1809 43.5849H68.4729C68.9863 42.4569 69.4655 41.5083 69.9104 40.7477C70.3553 39.9872 70.7661 39.4744 71.134 39.2095C71.5019 38.9446 71.7757 38.8164 71.9383 38.8164C72.1009 38.8164 72.2207 38.8335 72.2891 38.8591C72.6143 39.013 72.7854 39.3462 72.7854 39.8333C72.7854 40.329 72.6228 40.9272 72.2891 41.6279C71.9554 42.3287 71.6388 42.9782 71.3222 43.5849H72.3576C72.426 43.5849 72.4774 43.6276 72.4945 43.7045C72.5202 43.7815 72.5116 43.8584 72.4774 43.9438C72.4431 44.0207 72.3832 44.0635 72.3148 44.0635H71.0655C70.2783 45.3966 69.3286 46.5759 68.2077 47.6014L67.7114 49.7891C67.6686 49.9771 67.6429 50.1566 67.6429 50.336C67.6429 50.5155 67.6943 50.6949 67.7969 50.8829C67.8996 51.0709 68.0536 51.1649 68.2676 51.1649C68.5157 51.1649 68.7809 51.0795 69.089 50.9086C69.7735 50.3958 70.535 49.3105 71.365 47.6698C71.4249 47.5416 71.4934 47.4647 71.5704 47.4305C71.6474 47.4048 71.6987 47.4219 71.7073 47.4818C71.7244 47.5501 71.6987 47.6527 71.6388 47.7894C71.1682 48.7807 70.7917 49.4814 70.5179 49.8916C69.7478 51.1393 68.9178 51.7631 68.0451 51.7631C67.6001 51.7631 67.2322 51.6008 66.9498 51.2675C66.6675 50.9428 66.5306 50.524 66.5306 50.0284ZM70.5693 44.0549H69.5596C69.3885 44.4566 69.0034 45.4051 68.3959 46.9092C69.1745 46.1144 69.8933 45.1573 70.5693 44.0549ZM70.8516 43.5849C71.7928 41.8929 72.272 40.7221 72.272 40.0641C72.272 39.7821 72.2207 39.6368 72.118 39.6368C71.964 39.6368 71.7244 39.8675 71.3992 40.3205C71.0741 40.7819 70.535 41.8672 69.7735 43.5849H70.8516Z" fill="#564F52"/>
<path d="M80.8371 44.2344C81.881 44.2344 82.4029 44.8924 82.4029 46.2084C82.4029 46.8066 82.2489 47.4561 81.9323 48.1398C81.5301 49.0712 80.9312 49.9173 80.1269 50.6693C80.3151 51.0282 80.6488 51.2077 81.1365 51.2077C81.5216 51.2077 81.8895 51.0111 82.2318 50.6266C82.6596 50.1822 82.9676 49.7891 83.1559 49.4558C83.3441 49.1225 83.481 48.8747 83.5666 48.7123C83.6522 48.5585 83.7634 48.3278 83.9003 48.0372C84.0372 47.7467 84.1142 47.5672 84.1484 47.4988C84.1741 47.4305 84.2254 47.4048 84.3025 47.4048C84.4479 47.3877 84.5164 47.439 84.5164 47.5587C84.5164 47.6014 84.4993 47.6527 84.4736 47.7125L84.3452 48.0116C84.2597 48.2081 84.1912 48.3534 84.1484 48.4389C84.1057 48.5243 84.0286 48.6781 83.926 48.9003C83.8147 49.1225 83.7292 49.2934 83.6436 49.4302C83.5666 49.5584 83.4554 49.7293 83.3185 49.9429C83.1816 50.1565 83.0618 50.3275 82.9505 50.4557C82.8393 50.5838 82.7109 50.7291 82.5569 50.8829C82.4029 51.0368 82.2489 51.1649 82.1034 51.2504C81.7441 51.464 81.4103 51.5751 81.0938 51.5751C80.5034 51.5751 80.0499 51.3871 79.7162 51.0197C79.0573 51.5068 78.4498 51.7461 77.8851 51.7461C76.8412 51.7461 76.3192 51.088 76.3192 49.772C76.3192 49.1738 76.4732 48.5243 76.7898 47.8407C77.2176 46.8408 77.8252 45.9862 78.6038 45.2855C79.3996 44.5848 80.1354 44.2344 80.8371 44.2344ZM81.0766 44.9009C80.6916 44.9009 80.2295 45.1573 79.699 45.6701C79.1685 46.1828 78.6979 46.8835 78.2787 47.7723C77.7738 48.8063 77.5257 49.6438 77.5257 50.3018C77.5257 50.9598 77.7738 51.2931 78.2787 51.2931C78.638 51.2931 79.0402 51.0966 79.4851 50.712C79.2541 50.3787 79.1429 50.0284 79.1429 49.6609C79.1685 49.0456 79.4252 48.738 79.8958 48.738C80.0841 48.738 80.2381 48.8063 80.3579 48.9345C80.4777 49.0627 80.5376 49.1823 80.5376 49.2849C80.5376 49.396 80.5205 49.5071 80.4948 49.6182C80.7344 49.2593 81.0168 48.7551 81.3333 48.097C81.6927 47.3706 81.8724 46.6528 81.8724 45.9521C81.8724 45.2513 81.6071 44.9009 81.0766 44.9009Z" fill="#564F52"/>
<path d="M81.59 59.2141C80.8028 59.2141 80.4092 58.821 80.4092 58.0348C80.4092 56.9067 81.1451 54.5994 82.6254 51.1213C82.4542 50.8393 82.3687 50.6 82.3687 50.412C82.3687 49.8138 82.5056 49.4122 82.7794 49.2071C82.9762 49.0361 83.1473 48.9507 83.2842 48.9507C83.4211 48.9507 83.5067 48.9592 83.5495 48.9678C85.1838 45.2931 86.6555 42.2338 87.9561 39.8068C88.2128 39.294 88.4781 38.9095 88.7519 38.6702C89.0257 38.4224 89.3679 38.3027 89.7872 38.3027C89.8471 38.3027 89.984 38.3284 90.215 38.3711C90.4461 38.4138 90.6172 38.4309 90.7284 38.4138C90.0525 39.0462 89.1112 40.4306 87.8876 42.5756C86.6726 44.7206 85.5175 47.0194 84.4308 49.4634C84.756 49.8651 84.987 50.4035 85.1153 51.07L85.1838 51.352C85.2095 51.352 85.2351 51.352 85.2522 51.352C85.6373 51.352 86.048 51.1298 86.4758 50.6769C86.9036 50.224 87.2545 49.7625 87.5283 49.284C87.8021 48.8054 88.0246 48.3867 88.1957 48.0192C88.3668 47.6517 88.478 47.4552 88.5208 47.4295C88.5636 47.4039 88.6064 47.3868 88.6406 47.3954C88.6748 47.4039 88.7091 47.421 88.7347 47.4381C88.7604 47.4637 88.7775 47.4979 88.7775 47.5492C88.7775 47.6005 88.7604 47.6517 88.7347 47.7116C87.5454 50.4205 86.3817 51.7708 85.2351 51.7708C85.2522 52.0015 85.2522 52.3775 85.2522 52.8988C85.2522 53.4201 85.1239 54.1977 84.8672 55.2318C84.6105 56.2658 84.1741 57.1887 83.5666 58.0006C82.9505 58.8039 82.2917 59.2141 81.59 59.2141ZM81.5729 58.0348C81.5729 58.4535 81.6842 58.6586 81.9152 58.6586C82.189 58.6586 82.5655 58.3424 83.0447 57.7015C83.5238 57.0606 83.9345 56.1889 84.2682 55.0865C84.6019 53.9756 84.7731 52.9757 84.7731 52.0699C84.7731 52.0015 84.7731 51.9246 84.7731 51.8562C84.7046 51.8562 84.6362 51.8562 84.5763 51.8562C84.157 51.8562 83.8062 51.7451 83.5238 51.5144C82.2232 54.7959 81.5729 56.9751 81.5729 58.0348ZM84.6019 51.446H84.7303C84.6875 50.8307 84.5164 50.3351 84.2169 49.9676L83.7463 51.0444C83.8832 51.3093 84.1741 51.446 84.6019 51.446Z" fill="#564F52"/>
<path d="M97.7789 50.7806C97.7789 51.1823 97.9244 51.3788 98.2067 51.3788C98.8827 51.3788 99.8325 50.1226 101.065 47.6016C101.167 47.4051 101.253 47.3196 101.33 47.3624C101.407 47.4051 101.45 47.4649 101.45 47.5333C101.45 47.6016 101.364 47.8067 101.202 48.1486C101.039 48.4818 100.868 48.8066 100.705 49.1142C100.543 49.4219 100.303 49.8235 99.9865 50.3277C99.3276 51.3276 98.626 51.8318 97.8816 51.8318C97.3939 51.8318 97.0088 51.6352 96.7179 51.2336C96.5896 51.0456 96.5211 50.7977 96.5211 50.473C96.5211 50.1483 96.5896 49.7637 96.735 49.3022C96.8805 48.8408 97.2741 48.0973 97.9158 47.0718C98.0698 46.8154 98.1554 46.6103 98.1554 46.4565C98.1554 46.3027 98.0356 46.2343 97.7875 46.2343C97.5393 46.2343 97.0773 46.5591 96.3928 47.2C95.3574 48.14 94.3563 49.5586 93.3808 51.4472C93.2782 51.6609 93.0129 51.7719 92.5851 51.7719C92.2 51.7976 91.9519 51.8403 91.8578 51.9001C94.5788 46.2514 96.5468 42.3033 97.7704 40.0729C98.0442 39.5687 98.2837 39.2183 98.4891 39.0218C98.6945 38.8252 98.9426 38.7227 99.2335 38.7227C99.302 38.7227 99.456 38.7397 99.687 38.7739C99.918 38.8081 100.089 38.8167 100.2 38.8081C99.7726 39.2525 99.0025 40.4831 97.8901 42.4913C96.7778 44.4996 95.7168 46.542 94.6986 48.6186C95.3745 47.7726 95.982 47.1145 96.5125 46.6445C97.043 46.1745 97.7019 45.7216 98.4805 45.3028C99.2506 44.8841 99.8239 44.6705 100.175 44.6705C100.26 44.6705 100.337 44.6876 100.414 44.7132C98.6602 47.7982 97.7789 49.815 97.7789 50.7806Z" fill="#564F52"/>
<path d="M102.032 48.4386C101.826 48.9257 101.732 49.4727 101.732 50.0709C101.732 50.4725 101.818 50.7887 101.997 51.028C102.177 51.2673 102.434 51.3783 102.759 51.3783C104.059 51.3783 105.249 50.1563 106.301 47.7122C106.404 47.4815 106.524 47.3875 106.669 47.4131C106.729 47.4302 106.755 47.4644 106.755 47.5242C106.755 47.5841 106.592 47.9601 106.267 48.6523C105.942 49.3445 105.617 49.9085 105.292 50.3358C104.564 51.3356 103.657 51.8398 102.579 51.8398C102.006 51.8398 101.518 51.6518 101.116 51.2843C100.714 50.9169 100.517 50.4041 100.517 49.7632C100.517 49.1223 100.671 48.4386 100.979 47.7122C101.287 46.9859 101.706 46.3193 102.237 45.6955C102.767 45.0716 103.375 44.6187 104.059 44.3367C104.385 44.1914 104.701 44.123 105.009 44.123C105.317 44.123 105.591 44.2085 105.848 44.3794C106.087 44.576 106.216 44.7982 106.216 45.046C106.216 45.9006 105.702 46.7295 104.667 47.5157C104.35 47.755 103.905 47.9772 103.332 48.1737C102.767 48.3446 102.331 48.4386 102.032 48.4386ZM105.642 45.0033C105.642 44.7212 105.531 44.576 105.3 44.576C104.898 44.576 104.291 45.0716 103.478 46.0544C102.99 46.6526 102.562 47.3277 102.186 48.0712C102.425 48.0712 102.785 47.9857 103.247 47.8148C103.709 47.6439 104.119 47.4131 104.462 47.1311C105.249 46.456 105.642 45.7467 105.642 45.0033Z" fill="#564F52"/>
<path d="M111.812 47.679C111.341 48.5849 111.059 49.2685 110.965 49.7215C110.87 50.1744 110.828 50.5333 110.828 50.8153C110.828 51.0973 110.939 51.2341 111.153 51.2341C111.427 51.2341 111.76 50.9862 112.163 50.482C112.753 49.7556 113.326 48.7985 113.9 47.6278C113.959 47.4996 114.019 47.4312 114.096 47.4141C114.208 47.3714 114.267 47.4141 114.267 47.5423C114.267 47.6107 114.25 47.6961 114.199 47.7987C112.881 50.4564 111.769 51.7895 110.87 51.7895C110.451 51.7895 110.118 51.593 109.861 51.1913C109.732 50.9777 109.664 50.6871 109.664 50.3368C109.664 49.9864 109.732 49.542 109.878 49.0293C108.731 50.8751 107.739 51.7981 106.909 51.7981C106.678 51.7981 106.472 51.7297 106.284 51.5844C105.856 51.2853 105.642 50.7726 105.642 50.0377C105.642 48.6362 106.25 47.209 107.465 45.7648C108.15 44.9615 108.997 44.4402 109.998 44.2009C110.272 44.1326 110.528 44.0898 110.768 44.0898C111.427 44.0898 111.983 44.3206 112.445 44.7735C112.59 44.9273 112.633 45.0811 112.573 45.2264C112.513 45.3717 112.394 45.4315 112.205 45.3973C112.051 44.8846 111.7 44.6282 111.17 44.6282C110.554 44.6282 109.792 45.1153 108.894 46.0895C108.381 46.6621 107.901 47.3372 107.456 48.1063C106.9 49.0378 106.618 49.7813 106.618 50.3368C106.618 50.8922 106.798 51.1742 107.157 51.1742C108.013 51.1742 109.142 49.8582 110.528 47.2261C110.802 46.6963 111.033 46.3374 111.213 46.1408C111.401 45.9443 111.632 45.8503 111.923 45.8503C111.983 45.8503 112.128 45.8759 112.359 45.9186C112.599 45.9614 112.77 45.9699 112.89 45.9443C112.65 46.1835 112.282 46.7646 111.812 47.679Z" fill="#564F52"/>
<path d="M114.884 48.1918C114.772 48.5251 114.67 48.8498 114.593 49.1575C114.516 49.4651 114.473 49.7728 114.473 50.0804C114.473 50.3881 114.541 50.6786 114.687 50.935C114.832 51.1999 115.055 51.3281 115.371 51.3281C115.885 51.3281 116.389 50.9777 116.877 50.2855C117.365 49.5933 117.878 48.7046 118.426 47.6364C118.537 47.4398 118.648 47.3543 118.751 47.3971C118.82 47.4569 118.837 47.5338 118.794 47.6193C118.751 47.7133 118.657 47.9098 118.529 48.2175C118.392 48.5251 118.289 48.7388 118.229 48.8584C118.161 48.978 118.049 49.1917 117.887 49.4993C117.724 49.807 117.579 50.0377 117.459 50.183C117.339 50.3368 117.177 50.5248 116.963 50.7641C116.749 51.0034 116.561 51.1743 116.372 51.2939C115.868 51.6101 115.397 51.7639 114.952 51.7639C114.507 51.7639 114.165 51.6699 113.917 51.4734C113.669 51.2768 113.523 51.0717 113.48 50.8495C113.429 50.6274 113.403 50.4308 113.403 50.2599C113.403 50.089 113.412 49.8668 113.429 49.5933C113.472 49.1319 113.566 48.696 113.694 48.2602C113.831 47.8329 113.908 47.5851 113.917 47.5338C114.242 46.346 114.712 45.047 115.32 43.6455C115.927 42.244 116.441 41.1843 116.869 40.4836C117.296 39.7829 117.622 39.2957 117.87 39.0308C118.357 38.5181 118.837 38.2617 119.307 38.2617C119.632 38.2617 119.855 38.501 119.975 38.971C119.992 39.0565 120 39.1676 120 39.2957C120 39.7829 119.829 40.3981 119.487 41.1416C118.255 43.8762 116.783 46.0212 115.08 47.5851C115.063 47.662 114.995 47.8585 114.884 48.1918ZM117.416 44.107C118.135 42.9789 118.657 42.0133 118.999 41.2185C119.333 40.4238 119.504 39.8854 119.504 39.5948C119.504 39.3043 119.453 39.1676 119.35 39.1676C119.205 39.1676 118.931 39.4496 118.537 40.0136C118.135 40.5776 117.596 41.5945 116.911 43.0644C116.227 44.5343 115.679 45.8161 115.243 46.9185C115.979 46.175 116.706 45.235 117.416 44.107Z" fill="#564F52"/>
<path d="M119.29 51.2672C119.564 51.2672 119.846 51.1305 120.146 50.857C120.676 50.3272 121.352 49.2504 122.165 47.6182C122.268 47.4046 122.362 47.3362 122.465 47.4216C122.49 47.4473 122.507 47.4986 122.507 47.5584C122.507 47.6182 122.447 47.7806 122.336 48.0284C122.225 48.2762 122.122 48.507 122.028 48.7035C121.934 48.9001 121.754 49.2333 121.489 49.6777C121.224 50.1306 120.984 50.4725 120.77 50.7203C120.18 51.3954 119.624 51.7287 119.102 51.7287C118.58 51.7287 118.203 51.5749 117.972 51.2587C117.741 50.9425 117.63 50.5921 117.63 50.2075C117.63 49.823 117.724 49.3957 117.912 48.9428L119.29 45.4476C119.316 45.3621 119.333 45.251 119.333 45.1058C119.333 44.9605 119.247 44.781 119.076 44.5503L120.257 44.5247C120.582 44.5247 120.779 44.5845 120.839 44.7041C120.899 44.8238 120.856 45.0118 120.71 45.2767L118.991 49.2932C118.742 49.823 118.623 50.2759 118.623 50.6434C118.623 51.0621 118.845 51.2672 119.29 51.2672ZM121.395 43.3966C121.19 43.5675 120.976 43.653 120.728 43.653C120.488 43.653 120.291 43.5675 120.146 43.3966C120 43.2257 119.949 43.0206 119.975 42.7728C120.017 42.5335 120.137 42.3199 120.343 42.1489C120.539 41.978 120.762 41.8926 121.01 41.8926C121.25 41.8926 121.446 41.978 121.6 42.1489C121.754 42.3199 121.806 42.525 121.763 42.7728C121.712 43.0121 121.592 43.2257 121.395 43.3966Z" fill="#564F52"/>
<path d="M128.677 44.7049C126.914 47.7984 126.033 49.8152 126.033 50.7552C126.033 51.1312 126.17 51.3107 126.443 51.3107C127.171 51.3107 128.155 50.0716 129.387 47.5933C129.472 47.3967 129.558 47.3113 129.643 47.354C129.729 47.3967 129.772 47.4566 129.772 47.5249C129.772 47.5933 129.746 47.6788 129.686 47.7813C128.925 49.311 128.283 50.3707 127.761 50.9432C127.239 51.5243 126.717 51.8149 126.195 51.8149C125.673 51.8149 125.271 51.6183 125.006 51.2167C124.86 51.0287 124.792 50.7808 124.792 50.4561C124.792 50.1314 124.86 49.7468 125.006 49.2853C125.151 48.8239 125.545 48.0804 126.187 47.0549C126.341 46.7986 126.426 46.5935 126.426 46.4396C126.426 46.2858 126.306 46.2174 126.058 46.2174C125.81 46.2174 125.348 46.5422 124.664 47.1831C123.628 48.1231 122.636 49.5417 121.677 51.4303C121.592 51.5756 121.498 51.6611 121.386 51.6952C121.275 51.7294 121.07 51.7551 120.753 51.7722C120.437 51.7892 120.231 51.8234 120.129 51.8832C120.36 51.4218 120.813 50.4903 121.481 49.0717C122.687 46.5678 123.474 45.1407 123.842 44.7818C124.013 44.6109 124.253 44.5254 124.552 44.5254C124.612 44.5254 124.758 44.551 124.997 44.5938C125.237 44.6365 125.408 44.645 125.528 44.6194C124.997 44.9014 124.133 46.2516 122.927 48.653C123.603 47.824 124.21 47.1575 124.766 46.6704C125.314 46.1747 125.981 45.7218 126.751 45.2945C127.521 44.8758 128.095 44.6621 128.446 44.6621C128.531 44.6621 128.608 44.6792 128.677 44.7049Z" fill="#564F52"/>
<path d="M127.907 58.5233C126.563 58.5233 125.887 57.9764 125.887 56.874C125.887 55.9596 126.512 55.1392 127.753 54.4043C128.814 53.789 130.165 53.2079 131.817 52.6609C132.578 52.4131 133.126 52.2251 133.468 52.0798C133.845 50.9945 134.024 49.8067 134.024 48.5163C134.024 48.2599 134.007 48.0634 133.982 47.9352C133.58 48.747 133.032 49.5845 132.33 50.4476C131.5 51.4816 130.679 51.8747 129.857 51.6525C129.113 51.3364 128.737 50.7211 128.737 49.8067C128.737 48.5761 129.353 47.2259 130.585 45.7475C131.261 44.9442 132.048 44.44 132.946 44.2263C133.186 44.158 133.434 44.1152 133.674 44.1152C134.315 44.1152 134.949 44.3289 135.565 44.7562C135.796 44.9442 135.907 45.098 135.907 45.2262C135.907 45.3544 135.864 45.4825 135.779 45.6022C135.693 45.7218 135.599 45.7389 135.513 45.6449C135.419 45.5509 135.359 45.4655 135.334 45.38C135.145 44.8502 134.846 44.5852 134.427 44.5852C133.665 44.5852 132.818 45.1151 131.868 46.1747C131.338 46.7729 130.876 47.4224 130.491 48.1061C130.02 48.9607 129.78 49.6272 129.78 50.0887C129.78 50.5502 129.926 50.8663 130.208 51.0202C130.311 51.0629 130.405 51.0885 130.508 51.0885C130.833 51.0885 131.252 50.8663 131.74 50.4134C132.236 49.9605 132.69 49.3879 133.117 48.6957C133.545 48.0035 133.811 47.4652 133.922 47.0721C134.033 46.6875 134.178 46.4397 134.341 46.3457C134.504 46.2517 134.692 46.1918 134.889 46.1747C135.085 46.1577 135.222 46.1235 135.299 46.0637C135.411 46.7046 135.471 47.4652 135.471 48.3283C135.471 49.1914 135.317 50.1741 135.017 51.2765C135.676 50.8065 136.146 50.3792 136.429 50.0118C136.711 49.6443 136.934 49.3025 137.096 49.0034C137.259 48.7043 137.404 48.4052 137.541 48.1146C137.67 47.8241 137.755 47.6361 137.798 47.5421C137.841 47.4566 137.909 47.4053 138.012 47.3797C138.114 47.3541 138.166 47.4053 138.166 47.5164C138.166 47.5848 138.14 47.6702 138.097 47.7728C137.464 49.0717 136.942 50.0203 136.514 50.5929C136.087 51.1654 135.513 51.6355 134.786 51.9773C134.444 52.9515 133.947 53.9172 133.289 54.8743C132.63 55.8314 131.817 56.6774 130.824 57.4038C129.866 58.1644 128.882 58.5233 127.907 58.5233ZM126.341 57.2842C126.341 57.8311 126.692 58.096 127.393 58.096C127.812 58.096 128.274 57.9764 128.805 57.7285C129.327 57.4807 129.763 57.2329 130.106 56.9765C130.696 56.5065 131.338 55.8058 132.039 54.8743C132.57 54.1308 132.981 53.4044 133.263 52.7037L132.51 52.96C130.277 53.7292 128.702 54.4214 127.778 55.0196C127.102 55.4639 126.657 56.0279 126.443 56.7116C126.375 56.9423 126.341 57.1218 126.341 57.2842Z" fill="#564F52"/>
<path d="M19.5896 65.2642C16.4579 65.2642 14.0278 67.6912 14.0278 70.8702C14.0278 74.0492 16.4579 76.5018 19.5896 76.5018C21.2324 76.5018 23.0379 75.6644 24.347 74.3654L26.7771 76.9975C24.8433 78.9801 22.0453 80.262 19.3842 80.262C13.9252 80.262 9.79236 76.2198 9.79236 70.9215C9.79236 65.6488 14.0022 61.6836 19.5382 61.6836C22.1737 61.6836 24.946 62.8544 26.7514 64.7088L24.347 67.6314C23.0892 66.2043 21.2838 65.2642 19.5896 65.2642Z" fill="#0E9CAF"/>
<path d="M51.5737 76.536H43.1113L41.6738 80.0825H37.4127L45.3531 61.8203H49.6143L57.4264 80.0825H53.0112L51.5737 76.536ZM50.2389 73.2203L47.3639 66.1273L44.4632 73.2203H50.2389Z" fill="#0E9CAF"/>
<path d="M73.5468 61.8203L82.4285 73.5621V61.8203H86.3474V80.0825H82.5825L73.7351 68.3663V80.0825H69.7905V61.8203H73.5468Z" fill="#0E9CAF"/>
<path d="M109.322 65.2642C106.19 65.2642 103.76 67.6912 103.76 70.8702C103.76 74.0492 106.19 76.5018 109.322 76.5018C110.965 76.5018 112.77 75.6644 114.079 74.3654L116.509 76.9975C114.575 78.9801 111.777 80.262 109.116 80.262C103.657 80.262 99.5245 76.2198 99.5245 70.9215C99.5245 65.6488 103.734 61.6836 109.27 61.6836C111.906 61.6836 114.678 62.8544 116.484 64.7088L114.079 67.6314C112.821 66.2043 111.016 65.2642 109.322 65.2642Z" fill="#0E9CAF"/>
<path d="M143.343 61.8203V65.2386H133.545V69.2038H142.35V72.6221H133.545V76.6642H143.633V80.0825H129.412V61.8203H143.343Z" fill="#0E9CAF"/>
<path d="M168.559 80.0825L165.658 74.8611H165.264H161.448V80.0825H157.324V61.8203H165.264C170.047 61.8203 172.76 64.1191 172.76 68.1612C172.76 70.9813 171.562 73.0152 169.337 74.0578L173.23 80.0825H168.559ZM161.448 71.4257H165.264C167.54 71.4257 168.841 70.3831 168.841 68.298C168.841 66.2641 167.532 65.2471 165.264 65.2471H161.448V71.4257Z" fill="#0E9CAF"/>
<path d="M173.282 46.7804H144.763C144.523 46.7804 144.335 46.5923 144.335 46.3531C144.335 46.1138 144.523 45.9258 144.763 45.9258H173.282C173.521 45.9258 173.71 46.1138 173.71 46.3531C173.71 46.5923 173.513 46.7804 173.282 46.7804Z" fill="#564F52"/>
<path d="M38.371 46.7804H9.85208C9.6125 46.7804 9.42426 46.5923 9.42426 46.3531C9.42426 46.1138 9.6125 45.9258 9.85208 45.9258H38.371C38.6106 45.9258 38.7988 46.1138 38.7988 46.3531C38.7988 46.5923 38.6106 46.7804 38.371 46.7804Z" fill="#564F52"/>
<path d="M173.308 92.6788H9.85208C9.6125 92.6788 9.42426 92.4908 9.42426 92.2515C9.42426 92.0122 9.6125 91.8242 9.85208 91.8242H173.308C173.547 91.8242 173.735 92.0122 173.735 92.2515C173.735 92.4908 173.539 92.6788 173.308 92.6788Z" fill="#564F52"/>
<path opacity="0.2" d="M102.57 28.3842C108.406 27.9141 113.028 26.1791 112.893 24.5089C112.758 22.8388 107.917 21.8661 102.081 22.3362C96.2448 22.8064 91.6228 24.5414 91.7577 26.2115C91.8926 27.8816 96.7332 28.8544 102.57 28.3842Z" fill="#0E9CAF"/>
<path opacity="0.2" d="M102.759 25.4101C108.255 23.3921 112.241 20.4813 111.662 18.9087C111.083 17.3361 106.159 17.6972 100.663 19.7152C95.1674 21.7332 91.1817 24.644 91.7606 26.2166C92.3395 27.7892 97.2639 27.4281 102.759 25.4101Z" fill="#0E9CAF"/>
<path opacity="0.2" d="M102.132 22.4835C106.883 19.0661 109.939 15.1937 108.959 13.8342C107.978 12.4747 103.332 14.143 98.5814 17.5603C93.8306 20.9777 90.7741 24.8501 91.7545 26.2096C92.7349 27.5691 97.3809 25.9008 102.132 22.4835Z" fill="#0E9CAF"/>
<path opacity="0.2" d="M100.747 19.8454C104.405 15.2795 106.308 10.7297 104.998 9.68301C103.688 8.63634 99.6615 11.4892 96.0038 16.0551C92.3462 20.6209 90.4429 25.1708 91.7528 26.2174C93.0626 27.2641 97.0896 24.4112 100.747 19.8454Z" fill="#0E9CAF"/>
<path opacity="0.2" d="M98.7086 17.6611C101.005 12.2819 101.615 7.3884 100.072 6.73128C98.529 6.07415 95.4164 9.9022 93.1201 15.2815C90.8237 20.6607 90.2132 25.5542 91.7564 26.2113C93.2996 26.8684 96.4122 23.0404 98.7086 17.6611Z" fill="#0E9CAF"/>
<path opacity="0.2" d="M96.1576 16.1169C96.9235 10.3195 96.196 5.44214 94.5329 5.22298C92.8697 5.00383 90.9006 9.52587 90.1347 15.3232C89.3689 21.1206 90.0963 25.998 91.7595 26.2171C93.4227 26.4363 95.3918 21.9142 96.1576 16.1169Z" fill="#0E9CAF"/>
<path opacity="0.2" d="M91.7585 26.2093C93.4195 25.9744 94.1005 21.0904 93.2797 15.3006C92.4588 9.51085 90.4468 5.00774 88.7858 5.24264C87.1248 5.47754 86.4438 10.3615 87.2647 16.1513C88.0855 21.941 90.0975 26.4442 91.7585 26.2093Z" fill="#0E9CAF"/>
<path opacity="0.2" d="M91.7584 26.2087C93.2953 25.537 92.6383 20.6498 90.291 15.2927C87.9437 9.93569 84.795 6.13747 83.2581 6.80917C81.7213 7.48087 82.3783 12.3681 84.7256 17.7252C87.0729 23.0822 90.2216 26.8804 91.7584 26.2087Z" fill="#0E9CAF"/>
<path opacity="0.2" d="M91.7592 26.2165C93.0591 25.1574 91.1127 20.6255 87.4117 16.0941C83.7107 11.5628 79.6567 8.74792 78.3567 9.80699C77.0567 10.8661 79.0031 15.398 82.7041 19.9293C86.4051 24.4607 90.4592 27.2755 91.7592 26.2165Z" fill="#0E9CAF"/>
<path opacity="0.2" d="M91.7626 26.2123C92.73 24.8434 89.6365 20.9999 84.8529 17.6276C80.0693 14.2552 75.4071 12.6311 74.4396 14C73.4722 15.3688 76.5657 19.2123 81.3493 22.5847C86.1329 25.957 90.7951 27.5812 91.7626 26.2123Z" fill="#0E9CAF"/>
<path opacity="0.2" d="M91.768 26.208C92.3323 24.6301 88.3193 21.7581 82.8046 19.7931C77.2899 17.8282 72.3619 17.5144 71.7976 19.0922C71.2333 20.6701 75.2464 23.5421 80.761 25.5071C86.2757 27.4721 91.2037 27.7859 91.768 26.208Z" fill="#0E9CAF"/>
<path opacity="0.2" d="M91.7614 26.2087C91.8804 24.5374 87.2423 22.8458 81.4019 22.4304C75.5615 22.0149 70.7304 23.033 70.6114 24.7043C70.4923 26.3756 75.1304 28.0672 80.9708 28.4826C86.8112 28.8981 91.6423 27.88 91.7614 26.2087Z" fill="#0E9CAF"/>
<path d="M35.6416 38.8852C35.5389 38.8852 35.4448 38.8511 35.3592 38.7827C35.1795 38.6289 35.1624 38.3554 35.3164 38.1759C44.0013 28.2031 55.1761 20.7 67.643 16.4784C67.8655 16.4015 68.1136 16.5211 68.1821 16.7433C68.2505 16.9655 68.1393 17.2048 67.9168 17.2817C55.5954 21.452 44.5489 28.8697 35.9582 38.7229C35.8812 38.834 35.7614 38.8852 35.6416 38.8852Z" fill="#0E9CAF"/>
<path d="M147.484 38.8833C147.364 38.8833 147.244 38.8321 147.159 38.7381C139.09 29.466 128.754 22.3047 117.279 18.0404C117.057 17.9549 116.946 17.7156 117.031 17.4934C117.117 17.2712 117.356 17.1602 117.579 17.2456C129.182 21.5697 139.638 28.8079 147.801 38.1911C147.955 38.3706 147.937 38.6355 147.758 38.7979C147.689 38.8492 147.587 38.8833 147.484 38.8833Z" fill="#0E9CAF"/>
<path d="M10.6993 99.8672V104.319H13.0267V105.251H9.67255V99.8672H10.6993Z" fill="#564F52"/>
<path d="M17.553 103.541H14.5068C14.6352 104.122 15.0887 104.481 15.6876 104.481C16.1155 104.481 16.5005 104.319 16.8 104.02L17.339 104.584C16.9283 105.028 16.3294 105.293 15.6021 105.293C14.3271 105.293 13.48 104.447 13.48 103.208C13.48 101.951 14.3443 101.105 15.5764 101.105C17.031 101.105 17.6556 102.054 17.553 103.541ZM16.646 102.874C16.6203 102.268 16.2181 101.883 15.5935 101.883C15.0031 101.883 14.5838 102.268 14.4897 102.874H16.646Z" fill="#564F52"/>
<path d="M20.9242 105.25V104.754C20.6418 105.113 20.1798 105.301 19.5894 105.301C18.6995 105.301 18.1519 104.754 18.1519 104.028C18.1519 103.268 18.7166 102.798 19.7177 102.789H20.9156V102.678C20.9156 102.199 20.599 101.917 19.983 101.917C19.5979 101.917 19.1786 102.045 18.7594 102.302L18.4 101.61C18.9904 101.276 19.4524 101.105 20.214 101.105C21.2921 101.105 21.8996 101.652 21.9082 102.567L21.9167 105.259H20.9242V105.25ZM20.9156 103.823V103.456H19.8717C19.3412 103.456 19.0931 103.601 19.0931 103.96C19.0931 104.31 19.3669 104.532 19.8289 104.532C20.4108 104.524 20.8643 104.216 20.9156 103.823Z" fill="#564F52"/>
<path d="M27.0764 99.541V105.25H26.0753V104.592C25.7844 105.044 25.3052 105.301 24.6891 105.301C23.5083 105.301 22.7211 104.438 22.7211 103.181C22.7211 101.934 23.5083 101.096 24.6635 101.096C25.2966 101.096 25.7758 101.353 26.0753 101.814V99.541H27.0764ZM26.0753 103.207C26.0753 102.472 25.5961 101.951 24.903 101.951C24.2185 101.951 23.7394 102.472 23.7308 103.207C23.7394 103.942 24.21 104.463 24.903 104.463C25.6047 104.455 26.0753 103.942 26.0753 103.207Z" fill="#564F52"/>
<path d="M32.1247 103.541H29.0786C29.207 104.122 29.6604 104.481 30.2594 104.481C30.6872 104.481 31.0723 104.319 31.3718 104.02L31.9108 104.584C31.5001 105.028 30.9011 105.293 30.1738 105.293C28.8989 105.293 28.0518 104.447 28.0518 103.208C28.0518 101.951 28.916 101.105 30.1482 101.105C31.6028 101.105 32.2274 102.054 32.1247 103.541ZM31.2177 102.874C31.1921 102.268 30.7899 101.883 30.1653 101.883C29.5749 101.883 29.1556 102.268 29.0615 102.874H31.2177Z" fill="#564F52"/>
<path d="M35.4704 101.098V102.063C34.5977 102.012 34.0672 102.516 34.0672 103.268V105.251H33.066V101.132H34.0672V101.927C34.341 101.388 34.8287 101.106 35.4704 101.098Z" fill="#564F52"/>
<path d="M37.464 101.874C37.1389 101.874 36.9079 101.985 36.9079 102.233C36.9079 102.925 39.0898 102.566 39.0898 104.045C39.0898 104.882 38.3454 105.292 37.464 105.292C36.8394 105.292 36.1891 105.096 35.7613 104.72L36.1036 104.019C36.48 104.344 37.0533 104.523 37.4983 104.523C37.8405 104.523 38.1058 104.412 38.1058 104.139C38.1058 103.378 35.9581 103.788 35.9666 102.327C35.9666 101.481 36.694 101.088 37.5239 101.088C38.063 101.088 38.6277 101.25 39.0299 101.524L38.6705 102.25C38.2769 102.011 37.8234 101.874 37.464 101.874Z" fill="#564F52"/>
<path d="M43.0863 99.9607C43.0863 100.303 42.8551 100.55 42.5212 100.55C42.1873 100.55 41.9562 100.294 41.9562 99.9607C41.9562 99.6189 42.1873 99.3711 42.5212 99.3711C42.8551 99.3711 43.0863 99.6104 43.0863 99.9607ZM43.0178 101.132V105.251H42.0161V101.132H43.0178Z" fill="#564F52"/>
<path d="M48.3308 102.677V105.25H47.3211V102.968C47.3211 102.395 46.9703 102.036 46.4056 102.036C45.7296 102.045 45.3275 102.541 45.3275 103.224V105.25H44.3264V101.131H45.3275V101.9C45.6184 101.353 46.1403 101.096 46.8078 101.088C47.7575 101.096 48.3308 101.703 48.3308 102.677Z" fill="#564F52"/>
<path d="M55.0819 104.114H52.4465L51.9673 105.251H50.8978L53.2594 99.8672H54.3289L56.6649 105.251H55.5525L55.0819 104.114ZM54.714 103.226L53.7728 100.961L52.8144 103.226H54.714Z" fill="#564F52"/>
<path d="M61.1314 99.541V105.25H60.1303V104.592C59.8394 105.044 59.3602 105.301 58.7441 105.301C57.5633 105.301 56.7761 104.438 56.7761 103.181C56.7761 101.934 57.5633 101.096 58.7185 101.096C59.3516 101.096 59.8308 101.353 60.1303 101.814V99.541H61.1314ZM60.1303 103.207C60.1303 102.472 59.6511 101.951 58.958 101.951C58.2735 101.951 57.7944 102.472 57.7858 103.207C57.7944 103.942 58.265 104.463 58.958 104.463C59.6511 104.455 60.1303 103.942 60.1303 103.207Z" fill="#564F52"/>
<path d="M62.9026 101.133L63.9807 104.261L65.0332 101.133H66.0428L64.4684 105.252H63.4417L61.8587 101.141L62.9026 101.133Z" fill="#564F52"/>
<path d="M69.0121 105.25V104.754C68.7297 105.113 68.2676 105.301 67.6772 105.301C66.7874 105.301 66.2397 104.754 66.2397 104.028C66.2397 103.268 66.8045 102.798 67.8056 102.789H69.0035V102.678C69.0035 102.199 68.6869 101.917 68.0709 101.917C67.6858 101.917 67.2665 102.045 66.8473 102.302L66.4879 101.61C67.0783 101.276 67.5403 101.105 68.3019 101.105C69.38 101.105 69.9875 101.652 69.9961 102.567L70.0046 105.259H69.0121V105.25ZM69.0035 103.823V103.456H67.9596C67.4291 103.456 67.181 103.601 67.181 103.96C67.181 104.31 67.4548 104.532 67.9168 104.532C68.4987 104.524 68.9522 104.216 69.0035 103.823Z" fill="#564F52"/>
<path d="M75.1983 102.677V105.25H74.1886V102.968C74.1886 102.395 73.8378 102.036 73.2731 102.036C72.5971 102.045 72.195 102.541 72.195 103.224V105.25H71.1938V101.131H72.195V101.9C72.4859 101.353 73.0078 101.096 73.6752 101.088C74.6165 101.096 75.1983 101.703 75.1983 102.677Z" fill="#564F52"/>
<path d="M78.1417 101.977C77.4829 101.977 77.0208 102.472 77.0208 103.19C77.0208 103.925 77.4829 104.421 78.1417 104.421C78.6209 104.421 79.006 104.258 79.2541 103.934L79.8787 104.446C79.5193 104.968 78.9033 105.275 78.0904 105.275C76.8583 105.275 76.0112 104.429 76.0112 103.19C76.0112 101.934 76.8668 101.088 78.1075 101.088C78.8605 101.088 79.4595 101.361 79.8359 101.84L79.2284 102.412C78.9632 102.148 78.5952 101.977 78.1417 101.977Z" fill="#564F52"/>
<path d="M84.3453 103.541H81.2991C81.4275 104.122 81.881 104.481 82.4799 104.481C82.9078 104.481 83.2928 104.319 83.5923 104.02L84.1313 104.584C83.7206 105.028 83.1217 105.293 82.3944 105.293C81.1194 105.293 80.2723 104.447 80.2723 103.208C80.2723 101.951 81.1366 101.105 82.3687 101.105C83.8233 101.105 84.4394 102.054 84.3453 103.541ZM83.4383 102.874C83.4126 102.268 83.0104 101.883 82.3858 101.883C81.7954 101.883 81.3761 102.268 81.282 102.874H83.4383Z" fill="#564F52"/>
<path d="M89.2566 99.541V105.25H88.2555V104.592C87.9646 105.044 87.4854 105.301 86.8694 105.301C85.6886 105.301 84.9014 104.438 84.9014 103.181C84.9014 101.934 85.6886 101.096 86.8437 101.096C87.4769 101.096 87.956 101.353 88.2555 101.814V99.541H89.2566ZM88.2555 103.207C88.2555 102.472 87.7764 101.951 87.0833 101.951C86.3988 101.951 85.9196 102.472 85.911 103.207C85.9196 103.942 86.3902 104.463 87.0833 104.463C87.7764 104.455 88.2555 103.942 88.2555 103.207Z" fill="#564F52"/>
<path d="M95.0923 100.746C94.074 100.746 93.2783 101.533 93.2783 102.532C93.2783 103.541 94.074 104.327 95.0923 104.327C95.6057 104.327 96.1533 104.088 96.5554 103.695L97.163 104.37C96.6068 104.934 95.811 105.293 95.0409 105.293C93.458 105.293 92.2258 104.096 92.2258 102.55C92.2258 101.011 93.4665 99.832 95.0752 99.832C95.8452 99.832 96.6324 100.165 97.1544 100.695L96.5554 101.447C96.1704 101.02 95.6228 100.746 95.0923 100.746Z" fill="#564F52"/>
<path d="M100.466 105.25V104.754C100.183 105.113 99.7214 105.301 99.131 105.301C98.2412 105.301 97.6935 104.754 97.6935 104.028C97.6935 103.268 98.2583 102.798 99.2594 102.789H100.457V102.678C100.457 102.199 100.141 101.917 99.5246 101.917C99.1396 101.917 98.7203 102.045 98.3011 102.302L97.9417 101.61C98.5321 101.276 98.9941 101.105 99.7557 101.105C100.834 101.105 101.441 101.652 101.45 102.567L101.458 105.259H100.466V105.25ZM100.457 103.823V103.456H99.4134C98.8829 103.456 98.6348 103.601 98.6348 103.96C98.6348 104.31 98.9086 104.532 99.3706 104.532C99.9525 104.524 100.406 104.216 100.457 103.823Z" fill="#564F52"/>
<path d="M106.652 102.677V105.25H105.642V102.968C105.642 102.395 105.292 102.036 104.727 102.036C104.051 102.045 103.649 102.541 103.649 103.224V105.25H102.648V101.131H103.649V101.9C103.94 101.353 104.462 101.096 105.129 101.088C106.079 101.096 106.652 101.703 106.652 102.677Z" fill="#564F52"/>
<path d="M109.604 101.977C108.945 101.977 108.483 102.472 108.483 103.19C108.483 103.925 108.945 104.421 109.604 104.421C110.083 104.421 110.468 104.258 110.716 103.934L111.341 104.446C110.982 104.968 110.366 105.275 109.553 105.275C108.321 105.275 107.474 104.429 107.474 103.19C107.474 101.934 108.329 101.088 109.57 101.088C110.323 101.088 110.922 101.361 111.298 101.84L110.691 102.412C110.417 102.148 110.058 101.977 109.604 101.977Z" fill="#564F52"/>
<path d="M115.799 103.541H112.753C112.881 104.122 113.335 104.481 113.934 104.481C114.362 104.481 114.747 104.319 115.046 104.02L115.585 104.584C115.174 105.028 114.576 105.293 113.848 105.293C112.573 105.293 111.726 104.447 111.726 103.208C111.726 101.951 112.59 101.105 113.823 101.105C115.277 101.105 115.902 102.054 115.799 103.541ZM114.892 102.874C114.866 102.268 114.464 101.883 113.84 101.883C113.249 101.883 112.83 102.268 112.736 102.874H114.892Z" fill="#564F52"/>
<path d="M119.145 101.098V102.063C118.272 102.012 117.741 102.516 117.741 103.268V105.251H116.74V101.132H117.741V101.927C118.015 101.388 118.503 101.106 119.145 101.098Z" fill="#564F52"/>
<path d="M123.149 99.8672L124.843 103.32L126.529 99.8672H127.718V105.251H126.777L126.769 101.405L125.177 104.696H124.51L122.918 101.405V105.251H121.96V99.8672H123.149Z" fill="#564F52"/>
<path d="M131.509 105.25V104.754C131.226 105.113 130.764 105.301 130.174 105.301C129.284 105.301 128.736 104.754 128.736 104.028C128.736 103.268 129.301 102.798 130.302 102.789H131.5V102.678C131.5 102.199 131.184 101.917 130.568 101.917C130.183 101.917 129.763 102.045 129.344 102.302L128.985 101.61C129.575 101.276 130.037 101.105 130.799 101.105C131.877 101.105 132.484 101.652 132.493 102.567L132.501 105.259H131.509V105.25ZM131.5 103.823V103.456H130.456C129.926 103.456 129.678 103.601 129.678 103.96C129.678 104.31 129.951 104.532 130.414 104.532C130.995 104.524 131.449 104.216 131.5 103.823Z" fill="#564F52"/>
<path d="M137.695 102.677V105.25H136.686V102.968C136.686 102.395 136.335 102.036 135.77 102.036C135.094 102.045 134.692 102.541 134.692 103.224V105.25H133.691V101.131H134.692V101.9C134.983 101.353 135.505 101.096 136.172 101.088C137.113 101.096 137.695 101.703 137.695 102.677Z" fill="#564F52"/>
<path d="M141.323 105.25V104.754C141.041 105.113 140.579 105.301 139.988 105.301C139.099 105.301 138.551 104.754 138.551 104.028C138.551 103.268 139.116 102.798 140.117 102.789H141.315V102.678C141.315 102.199 140.998 101.917 140.382 101.917C139.997 101.917 139.578 102.045 139.158 102.302L138.799 101.61C139.39 101.276 139.852 101.105 140.613 101.105C141.691 101.105 142.299 101.652 142.307 102.567L142.316 105.259H141.323V105.25ZM141.315 103.823V103.456H140.271C139.74 103.456 139.492 103.601 139.492 103.96C139.492 104.31 139.766 104.532 140.228 104.532C140.801 104.524 141.263 104.216 141.315 103.823Z" fill="#564F52"/>
<path d="M147.27 101.132V104.858C147.27 106.037 146.414 106.781 145.114 106.781C144.455 106.781 143.856 106.567 143.377 106.234L143.779 105.507C144.155 105.781 144.575 105.935 145.062 105.935C145.798 105.935 146.269 105.525 146.269 104.875V104.388C145.995 104.807 145.542 105.037 144.96 105.037C143.865 105.037 143.129 104.234 143.129 103.055C143.129 101.893 143.865 101.098 144.934 101.098C145.524 101.089 145.987 101.329 146.277 101.747V101.132H147.27ZM146.269 103.08C146.269 102.388 145.824 101.901 145.174 101.901C144.523 101.901 144.078 102.397 144.07 103.08C144.078 103.773 144.515 104.26 145.174 104.26C145.815 104.26 146.269 103.773 146.269 103.08Z" fill="#564F52"/>
<path d="M152.207 103.541H149.161C149.289 104.122 149.743 104.481 150.342 104.481C150.77 104.481 151.155 104.319 151.454 104.02L151.993 104.584C151.583 105.028 150.984 105.293 150.256 105.293C148.981 105.293 148.134 104.447 148.134 103.208C148.134 101.951 148.998 101.105 150.231 101.105C151.677 101.105 152.301 102.054 152.207 103.541ZM151.292 102.874C151.266 102.268 150.864 101.883 150.239 101.883C149.649 101.883 149.23 102.268 149.135 102.874H151.292Z" fill="#564F52"/>
<path d="M160.045 102.677V105.25H159.035V102.968C159.035 102.387 158.684 102.028 158.137 102.028C157.486 102.054 157.093 102.541 157.093 103.216V105.25H156.083V102.968C156.083 102.387 155.741 102.028 155.193 102.028C154.534 102.054 154.149 102.541 154.149 103.216V105.25H153.148V101.131H154.141V101.891C154.423 101.344 154.937 101.096 155.587 101.088C156.314 101.088 156.811 101.447 157.007 102.071C157.273 101.404 157.82 101.096 158.539 101.088C159.472 101.096 160.045 101.703 160.045 102.677Z" fill="#564F52"/>
<path d="M164.913 103.541H161.867C161.996 104.122 162.449 104.481 163.048 104.481C163.476 104.481 163.861 104.319 164.161 104.02L164.7 104.584C164.289 105.028 163.69 105.293 162.963 105.293C161.688 105.293 160.841 104.447 160.841 103.208C160.841 101.951 161.705 101.105 162.937 101.105C164.392 101.105 165.016 102.054 164.913 103.541ZM164.006 102.874C163.981 102.268 163.579 101.883 162.954 101.883C162.364 101.883 161.944 102.268 161.85 102.874H164.006Z" fill="#564F52"/>
<path d="M169.859 102.677V105.25H168.85V102.968C168.85 102.395 168.499 102.036 167.934 102.036C167.258 102.045 166.856 102.541 166.856 103.224V105.25H165.855V101.131H166.856V101.9C167.147 101.353 167.669 101.096 168.336 101.088C169.286 101.096 169.859 101.703 169.859 102.677Z" fill="#564F52"/>
<path d="M173.462 104.994C173.145 105.182 172.794 105.293 172.426 105.293C171.759 105.293 171.22 104.909 171.22 104.063V102.029H170.638L170.629 101.294H171.211V100.166H172.204V101.294H173.385V102.029H172.204V103.883C172.204 104.276 172.366 104.405 172.632 104.405C172.803 104.405 172.991 104.345 173.213 104.234L173.462 104.994Z" fill="#564F52"/>
</svg>
