<svg width="251" height="60" viewBox="0 0 251 60" fill="none" xmlns="http://www.w3.org/2000/svg">
<g clip-path="url(#clip0_399_253)">
<path fill-rule="evenodd" clip-rule="evenodd" d="M33.4563 38.1253C22.7398 38.1253 14.0483 30.0691 14.0483 20.1475C14.0497 19.364 14.1044 18.5813 14.2122 17.8047C10.3378 19.14 6.98737 21.5911 4.6188 24.8229C2.25023 28.0546 0.979016 31.9098 0.978882 35.8612V55.0301H20.9547C26.0867 55.0299 31.0216 53.1331 34.7357 49.7334C38.4496 46.3338 40.6575 41.6919 40.9011 36.7713C38.5323 37.675 36.0053 38.1346 33.4563 38.1253Z" fill="#FF8643"/>
<path fill-rule="evenodd" clip-rule="evenodd" d="M33.4282 38.536C22.6275 38.536 13.8738 30.4036 13.8738 20.3885C13.8733 19.5977 13.8597 18.6714 13.9663 17.8873C16.9138 16.8754 20.1326 16.6738 23.2395 17.0367C26.3463 17.3995 29.3225 18.4532 31.9323 20.1141C34.542 21.775 36.7133 23.9975 38.2743 26.6056C39.8354 29.2135 40.8741 32.0716 41.0564 35.0753C41.0564 35.4384 41.0689 35.8159 41.0689 36.2129C41.0689 36.61 41.0689 36.8236 41.0689 37.1244C38.683 38.0325 35.994 38.5527 33.4282 38.536Z" fill="white"/>
<path fill-rule="evenodd" clip-rule="evenodd" d="M13.9662 20.562C13.9646 19.7776 13.855 18.6658 13.9661 17.8886C16.9432 16.8704 20.2941 16.8687 23.4297 17.2541C26.5652 17.6395 29.5612 18.7292 32.1734 20.4345C34.7854 22.1397 36.9396 24.4121 38.4599 27.0664C39.9805 29.7205 40.798 32.69 40.8963 35.7158C40.8963 35.9125 40.8963 36.1037 40.8963 36.2782C40.8963 36.5819 40.8757 36.897 40.8757 37.1949C44.5727 35.9897 47.0593 33.976 49.3486 30.9458C51.6376 27.9155 52.8877 24.2794 52.9262 20.5395C52.9262 10.5908 44.2053 2.54297 33.4523 2.54297C23.5564 2.54297 15.2053 9.04782 13.9661 17.8886C13.8508 18.6674 13.9682 19.7754 13.9662 20.562Z" fill="#99E8D3"/>
<path d="M97.4449 10.8484V2.3418H73.3074C72.1213 2.34105 70.9464 2.56512 69.8505 3.00117C68.7545 3.43724 67.7584 4.07674 66.9197 4.88311C66.081 5.68951 65.4159 6.64693 64.9623 7.70066C64.5088 8.75439 64.2758 9.88377 64.2763 11.0242V56.7896H73.5787V34.6725H96.6368V26.115H73.5787V10.803L97.4449 10.8484Z" fill="#2F313B"/>
<path d="M110.634 10.4978C110.132 10.9982 109.528 11.3947 108.861 11.6629C108.194 11.9311 107.476 12.0653 106.753 12.0573C106.019 12.0641 105.29 11.9304 104.61 11.6641C103.93 11.3977 103.312 11.004 102.791 10.5058C102.271 10.0077 101.859 9.41494 101.579 8.76222C101.299 8.10953 101.157 7.40985 101.161 6.70383C101.208 5.31045 101.817 3.98925 102.859 3.0196C103.9 2.04994 105.294 1.50781 106.744 1.50781C108.194 1.50781 109.587 2.04994 110.629 3.0196C111.671 3.98925 112.28 5.31045 112.327 6.70383C112.328 7.41363 112.178 8.11615 111.887 8.76846C111.596 9.42076 111.17 10.0092 110.634 10.4978ZM102.376 56.7793V17.8872H111.112V56.7793H102.376Z" fill="#2F313B"/>
<path d="M141.817 25.983H131.79V44.6466C131.79 46.257 132.167 47.4254 132.922 48.1511C133.86 48.8896 135.031 49.2995 136.243 49.3138C137.753 49.3704 139.611 49.3138 141.823 49.24V56.7825C135.138 57.5615 130.339 57.017 127.425 55.1492C124.511 53.2816 123.054 49.7808 123.054 44.6466V25.983H115.604V17.8904H123.048V9.49156L131.784 7.00195V17.8904H141.812L141.817 25.983Z" fill="#2F313B"/>
<path d="M154.993 40.9106C155.501 43.6586 157.095 46.1113 159.441 47.7558C161.95 49.3659 164.919 50.1827 167.935 50.0922C172.575 50.0922 176.054 48.4834 178.37 45.2661L185.572 49.3095C181.585 54.9806 175.686 57.8066 167.876 57.7878C161.301 57.7878 155.992 55.8691 151.949 52.0317C147.907 48.1943 145.874 43.2926 145.85 37.3265C145.85 31.5195 147.846 26.6708 151.837 22.7803C155.829 18.89 160.953 16.9202 167.209 16.8711C173.143 16.8711 177.998 18.8673 181.773 22.8597C185.548 26.8521 187.462 31.7008 187.513 37.4061C187.488 38.5782 187.38 39.7471 187.188 40.9051L154.993 40.9106ZM154.91 34.0656H178.694C178.104 30.9013 176.728 28.5156 174.565 26.9089C172.45 25.2991 169.818 24.447 167.121 24.4987C164.191 24.3992 161.32 25.3105 159.028 27.0675C156.829 28.8519 155.368 31.3346 154.91 34.0656Z" fill="#2F313B"/>
<path d="M193.183 56.7788V0H201.918V56.7788H193.183Z" fill="#2F313B"/>
<path d="M229.162 57.788C226.356 57.8391 223.568 57.3416 220.967 56.3258C218.366 55.3102 216.007 53.7972 214.032 51.8788C210.042 48.0095 207.803 42.7815 207.803 37.3324C207.803 31.8836 210.042 26.6555 214.032 22.7862C218.083 18.9971 223.511 16.877 229.162 16.877C234.814 16.877 240.242 18.9971 244.293 22.7862C247.303 25.6474 249.357 29.307 250.193 33.2968C251.028 37.2865 250.607 41.4252 248.982 45.1833C247.357 48.9414 244.604 52.1482 241.073 54.3938C237.543 56.6391 233.396 57.8209 229.162 57.788ZM220.185 46.1227C222.592 48.3667 225.813 49.6217 229.165 49.6217C232.518 49.6217 235.739 48.3667 238.146 46.1227C240.484 43.7477 241.787 40.6022 241.787 37.3324C241.787 34.0627 240.484 30.9171 238.146 28.5424C235.739 26.2984 232.518 25.0434 229.165 25.0434C225.813 25.0434 222.592 26.2984 220.185 28.5424C217.844 30.9158 216.54 34.0619 216.54 37.3324C216.54 40.6032 217.844 43.749 220.185 46.1227Z" fill="#2F313B"/>
</g>
<defs>
<clipPath id="clip0_399_253">
<rect width="249.635" height="60" fill="white" transform="translate(0.978882)"/>
</clipPath>
</defs>
</svg>
