<svg width="806" height="806" viewBox="0 0 806 806" fill="none" xmlns="http://www.w3.org/2000/svg">
<path opacity="0.2" d="M323.666 107.381C320.373 95.0914 307.706 87.7202 295.677 91.865C227.048 115.512 167.938 161.297 127.868 222.34C83.571 289.823 65.637 371.24 77.4803 451.089C89.3237 530.938 130.117 603.644 192.095 655.364C254.072 707.084 332.905 734.206 413.584 731.567C494.264 728.928 571.156 696.712 629.621 641.053C688.086 585.393 724.042 510.177 730.642 429.725C737.242 349.272 714.026 269.202 665.414 204.758C621.441 146.464 559.465 104.639 489.438 85.5274C477.163 82.1776 465.005 90.3607 462.522 102.839C460.039 115.318 468.179 127.355 480.415 130.845C539.357 147.656 591.469 183.242 628.63 232.505C670.432 287.922 690.396 356.775 684.72 425.958C679.045 495.14 648.126 559.819 597.851 607.682C547.576 655.544 481.456 683.247 412.078 685.516C342.701 687.785 274.911 664.462 221.616 619.988C168.321 575.513 133.242 512.992 123.057 444.329C112.873 375.665 128.295 305.654 166.386 247.625C200.249 196.038 249.924 157.123 307.642 136.496C319.623 132.214 326.959 119.671 323.666 107.381Z" fill="#43094B"/>
<path d="M535.946 183.466C535.504 138.415 571.668 101.536 616.719 101.094C661.771 100.653 698.65 136.816 699.091 181.867C699.533 226.919 663.37 263.798 618.318 264.24C573.267 264.681 536.387 228.518 535.946 183.466Z" fill="white" stroke="#E5E5E5"/>
<circle cx="600.682" cy="201.554" r="20.326" fill="#E0D9FF"/>
<path d="M597.603 186.156V202.7C597.603 203.213 597.81 203.705 598.18 204.068C598.549 204.431 599.051 204.634 599.574 204.634H635.052C635.574 204.634 636.076 204.431 636.445 204.068C636.815 203.705 637.023 203.213 637.023 202.7V186.156" stroke="#6B49F1" strokeWidth="3.6" strokeLinecap="round" strokeLinejoin="round"/>
<path d="M598.321 160.287H636.304C636.749 160.291 637.182 160.442 637.537 160.717C637.893 160.993 638.153 161.379 638.28 161.818L641.95 175.07H592.675L596.345 161.818C596.471 161.379 596.732 160.993 597.087 160.717C597.443 160.442 597.876 160.291 598.321 160.287V160.287Z" stroke="#6B49F1" strokeWidth="3.6" strokeLinecap="round" strokeLinejoin="round"/>
<path d="M609.921 175.068V179.175C609.921 181.353 609.013 183.442 607.395 184.982C605.778 186.522 603.585 187.387 601.298 187.387C599.011 187.387 596.818 186.522 595.2 184.982C593.583 183.442 592.675 181.353 592.675 179.175V175.068" stroke="#6B49F1" strokeWidth="3.6" strokeLinecap="round" strokeLinejoin="round"/>
<path d="M624.703 175.068V179.175C624.703 181.353 623.925 183.442 622.539 184.982C621.152 186.522 619.272 187.387 617.312 187.387C615.352 187.387 613.472 186.522 612.086 184.982C610.7 183.442 609.921 181.353 609.921 179.175V175.068" stroke="#6B49F1" strokeWidth="3.6" strokeLinecap="round" strokeLinejoin="round"/>
<path d="M641.95 175.068V179.175C641.95 181.353 641.042 183.442 639.425 184.982C637.808 186.522 635.614 187.387 633.327 187.387C631.04 187.387 628.847 186.522 627.23 184.982C625.613 183.442 624.704 181.353 624.704 179.175V175.068" stroke="#6B49F1" strokeWidth="3.6" strokeLinecap="round" strokeLinejoin="round"/>
<rect x="620.145" y="312.545" width="163.153" height="163.153" rx="81.5767" transform="rotate(-0.561514 620.145 312.545)" fill="white" stroke="#E5E5E5"/>
<circle cx="717.575" cy="366.492" r="20.326" fill="#F9DCEF"/>
<path d="M686.161 371.087L686.161 414.866C686.161 417.064 687.954 418.846 690.165 418.846L714.186 418.846C716.397 418.846 718.19 417.064 718.19 414.866L718.19 371.087C718.19 368.889 716.397 367.107 714.186 367.107L690.165 367.107C687.954 367.107 686.161 368.889 686.161 371.087Z" stroke="#FF65CB" strokeWidth="3.6" strokeLinecap="round" strokeLinejoin="round"/>
<path d="M702.176 406.528C700.815 406.528 699.712 407.631 699.712 408.991C699.712 410.352 700.815 411.455 702.176 411.455C703.537 411.455 704.64 410.352 704.64 408.991C704.64 407.631 703.537 406.528 702.176 406.528Z" fill="#FF65CB"/>
<rect x="535.146" y="517.037" width="163.153" height="163.153" rx="81.5767" transform="rotate(-0.561514 535.146 517.037)" fill="white" stroke="#E5E5E5"/>
<circle cx="638.735" cy="614.1" r="20.326" fill="#C8E7CB"/>
<path d="M593.772 580.225H640.584V612.801C640.584 613.309 640.378 613.797 640.012 614.156C639.647 614.515 639.151 614.717 638.633 614.717H595.723C595.206 614.717 594.71 614.515 594.344 614.156C593.978 613.797 593.772 613.309 593.772 612.801V580.225Z" stroke="#54CC60" strokeWidth="3.6" strokeLinecap="round" strokeLinejoin="round"/>
<path d="M640.584 580.225L617.178 601.167L593.772 580.225" stroke="#54CC60" strokeWidth="3.6" strokeLinecap="round" strokeLinejoin="round"/>
<rect x="322.031" y="616.818" width="163.153" height="163.153" rx="81.5767" transform="rotate(-0.561514 322.031 616.818)" fill="white" stroke="#E5E5E5"/>
<circle cx="382.505" cy="688.012" r="20.326" fill="#F0E4D1"/>
<path d="M377.258 704.847C374.807 700.718 373.948 695.835 374.842 691.117C375.736 686.399 378.322 682.169 382.114 679.223C385.906 676.276 390.644 674.816 395.437 675.116C400.23 675.415 404.748 677.454 408.144 680.85C411.54 684.246 413.579 688.764 413.879 693.557C414.178 698.35 412.718 703.088 409.771 706.88C406.825 710.672 402.596 713.258 397.877 714.152C393.159 715.047 388.276 714.187 384.147 711.736L377.34 713.677C377.059 713.756 376.763 713.759 376.481 713.685C376.199 713.612 375.942 713.464 375.736 713.258C375.53 713.052 375.383 712.795 375.309 712.513C375.235 712.231 375.238 711.935 375.317 711.654L377.258 704.847Z" stroke="#FFB545" strokeWidth="3.6" strokeLinecap="round" strokeLinejoin="round"/>
<path d="M392.976 714.871C393.937 717.624 395.496 720.127 397.54 722.201C399.583 724.276 402.06 725.868 404.792 726.864C407.523 727.86 410.441 728.235 413.334 727.961C416.227 727.687 419.024 726.771 421.522 725.28V725.28L428.317 727.225C428.597 727.304 428.893 727.307 429.174 727.233C429.456 727.159 429.713 727.012 429.918 726.805C430.124 726.599 430.271 726.341 430.345 726.059C430.418 725.776 430.415 725.479 430.337 725.198L428.399 718.377C430.129 715.463 431.079 712.149 431.158 708.757C431.237 705.365 430.442 702.011 428.85 699.018C427.258 696.026 424.922 693.497 422.07 691.676C419.218 689.856 415.946 688.806 412.57 688.628" stroke="#FFB545" strokeWidth="3.6" strokeLinecap="round" strokeLinejoin="round"/>
<rect x="112.613" y="517.037" width="163.153" height="163.153" rx="81.5767" transform="rotate(-0.561514 112.613 517.037)" fill="white" stroke="#E5E5E5"/>
<circle cx="175.55" cy="577.144" r="20.326" fill="#FFDEDE"/>
<path d="M173.702 624.572C173.699 623.769 173.859 622.974 174.173 622.231C174.488 621.489 174.951 620.815 175.535 620.247C176.119 619.679 176.813 619.23 177.576 618.924C178.34 618.618 179.159 618.463 179.985 618.466H215.586V577.761H179.985C179.159 577.757 178.34 577.913 177.576 578.219C176.813 578.524 176.119 578.974 175.535 579.542C174.951 580.109 174.488 580.784 174.173 581.526C173.859 582.268 173.699 583.064 173.702 583.867V624.572Z" stroke="#FF5F5F" strokeWidth="3.6" strokeLinecap="round" strokeLinejoin="round"/>
<path d="M173.702 624.571V627.035H210.658" stroke="#FF5F5F" strokeWidth="3.6" strokeLinecap="round" strokeLinejoin="round"/>
<rect x="15.2949" y="311.312" width="163.153" height="163.153" rx="81.5767" transform="rotate(-0.561514 15.2949 311.312)" fill="white" stroke="#E5E5E5"/>
<path d="M93.6307 394.055C98.7333 394.055 102.87 389.919 102.87 384.816C102.87 379.714 98.7333 375.577 93.6307 375.577C88.5281 375.577 84.3916 379.714 84.3916 384.816C84.3916 389.919 88.5281 394.055 93.6307 394.055Z" stroke="#1ACCB7" strokeWidth="3.6" strokeLinecap="round" strokeLinejoin="round"/>
<circle cx="107.798" cy="414.536" r="20.326" fill="#C6ECE6"/>
<path d="M116.73 384.816C116.73 405.604 93.6319 421.773 93.6319 421.773C93.6319 421.773 70.5342 405.604 70.5342 384.816C70.5342 378.691 72.9677 372.816 77.2993 368.484C81.631 364.152 87.506 361.719 93.6319 361.719C99.7577 361.719 105.633 364.152 109.964 368.484C114.296 372.816 116.73 378.691 116.73 384.816V384.816Z" stroke="#1ACCB7" strokeWidth="3.6" strokeLinecap="round" strokeLinejoin="round"/>
<rect x="112.613" y="101.894" width="163.153" height="163.153" rx="81.5767" transform="rotate(-0.561514 112.613 101.894)" fill="white" stroke="#E5E5E5"/>
<circle cx="214.97" cy="198.957" r="20.326" fill="#D1EAF2"/>
<path d="M205.501 196.879H175.827L168.577 157.018C168.492 156.54 168.243 156.108 167.873 155.795C167.503 155.481 167.035 155.307 166.55 155.303H161.847" stroke="#37C4F0" strokeWidth="3.6" strokeLinecap="round" strokeLinejoin="round"/>
<path d="M178.477 207.273C181.347 207.273 183.674 204.946 183.674 202.076C183.674 199.206 181.347 196.879 178.477 196.879C175.607 196.879 173.28 199.206 173.28 202.076C173.28 204.946 175.607 207.273 178.477 207.273Z" stroke="#37C4F0" strokeWidth="3.6" strokeLinecap="round" strokeLinejoin="round"/>
<path d="M205.501 207.273C208.371 207.273 210.698 204.946 210.698 202.076C210.698 199.206 208.371 196.879 205.501 196.879C202.63 196.879 200.304 199.206 200.304 202.076C200.304 204.946 202.63 207.273 205.501 207.273Z" stroke="#37C4F0" strokeWidth="3.6" strokeLinecap="round" strokeLinejoin="round"/>
<path d="M173.929 186.485H206.566C207.538 186.488 208.479 186.148 209.226 185.526C209.972 184.903 210.474 184.038 210.646 183.081L213.816 165.697H170.161" stroke="#37C4F0" strokeWidth="3.6" strokeLinecap="round" strokeLinejoin="round"/>
</svg>
