<svg width="807" height="806" viewBox="0 0 807 806" fill="none" xmlns="http://www.w3.org/2000/svg">
<path opacity="0.2" d="M373.217 98.4753C371.952 85.815 360.642 76.4952 348.101 78.6432C276.554 90.8979 210.827 126.538 161.426 180.31C106.814 239.755 75.9688 317.207 74.7634 397.921C73.558 478.634 102.076 556.973 154.889 618.022C207.702 679.071 281.121 718.566 361.168 728.99C441.215 739.413 522.3 720.035 588.985 674.547C655.67 629.058 703.299 560.635 722.803 482.304C742.308 403.973 732.325 321.204 694.757 249.757C660.774 185.127 606.365 133.844 540.342 103.676C528.77 98.3876 515.45 104.5 510.984 116.414C506.519 128.328 512.609 141.522 524.121 146.941C579.574 173.049 625.257 216.583 653.975 271.2C686.281 332.639 694.865 403.813 678.093 471.171C661.321 538.529 620.364 597.367 563.021 636.483C505.677 675.6 435.951 692.263 367.117 683.3C298.284 674.337 235.15 640.374 189.735 587.877C144.321 535.38 119.797 468.016 120.834 398.609C121.87 329.202 148.394 262.6 195.356 211.482C237.104 166.041 292.411 135.657 352.702 124.621C365.217 122.329 374.483 111.136 373.217 98.4753Z" fill="#43094B"/>
<path d="M539.656 183.681C539.212 138.354 575.597 101.248 620.924 100.804V100.804C666.252 100.36 703.357 136.745 703.801 182.072V182.072C704.246 227.4 667.861 264.505 622.533 264.95V264.95C577.206 265.394 540.1 229.009 539.656 183.681V183.681Z" fill="white"/>
<circle cx="601.486" cy="201.554" r="20.326" fill="#E0D9FF"/>
<path d="M598.406 186.156V202.7C598.406 203.213 598.614 203.705 598.984 204.068C599.353 204.431 599.855 204.634 600.377 204.634H635.855C636.378 204.634 636.879 204.431 637.249 204.068C637.619 203.705 637.826 203.213 637.826 202.7V186.156" stroke="#6B49F1" stroke-width="3.6" stroke-linecap="round" stroke-linejoin="round"/>
<path d="M599.123 160.287H637.106C637.551 160.291 637.983 160.442 638.339 160.717C638.695 160.993 638.955 161.379 639.082 161.818L642.752 175.07H593.477L597.147 161.818C597.273 161.379 597.533 160.993 597.889 160.717C598.245 160.442 598.677 160.291 599.123 160.287V160.287Z" stroke="#6B49F1" stroke-width="3.6" stroke-linecap="round" stroke-linejoin="round"/>
<path d="M610.723 175.068V179.175C610.723 181.353 609.814 183.442 608.197 184.982C606.58 186.522 604.387 187.387 602.1 187.387C599.813 187.387 597.619 186.522 596.002 184.982C594.385 183.442 593.477 181.353 593.477 179.175V175.068" stroke="#6B49F1" stroke-width="3.6" stroke-linecap="round" stroke-linejoin="round"/>
<path d="M625.509 175.068V179.175C625.509 181.353 624.73 183.442 623.344 184.982C621.958 186.522 620.078 187.387 618.118 187.387C616.158 187.387 614.278 186.522 612.891 184.982C611.505 183.442 610.727 181.353 610.727 179.175V175.068" stroke="#6B49F1" stroke-width="3.6" stroke-linecap="round" stroke-linejoin="round"/>
<path d="M642.754 175.068V179.175C642.754 181.353 641.846 183.442 640.228 184.982C638.611 186.522 636.418 187.387 634.131 187.387C631.844 187.387 629.651 186.522 628.033 184.982C626.416 183.442 625.508 181.353 625.508 179.175V175.068" stroke="#6B49F1" stroke-width="3.6" stroke-linecap="round" stroke-linejoin="round"/>
<rect x="623.852" y="312.26" width="164.153" height="164.153" rx="82.0767" transform="rotate(-0.561514 623.852 312.26)" fill="white"/>
<circle cx="718.381" cy="366.492" r="20.326" fill="#F9DCEF"/>
<path d="M686.969 371.087L686.969 414.866C686.969 417.064 688.761 418.846 690.972 418.846L714.994 418.846C717.205 418.846 718.998 417.064 718.998 414.866L718.998 371.087C718.998 368.889 717.205 367.107 714.994 367.107L690.972 367.107C688.761 367.107 686.969 368.889 686.969 371.087Z" stroke="#FF65CB" stroke-width="3.6" stroke-linecap="round" stroke-linejoin="round"/>
<path d="M702.982 406.528C701.621 406.528 700.518 407.631 700.518 408.991C700.518 410.352 701.621 411.455 702.982 411.455C704.342 411.455 705.445 410.352 705.445 408.991C705.445 407.631 704.342 406.528 702.982 406.528Z" fill="#FF65CB"/>
<rect x="538.852" y="516.752" width="164.153" height="164.153" rx="82.0767" transform="rotate(-0.561514 538.852 516.752)" fill="white"/>
<circle cx="639.537" cy="614.1" r="20.326" fill="#C8E7CB"/>
<path d="M594.578 580.225H641.389V612.801C641.389 613.309 641.184 613.797 640.818 614.156C640.452 614.515 639.956 614.717 639.439 614.717H596.529C596.011 614.717 595.515 614.515 595.149 614.156C594.784 613.797 594.578 613.309 594.578 612.801V580.225Z" stroke="#54CC60" stroke-width="3.6" stroke-linecap="round" stroke-linejoin="round"/>
<path d="M641.389 580.225L617.984 601.167L594.578 580.225" stroke="#54CC60" stroke-width="3.6" stroke-linecap="round" stroke-linejoin="round"/>
<rect x="325.738" y="616.533" width="164.153" height="164.153" rx="82.0767" transform="rotate(-0.561514 325.738 616.533)" fill="white"/>
<circle cx="383.31" cy="688.012" r="20.326" fill="#F0E4D1"/>
<path d="M378.066 704.847C375.614 700.718 374.755 695.835 375.649 691.117C376.544 686.399 379.13 682.169 382.922 679.223C386.714 676.276 391.452 674.816 396.244 675.116C401.037 675.415 405.556 677.454 408.952 680.85C412.348 684.246 414.387 688.764 414.686 693.557C414.986 698.35 413.525 703.088 410.579 706.88C407.633 710.672 403.403 713.258 398.685 714.152C393.967 715.047 389.084 714.187 384.954 711.736L378.148 713.677C377.867 713.756 377.571 713.759 377.289 713.685C377.007 713.612 376.75 713.464 376.544 713.258C376.338 713.052 376.19 712.795 376.117 712.513C376.043 712.231 376.046 711.935 376.125 711.654L378.066 704.847Z" stroke="#FFB545" stroke-width="3.6" stroke-linecap="round" stroke-linejoin="round"/>
<path d="M393.781 714.871C394.743 717.624 396.302 720.127 398.346 722.201C400.389 724.276 402.866 725.868 405.597 726.864C408.329 727.86 411.247 728.235 414.14 727.961C417.033 727.687 419.83 726.771 422.327 725.28V725.28L429.123 727.225C429.403 727.304 429.699 727.307 429.98 727.233C430.261 727.159 430.518 727.012 430.724 726.805C430.93 726.599 431.077 726.341 431.15 726.059C431.224 725.776 431.221 725.479 431.142 725.198L429.205 718.377C430.935 715.463 431.885 712.149 431.964 708.757C432.043 705.365 431.248 702.011 429.656 699.018C428.063 696.026 425.728 693.497 422.876 691.676C420.024 689.856 416.751 688.806 413.376 688.628" stroke="#FFB545" stroke-width="3.6" stroke-linecap="round" stroke-linejoin="round"/>
<rect x="116.32" y="516.752" width="164.153" height="164.153" rx="82.0767" transform="rotate(-0.561514 116.32 516.752)" fill="white"/>
<circle cx="176.357" cy="577.144" r="20.326" fill="#FFDEDE"/>
<path d="M174.508 624.572C174.504 623.769 174.665 622.974 174.979 622.231C175.294 621.489 175.756 620.815 176.34 620.247C176.924 619.679 177.618 619.23 178.382 618.924C179.146 618.618 179.964 618.463 180.79 618.466H216.392V577.761H180.79C179.964 577.757 179.146 577.913 178.382 578.219C177.618 578.524 176.924 578.974 176.34 579.542C175.756 580.109 175.294 580.784 174.979 581.526C174.665 582.268 174.504 583.064 174.508 583.867V624.572Z" stroke="#FF5F5F" stroke-width="3.6" stroke-linecap="round" stroke-linejoin="round"/>
<path d="M174.508 624.571V627.035H211.464" stroke="#FF5F5F" stroke-width="3.6" stroke-linecap="round" stroke-linejoin="round"/>
<rect x="19" y="311.027" width="164.153" height="164.153" rx="82.0767" transform="rotate(-0.561514 19 311.027)" fill="white"/>
<path d="M94.4344 394.055C99.537 394.055 103.673 389.919 103.673 384.816C103.673 379.714 99.537 375.577 94.4344 375.577C89.3318 375.577 85.1953 379.714 85.1953 384.816C85.1953 389.919 89.3318 394.055 94.4344 394.055Z" stroke="#1ACCB7" stroke-width="3.6" stroke-linecap="round" stroke-linejoin="round"/>
<circle cx="108.599" cy="414.536" r="20.326" fill="#C6ECE6"/>
<path d="M117.531 384.816C117.531 405.604 94.4336 421.773 94.4336 421.773C94.4336 421.773 71.3359 405.604 71.3359 384.816C71.3359 378.691 73.7694 372.816 78.1011 368.484C82.4327 364.152 88.3077 361.719 94.4336 361.719C100.56 361.719 106.434 364.152 110.766 368.484C115.098 372.816 117.531 378.691 117.531 384.816V384.816Z" stroke="#1ACCB7" stroke-width="3.6" stroke-linecap="round" stroke-linejoin="round"/>
<rect x="112.914" y="101.398" width="164.153" height="164.153" rx="82.0767" transform="rotate(-0.561514 112.914 101.398)" fill="white"/>
<circle cx="215.775" cy="198.957" r="20.326" fill="#D1EAF2"/>
<path d="M206.303 196.879H176.628L169.379 157.018C169.294 156.54 169.045 156.108 168.675 155.795C168.304 155.481 167.837 155.307 167.352 155.303H162.648" stroke="#37C4F0" stroke-width="3.6" stroke-linecap="round" stroke-linejoin="round"/>
<path d="M179.283 207.273C182.153 207.273 184.48 204.946 184.48 202.076C184.48 199.206 182.153 196.879 179.283 196.879C176.413 196.879 174.086 199.206 174.086 202.076C174.086 204.946 176.413 207.273 179.283 207.273Z" stroke="#37C4F0" stroke-width="3.6" stroke-linecap="round" stroke-linejoin="round"/>
<path d="M206.306 207.273C209.177 207.273 211.503 204.946 211.503 202.076C211.503 199.206 209.177 196.879 206.306 196.879C203.436 196.879 201.109 199.206 201.109 202.076C201.109 204.946 203.436 207.273 206.306 207.273Z" stroke="#37C4F0" stroke-width="3.6" stroke-linecap="round" stroke-linejoin="round"/>
<path d="M174.733 186.485H207.37C208.341 186.488 209.283 186.148 210.029 185.526C210.775 184.903 211.278 184.038 211.449 183.081L214.619 165.697H170.965" stroke="#37C4F0" stroke-width="3.6" stroke-linecap="round" stroke-linejoin="round"/>
</svg>
