<svg width="709" height="510" viewBox="0 0 709 510" fill="none" xmlns="http://www.w3.org/2000/svg">
<path d="M0 24C0 10.7452 10.7452 0 24 0H685C698.255 0 709 10.7452 709 24V486C709 499.255 698.255 510 685 510H24C10.7452 510 0 499.255 0 486V24Z" fill="white"/>
<path fill-rule="evenodd" clip-rule="evenodd" d="M127.29 247.994L125.537 253.642C125.319 254.343 124.713 254.816 124.031 254.816H115.274C114.615 254.816 114.082 254.237 114.082 253.523C114.082 252.81 114.615 252.231 115.274 252.231H123.46L125.999 244.051C126.521 242.37 128.762 242.537 129.067 244.279L132.116 261.71L133.838 256.535C134.066 255.852 134.664 255.397 135.333 255.397H138.283L141.582 245.999C142.138 244.413 144.251 244.562 144.613 246.213L146.867 256.49L148.909 253.026C149.201 252.531 149.706 252.231 150.248 252.231H156.813C157.471 252.231 158.005 252.81 158.005 253.523C158.005 254.237 157.471 254.816 156.813 254.816H150.684L147.866 259.593C147.11 260.875 145.306 260.543 144.981 259.063L142.891 249.534L140.316 256.871C140.081 257.54 139.49 257.981 138.831 257.981H135.891L133.372 265.551C132.823 267.2 130.617 267.01 130.316 265.287L127.29 247.994Z" fill="#008F7F"/>
<path fill-rule="evenodd" clip-rule="evenodd" d="M136.933 199.395C135.571 199.395 134.571 200.458 134.571 201.641C134.571 202.825 135.571 203.888 136.933 203.888C138.294 203.888 139.294 202.825 139.294 201.641C139.294 200.458 138.294 199.395 136.933 199.395ZM136.933 196.811C134.201 196.811 131.987 198.973 131.987 201.641C131.987 203.685 133.286 205.433 135.123 206.138C135.422 206.253 135.641 206.529 135.641 206.85V225.358H119.502V218.713V218.127C119.502 217.737 119.186 217.421 118.796 217.421H118.21H109.611C109.22 217.421 108.904 217.105 108.904 216.714L108.904 206.922C108.904 206.622 109.095 206.36 109.366 206.232C111.044 205.44 112.204 203.734 112.204 201.756C112.204 199.025 109.99 196.811 107.259 196.811C104.527 196.811 102.313 199.025 102.313 201.756C102.313 203.963 103.758 205.832 105.754 206.469C106.077 206.572 106.32 206.858 106.32 207.197V218.713V219.299C106.32 219.689 106.636 220.005 107.026 220.005H107.612L116.211 220.005C116.601 220.005 116.918 220.322 116.918 220.712V225.358H111.797C109.397 225.358 107.452 227.303 107.452 229.703V234.734H102.901C102.511 234.734 102.195 234.418 102.195 234.028V225.429V224.843C102.195 224.453 101.878 224.136 101.488 224.136H100.902H89.386C89.0472 224.136 88.7613 223.894 88.6584 223.571C88.0218 221.575 86.1525 220.13 83.9456 220.13C81.2142 220.13 78.9999 222.344 78.9999 225.075C78.9999 227.807 81.2142 230.021 83.9456 230.021C85.9232 230.021 87.6297 228.86 88.421 227.183C88.5488 226.912 88.8114 226.721 89.111 226.721H98.9036C99.2938 226.721 99.6102 227.037 99.6102 227.427V236.027V236.612C99.6102 237.003 99.9265 237.319 100.317 237.319H100.902L107.452 237.319V253.456L89.0394 253.456C88.7186 253.456 88.4429 253.238 88.3278 252.938C87.6221 251.102 85.8747 249.803 83.8308 249.803C81.1629 249.803 79.0001 252.017 79.0001 254.748C79.0001 257.48 81.1629 259.694 83.8308 259.694C85.8747 259.694 87.6221 258.394 88.3278 256.558C88.4429 256.259 88.7186 256.041 89.0394 256.041H107.452V272.884H100.902H100.317C99.9265 272.884 99.6102 273.2 99.6102 273.59V274.176V282.775C99.6102 283.165 99.2938 283.482 98.9036 283.482H89.111C88.8114 283.482 88.5488 283.29 88.421 283.019C87.6296 281.342 85.9232 280.181 83.9456 280.181C81.2142 280.181 78.9999 282.396 78.9999 285.127C78.9999 287.859 81.2142 290.073 83.9456 290.073C86.1525 290.073 88.0218 288.627 88.6584 286.632C88.7613 286.309 89.0472 286.066 89.386 286.066H100.902H101.488C101.878 286.066 102.195 285.75 102.195 285.36V284.774L102.195 276.175C102.195 275.784 102.511 275.468 102.901 275.468H107.452V278.949C107.452 281.348 109.397 283.294 111.797 283.294H117.058C116.97 283.412 116.918 283.558 116.918 283.717V288.784C116.918 289.174 116.601 289.49 116.211 289.49H107.612H107.026C106.636 289.49 106.32 289.806 106.32 290.197V290.782V302.299C106.32 302.638 106.077 302.923 105.754 303.026C103.758 303.663 102.313 305.532 102.313 307.739C102.313 310.471 104.527 312.685 107.259 312.685C109.99 312.685 112.204 310.471 112.204 307.739C112.204 305.762 111.044 304.055 109.366 303.264C109.095 303.136 108.904 302.873 108.904 302.574V292.781C108.904 292.391 109.22 292.075 109.611 292.075H118.21H118.796C119.186 292.075 119.502 291.758 119.502 291.368V290.782V283.717C119.502 283.558 119.45 283.412 119.362 283.294H135.781C135.693 283.412 135.641 283.558 135.641 283.717V302.646C135.641 302.966 135.422 303.242 135.123 303.357C133.286 304.063 131.987 305.81 131.987 307.854C131.987 310.522 134.201 312.685 136.933 312.685C139.664 312.685 141.878 310.522 141.878 307.854C141.878 305.81 140.579 304.063 138.743 303.357C138.443 303.242 138.225 302.966 138.225 302.646L138.225 283.717C138.225 283.558 138.173 283.412 138.084 283.294H155.214C155.126 283.412 155.073 283.558 155.073 283.717V290.782V291.368C155.073 291.758 155.39 292.075 155.78 292.075H156.366H164.965C165.355 292.075 165.671 292.391 165.671 292.781V302.574C165.671 302.873 165.48 303.136 165.209 303.264C163.532 304.055 162.371 305.762 162.371 307.739C162.371 310.471 164.585 312.685 167.317 312.685C170.048 312.685 172.263 310.471 172.263 307.739C172.263 305.532 170.817 303.663 168.821 303.026C168.498 302.923 168.256 302.637 168.256 302.299V290.782V290.197C168.256 289.806 167.939 289.49 167.549 289.49H166.964L158.364 289.49C157.974 289.49 157.658 289.174 157.658 288.784V283.717C157.658 283.558 157.605 283.412 157.517 283.294H161.042C163.442 283.294 165.387 281.348 165.387 278.949V275.246C165.516 275.383 165.699 275.468 165.901 275.468H170.968C171.358 275.468 171.674 275.784 171.674 276.175V284.774V285.36C171.674 285.75 171.991 286.066 172.381 286.066H172.967H184.483C184.822 286.066 185.108 286.309 185.211 286.632C185.847 288.627 187.717 290.073 189.923 290.073C192.655 290.073 194.869 287.859 194.869 285.127C194.869 282.396 192.655 280.181 189.923 280.181C187.946 280.181 186.239 281.342 185.448 283.019C185.32 283.29 185.058 283.482 184.758 283.482H174.965C174.575 283.482 174.259 283.165 174.259 282.775V274.176V273.59C174.259 273.2 173.943 272.884 173.552 272.884H172.967H165.901C165.699 272.884 165.516 272.969 165.387 273.105V255.819C165.516 255.955 165.699 256.041 165.901 256.041H184.83C185.151 256.041 185.426 256.259 185.541 256.558C186.247 258.394 187.994 259.694 190.038 259.694C192.706 259.694 194.869 257.48 194.869 254.748C194.869 252.017 192.706 249.803 190.038 249.803C187.994 249.803 186.247 251.102 185.541 252.938C185.426 253.238 185.151 253.456 184.83 253.456L165.901 253.456C165.699 253.456 165.516 253.541 165.387 253.678V237.097C165.516 237.234 165.699 237.319 165.901 237.319L172.967 237.319H173.552C173.943 237.319 174.259 237.003 174.259 236.612V236.027V227.427C174.259 227.037 174.575 226.721 174.965 226.721H184.758C185.058 226.721 185.32 226.912 185.448 227.183C186.239 228.86 187.946 230.021 189.923 230.021C192.655 230.021 194.869 227.807 194.869 225.075C194.869 222.344 192.655 220.13 189.923 220.13C187.717 220.13 185.847 221.575 185.211 223.571C185.108 223.894 184.822 224.136 184.483 224.136H172.967H172.381C171.991 224.136 171.674 224.453 171.674 224.843V225.429V234.028C171.674 234.418 171.358 234.734 170.968 234.734H165.901C165.699 234.734 165.516 234.82 165.387 234.956V229.703C165.387 227.303 163.442 225.358 161.042 225.358H157.658V220.712C157.658 220.322 157.974 220.005 158.364 220.005L166.964 220.005H167.549C167.939 220.005 168.256 219.689 168.256 219.299V218.713V207.197C168.256 206.858 168.498 206.572 168.821 206.469C170.817 205.833 172.263 203.963 172.263 201.756C172.263 199.025 170.048 196.811 167.317 196.811C164.585 196.811 162.371 199.025 162.371 201.756C162.371 203.734 163.532 205.44 165.209 206.232C165.48 206.36 165.671 206.622 165.671 206.922V216.714C165.671 217.105 165.355 217.421 164.965 217.421H156.366H155.78C155.39 217.421 155.073 217.737 155.073 218.127V218.713V225.358H138.225V206.85C138.225 206.529 138.443 206.253 138.743 206.138C140.579 205.433 141.878 203.685 141.878 201.641C141.878 198.973 139.664 196.811 136.933 196.811ZM167.317 199.395C166.013 199.395 164.956 200.452 164.956 201.756C164.956 203.06 166.013 204.118 167.317 204.118C168.621 204.118 169.678 203.06 169.678 201.756C169.678 200.452 168.621 199.395 167.317 199.395ZM161.042 228.007H111.797C110.86 228.007 110.101 228.767 110.101 229.703V278.949C110.101 279.885 110.86 280.645 111.797 280.645H161.042C161.979 280.645 162.738 279.885 162.738 278.949V229.703C162.738 228.767 161.979 228.007 161.042 228.007ZM83.9456 282.766C82.6415 282.766 81.5844 283.823 81.5844 285.127C81.5844 286.431 82.6415 287.488 83.9456 287.488C85.2497 287.488 86.3069 286.431 86.3069 285.127C86.3069 283.823 85.2497 282.766 83.9456 282.766ZM192.285 285.127C192.285 283.823 191.228 282.766 189.923 282.766C188.619 282.766 187.562 283.823 187.562 285.127C187.562 286.431 188.619 287.488 189.923 287.488C191.228 287.488 192.285 286.431 192.285 285.127ZM164.956 307.739C164.956 309.043 166.013 310.1 167.317 310.1C168.621 310.1 169.678 309.043 169.678 307.739C169.678 306.435 168.621 305.378 167.317 305.378C166.013 305.378 164.956 306.435 164.956 307.739ZM83.8308 252.387C82.6473 252.387 81.5846 253.387 81.5846 254.748C81.5846 256.11 82.6473 257.11 83.8308 257.11C85.0144 257.11 86.0771 256.11 86.0771 254.748C86.0771 253.387 85.0144 252.387 83.8308 252.387ZM192.285 254.748C192.285 253.387 191.222 252.387 190.038 252.387C188.855 252.387 187.792 253.387 187.792 254.748C187.792 256.11 188.855 257.11 190.038 257.11C191.222 257.11 192.285 256.11 192.285 254.748ZM134.571 307.854C134.571 309.038 135.571 310.1 136.933 310.1C138.294 310.1 139.294 309.038 139.294 307.854C139.294 306.671 138.294 305.608 136.933 305.608C135.571 305.608 134.571 306.671 134.571 307.854ZM107.259 199.395C108.563 199.395 109.62 200.452 109.62 201.756C109.62 203.06 108.563 204.118 107.259 204.118C105.955 204.118 104.897 203.06 104.897 201.756C104.897 200.452 105.955 199.395 107.259 199.395ZM83.9456 227.437C82.6415 227.437 81.5844 226.379 81.5844 225.075C81.5844 223.771 82.6415 222.714 83.9456 222.714C85.2497 222.714 86.3069 223.771 86.3069 225.075C86.3069 226.379 85.2497 227.437 83.9456 227.437ZM192.285 225.075C192.285 226.379 191.228 227.437 189.923 227.437C188.619 227.437 187.562 226.379 187.562 225.075C187.562 223.771 188.619 222.714 189.923 222.714C191.228 222.714 192.285 223.771 192.285 225.075ZM109.62 307.739C109.62 309.043 108.563 310.1 107.259 310.1C105.955 310.1 104.897 309.043 104.897 307.739C104.897 306.435 105.955 305.378 107.259 305.378C108.563 305.378 109.62 306.435 109.62 307.739Z" fill="#00389B"/>
<path d="M622.111 225.826H627.131V233.874H622.111V225.826ZM622.111 241.603H627.131V282.719H622.111V241.603Z" fill="#008F7F"/>
<path d="M580.235 254.195C580.395 251.805 580.899 249.733 581.749 247.98C582.599 246.227 583.741 244.793 585.175 243.677C586.663 242.562 588.389 241.738 590.355 241.207C592.32 240.676 594.498 240.41 596.889 240.41C598.695 240.41 600.501 240.596 602.307 240.968C604.113 241.287 605.733 241.924 607.168 242.88C608.602 243.836 609.771 245.191 610.674 246.944C611.577 248.644 612.028 250.875 612.028 253.637V275.47C612.028 277.489 613.011 278.498 614.976 278.498C615.561 278.498 616.092 278.392 616.57 278.179V282.402C615.986 282.509 615.455 282.588 614.976 282.642C614.552 282.695 613.994 282.721 613.303 282.721C612.028 282.721 610.992 282.562 610.196 282.243C609.452 281.871 608.868 281.367 608.443 280.729C608.018 280.092 607.725 279.348 607.566 278.498C607.46 277.595 607.407 276.612 607.407 275.55H607.247C606.344 276.878 605.415 278.073 604.458 279.136C603.555 280.145 602.52 280.995 601.351 281.685C600.235 282.376 598.934 282.907 597.446 283.279C596.012 283.651 594.286 283.837 592.267 283.837C590.355 283.837 588.549 283.598 586.849 283.12C585.202 282.695 583.741 282.004 582.466 281.048C581.244 280.039 580.262 278.79 579.518 277.303C578.827 275.762 578.482 273.956 578.482 271.884C578.482 269.016 579.12 266.785 580.395 265.191C581.669 263.544 583.343 262.296 585.414 261.446C587.539 260.596 589.903 260.012 592.506 259.693C595.162 259.321 597.845 258.976 600.554 258.657C601.616 258.551 602.546 258.418 603.343 258.259C604.14 258.1 604.804 257.834 605.335 257.462C605.866 257.037 606.265 256.479 606.53 255.789C606.849 255.098 607.008 254.195 607.008 253.08C607.008 251.38 606.716 249.999 606.132 248.936C605.601 247.821 604.83 246.944 603.821 246.307C602.865 245.669 601.723 245.244 600.395 245.032C599.12 244.766 597.739 244.633 596.251 244.633C593.064 244.633 590.461 245.404 588.442 246.944C586.424 248.431 585.361 250.848 585.255 254.195H580.235ZM607.008 260.251H606.849C606.53 260.835 605.919 261.26 605.016 261.526C604.113 261.791 603.316 261.977 602.626 262.084C600.501 262.455 598.296 262.801 596.012 263.119C593.781 263.385 591.736 263.81 589.877 264.394C588.017 264.979 586.477 265.829 585.255 266.944C584.086 268.007 583.502 269.547 583.502 271.566C583.502 272.841 583.741 273.983 584.219 274.992C584.75 275.948 585.441 276.798 586.291 277.542C587.141 278.232 588.124 278.764 589.239 279.136C590.355 279.507 591.497 279.693 592.666 279.693C594.578 279.693 596.411 279.401 598.164 278.817C599.917 278.232 601.431 277.383 602.705 276.267C604.034 275.151 605.069 273.797 605.813 272.203C606.61 270.61 607.008 268.803 607.008 266.785V260.251Z" fill="#008F7F"/>
<path d="M561.49 282.718V274.271H568.184V282.718H561.49Z" fill="#00389B"/>
<path d="M518.041 225.826H563.061V230.448H543.22V282.719H537.802V230.448H518.041V225.826Z" fill="#00389B"/>
<path d="M472.84 225.826H479.214L495.31 249.651L511.963 225.826H518.019L498.577 253.555L519.135 282.719H512.601L495.31 257.619L477.78 282.719H471.724L492.123 253.396L472.84 225.826Z" fill="#00389B"/>
<path d="M422.15 225.826H428.206L461.354 273.954H461.513V225.826H466.931V282.719H460.876L427.728 234.591H427.569V282.719H422.15V225.826Z" fill="#00389B"/>
<path d="M400.573 225.826H411.888V282.719H400.573V225.826Z" fill="#00389B"/>
<path d="M354.024 254.195C354.183 251.539 354.847 249.335 356.016 247.582C357.185 245.829 358.672 244.421 360.478 243.358C362.284 242.296 364.303 241.552 366.534 241.127C368.818 240.649 371.102 240.41 373.387 240.41C375.458 240.41 377.557 240.57 379.681 240.888C381.806 241.154 383.745 241.712 385.498 242.562C387.251 243.412 388.686 244.607 389.801 246.147C390.917 247.635 391.474 249.627 391.474 252.123V273.558C391.474 275.417 391.581 277.197 391.793 278.896C392.006 280.596 392.377 281.871 392.909 282.721H381.434C381.222 282.084 381.036 281.446 380.877 280.809C380.77 280.118 380.691 279.428 380.638 278.737C378.832 280.596 376.707 281.898 374.263 282.642C371.82 283.385 369.323 283.757 366.773 283.757C364.808 283.757 362.975 283.518 361.275 283.04C359.575 282.562 358.088 281.818 356.813 280.809C355.538 279.8 354.529 278.525 353.785 276.984C353.094 275.444 352.749 273.611 352.749 271.486C352.749 269.149 353.147 267.236 353.944 265.749C354.794 264.208 355.857 262.987 357.132 262.084C358.46 261.181 359.947 260.517 361.594 260.092C363.294 259.613 364.993 259.242 366.693 258.976C368.393 258.71 370.067 258.498 371.713 258.339C373.36 258.179 374.821 257.94 376.096 257.621C377.371 257.303 378.38 256.851 379.124 256.267C379.867 255.629 380.213 254.726 380.16 253.558C380.16 252.336 379.947 251.38 379.522 250.689C379.15 249.945 378.619 249.388 377.928 249.016C377.291 248.591 376.521 248.325 375.618 248.219C374.768 248.06 373.838 247.98 372.829 247.98C370.598 247.98 368.845 248.458 367.57 249.414C366.295 250.37 365.551 251.964 365.339 254.195H354.024ZM380.16 262.562C379.681 262.987 379.071 263.332 378.327 263.598C377.636 263.81 376.866 263.996 376.016 264.155C375.219 264.315 374.369 264.448 373.466 264.554C372.563 264.66 371.66 264.793 370.757 264.952C369.907 265.112 369.057 265.324 368.207 265.59C367.41 265.855 366.693 266.227 366.056 266.705C365.472 267.13 364.993 267.688 364.622 268.378C364.25 269.069 364.064 269.946 364.064 271.008C364.064 272.017 364.25 272.867 364.622 273.558C364.993 274.248 365.498 274.806 366.136 275.231C366.773 275.603 367.517 275.869 368.367 276.028C369.217 276.187 370.093 276.267 370.996 276.267C373.227 276.267 374.954 275.895 376.175 275.151C377.397 274.408 378.3 273.531 378.885 272.522C379.469 271.46 379.814 270.397 379.921 269.335C380.08 268.272 380.16 267.422 380.16 266.785V262.562Z" fill="#00389B"/>
<path d="M340.833 241.525H349.12V249.094H340.833V269.493C340.833 271.405 341.152 272.68 341.789 273.318C342.427 273.955 343.702 274.274 345.614 274.274C346.251 274.274 346.862 274.247 347.447 274.194C348.031 274.141 348.589 274.061 349.12 273.955V282.72C348.164 282.879 347.101 282.986 345.933 283.039C344.764 283.092 343.622 283.118 342.506 283.118C340.753 283.118 339.08 282.986 337.486 282.72C335.946 282.508 334.565 282.056 333.343 281.365C332.174 280.675 331.245 279.692 330.554 278.417C329.864 277.142 329.518 275.469 329.518 273.397V249.094H322.666V241.525H329.518V229.174H340.833V241.525Z" fill="#00389B"/>
<path d="M317.578 235.149H306.263V225.826H317.578V235.149ZM306.263 241.523H317.578V282.719H306.263V241.523Z" fill="#00389B"/>
<path d="M284.805 282.719H270.701L252.294 225.826H265.123L277.793 265.826H277.952L290.781 225.826H303.689L284.805 282.719Z" fill="#00389B"/>
<line x1="224.88" y1="187.018" x2="223.328" y2="323.581" stroke="#205CC5" stroke-width="3.1037"/>
<path d="M254.603 299.282H255.855V308.5H268.828V299.282H270.08V319.596H268.828V309.581H255.855V319.596H254.603V299.282ZM274.744 312.426V312.597C274.744 313.45 274.858 314.266 275.085 315.044C275.313 315.821 275.645 316.504 276.081 317.092C276.536 317.68 277.096 318.145 277.76 318.486C278.443 318.828 279.23 318.998 280.121 318.998C281.582 318.998 282.739 318.619 283.592 317.86C284.446 317.083 285.034 316.011 285.356 314.645H286.437C286.115 316.352 285.413 317.661 284.332 318.571C283.27 319.482 281.857 319.937 280.093 319.937C279.012 319.937 278.063 319.747 277.248 319.368C276.451 318.97 275.778 318.439 275.228 317.775C274.697 317.092 274.298 316.295 274.033 315.385C273.767 314.456 273.634 313.46 273.634 312.398C273.634 311.373 273.767 310.397 274.033 309.467C274.317 308.519 274.735 307.694 275.285 306.992C275.835 306.271 276.517 305.702 277.333 305.285C278.168 304.849 279.144 304.631 280.263 304.631C281.288 304.631 282.189 304.82 282.966 305.2C283.763 305.579 284.427 306.101 284.958 306.764C285.489 307.409 285.887 308.168 286.153 309.041C286.437 309.894 286.579 310.814 286.579 311.8C286.579 311.895 286.57 312.009 286.551 312.142C286.551 312.255 286.551 312.35 286.551 312.426H274.744ZM285.47 311.487C285.432 310.691 285.299 309.941 285.072 309.24C284.844 308.519 284.503 307.893 284.047 307.362C283.611 306.812 283.071 306.376 282.426 306.053C281.8 305.731 281.079 305.57 280.263 305.57C279.391 305.57 278.623 305.74 277.959 306.082C277.295 306.404 276.736 306.84 276.28 307.39C275.825 307.921 275.474 308.547 275.228 309.268C274.981 309.989 274.829 310.729 274.772 311.487H285.47ZM299.626 316.694H299.569C299.398 317.13 299.151 317.547 298.829 317.946C298.507 318.325 298.108 318.666 297.634 318.97C297.179 319.273 296.657 319.51 296.069 319.681C295.481 319.852 294.836 319.937 294.135 319.937C292.579 319.937 291.375 319.605 290.521 318.941C289.668 318.259 289.241 317.215 289.241 315.812C289.241 314.958 289.412 314.266 289.753 313.735C290.095 313.185 290.521 312.758 291.034 312.455C291.565 312.132 292.143 311.905 292.769 311.772C293.414 311.639 294.03 311.544 294.618 311.487L296.297 311.345C297.075 311.288 297.681 311.203 298.118 311.089C298.573 310.956 298.914 310.785 299.142 310.577C299.37 310.349 299.512 310.065 299.569 309.723C299.626 309.382 299.654 308.955 299.654 308.443C299.654 308.045 299.578 307.675 299.426 307.333C299.275 306.992 299.038 306.689 298.715 306.423C298.393 306.158 297.975 305.949 297.463 305.797C296.951 305.645 296.325 305.57 295.586 305.57C294.277 305.57 293.215 305.892 292.399 306.537C291.603 307.182 291.166 308.159 291.09 309.467H290.009C290.085 307.855 290.597 306.651 291.546 305.854C292.513 305.038 293.879 304.631 295.643 304.631C297.406 304.631 298.687 304.982 299.483 305.683C300.299 306.366 300.707 307.267 300.707 308.386V316.893C300.707 317.102 300.707 317.31 300.707 317.519C300.726 317.727 300.764 317.917 300.821 318.088C300.877 318.259 300.972 318.401 301.105 318.515C301.238 318.609 301.427 318.657 301.674 318.657C301.864 318.657 302.129 318.628 302.471 318.571V319.482C302.186 319.558 301.892 319.596 301.589 319.596C301.152 319.596 300.802 319.539 300.536 319.425C300.289 319.311 300.1 319.159 299.967 318.97C299.834 318.78 299.739 318.562 299.683 318.315C299.645 318.05 299.626 317.765 299.626 317.462V316.694ZM299.626 311.288C299.36 311.611 298.952 311.829 298.402 311.942C297.871 312.056 297.274 312.142 296.61 312.199L294.789 312.369C294.258 312.426 293.727 312.511 293.196 312.625C292.665 312.72 292.181 312.891 291.745 313.137C291.328 313.384 290.986 313.725 290.721 314.162C290.455 314.579 290.322 315.129 290.322 315.812C290.322 316.893 290.664 317.699 291.346 318.23C292.029 318.742 292.968 318.998 294.163 318.998C295.396 318.998 296.373 318.78 297.094 318.344C297.814 317.889 298.364 317.377 298.744 316.808C299.123 316.22 299.36 315.66 299.455 315.129C299.569 314.579 299.626 314.209 299.626 314.019V311.288ZM306.34 299.282V319.596H305.259V299.282H306.34ZM316.012 305.911H312.826V316.125C312.826 316.713 312.892 317.177 313.025 317.519C313.158 317.86 313.357 318.126 313.622 318.315C313.907 318.486 314.239 318.59 314.618 318.628C315.017 318.666 315.472 318.676 315.984 318.657V319.596C315.434 319.634 314.893 319.634 314.362 319.596C313.85 319.539 313.395 319.397 312.997 319.169C312.598 318.922 312.276 318.562 312.029 318.088C311.802 317.614 311.707 316.959 311.745 316.125V305.911H309.042V304.972H311.745V300.42H312.826V304.972H316.012V305.911ZM319.932 299.282V308.102H319.989C320.179 307.552 320.445 307.068 320.786 306.651C321.146 306.214 321.554 305.845 322.009 305.541C322.484 305.238 322.996 305.01 323.546 304.858C324.096 304.707 324.655 304.631 325.224 304.631C326.078 304.631 326.799 304.735 327.387 304.944C327.993 305.152 328.487 305.427 328.866 305.769C329.245 306.11 329.539 306.499 329.748 306.935C329.976 307.352 330.137 307.779 330.232 308.215C330.326 308.652 330.383 309.078 330.402 309.496C330.421 309.894 330.431 310.245 330.431 310.548V319.596H329.35V310.349C329.35 309.989 329.321 309.534 329.264 308.984C329.207 308.434 329.037 307.912 328.752 307.419C328.487 306.907 328.069 306.47 327.5 306.11C326.95 305.75 326.182 305.57 325.196 305.57C324.361 305.57 323.622 305.721 322.977 306.025C322.332 306.328 321.782 306.755 321.327 307.305C320.871 307.836 320.52 308.481 320.274 309.24C320.046 309.979 319.932 310.795 319.932 311.686V319.596H318.851V299.282H319.932ZM349.461 299.282H350.826L358.849 319.596H357.512L354.952 313.081H345.222L342.632 319.596H341.295L349.461 299.282ZM354.553 311.999L350.2 300.505H350.143L345.62 311.999H354.553ZM361.147 299.282H369.796C370.365 299.282 370.991 299.348 371.674 299.481C372.376 299.614 373.021 299.889 373.609 300.306C374.216 300.704 374.718 301.283 375.117 302.042C375.515 302.781 375.714 303.758 375.714 304.972C375.714 306.755 375.164 308.13 374.064 309.097C372.964 310.065 371.39 310.548 369.341 310.548H362.399V319.596H361.147V299.282ZM362.399 309.467H369.54C370.451 309.467 371.219 309.335 371.845 309.069C372.49 308.784 373.002 308.424 373.381 307.988C373.761 307.552 374.036 307.068 374.206 306.537C374.377 306.006 374.462 305.475 374.462 304.944C374.462 304.564 374.405 304.119 374.292 303.606C374.178 303.075 373.95 302.573 373.609 302.099C373.267 301.605 372.784 301.198 372.158 300.875C371.551 300.534 370.735 300.363 369.711 300.363H362.399V309.467ZM378.81 299.282H380.062V319.596H378.81V299.282ZM393.327 302.212V299.282H394.408V302.212H393.327ZM393.327 319.596V304.972H394.408V319.596H393.327ZM398.703 304.972H399.784V308.102H399.841C400.031 307.552 400.296 307.068 400.638 306.651C400.998 306.214 401.406 305.845 401.861 305.541C402.335 305.238 402.847 305.01 403.397 304.858C403.948 304.707 404.507 304.631 405.076 304.631C405.93 304.631 406.65 304.735 407.238 304.944C407.845 305.152 408.338 305.427 408.718 305.769C409.097 306.11 409.391 306.499 409.6 306.935C409.827 307.352 409.989 307.779 410.083 308.215C410.178 308.652 410.235 309.078 410.254 309.496C410.273 309.894 410.283 310.245 410.283 310.548V319.596H409.201V310.349C409.201 309.989 409.173 309.534 409.116 308.984C409.059 308.434 408.888 307.912 408.604 307.419C408.338 306.907 407.921 306.47 407.352 306.11C406.802 305.75 406.034 305.57 405.048 305.57C404.213 305.57 403.473 305.721 402.828 306.025C402.184 306.328 401.634 306.755 401.178 307.305C400.723 307.836 400.372 308.481 400.126 309.24C399.898 309.979 399.784 310.795 399.784 311.686V319.596H398.703V304.972ZM419.687 305.911H416.501V316.125C416.501 316.713 416.567 317.177 416.7 317.519C416.832 317.86 417.032 318.126 417.297 318.315C417.582 318.486 417.914 318.59 418.293 318.628C418.691 318.666 419.146 318.676 419.659 318.657V319.596C419.109 319.634 418.568 319.634 418.037 319.596C417.525 319.539 417.07 319.397 416.671 319.169C416.273 318.922 415.95 318.562 415.704 318.088C415.476 317.614 415.381 316.959 415.419 316.125V305.911H412.717V304.972H415.419V300.42H416.501V304.972H419.687V305.911ZM422.564 312.426V312.597C422.564 313.45 422.678 314.266 422.905 315.044C423.133 315.821 423.465 316.504 423.901 317.092C424.356 317.68 424.916 318.145 425.58 318.486C426.262 318.828 427.05 318.998 427.941 318.998C429.401 318.998 430.558 318.619 431.412 317.86C432.266 317.083 432.853 316.011 433.176 314.645H434.257C433.935 316.352 433.233 317.661 432.152 318.571C431.09 319.482 429.677 319.937 427.913 319.937C426.831 319.937 425.883 319.747 425.068 319.368C424.271 318.97 423.598 318.439 423.048 317.775C422.516 317.092 422.118 316.295 421.853 315.385C421.587 314.456 421.454 313.46 421.454 312.398C421.454 311.373 421.587 310.397 421.853 309.467C422.137 308.519 422.554 307.694 423.104 306.992C423.654 306.271 424.337 305.702 425.153 305.285C425.987 304.849 426.964 304.631 428.083 304.631C429.107 304.631 430.008 304.82 430.786 305.2C431.583 305.579 432.247 306.101 432.778 306.764C433.309 307.409 433.707 308.168 433.973 309.041C434.257 309.894 434.399 310.814 434.399 311.8C434.399 311.895 434.39 312.009 434.371 312.142C434.371 312.255 434.371 312.35 434.371 312.426H422.564ZM433.29 311.487C433.252 310.691 433.119 309.941 432.891 309.24C432.664 308.519 432.322 307.893 431.867 307.362C431.431 306.812 430.89 306.376 430.246 306.053C429.62 305.731 428.899 305.57 428.083 305.57C427.211 305.57 426.443 305.74 425.779 306.082C425.115 306.404 424.555 306.84 424.1 307.39C423.645 307.921 423.294 308.547 423.048 309.268C422.801 309.989 422.649 310.729 422.592 311.487H433.29ZM449.835 304.972V318.828C449.835 319.643 449.74 320.43 449.551 321.189C449.361 321.967 449.029 322.649 448.555 323.237C448.1 323.825 447.464 324.29 446.649 324.631C445.833 324.992 444.8 325.172 443.548 325.172C442.77 325.172 442.04 325.087 441.357 324.916C440.674 324.764 440.077 324.508 439.565 324.148C439.053 323.806 438.635 323.342 438.313 322.754C438.009 322.185 437.839 321.473 437.801 320.62H438.882C438.939 321.265 439.1 321.815 439.365 322.27C439.631 322.725 439.972 323.095 440.39 323.38C440.826 323.683 441.31 323.901 441.841 324.034C442.372 324.167 442.941 324.233 443.548 324.233C444.553 324.233 445.388 324.081 446.051 323.778C446.734 323.474 447.275 323.076 447.673 322.583C448.071 322.109 448.346 321.559 448.498 320.933C448.669 320.326 448.754 319.71 448.754 319.084V315.726H448.697C448.185 316.808 447.483 317.633 446.592 318.202C445.719 318.771 444.657 319.055 443.405 319.055C442.324 319.055 441.385 318.875 440.589 318.515C439.811 318.135 439.157 317.623 438.626 316.978C438.114 316.314 437.725 315.546 437.459 314.674C437.213 313.801 437.089 312.853 437.089 311.829C437.089 310.861 437.222 309.941 437.488 309.069C437.772 308.196 438.18 307.438 438.711 306.793C439.242 306.129 439.897 305.607 440.674 305.228C441.471 304.83 442.381 304.631 443.405 304.631C444.562 304.631 445.625 304.925 446.592 305.513C447.578 306.101 448.28 306.935 448.697 308.016H448.754V304.972H449.835ZM443.405 305.57C442.514 305.57 441.736 305.75 441.073 306.11C440.428 306.47 439.887 306.945 439.451 307.533C439.034 308.121 438.711 308.794 438.484 309.553C438.275 310.292 438.171 311.051 438.171 311.829C438.171 312.682 438.275 313.498 438.484 314.275C438.711 315.034 439.043 315.698 439.479 316.267C439.935 316.836 440.485 317.291 441.129 317.633C441.793 317.955 442.552 318.116 443.405 318.116C444.297 318.116 445.075 317.946 445.738 317.604C446.402 317.263 446.952 316.798 447.389 316.21C447.844 315.622 448.176 314.958 448.384 314.219C448.612 313.46 448.726 312.663 448.726 311.829C448.726 311.013 448.612 310.226 448.384 309.467C448.176 308.709 447.844 308.045 447.389 307.476C446.952 306.888 446.402 306.423 445.738 306.082C445.075 305.74 444.297 305.57 443.405 305.57ZM454.96 308.215H455.045C455.178 307.741 455.415 307.296 455.756 306.878C456.117 306.461 456.543 306.101 457.036 305.797C457.549 305.494 458.108 305.266 458.715 305.114C459.341 304.944 459.986 304.868 460.65 304.887V305.968C460.081 305.892 459.426 305.949 458.687 306.139C457.966 306.328 457.274 306.746 456.61 307.39C456.344 307.675 456.107 307.95 455.898 308.215C455.709 308.481 455.548 308.775 455.415 309.097C455.282 309.42 455.178 309.78 455.102 310.179C455.026 310.577 454.978 311.051 454.96 311.601V319.596H453.878V304.972H454.96V308.215ZM471.796 316.694H471.739C471.569 317.13 471.322 317.547 471 317.946C470.677 318.325 470.279 318.666 469.805 318.97C469.35 319.273 468.828 319.51 468.24 319.681C467.652 319.852 467.007 319.937 466.305 319.937C464.75 319.937 463.546 319.605 462.692 318.941C461.839 318.259 461.412 317.215 461.412 315.812C461.412 314.958 461.583 314.266 461.924 313.735C462.265 313.185 462.692 312.758 463.204 312.455C463.735 312.132 464.314 311.905 464.94 311.772C465.585 311.639 466.201 311.544 466.789 311.487L468.468 311.345C469.245 311.288 469.852 311.203 470.288 311.089C470.744 310.956 471.085 310.785 471.313 310.577C471.54 310.349 471.682 310.065 471.739 309.723C471.796 309.382 471.825 308.955 471.825 308.443C471.825 308.045 471.749 307.675 471.597 307.333C471.445 306.992 471.208 306.689 470.886 306.423C470.563 306.158 470.146 305.949 469.634 305.797C469.122 305.645 468.496 305.57 467.756 305.57C466.448 305.57 465.385 305.892 464.57 306.537C463.773 307.182 463.337 308.159 463.261 309.467H462.18C462.256 307.855 462.768 306.651 463.716 305.854C464.684 305.038 466.049 304.631 467.813 304.631C469.577 304.631 470.857 304.982 471.654 305.683C472.47 306.366 472.877 307.267 472.877 308.386V316.893C472.877 317.102 472.877 317.31 472.877 317.519C472.896 317.727 472.934 317.917 472.991 318.088C473.048 318.259 473.143 318.401 473.276 318.515C473.409 318.609 473.598 318.657 473.845 318.657C474.034 318.657 474.3 318.628 474.641 318.571V319.482C474.357 319.558 474.063 319.596 473.759 319.596C473.323 319.596 472.972 319.539 472.707 319.425C472.46 319.311 472.27 319.159 472.138 318.97C472.005 318.78 471.91 318.562 471.853 318.315C471.815 318.05 471.796 317.765 471.796 317.462V316.694ZM471.796 311.288C471.531 311.611 471.123 311.829 470.573 311.942C470.042 312.056 469.444 312.142 468.781 312.199L466.96 312.369C466.429 312.426 465.898 312.511 465.366 312.625C464.835 312.72 464.352 312.891 463.915 313.137C463.498 313.384 463.157 313.725 462.891 314.162C462.626 314.579 462.493 315.129 462.493 315.812C462.493 316.893 462.834 317.699 463.517 318.23C464.2 318.742 465.139 318.998 466.334 318.998C467.567 318.998 468.543 318.78 469.264 318.344C469.985 317.889 470.535 317.377 470.914 316.808C471.294 316.22 471.531 315.66 471.626 315.129C471.739 314.579 471.796 314.209 471.796 314.019V311.288ZM482.551 305.911H479.364V316.125C479.364 316.713 479.431 317.177 479.563 317.519C479.696 317.86 479.895 318.126 480.161 318.315C480.445 318.486 480.777 318.59 481.157 318.628C481.555 318.666 482.01 318.676 482.522 318.657V319.596C481.972 319.634 481.432 319.634 480.9 319.596C480.388 319.539 479.933 319.397 479.535 319.169C479.137 318.922 478.814 318.562 478.568 318.088C478.34 317.614 478.245 316.959 478.283 316.125V305.911H475.58V304.972H478.283V300.42H479.364V304.972H482.551V305.911ZM485.646 302.212V299.282H486.727V302.212H485.646ZM485.646 319.596V304.972H486.727V319.596H485.646ZM490.339 312.284C490.339 311.241 490.481 310.264 490.766 309.353C491.069 308.424 491.506 307.609 492.075 306.907C492.644 306.205 493.345 305.655 494.18 305.257C495.015 304.839 495.972 304.631 497.054 304.631C498.135 304.631 499.093 304.839 499.927 305.257C500.762 305.655 501.463 306.205 502.032 306.907C502.601 307.609 503.028 308.424 503.313 309.353C503.616 310.264 503.768 311.241 503.768 312.284C503.768 313.327 503.616 314.313 503.313 315.243C503.028 316.172 502.601 316.988 502.032 317.69C501.463 318.372 500.762 318.922 499.927 319.34C499.093 319.738 498.135 319.937 497.054 319.937C495.972 319.937 495.015 319.738 494.18 319.34C493.345 318.922 492.644 318.372 492.075 317.69C491.506 316.988 491.069 316.172 490.766 315.243C490.481 314.313 490.339 313.327 490.339 312.284ZM491.42 312.284C491.42 313.156 491.544 314 491.79 314.816C492.037 315.613 492.397 316.324 492.871 316.95C493.345 317.576 493.933 318.078 494.635 318.458C495.337 318.818 496.143 318.998 497.054 318.998C497.964 318.998 498.77 318.818 499.472 318.458C500.174 318.078 500.762 317.576 501.236 316.95C501.71 316.324 502.07 315.613 502.317 314.816C502.563 314 502.687 313.156 502.687 312.284C502.687 311.411 502.563 310.577 502.317 309.78C502.07 308.965 501.71 308.244 501.236 307.618C500.762 306.992 500.174 306.499 499.472 306.139C498.77 305.759 497.964 305.57 497.054 305.57C496.143 305.57 495.337 305.759 494.635 306.139C493.933 306.499 493.345 306.992 492.871 307.618C492.397 308.244 492.037 308.965 491.79 309.78C491.544 310.577 491.42 311.411 491.42 312.284ZM507.157 304.972H508.238V308.102H508.295C508.484 307.552 508.75 307.068 509.091 306.651C509.452 306.214 509.859 305.845 510.315 305.541C510.789 305.238 511.301 305.01 511.851 304.858C512.401 304.707 512.961 304.631 513.53 304.631C514.383 304.631 515.104 304.735 515.692 304.944C516.299 305.152 516.792 305.427 517.171 305.769C517.551 306.11 517.845 306.499 518.053 306.935C518.281 307.352 518.442 307.779 518.537 308.215C518.632 308.652 518.689 309.078 518.708 309.496C518.727 309.894 518.736 310.245 518.736 310.548V319.596H517.655V310.349C517.655 309.989 517.626 309.534 517.57 308.984C517.513 308.434 517.342 307.912 517.057 307.419C516.792 306.907 516.375 306.47 515.806 306.11C515.256 305.75 514.487 305.57 513.501 305.57C512.667 305.57 511.927 305.721 511.282 306.025C510.637 306.328 510.087 306.755 509.632 307.305C509.177 307.836 508.826 308.481 508.579 309.24C508.352 309.979 508.238 310.795 508.238 311.686V319.596H507.157V304.972ZM532.872 308.329H532.929C533.043 307.969 533.233 307.571 533.498 307.134C533.764 306.698 534.115 306.3 534.551 305.939C534.987 305.56 535.509 305.247 536.116 305.001C536.742 304.754 537.453 304.631 538.25 304.631C539.369 304.631 540.336 304.839 541.152 305.257C541.986 305.674 542.669 306.233 543.2 306.935C543.75 307.637 544.158 308.453 544.423 309.382C544.689 310.311 544.822 311.288 544.822 312.312C544.822 313.431 544.689 314.456 544.423 315.385C544.158 316.314 543.75 317.12 543.2 317.803C542.669 318.467 541.986 318.989 541.152 319.368C540.336 319.747 539.369 319.937 538.25 319.937C537.036 319.937 535.955 319.672 535.006 319.14C534.058 318.609 533.366 317.746 532.929 316.551H532.872V324.831H531.791V304.972H532.872V308.329ZM538.25 318.998C539.198 318.998 540.014 318.818 540.696 318.458C541.398 318.097 541.967 317.614 542.403 317.007C542.859 316.4 543.191 315.698 543.399 314.901C543.627 314.086 543.741 313.223 543.741 312.312C543.741 311.478 543.636 310.662 543.428 309.866C543.219 309.05 542.897 308.329 542.46 307.703C542.024 307.058 541.455 306.546 540.753 306.167C540.07 305.769 539.236 305.57 538.25 305.57C537.282 305.57 536.457 305.759 535.774 306.139C535.092 306.518 534.532 307.021 534.096 307.646C533.679 308.272 533.375 308.993 533.185 309.809C532.996 310.605 532.901 311.44 532.901 312.312C532.901 313.185 532.986 314.029 533.157 314.844C533.328 315.641 533.612 316.352 534.01 316.978C534.428 317.585 534.978 318.078 535.661 318.458C536.362 318.818 537.225 318.998 538.25 318.998ZM549.535 299.282V319.596H548.454V299.282H549.535ZM563.532 316.694H563.475C563.304 317.13 563.058 317.547 562.735 317.946C562.413 318.325 562.014 318.666 561.54 318.97C561.085 319.273 560.563 319.51 559.975 319.681C559.387 319.852 558.743 319.937 558.041 319.937C556.485 319.937 555.281 319.605 554.428 318.941C553.574 318.259 553.147 317.215 553.147 315.812C553.147 314.958 553.318 314.266 553.659 313.735C554.001 313.185 554.428 312.758 554.94 312.455C555.471 312.132 556.049 311.905 556.675 311.772C557.32 311.639 557.936 311.544 558.524 311.487L560.203 311.345C560.981 311.288 561.588 311.203 562.024 311.089C562.479 310.956 562.82 310.785 563.048 310.577C563.276 310.349 563.418 310.065 563.475 309.723C563.532 309.382 563.56 308.955 563.56 308.443C563.56 308.045 563.484 307.675 563.333 307.333C563.181 306.992 562.944 306.689 562.621 306.423C562.299 306.158 561.882 305.949 561.369 305.797C560.857 305.645 560.231 305.57 559.492 305.57C558.183 305.57 557.121 305.892 556.305 306.537C555.509 307.182 555.072 308.159 554.997 309.467H553.915C553.991 307.855 554.503 306.651 555.452 305.854C556.419 305.038 557.785 304.631 559.549 304.631C561.313 304.631 562.593 304.982 563.389 305.683C564.205 306.366 564.613 307.267 564.613 308.386V316.893C564.613 317.102 564.613 317.31 564.613 317.519C564.632 317.727 564.67 317.917 564.727 318.088C564.784 318.259 564.878 318.401 565.011 318.515C565.144 318.609 565.334 318.657 565.58 318.657C565.77 318.657 566.035 318.628 566.377 318.571V319.482C566.092 319.558 565.798 319.596 565.495 319.596C565.059 319.596 564.708 319.539 564.442 319.425C564.196 319.311 564.006 319.159 563.873 318.97C563.74 318.78 563.646 318.562 563.589 318.315C563.551 318.05 563.532 317.765 563.532 317.462V316.694ZM563.532 311.288C563.266 311.611 562.858 311.829 562.308 311.942C561.777 312.056 561.18 312.142 560.516 312.199L558.695 312.369C558.164 312.426 557.633 312.511 557.102 312.625C556.571 312.72 556.087 312.891 555.651 313.137C555.234 313.384 554.892 313.725 554.627 314.162C554.361 314.579 554.228 315.129 554.228 315.812C554.228 316.893 554.57 317.699 555.253 318.23C555.935 318.742 556.874 318.998 558.069 318.998C559.302 318.998 560.279 318.78 561 318.344C561.72 317.889 562.27 317.377 562.65 316.808C563.029 316.22 563.266 315.66 563.361 315.129C563.475 314.579 563.532 314.209 563.532 314.019V311.288ZM574.286 305.911H571.1V316.125C571.1 316.713 571.166 317.177 571.299 317.519C571.432 317.86 571.631 318.126 571.896 318.315C572.181 318.486 572.513 318.59 572.892 318.628C573.29 318.666 573.746 318.676 574.258 318.657V319.596C573.708 319.634 573.167 319.634 572.636 319.596C572.124 319.539 571.669 319.397 571.27 319.169C570.872 318.922 570.55 318.562 570.303 318.088C570.075 317.614 569.981 316.959 570.018 316.125V305.911H567.316V304.972H570.018V300.42H571.1V304.972H574.286V305.911ZM575.532 305.911V304.972H578.149V301.956C578.149 301.444 578.235 301.008 578.405 300.648C578.576 300.268 578.804 299.965 579.088 299.737C579.392 299.51 579.733 299.339 580.112 299.225C580.511 299.111 580.928 299.054 581.364 299.054C581.687 299.054 582.113 299.102 582.645 299.197V300.135C582.113 300.041 581.687 299.993 581.364 299.993C580.757 299.993 580.245 300.135 579.828 300.42C579.43 300.686 579.231 301.226 579.231 302.042V304.972H582.275V305.911H579.231V319.596H578.149V305.911H575.532ZM584.158 312.284C584.158 311.241 584.301 310.264 584.585 309.353C584.889 308.424 585.325 307.609 585.894 306.907C586.463 306.205 587.165 305.655 587.999 305.257C588.834 304.839 589.792 304.631 590.873 304.631C591.954 304.631 592.912 304.839 593.746 305.257C594.581 305.655 595.283 306.205 595.852 306.907C596.421 307.609 596.847 308.424 597.132 309.353C597.435 310.264 597.587 311.241 597.587 312.284C597.587 313.327 597.435 314.313 597.132 315.243C596.847 316.172 596.421 316.988 595.852 317.69C595.283 318.372 594.581 318.922 593.746 319.34C592.912 319.738 591.954 319.937 590.873 319.937C589.792 319.937 588.834 319.738 587.999 319.34C587.165 318.922 586.463 318.372 585.894 317.69C585.325 316.988 584.889 316.172 584.585 315.243C584.301 314.313 584.158 313.327 584.158 312.284ZM585.24 312.284C585.24 313.156 585.363 314 585.609 314.816C585.856 315.613 586.216 316.324 586.691 316.95C587.165 317.576 587.753 318.078 588.455 318.458C589.156 318.818 589.962 318.998 590.873 318.998C591.783 318.998 592.589 318.818 593.291 318.458C593.993 318.078 594.581 317.576 595.055 316.95C595.529 316.324 595.89 315.613 596.136 314.816C596.383 314 596.506 313.156 596.506 312.284C596.506 311.411 596.383 310.577 596.136 309.78C595.89 308.965 595.529 308.244 595.055 307.618C594.581 306.992 593.993 306.499 593.291 306.139C592.589 305.759 591.783 305.57 590.873 305.57C589.962 305.57 589.156 305.759 588.455 306.139C587.753 306.499 587.165 306.992 586.691 307.618C586.216 308.244 585.856 308.965 585.609 309.78C585.363 310.577 585.24 311.411 585.24 312.284ZM602.057 308.215H602.142C602.275 307.741 602.512 307.296 602.854 306.878C603.214 306.461 603.641 306.101 604.134 305.797C604.646 305.494 605.206 305.266 605.812 305.114C606.438 304.944 607.083 304.868 607.747 304.887V305.968C607.178 305.892 606.524 305.949 605.784 306.139C605.063 306.328 604.371 306.746 603.707 307.39C603.442 307.675 603.204 307.95 602.996 308.215C602.806 308.481 602.645 308.775 602.512 309.097C602.379 309.42 602.275 309.78 602.199 310.179C602.123 310.577 602.076 311.051 602.057 311.601V319.596H600.976V304.972H602.057V308.215ZM609.776 304.972H610.857V307.959H610.914C611.028 307.504 611.227 307.077 611.512 306.679C611.796 306.262 612.138 305.901 612.536 305.598C612.953 305.295 613.408 305.057 613.902 304.887C614.414 304.716 614.945 304.631 615.495 304.631C616.197 304.631 616.804 304.726 617.316 304.915C617.828 305.086 618.264 305.323 618.624 305.626C618.985 305.911 619.269 306.243 619.478 306.622C619.687 306.983 619.829 307.352 619.905 307.732H619.962C620.398 306.708 620.976 305.939 621.697 305.427C622.437 304.896 623.404 304.631 624.599 304.631C625.263 304.631 625.87 304.735 626.42 304.944C626.989 305.133 627.473 305.437 627.871 305.854C628.288 306.252 628.611 306.764 628.838 307.39C629.066 308.016 629.18 308.756 629.18 309.61V319.596H628.098V309.581C628.098 308.652 627.956 307.921 627.672 307.39C627.387 306.859 627.046 306.461 626.647 306.195C626.268 305.911 625.879 305.74 625.481 305.683C625.102 305.607 624.808 305.57 624.599 305.57C623.935 305.57 623.319 305.683 622.75 305.911C622.2 306.139 621.716 306.48 621.299 306.935C620.9 307.39 620.587 307.959 620.36 308.642C620.132 309.306 620.018 310.074 620.018 310.947V319.596H618.937V309.581C618.937 308.671 618.795 307.95 618.511 307.419C618.245 306.869 617.923 306.461 617.543 306.195C617.183 305.93 616.804 305.759 616.405 305.683C616.026 305.607 615.722 305.57 615.495 305.57C614.983 305.57 614.452 305.674 613.902 305.883C613.352 306.091 612.849 306.414 612.394 306.85C611.938 307.286 611.569 307.846 611.284 308.528C611 309.211 610.857 310.017 610.857 310.947V319.596H609.776V304.972Z" fill="#1E2938"/>
</svg>
