<svg width="208" height="214" viewBox="0 0 208 214" fill="none" xmlns="http://www.w3.org/2000/svg">
<rect width="207.122" height="197.593" rx="12" transform="matrix(0.999977 0.00680144 -0.00446903 0.99999 0.882935 14.0137)" fill="#E7C7FF"/>
<path d="M149.201 159.128L143.055 113.266L121.336 75.8359C121.336 75.8359 114.376 80.0339 118.173 89.609C121.97 99.1841 134.212 127.148 134.212 127.148L149.201 159.128Z" fill="#FFC7CC"/>
<path d="M121.712 161.305L134.715 212.928H172L149.201 159.127L121.712 161.305Z" fill="#FFC7CC"/>
<path d="M136.016 161.745L131.772 130.557L111.597 131.845C111.597 131.845 109.404 137.686 109.953 146.251C110.377 152.864 115.319 162.93 122.188 164.258C125.013 164.804 127.767 164.098 130.515 163.5C131.082 163.376 136.129 162.58 136.016 161.745Z" fill="#FFBFC7"/>
<path d="M54.5577 66.6641H38V83.2221H54.5577V66.6641ZM52.0267 80.6908H40.531V69.1951H52.0267V80.6908Z" fill="#313131"/>
<path d="M49.4506 71.7695H43.1072V78.1133H49.4506V71.7695Z" fill="#313131"/>
<path d="M89.3635 66.6641V83.2221H105.922V66.6641H89.3635ZM103.391 80.6908H91.8945V69.1951H103.391V80.6908Z" fill="#313131"/>
<path d="M100.814 71.7695H94.4707V78.1133H100.814V71.7695Z" fill="#313131"/>
<path d="M38.009 134.578H54.5668V118.02H38.009V134.578ZM40.54 120.551H52.0358V132.047H40.54V120.551Z" fill="#313131"/>
<path d="M49.4597 123.127H43.1163V129.471H49.4597V123.127Z" fill="#313131"/>
<path d="M65.163 66.6641H62.4465V69.3802H65.163V66.6641Z" fill="#313131"/>
<path d="M73.3116 77.5291V80.2453H76.0275V77.5291V74.8126H78.7434H81.4602V77.5291H78.7434V80.2453V82.9612H76.0275H73.3116V80.2453H70.5952V82.9612H67.8793V85.6773H70.5952H73.3116V85.6776H70.5952V88.3935H73.3116H76.0278V85.6773H78.7434V88.3935H81.4602H84.1773H86.8935V85.6773H84.1773V82.9612V80.2453H86.8935V77.5291H84.1773V74.8126H86.8935V72.0964H86.8938V69.3799H86.8935V66.6641H84.1773V69.3799H84.177V72.0964H81.4602V69.3799V66.6641H78.7434H76.0275V69.3799V72.0964H73.3116V74.8126H70.5952V77.5291H73.3116Z" fill="#313131"/>
<path d="M62.4466 88.3922H65.1631H67.8793V85.676H65.1631V82.9598V80.2436H67.8793H70.5955V77.5274H67.8793V74.811H70.5955V72.0948L70.5952 69.3783H73.312V66.6621H70.5955H67.8793V69.3783H65.1631V72.0948H62.4466H59.7305V69.3783V66.6621H57.0143V69.3783V72.0948V74.811H59.7305V77.5271H57.0143V80.2436H59.7305V82.9595H57.0143V85.6757H59.7305V85.6763H57.0143V88.3919H59.7305H62.4466V88.3922ZM59.7305 77.5277H62.4466V80.2439L59.7305 80.2436V77.5277Z" fill="#313131"/>
<path d="M70.5952 91.1133H67.8793V93.8295V96.5456H70.5952V93.8295V91.1133Z" fill="#313131"/>
<path d="M65.163 104.695H62.4465V107.411H65.163V104.695Z" fill="#313131"/>
<path d="M70.5955 104.695H67.8793V107.411H70.5955V104.695Z" fill="#313131"/>
<path d="M67.8792 107.411H65.1627V110.127H62.4465V107.411H59.7304V110.127H57.0139V107.411H59.7304V104.695H57.0139H54.2977V107.411H51.5812V110.127H48.8653V107.411H46.1488V104.695V101.979H43.4324V104.695V107.411H40.7162H38V110.127V112.843V112.844V115.56H40.7162V112.844H43.4324H46.1488V115.56H48.8653H51.5812V112.844H54.2977H57.0139V115.56H59.7304V112.844H62.4465H65.1627H67.8792V110.127V107.411Z" fill="#313131"/>
<path d="M43.4324 91.1124H46.1488V93.8285H48.8653H51.5812V96.5447H54.2977H57.0139H59.7304H62.4465V93.8285V91.1124V88.3965H59.7304H57.0139H54.2977H51.5812H48.8653H46.1488H43.4324H40.7162H38V91.1124V93.8285H40.7162V91.1124H43.4324Z" fill="#313131"/>
<path d="M46.1489 85.6758H43.4324V88.3914H46.1489V85.6758Z" fill="#313131"/>
<path d="M51.5815 85.6758H48.8654V88.3914H51.5815V85.6758Z" fill="#313131"/>
<path d="M40.7162 85.6758H38V88.3914H40.7162V85.6758Z" fill="#313131"/>
<path d="M84.1772 112.844H86.8934H89.6093V110.127H86.8934H84.1772V112.844Z" fill="#313131"/>
<path d="M100.475 88.3965H97.7585H95.0417H92.3255H89.6093H86.8934H84.1772V91.1124V93.8285V96.5447H86.8934V93.8285H89.6093V96.5447H86.8934V99.2615V101.977V104.694V107.409H89.6093H92.3255V110.126H95.0417H97.7585V107.409H100.475V104.694V101.977V99.2615H103.191H105.907V96.5447H103.191H100.475H97.7585H95.0417V99.2615H97.7585V101.977V104.694H95.0417H92.3255H89.6093V101.977H92.3255V99.2615V96.5447V93.8285V91.1124H95.0417H97.7585H100.475H103.191H105.907V88.3965H103.191H100.475Z" fill="#313131"/>
<path d="M92.3254 85.6758H89.6093V88.3914H92.3254V85.6758Z" fill="#313131"/>
<path d="M100.474 85.6758H97.7584V88.3914H100.474V85.6758Z" fill="#313131"/>
<path d="M105.907 85.6758H103.191V88.3914H105.907V85.6758Z" fill="#313131"/>
<path d="M103.19 104.695V107.411V110.127H100.475V112.844H97.7584H95.0416V115.56H97.7584V118.276H100.475V120.992H97.7584V123.708H100.475V126.424H97.7584V129.141V131.857H100.475V134.575H103.19H105.907V131.857H103.19V129.141V126.424V123.708V120.992V118.276V115.56V112.844H105.907V110.127V107.411V104.695V101.979H103.19V104.695Z" fill="#313131"/>
<path d="M78.7433 120.991H81.4601V118.275V115.559V112.843V110.126V107.409H84.1772V104.694V101.977V99.2615H81.4601V101.977H78.7433V99.2615H81.4601V96.5447V93.8285V91.1124H78.7433H76.0278V88.3965H73.3116V91.1124V93.8285V96.5447H70.5951V99.2615H67.8792H65.1627H62.4465H59.7304H57.0139H54.2977H51.5812V96.5447H48.8653H46.1488V93.8285H43.4324H40.7162V96.5447H38V99.2615V101.977H40.7162V99.2615H43.4324H46.1488V101.977H48.8653V104.694V107.409H51.5812V104.694H54.2977V101.977H57.0139H59.7304V104.694H62.4465V101.977H65.1627V104.694H67.8792V101.977H70.5951H73.3116H76.0275V104.694V107.409H78.7433V110.126V112.843H76.0275V110.126H73.3116H70.5951V112.843H67.8792V115.559H70.5951H73.3116H76.0275V118.275H78.7433V120.991Z" fill="#313131"/>
<path d="M95.0417 110.129H92.3256V112.845H95.0417V110.129Z" fill="#313131"/>
<path d="M95.0416 123.709V120.993V118.277H92.3255V115.561H89.6093H86.8931H84.1769V118.277V120.993H81.4601V123.709H84.1769H86.8931V126.425V129.142H84.1769V126.425H81.4601V129.142H78.7436V126.425V123.709H78.743V120.993H76.0271V118.277H73.3116H70.5951V120.993H67.8789V123.709V126.425H70.5951V129.142V131.858V134.575H73.3116V131.858V129.142V126.425V123.709H76.0268V126.425V129.142H78.7433V131.858H76.0268V134.575H78.7436V131.858H81.4601L81.4604 134.575H84.1766V131.858H86.8931H89.6093V129.142V126.425V123.709H92.3255V126.425H95.0416H97.7587V123.709H95.0416ZM86.8934 120.993V118.277H89.6096V120.993H86.8934Z" fill="#313131"/>
<path d="M57.0139 118.277V120.993H59.7304V123.709H57.0139V126.425V129.142V131.858V134.575H59.7304V131.858V129.142H62.4466V131.858H65.1628V134.575H67.8789V131.858H67.8793V129.142H65.1628V126.425V123.709V120.993V118.277V115.561H62.4466H59.7304V118.277H57.0139Z" fill="#313131"/>
<path d="M133.165 138.868C133.165 142.574 130.161 145.578 126.455 145.578H96.7098C93.0041 145.578 90 142.574 90 138.868V66.7235C90 63.0178 93.0041 60.0137 96.7098 60.0137H126.455C130.161 60.0137 133.165 63.0178 133.165 66.7235V138.868Z" fill="#FFFEFE"/>
<path d="M126.397 58.0137H97.4732C92.5724 58.0137 88.5994 61.9867 88.5994 66.8875V138.785C88.5994 143.686 92.5724 147.659 97.4732 147.659H126.397C131.298 147.659 135.271 143.686 135.271 138.785V66.8875C135.271 61.9864 131.298 58.0137 126.397 58.0137ZM133.517 138.908C133.517 142.614 130.513 145.618 126.807 145.618H97.0625C93.3568 145.618 90.3527 142.614 90.3527 138.908V66.7641C90.3527 63.0584 93.3568 60.0543 97.0625 60.0543H126.807C130.513 60.0543 133.517 63.0584 133.517 66.7641V138.908Z" fill="#1C1C1C"/>
<path d="M117.761 63.0695H106.109C104.588 63.0695 103.356 61.8366 103.356 60.3161V59.3926H120.515V60.3161C120.515 61.8369 119.282 63.0695 117.761 63.0695Z" fill="#1C1C1C"/>
<path d="M114.072 60.4805H106.969V61.0572H114.072V60.4805Z" fill="#232323"/>
<path d="M116.901 60.7699C116.901 60.9954 116.718 61.1784 116.492 61.1784C116.267 61.1784 116.084 60.9957 116.084 60.7699C116.084 60.5444 116.266 60.3613 116.492 60.3613C116.718 60.3616 116.901 60.5444 116.901 60.7699Z" fill="#232323"/>
<path d="M104.138 90.082H96.7526V97.4677H104.138V90.082ZM103.009 96.3388H97.8815V91.211H103.009V96.3388Z" fill="#313131"/>
<path d="M101.86 92.3594H99.0309V95.1889H101.86V92.3594Z" fill="#313131"/>
<path d="M119.663 90.082V97.4677H127.049V90.082H119.663ZM125.92 96.3388H120.792V91.211H125.92V96.3388Z" fill="#313131"/>
<path d="M124.771 92.3594H121.941V95.1889H124.771V92.3594Z" fill="#313131"/>
<path d="M96.7568 120.376H104.143V112.99H96.7568V120.376ZM97.8858 114.119H103.014V119.247H97.8858V114.119Z" fill="#313131"/>
<path d="M101.864 115.268H99.0348V118.097H101.864V115.268Z" fill="#313131"/>
<path d="M108.869 90.082H107.657V91.2934H108.869V90.082Z" fill="#313131"/>
<path d="M112.503 94.9285V96.1399H113.715V94.9285V93.7168H114.926H116.138V94.9285H114.926V96.1399V97.3513H113.715H112.503V96.1399H111.292V97.3513H110.08V98.5631H111.292H112.503H111.292V99.7745H112.503H112.503H113.715V98.5631H114.926V99.7745H116.138H117.35H118.561V98.5631H117.35V97.3513V96.1399H118.561V94.9285H117.35V93.7168H118.561V92.5051H118.562V91.2934H118.561V90.082H117.35V91.2934H117.35V92.5051H116.138V91.2934V90.082H114.926H113.715V91.2934V92.5051H112.503V93.7168H111.292V94.9285H112.503Z" fill="#313131"/>
<path d="M107.657 99.7761H108.869H110.08V98.5644H108.869V97.353V96.1416H110.08H111.292V94.9302H110.08V93.7185H111.292V92.5071V91.2954H112.504V90.084H111.292H110.08V91.2954H108.869V92.5071H107.657H106.446V91.2954V90.084H105.234V91.2954V92.5071V93.7185H106.446V94.9302H105.234V96.1419H106.446V97.3533H105.234V98.5647V99.7764H106.446L107.657 99.7761ZM106.445 94.9302H107.657V96.1416H106.445V94.9302Z" fill="#313131"/>
<path d="M111.292 100.988H110.08V102.2V103.411H111.292V102.2V100.988Z" fill="#313131"/>
<path d="M108.869 107.045H107.657V108.256H108.869V107.045Z" fill="#313131"/>
<path d="M111.291 107.045H110.08V108.256H111.291V107.045Z" fill="#313131"/>
<path d="M110.08 108.257H108.869V109.468H107.657V108.257H106.445V109.468H105.234V108.257H106.445V107.046H105.234H104.022V108.257H102.81V109.468H101.599V108.257H100.387V107.046V105.834H99.176V107.046V108.257H97.9643H96.7526V109.468V110.68V110.68V111.892H97.9643V110.68H99.176H100.387V111.892H101.599H102.81V110.68H104.022H105.234V111.892H106.445V110.68H107.657H108.869H110.08V109.468V108.257Z" fill="#313131"/>
<path d="M99.176 100.989H100.387V102.2H101.599H102.81V103.412H104.022H105.234H106.445H107.657V102.2V100.989V99.7773H106.445H105.234H104.022H102.81H101.599H100.387H99.176H97.9643H96.7526V100.989V102.2H97.9643V100.989H99.176Z" fill="#313131"/>
<path d="M100.388 98.5625H99.176V99.7739H100.388V98.5625Z" fill="#313131"/>
<path d="M102.81 98.5625H101.599V99.7739H102.81V98.5625Z" fill="#313131"/>
<path d="M97.9643 98.5625H96.7526V99.7739H97.9643V98.5625Z" fill="#313131"/>
<path d="M117.35 110.681H118.561H119.773V109.469H118.561H117.35V110.681Z" fill="#313131"/>
<path d="M124.619 99.7773H123.408H122.196H120.984H119.773H118.561H117.35V100.989V102.2V103.412H118.561V102.2H119.773V103.412H118.561V104.624V105.835V107.047V108.258H119.773H120.984V109.469H122.196H123.408V108.258H124.619V107.047V105.835V104.624H125.831H127.042V103.412H125.831H124.619H123.408H122.196V104.624H123.408V105.835V107.047H122.196H120.984H119.773V105.835H120.984V104.624V103.412V102.2V100.989H122.196H123.408H124.619H125.831H127.042V99.7773H125.831H124.619Z" fill="#313131"/>
<path d="M120.985 98.5625H119.773V99.7739H120.985V98.5625Z" fill="#313131"/>
<path d="M124.619 98.5625H123.408V99.7739H124.619V98.5625Z" fill="#313131"/>
<path d="M127.042 98.5625H125.831V99.7739H127.042V98.5625Z" fill="#313131"/>
<path d="M125.831 107.046V108.257V109.468H124.619V110.68H123.408H122.196V111.892H123.408V113.104H124.619V114.315H123.408V115.527H124.619V116.738H123.408V117.95V119.162H124.619V120.374H125.831H127.042V119.162H125.831V117.95V116.738V115.527V114.315V113.104V111.892V110.68H127.042V109.468V108.257V107.046V105.834H125.831V107.046Z" fill="#313131"/>
<path d="M114.926 114.316H116.138V113.105V111.893V110.681V109.469V108.258H117.35V107.047V105.835V104.624H116.138V105.835H114.926V104.624H116.138V103.412V102.2V100.989H114.926H113.715V99.7773H112.503V100.989H112.504V102.2V103.412H111.292V104.624H110.08H108.869H107.657H106.445H105.234H104.022H102.81V103.412H101.599H100.387V102.2H99.176H97.9643V103.412H96.7526V104.624V105.835H97.9643V104.624H99.176H100.387V105.835H101.599V107.047V108.258H102.81V107.047H104.022V105.835H105.234H106.445V107.047H107.657V105.835H108.869V107.047H110.08V105.835H111.292H112.504H113.715V107.047V108.258H114.926V109.469V110.681H113.715V109.469H112.504H111.292V110.681H110.08V111.893H111.292H112.504H113.715V113.105H114.926V114.316Z" fill="#313131"/>
<path d="M122.196 109.471H120.984V110.682H122.196V109.471Z" fill="#313131"/>
<path d="M122.196 115.527V114.315V113.104H120.985V111.893H119.773H118.562H117.35V113.104V114.315H116.138V115.527H117.35H118.562V116.738V117.95H117.35V116.738H116.138V117.95H114.927V116.738V115.527L114.926 114.315H113.715V113.104H112.504H111.292V114.315H110.08V115.527V116.738H111.292V117.95V119.162V120.374H112.504V119.162V117.95V116.738V115.527H113.715V116.738V117.95H114.927L114.926 119.162H113.715V120.374H114.927L114.926 119.162H116.138H116.139V120.374H117.35V119.162H117.35H118.562H119.773V117.95V116.738V115.527H120.985V116.738H122.196H123.408V115.527H122.196ZM118.561 114.315V113.104H119.773V114.315H118.561Z" fill="#313131"/>
<path d="M105.234 113.104V114.315H106.445V115.527H105.234V116.738V117.95V119.162V120.374H106.445V119.162V117.95H107.657V119.162H108.869V120.374H110.08V119.162V117.95H108.869V116.738V115.527V114.315V113.104V111.893H107.657H106.445V113.104H105.234Z" fill="#313131"/>
<path d="M94.084 94.1593V91.2567C94.084 89.1 95.8324 87.3516 97.9891 87.3516H103.422" stroke="#0B0A0A" stroke-width="2" stroke-miterlimit="10" stroke-linecap="round" stroke-linejoin="round"/>
<path d="M103.718 123.412H97.9889C95.8322 123.412 94.0837 121.664 94.0837 119.507V116.508" stroke="#0B0A0A" stroke-width="2" stroke-miterlimit="10" stroke-linecap="round" stroke-linejoin="round"/>
<path d="M129.777 94.1593V91.2567C129.777 89.1 128.028 87.3516 125.871 87.3516H120.438" stroke="#0B0A0A" stroke-width="2" stroke-miterlimit="10" stroke-linecap="round" stroke-linejoin="round"/>
<path d="M120.142 123.412H125.871C128.028 123.412 129.777 121.664 129.777 119.507V116.508" stroke="#0B0A0A" stroke-width="2" stroke-miterlimit="10" stroke-linecap="round" stroke-linejoin="round"/>
<path d="M94.0841 105.129H129.777" stroke="#9BF3FF" stroke-width="2" stroke-miterlimit="10"/>
<path opacity="0.56" d="M129.777 94.9492H94.0841V104.75H129.777V94.9492Z" fill="url(#paint0_linear_800_54)"/>
<path d="M97.1349 84.4854C96.6927 84.4854 96.2688 84.4275 95.8634 84.3116C95.4579 84.1905 95.1315 84.0352 94.884 83.8457L95.3184 82.8821C95.5553 83.0506 95.8344 83.1901 96.1556 83.3007C96.482 83.406 96.8111 83.4586 97.1428 83.4586C97.3956 83.4586 97.5983 83.435 97.751 83.3876C97.909 83.3349 98.0248 83.2638 98.0985 83.1743C98.1722 83.0848 98.2091 82.9821 98.2091 82.8663C98.2091 82.7189 98.1512 82.603 98.0353 82.5188C97.9195 82.4293 97.7668 82.3582 97.5772 82.3055C97.3877 82.2476 97.1771 82.195 96.9454 82.1476C96.719 82.0949 96.4899 82.0317 96.2583 81.958C96.0318 81.8843 95.8239 81.7895 95.6343 81.6737C95.4448 81.5578 95.2894 81.4051 95.1683 81.2156C95.0525 81.026 94.9946 80.7838 94.9946 80.489C94.9946 80.173 95.0788 79.8861 95.2473 79.6281C95.4211 79.3648 95.6791 79.1568 96.0213 79.0041C96.3688 78.8462 96.8032 78.7672 97.3245 78.7672C97.672 78.7672 98.0143 78.8093 98.3513 78.8935C98.6882 78.9725 98.9857 79.0936 99.2437 79.2569L98.8488 80.2283C98.5908 80.0809 98.3328 79.973 98.0748 79.9045C97.8168 79.8308 97.5641 79.7939 97.3166 79.7939C97.0691 79.7939 96.8664 79.8229 96.7084 79.8808C96.5505 79.9387 96.4373 80.0151 96.3688 80.1099C96.3004 80.1994 96.2662 80.3047 96.2662 80.4258C96.2662 80.5679 96.3241 80.6838 96.4399 80.7733C96.5558 80.8575 96.7084 80.926 96.898 80.9786C97.0876 81.0313 97.2955 81.084 97.522 81.1366C97.7536 81.1893 97.9827 81.2498 98.2091 81.3183C98.4408 81.3867 98.6514 81.4789 98.8409 81.5947C99.0305 81.7105 99.1832 81.8632 99.299 82.0528C99.4201 82.2423 99.4807 82.4819 99.4807 82.7715C99.4807 83.0822 99.3938 83.3665 99.22 83.6245C99.0463 83.8825 98.7857 84.0905 98.4381 84.2485C98.0959 84.4064 97.6615 84.4854 97.1349 84.4854ZM103.001 84.4854C102.574 84.4854 102.177 84.417 101.808 84.2801C101.445 84.1379 101.129 83.9378 100.86 83.6798C100.592 83.4218 100.381 83.119 100.229 82.7715C100.081 82.424 100.007 82.0423 100.007 81.6263C100.007 81.2103 100.081 80.8286 100.229 80.4811C100.381 80.1335 100.592 79.8308 100.86 79.5728C101.134 79.3148 101.453 79.1173 101.816 78.9804C102.179 78.8383 102.577 78.7672 103.009 78.7672C103.488 78.7672 103.92 78.8514 104.304 79.0199C104.694 79.1831 105.02 79.4254 105.283 79.7465L104.462 80.5048C104.272 80.2889 104.062 80.1283 103.83 80.023C103.598 79.9124 103.346 79.8571 103.072 79.8571C102.814 79.8571 102.577 79.8992 102.361 79.9835C102.145 80.0677 101.958 80.1888 101.8 80.3468C101.642 80.5048 101.519 80.6917 101.429 80.9076C101.345 81.1234 101.303 81.363 101.303 81.6263C101.303 81.8896 101.345 82.1291 101.429 82.345C101.519 82.5609 101.642 82.7478 101.8 82.9058C101.958 83.0637 102.145 83.1848 102.361 83.2691C102.577 83.3533 102.814 83.3955 103.072 83.3955C103.346 83.3955 103.598 83.3428 103.83 83.2375C104.062 83.1269 104.272 82.9611 104.462 82.7399L105.283 83.4981C105.02 83.8193 104.694 84.0642 104.304 84.2327C103.92 84.4012 103.485 84.4854 103.001 84.4854ZM105.321 84.3906L107.785 78.862H109.048L111.521 84.3906H110.178L108.156 79.5096H108.661L106.632 84.3906H105.321ZM106.553 83.2059L106.892 82.2344H109.736L110.083 83.2059H106.553ZM112.094 84.3906V78.862H113.152L116.414 82.8426H115.901V78.862H117.165V84.3906H116.114L112.844 80.41H113.358V84.3906H112.094ZM118.473 84.3906V78.862H119.531L122.793 82.8426H122.28V78.862H123.543V84.3906H122.493L119.223 80.41H119.736V84.3906H118.473ZM95.3184 94.3906V88.862H96.5979V94.3906H95.3184ZM97.9099 94.3906V88.862H98.9683L102.23 92.8426H101.717V88.862H102.981V94.3906H101.93L98.6603 90.41H99.1736V94.3906H97.9099ZM106.958 94.4854C106.521 94.4854 106.118 94.417 105.75 94.2801C105.386 94.1379 105.068 93.9378 104.794 93.6798C104.526 93.4218 104.315 93.119 104.162 92.7715C104.015 92.424 103.941 92.0423 103.941 91.6263C103.941 91.2103 104.015 90.8286 104.162 90.4811C104.315 90.1335 104.528 89.8308 104.802 89.5728C105.076 89.3148 105.397 89.1173 105.766 88.9804C106.134 88.8383 106.54 88.7672 106.982 88.7672C107.472 88.7672 107.911 88.8488 108.301 89.012C108.696 89.1752 109.027 89.4122 109.296 89.7228L108.475 90.4811C108.274 90.2704 108.056 90.1151 107.819 90.0151C107.582 89.9098 107.324 89.8571 107.045 89.8571C106.776 89.8571 106.532 89.8992 106.311 89.9835C106.089 90.0677 105.897 90.1888 105.734 90.3468C105.576 90.5048 105.452 90.6917 105.363 90.9076C105.278 91.1234 105.236 91.363 105.236 91.6263C105.236 91.8843 105.278 92.1212 105.363 92.3371C105.452 92.553 105.576 92.7426 105.734 92.9058C105.897 93.0637 106.087 93.1848 106.303 93.2691C106.524 93.3533 106.766 93.3955 107.029 93.3955C107.282 93.3955 107.527 93.356 107.764 93.277C108.006 93.1927 108.24 93.0532 108.467 92.8584L109.193 93.7825C108.893 94.0089 108.543 94.1826 108.143 94.3037C107.748 94.4249 107.353 94.4854 106.958 94.4854ZM108.024 93.6166V91.5394H109.193V93.7825L108.024 93.6166Z" fill="#0B0A0A"/>
<path d="M139.079 129.668L121.182 113.854C121.182 113.854 114.887 119.527 121.561 127.961C128.235 136.395 129.74 137.601 129.74 137.601C129.74 137.601 117.228 151.467 131.82 165.768L149.201 159.128L139.079 129.668Z" fill="#FFC7CC"/>
<path d="M16.9993 6.01367C16.9997 2.69996 19.6863 0.0140007 23 0.0144064L185.931 0.0343535C189.245 0.0347592 191.931 2.72138 191.93 6.03509L191.928 22.0351C191.928 25.3488 189.241 28.0348 185.928 28.0344L22.9966 28.0144C19.6829 28.014 16.9969 25.3274 16.9973 22.0137L16.9993 6.01367Z" fill="#6819A5"/>
<path d="M39.862 20.0138L42.2794 8.57407L46.1834 8.57455C46.8021 8.57463 47.3354 8.68669 47.7834 8.91075C48.2314 9.1348 48.578 9.44951 48.8233 9.85487C49.0686 10.2602 49.1912 10.7456 49.1911 11.3109C49.191 12.0576 49.0096 12.7082 48.6469 13.2629C48.2948 13.8175 47.7934 14.2494 47.1427 14.5587C46.5027 14.8573 45.7453 15.0065 44.8707 15.0064L42.0387 15.006L42.2788 13.8861L45.0788 13.8864C45.9535 13.8865 46.6362 13.6626 47.1269 13.2147C47.6283 12.7561 47.879 12.1268 47.8791 11.3268C47.8792 10.8041 47.7086 10.4041 47.3673 10.1267C47.0366 9.83866 46.562 9.6946 45.9433 9.69452L43.3193 9.6942L41.142 20.0139L39.862 20.0138ZM54.1724 20.0155L54.5246 18.4316L54.5406 18.1916L55.149 15.1996C55.2984 14.4637 55.2345 13.9037 54.9572 13.5196C54.6906 13.1356 54.2213 12.9435 53.5493 12.9435C53.0479 12.9434 52.5679 13.05 52.1092 13.2633C51.6612 13.4659 51.2558 13.7698 50.8931 14.1751L50.1572 13.343C50.584 12.8844 51.1067 12.5272 51.7254 12.2712C52.3441 12.0153 52.9894 11.8874 53.6614 11.8875C54.5467 11.8876 55.2241 12.1063 55.6933 12.5437C56.1733 12.9811 56.4132 13.5998 56.4131 14.3998C56.4131 14.5385 56.4024 14.6985 56.381 14.8798C56.3597 15.0505 56.333 15.2158 56.301 15.3758L55.3244 20.0157L54.1724 20.0155ZM52.941 15.1674L55.373 15.1677L55.1169 16.1596L52.9249 16.1594C52.0929 16.1593 51.4422 16.3139 50.9728 16.6231C50.5141 16.9217 50.2847 17.3431 50.2847 17.8871C50.2846 18.2924 50.4286 18.6231 50.7166 18.8791C51.0045 19.1245 51.3778 19.2472 51.8365 19.2472C52.5512 19.2473 53.2072 18.9487 53.8046 18.3515C54.4127 17.7542 54.8875 16.9276 55.2289 15.8717L55.5169 16.1437C55.1861 17.477 54.6846 18.5009 54.0125 19.2155C53.3404 19.9194 52.5404 20.2713 51.6124 20.2712C51.1004 20.2712 50.6471 20.1698 50.2524 19.967C49.8684 19.7643 49.5645 19.487 49.3405 19.1349C49.1166 18.7829 49.0046 18.3776 49.0047 17.9189C49.0047 17.3642 49.1648 16.8842 49.4848 16.479C49.8156 16.063 50.2743 15.7431 50.861 15.5191C51.4583 15.2845 52.1517 15.1673 52.941 15.1674ZM58.9581 17.5681L60.607 9.84032L61.839 9.84047L60.1581 17.7443C60.1367 17.8723 60.1154 17.9843 60.094 18.0803C60.0833 18.1763 60.078 18.2616 60.078 18.3363C60.078 18.5603 60.1259 18.7203 60.2219 18.8163C60.3179 18.9016 60.4939 18.9443 60.7499 18.9443L62.0459 18.9445L61.8218 20.0165L60.5258 20.0163C59.9391 20.0162 59.5071 19.8882 59.2298 19.6321C58.9632 19.3761 58.8299 19.0028 58.83 18.5121C58.83 18.3841 58.8407 18.2401 58.862 18.0801C58.8834 17.9201 58.9154 17.7494 58.9581 17.5681ZM58.4626 13.2001L58.6868 12.1441L63.2468 12.1446L63.0226 13.2006L58.4626 13.2001ZM63.6979 20.0167L65.3629 12.1449L66.5949 12.1451L64.9299 20.0168L63.6979 20.0167ZM65.6992 9.32894C65.6993 9.03027 65.8006 8.78495 66.0033 8.59298C66.206 8.39034 66.4514 8.28903 66.7394 8.28907C66.974 8.2891 67.1553 8.35845 67.2833 8.49713C67.422 8.62515 67.4913 8.79583 67.4913 9.00916C67.4912 9.29716 67.3899 9.54248 67.1872 9.74512C66.9951 9.94777 66.7498 10.0491 66.4511 10.049C66.2165 10.049 66.0298 9.98498 65.8912 9.85696C65.7632 9.71828 65.6992 9.54227 65.6992 9.32894ZM68.8065 16.5133L68.8066 15.5053L72.2626 15.5057C72.8599 15.5058 73.3186 15.4045 73.6386 15.2019C73.9693 14.9886 74.1347 14.69 74.1347 14.306C74.1348 13.9113 73.9695 13.5913 73.6389 13.3459C73.3189 13.0899 72.9029 12.9618 72.3909 12.9618C71.7509 12.9617 71.1749 13.1323 70.6628 13.4735C70.1615 13.8042 69.7667 14.2681 69.4787 14.8654C69.1906 15.452 69.0465 16.1294 69.0464 16.8974C69.0463 17.5907 69.2596 18.1507 69.6862 18.5774C70.1128 18.9935 70.6835 19.2016 71.3981 19.2016C72.4435 19.2018 73.3182 18.7272 74.0223 17.778L74.8062 18.6261C73.8781 19.7246 72.726 20.2738 71.35 20.2736C70.6247 20.2735 69.99 20.1348 69.4461 19.8574C68.9021 19.58 68.4808 19.1906 68.1822 18.6892C67.8943 18.1772 67.7503 17.5745 67.7504 16.8812C67.7505 16.1772 67.8679 15.5212 68.1027 14.9132C68.3374 14.3053 68.6628 13.7773 69.0789 13.3294C69.5056 12.8707 69.9963 12.5188 70.551 12.2735C71.1164 12.0176 71.7244 11.8897 72.375 11.8898C72.9724 11.8898 73.4897 11.9912 73.927 12.1939C74.375 12.3967 74.7216 12.6794 74.9669 13.0421C75.2229 13.4048 75.3508 13.8261 75.3507 14.3061C75.3507 14.9888 75.0733 15.5274 74.5185 15.922C73.9745 16.3166 73.2225 16.5139 72.2625 16.5137L68.8065 16.5133ZM76.5885 20.0183L78.2535 12.1465L79.4695 12.1466L78.9572 14.5626L78.3971 15.6825C78.5785 14.9039 78.8452 14.2319 79.1973 13.6666C79.5601 13.1013 79.9868 12.664 80.4775 12.3547C80.9682 12.0455 81.4909 11.8909 82.0455 11.8909C82.7495 11.891 83.3148 12.0991 83.7415 12.5151C84.1787 12.9312 84.3973 13.5072 84.3972 14.2432C84.3972 14.3819 84.3865 14.5419 84.3652 14.7232C84.3438 14.8939 84.3065 15.1126 84.2531 15.3792L83.2765 20.0191L82.0445 20.0189L83.0211 15.3791C83.0638 15.1977 83.0958 15.0164 83.1172 14.8351C83.1385 14.6431 83.1492 14.4831 83.1492 14.3551C83.1493 13.9284 83.0267 13.5924 82.7814 13.347C82.5361 13.1017 82.1947 12.979 81.7574 12.9789C80.9147 12.9788 80.2107 13.3841 79.6453 14.1946C79.0905 15.0052 78.6317 16.2479 78.2688 17.9225L77.8205 20.0184L76.5885 20.0183ZM86.9425 17.5715L88.5914 9.84374L89.8234 9.84389L88.1424 17.7477C88.1211 17.8757 88.0997 17.9877 88.0784 18.0837C88.0677 18.1797 88.0624 18.265 88.0624 18.3397C88.0623 18.5637 88.1103 18.7237 88.2063 18.8197C88.3023 18.905 88.4783 18.9477 88.7343 18.9478L90.0303 18.9479L89.8062 20.0199L88.5102 20.0197C87.9235 20.0197 87.4915 19.8916 87.2142 19.6356C86.9476 19.3795 86.8143 19.0062 86.8144 18.5155C86.8144 18.3875 86.8251 18.2435 86.8464 18.0835C86.8678 17.9235 86.8998 17.7529 86.9425 17.5715ZM86.447 13.2035L86.6711 12.1475L91.2311 12.1481L91.007 13.204L86.447 13.2035ZM91.0265 18.58L91.9866 17.8602C92.2532 18.2869 92.6051 18.6229 93.0424 18.8683C93.4904 19.1137 93.9811 19.2364 94.5144 19.2365C94.9304 19.2365 95.2877 19.1779 95.5864 19.0606C95.8851 18.9326 96.1144 18.762 96.2745 18.5487C96.4452 18.3247 96.5305 18.0634 96.5306 17.7647C96.5306 17.4554 96.392 17.2047 96.1147 17.0127C95.8374 16.81 95.3787 16.6339 94.7387 16.4845C93.8961 16.2817 93.2721 16.0096 92.8668 15.6683C92.4722 15.3269 92.2749 14.8949 92.275 14.3722C92.275 13.8922 92.4084 13.4655 92.6751 13.0922C92.9525 12.7189 93.3312 12.4257 93.8112 12.2124C94.2913 11.9991 94.8353 11.8925 95.4433 11.8926C96.0833 11.8927 96.6699 12.0314 97.2032 12.3088C97.7365 12.5862 98.1845 12.9863 98.5471 13.509L97.603 14.1808C97.3257 13.7435 97.0058 13.4288 96.6431 13.2367C96.2911 13.034 95.8805 12.9326 95.4112 12.9326C94.8458 12.9325 94.3925 13.0498 94.0511 13.2844C93.7098 13.519 93.539 13.839 93.539 14.2443C93.539 14.511 93.6563 14.735 93.8909 14.9164C94.1362 15.0978 94.5255 15.2525 95.0589 15.3805C96.0188 15.6047 96.7175 15.8927 97.1548 16.2448C97.592 16.5968 97.8107 17.0555 97.8106 17.6209C97.8105 18.1329 97.6665 18.5915 97.3784 18.9968C97.101 19.3915 96.7117 19.7061 96.2103 19.9407C95.7196 20.1646 95.1489 20.2765 94.4983 20.2765C94.0183 20.2764 93.5596 20.207 93.1223 20.0683C92.685 19.9296 92.285 19.7375 91.9224 19.4922C91.5704 19.2361 91.2718 18.9321 91.0265 18.58ZM110.518 15.7824L113.541 20.0708L112.629 20.7107L109.605 16.4223L110.518 15.7824ZM110.166 8.32638C111.137 8.3265 111.98 8.53461 112.694 8.95069C113.409 9.36678 113.964 9.94818 114.358 10.6949C114.763 11.4309 114.966 12.3003 114.966 13.303C114.966 14.263 114.795 15.1643 114.454 16.0069C114.112 16.8495 113.643 17.5908 113.045 18.2307C112.448 18.8707 111.754 19.3719 110.965 19.7345C110.176 20.0971 109.333 20.2783 108.437 20.2782C107.477 20.2781 106.634 20.07 105.909 19.6539C105.194 19.2378 104.635 18.6564 104.229 17.9097C103.835 17.1629 103.637 16.2936 103.638 15.3016C103.638 14.3416 103.809 13.4403 104.15 12.5976C104.491 11.755 104.961 11.0137 105.558 10.3738C106.156 9.73389 106.849 9.23264 107.638 8.87007C108.428 8.5075 109.27 8.32627 110.166 8.32638ZM110.07 9.47837C109.388 9.47829 108.737 9.63288 108.118 9.94213C107.51 10.2514 106.966 10.678 106.486 11.2219C106.017 11.7659 105.643 12.3898 105.366 13.0938C105.099 13.7871 104.966 14.5231 104.966 15.3017C104.966 16.0697 105.115 16.7418 105.413 17.3178C105.712 17.8832 106.128 18.3259 106.661 18.646C107.195 18.966 107.818 19.1261 108.533 19.1262C109.216 19.1263 109.861 18.9717 110.469 18.6624C111.088 18.3532 111.632 17.9266 112.101 17.3826C112.581 16.8387 112.955 16.2201 113.222 15.5268C113.499 14.8228 113.638 14.0815 113.638 13.3028C113.638 12.5348 113.489 11.8628 113.19 11.2868C112.892 10.7107 112.476 10.268 111.942 9.9586C111.409 9.63854 110.785 9.47846 110.07 9.47837ZM123.467 20.024L120.475 14.6956L121.867 14.6958L124.939 20.0242L123.467 20.024ZM116.331 20.0231L118.748 8.58343L122.604 8.58391C123.543 8.58402 124.284 8.82945 124.828 9.32018C125.372 9.81091 125.644 10.4776 125.644 11.3203C125.644 12.0669 125.462 12.7176 125.1 13.2722C124.748 13.8268 124.246 14.2588 123.595 14.568C122.955 14.8666 122.198 15.0159 121.323 15.0158L118.491 15.0154L118.732 13.8954L121.532 13.8958C122.396 13.8959 123.078 13.672 123.58 13.224C124.081 12.7654 124.332 12.1468 124.332 11.3681C124.332 10.8348 124.167 10.4241 123.836 10.1361C123.505 9.84802 123.036 9.70396 122.428 9.70389L119.788 9.70356L117.611 20.0233L116.331 20.0231ZM139.631 17.242L140.415 18.2021C139.828 18.8847 139.166 19.4019 138.43 19.7538C137.694 20.1058 136.91 20.2817 136.078 20.2816C135.097 20.2814 134.244 20.0787 133.518 19.6732C132.793 19.2572 132.233 18.6758 131.839 17.929C131.444 17.1823 131.247 16.3076 131.247 15.305C131.247 14.3556 131.418 13.4597 131.759 12.617C132.101 11.7744 132.57 11.0331 133.168 10.3932C133.765 9.74261 134.453 9.23602 135.232 8.87345C136.01 8.51088 136.843 8.32965 137.728 8.32976C138.592 8.32986 139.365 8.52196 140.048 8.90604C140.741 9.29013 141.301 9.83953 141.728 10.5542L140.719 11.3221C140.357 10.6927 139.92 10.2287 139.408 9.92996C138.906 9.63124 138.309 9.48183 137.616 9.48174C136.933 9.48166 136.288 9.63625 135.68 9.94551C135.072 10.2548 134.533 10.6814 134.063 11.2253C133.605 11.7586 133.242 12.3772 132.975 13.0812C132.709 13.7745 132.575 14.5158 132.575 15.3051C132.575 16.0625 132.719 16.7291 133.007 17.3052C133.305 17.8812 133.716 18.3293 134.239 18.6493C134.772 18.9694 135.385 19.1295 136.079 19.1296C136.74 19.1296 137.369 18.9697 137.967 18.6498C138.564 18.3299 139.119 17.8606 139.631 17.242ZM142.063 16.8903C142.063 16.197 142.175 15.5516 142.399 14.9543C142.634 14.3464 142.954 13.8131 143.359 13.3544C143.775 12.8958 144.25 12.5386 144.783 12.2826C145.328 12.0267 145.909 11.8988 146.528 11.8988C147.232 11.8989 147.845 12.043 148.367 12.3311C148.89 12.6085 149.295 13.0032 149.583 13.5152C149.871 14.0166 150.015 14.6086 150.015 15.2913C150.015 15.9846 149.898 16.6352 149.663 17.2432C149.439 17.8405 149.119 18.3685 148.703 18.8271C148.297 19.2857 147.823 19.643 147.279 19.8989C146.745 20.1549 146.169 20.2828 145.551 20.2827C144.857 20.2826 144.244 20.1439 143.711 19.8665C143.188 19.5784 142.783 19.1784 142.495 18.6663C142.207 18.1543 142.063 17.5623 142.063 16.8903ZM145.551 19.2107C146.148 19.2108 146.681 19.0402 147.151 18.6989C147.631 18.347 148.009 17.8724 148.287 17.2751C148.575 16.6778 148.719 16.0164 148.719 15.2911C148.719 14.5978 148.517 14.0377 148.111 13.611C147.717 13.1843 147.189 12.9709 146.527 12.9708C145.941 12.9708 145.407 13.1467 144.927 13.4986C144.447 13.8399 144.063 14.3092 143.775 14.9065C143.498 15.4931 143.359 16.1544 143.359 16.8904C143.359 17.5838 143.556 18.1438 143.951 18.5705C144.356 18.9972 144.889 19.2106 145.551 19.2107ZM157.196 20.0281L157.836 16.9882C157.889 16.7109 157.927 16.4549 157.948 16.2202C157.98 15.9749 157.996 15.7189 157.996 15.4522C157.996 14.6629 157.815 14.0549 157.452 13.6282C157.09 13.1908 156.594 12.9721 155.965 12.972C155.389 12.9719 154.861 13.1479 154.38 13.4998C153.911 13.8411 153.532 14.305 153.244 14.8917C152.956 15.4783 152.812 16.1343 152.812 16.8596C152.812 17.6063 152.988 18.1876 153.34 18.6037C153.692 19.009 154.172 19.2118 154.78 19.2118C155.537 19.2119 156.198 18.8814 156.764 18.2201C157.329 17.5482 157.777 16.6415 158.108 15.5003L158.444 16.1083C158.081 17.4096 157.585 18.4335 156.956 19.1801C156.337 19.916 155.526 20.2839 154.524 20.2838C153.585 20.2837 152.849 19.9743 152.316 19.3555C151.782 18.7368 151.516 17.9101 151.516 16.8754C151.516 16.2141 151.628 15.5848 151.852 14.9875C152.076 14.3902 152.386 13.8622 152.78 13.4036C153.186 12.9343 153.655 12.5664 154.189 12.2998C154.733 12.0332 155.319 11.8999 155.949 11.9C156.738 11.9001 157.362 12.1242 157.821 12.5722C158.29 13.0203 158.567 13.6496 158.652 14.4603L158.332 14.7323L159.661 8.50844L160.877 8.50859L158.428 20.0283L157.196 20.0281ZM162.275 16.5248L162.275 15.5168L165.731 15.5172C166.329 15.5173 166.787 15.416 167.107 15.2134C167.438 15.0001 167.603 14.7014 167.603 14.3174C167.604 13.9227 167.438 13.6027 167.108 13.3574C166.788 13.1013 166.372 12.9733 165.86 12.9732C165.22 12.9731 164.644 13.1437 164.132 13.485C163.63 13.8156 163.235 14.2795 162.947 14.8768C162.659 15.4635 162.515 16.1408 162.515 16.9088C162.515 17.6021 162.728 18.1622 163.155 18.5889C163.582 19.0049 164.152 19.213 164.867 19.2131C165.912 19.2132 166.787 18.7386 167.491 17.7894L168.275 18.6375C167.347 19.7361 166.195 20.2852 164.819 20.2851C164.093 20.285 163.459 20.1462 162.915 19.8688C162.371 19.5914 161.95 19.2021 161.651 18.7007C161.363 18.1887 161.219 17.586 161.219 16.8926C161.219 16.1886 161.337 15.5326 161.571 14.9247C161.806 14.3167 162.132 13.7887 162.548 13.3408C162.974 12.8822 163.465 12.5302 164.02 12.285C164.585 12.029 165.193 11.9011 165.844 11.9012C166.441 11.9013 166.958 12.0027 167.396 12.2054C167.844 12.4081 168.19 12.6908 168.436 13.0535C168.692 13.4162 168.82 13.8376 168.819 14.3176C168.819 15.0002 168.542 15.5389 167.987 15.9335C167.443 16.3281 166.691 16.5253 165.731 16.5252L162.275 16.5248Z" fill="#FAFAFA"/>
<defs>
<linearGradient id="paint0_linear_800_54" x1="111.93" y1="104.75" x2="111.93" y2="94.9491" gradientUnits="userSpaceOnUse">
<stop stop-color="#9BF3FF" stop-opacity="0.8"/>
<stop offset="0.8078" stop-color="#9BF3FF" stop-opacity="0"/>
</linearGradient>
</defs>
</svg>
