<svg width="208" height="214" viewBox="0 0 208 214" fill="none" xmlns="http://www.w3.org/2000/svg">
<rect width="207.122" height="197.593" rx="12" transform="matrix(0.999977 0.00680144 -0.00446903 0.99999 0.882935 14)" fill="#F4A9FF"/>
<path d="M123.037 158.84L116.847 112.648L94.9723 74.9492C94.9723 74.9492 87.9618 79.1773 91.7863 88.8213C95.6109 98.4652 107.94 126.63 107.94 126.63L123.037 158.84Z" fill="#FFC7CC"/>
<path d="M95.3502 161.031L108.447 213.026H146L123.037 158.838L95.3502 161.031Z" fill="#FFC7CC"/>
<path d="M109.757 161.475L105.483 130.062L85.1628 131.36C85.1628 131.36 82.9543 137.243 83.5071 145.87C83.9338 152.531 88.9116 162.668 95.8303 164.006C98.675 164.555 101.449 163.845 104.217 163.242C104.787 163.118 109.871 162.316 109.757 161.475Z" fill="#FFBFC7"/>
<path d="M107.241 138.478C107.241 142.21 104.215 145.236 100.483 145.236H70.524C66.7916 145.236 63.7659 142.21 63.7659 138.478V65.8147C63.7659 62.0823 66.7916 59.0566 70.524 59.0566H100.483C104.215 59.0566 107.241 62.0823 107.241 65.8147V138.478Z" fill="#FFFEFE"/>
<path fill-rule="evenodd" clip-rule="evenodd" d="M86.9579 85.0044H94.1555C94.5272 85.0044 94.8313 85.3109 94.8313 85.6826V91.2863C94.8313 91.658 94.5262 91.9644 94.1555 91.9644H86.9579C86.5877 91.9644 86.2826 91.6595 86.2826 91.2863V85.6826C86.2826 85.3098 86.5862 85.0044 86.9579 85.0044ZM75.2384 93.6069C74.0951 93.6049 72.9685 93.4408 71.859 93.1091C72.8696 94.1975 75.3615 94.6285 78.2518 94.7612C78.8504 94.7485 79.3234 94.8615 79.269 95.5047V101.562C79.4808 101.563 80.1183 101.279 80.1213 100.705V100.099C80.8465 99.7672 81.5773 99.282 82.0211 98.7107C82.4946 98.1009 82.7876 97.3407 82.8204 96.4057L82.8219 96.3926V92.1047C82.8618 91.4919 83.006 91.0138 83.2728 90.6841C83.4937 90.4111 83.8144 90.2287 84.2471 90.1431C84.291 90.2247 84.3495 90.2986 84.4171 90.3635C84.527 90.4683 84.6647 90.5504 84.8089 90.598V94.7673C84.8089 95.0707 84.9325 95.3462 85.1317 95.5457C85.3304 95.7453 85.6048 95.8694 85.9068 95.8694H95.2065C95.5081 95.8694 95.783 95.7453 95.9817 95.5457C96.1804 95.3457 96.3044 95.0702 96.3044 94.7673V84.3247C96.3044 84.0224 96.1809 83.7464 95.9817 83.5463C95.783 83.3467 95.5086 83.2227 95.2065 83.2227H85.9068C85.6048 83.2227 85.3304 83.3467 85.1312 83.5463C84.9325 83.7458 84.8089 84.0219 84.8089 84.3247V88.3791C84.6647 88.4272 84.527 88.5093 84.4171 88.6141C84.2602 88.764 84.1548 88.9631 84.1548 89.1849V89.2826C83.4806 89.3996 82.9717 89.6899 82.6066 90.1406C82.2167 90.6228 82.011 91.2736 81.9626 92.0789L81.961 92.1047L81.9621 96.3926C81.9343 97.1234 81.7079 97.7124 81.3448 98.1804C81.0311 98.5846 80.61 98.9052 80.1213 99.1549V92.4405C79.2957 90.8497 72.9609 90.8613 71.0148 91.9346C70.4297 92.2567 70.4847 92.401 70.4847 92.984V99.8285C70.58 100.928 72.4581 101.944 73.3064 102.242C73.9822 102.48 74.7972 102.692 75.7433 102.846C76.001 102.888 76.2688 102.925 76.5456 102.958C77.054 103.018 77.5951 103.061 78.167 103.084C78.7294 103.109 78.7974 102.785 78.7707 102.22V95.7488C78.7677 95.1907 78.4686 95.0443 77.9774 95.0585C77.2219 95.021 76.466 94.9633 75.7065 94.8549C74.2959 94.6533 72.2377 94.2937 71.2528 93.1506C71.1081 92.9359 71.0369 92.7505 71.0354 92.592C71.0314 92.1569 71.8055 91.8864 72.6972 91.7223C73.7053 91.537 74.8637 91.4868 75.2213 91.4873C81.2515 91.4975 80.8727 93.6186 75.2384 93.6069ZM90.5037 93.1481H90.6096C90.9823 93.1481 91.2869 93.4555 91.2869 93.8283C91.2869 94.201 90.9808 94.5085 90.6096 94.5085H90.5037C90.1326 94.5085 89.8264 94.2026 89.8264 93.8283C89.8264 93.454 90.1315 93.1481 90.5037 93.1481ZM86.8409 93.1319H88.2777C88.4678 93.1319 88.6413 93.2104 88.7669 93.3365C88.8929 93.4621 88.9711 93.6368 88.9711 93.8283C88.9711 94.0192 88.8929 94.1929 88.7674 94.3196C88.6413 94.4462 88.4678 94.5247 88.2777 94.5247H86.8409C86.6502 94.5247 86.4767 94.4462 86.3512 94.3201L86.3436 94.3115C86.2226 94.1864 86.1474 94.0152 86.1474 93.8283C86.1474 93.6363 86.2256 93.4621 86.3512 93.336C86.4767 93.2099 86.6502 93.1319 86.8409 93.1319ZM92.8357 93.1319H94.2725C94.4632 93.1319 94.6366 93.2104 94.7622 93.3365C94.8878 93.4621 94.966 93.6368 94.966 93.8283C94.966 94.0192 94.8878 94.1929 94.7622 94.3196C94.6361 94.4462 94.4627 94.5247 94.2725 94.5247H92.8357C92.6451 94.5247 92.4716 94.4462 92.346 94.3201L92.3385 94.3115C92.2174 94.1864 92.1423 94.0152 92.1423 93.8283C92.1423 93.6363 92.2204 93.4621 92.346 93.336C92.4716 93.2099 92.6451 93.1319 92.8357 93.1319ZM94.2725 93.4028H92.8357C92.7192 93.4028 92.6133 93.4504 92.5367 93.5279C92.4972 93.5673 92.4659 93.6141 92.4446 93.6656C92.4232 93.7172 92.4122 93.7724 92.4121 93.8283C92.4121 93.9422 92.4575 94.0461 92.5306 94.1225L92.5367 94.1281C92.6138 94.2056 92.7197 94.2537 92.8357 94.2537H94.2725C94.389 94.2537 94.4949 94.2056 94.5716 94.1286C94.6511 94.049 94.6959 93.941 94.6962 93.8283C94.6962 93.7113 94.6482 93.6049 94.5716 93.5279C94.5324 93.4883 94.4858 93.4569 94.4345 93.4354C94.3832 93.414 94.3281 93.4029 94.2725 93.4028ZM88.2777 93.4028H86.8409C86.7244 93.4028 86.6184 93.4504 86.5418 93.5279C86.5024 93.5673 86.4711 93.6141 86.4497 93.6656C86.4283 93.7172 86.4173 93.7724 86.4172 93.8283C86.4172 93.9422 86.4626 94.0461 86.5357 94.1225L86.5418 94.1281C86.6189 94.2056 86.7249 94.2537 86.8409 94.2537H88.2777C88.3942 94.2537 88.5001 94.2056 88.5767 94.1286C88.6563 94.049 88.7011 93.941 88.7013 93.8283C88.7013 93.7113 88.6534 93.6049 88.5767 93.5279C88.5376 93.4882 88.491 93.4568 88.4397 93.4353C88.3883 93.4138 88.3333 93.4028 88.2777 93.4028ZM95.2065 83.6744H85.9068C85.7288 83.6744 85.5664 83.7479 85.4494 83.8654C85.3319 83.9834 85.2588 84.146 85.2588 84.3247V88.5589C85.2585 88.6148 85.2377 88.6687 85.2003 88.7101C85.1628 88.7515 85.1115 88.7776 85.0561 88.7833C84.9396 88.7944 84.8175 88.8537 84.7262 88.9403C84.6536 89.0102 84.6047 89.0963 84.6047 89.1849V89.7927C84.6047 89.8813 84.6536 89.9674 84.7262 90.0368C84.8135 90.1204 84.9295 90.1776 85.0414 90.1923C85.162 90.1963 85.2588 90.2961 85.2588 90.4182V94.7673C85.2588 94.9461 85.3319 95.1086 85.4494 95.2267C85.5669 95.3447 85.7288 95.4181 85.9068 95.4181H95.2065C95.3841 95.4181 95.5464 95.3442 95.6639 95.2261C95.7815 95.1081 95.8546 94.9456 95.8546 94.7673V84.3247C95.8546 84.1465 95.7815 83.9839 95.6639 83.8659C95.5464 83.7479 95.3846 83.6744 95.2065 83.6744ZM86.9932 88.8142H87.5777L87.8777 88.1167C87.8873 88.0939 87.914 88.0833 87.9367 88.0929C87.9453 88.097 87.9519 88.1031 87.9569 88.1107L88.6186 89.1636L89.2212 87.7374C89.2308 87.7146 89.2571 87.704 89.2797 87.7136C89.2903 87.7176 89.2979 87.7257 89.3024 87.7349L90.0246 89.2072L90.3383 88.8344C90.3469 88.8238 90.3595 88.8187 90.3726 88.8187L90.6913 88.8182C90.7065 88.8182 90.7201 88.8263 90.7282 88.8385L91.0262 89.194C91.0424 89.2133 91.0398 89.2416 91.0207 89.2573C91.0126 89.2644 91.002 89.268 90.9919 89.268L90.5582 89.2685L89.9697 89.9684C89.9535 89.9872 89.9253 89.9897 89.9061 89.9735C89.901 89.9692 89.8968 89.9638 89.894 89.9578L89.2893 88.7235L88.73 90.0479C88.7205 90.0707 88.6942 90.0814 88.671 90.0717C88.6627 90.068 88.6557 90.0618 88.6509 90.054L87.9852 88.9955L87.8818 89.2366C87.8783 89.2447 87.8725 89.2516 87.8652 89.2565C87.8578 89.2613 87.8492 89.2639 87.8404 89.2639H86.9932C86.9684 89.2639 86.9483 89.2436 86.9483 89.2188V88.8592C86.9483 88.8344 86.9684 88.8142 86.9932 88.8142ZM92.1589 87.3363C92.3869 87.0977 92.5462 86.8916 92.8972 86.8511C93.5564 86.7746 94.1626 87.4522 93.8297 88.1193C93.7349 88.3097 93.5423 88.5356 93.3289 88.7569C93.0944 89.0005 92.8357 89.2391 92.6542 89.4199L92.1589 89.9132L91.7499 89.5171C91.2582 89.0416 90.4558 88.4424 90.4291 87.7004C90.4109 87.1808 90.8194 86.8475 91.289 86.8536C91.7091 86.8592 91.8856 87.0688 92.1589 87.3363Z" fill="#498CFD"/>
<path d="M78.5313 110.672H75.8618V109.978H78.5313V110.672ZM79.4779 111.816H78.6131L77.0672 107.512H77.3192L75.7733 111.816H74.9357L76.7607 106.947H77.6529L79.4779 111.816ZM80.3455 111.816V106.947H82.2659C82.561 106.947 82.8198 107.002 83.0423 107.111C83.2693 107.215 83.4441 107.363 83.5666 107.553C83.6938 107.744 83.7573 107.966 83.7573 108.221C83.7573 108.461 83.6938 108.675 83.5666 108.861C83.4441 109.042 83.2693 109.185 83.0423 109.29C82.8198 109.39 82.561 109.44 82.2659 109.44H81.2172V109.099H82.334C82.6609 109.099 82.9447 109.154 83.1853 109.263C83.4304 109.367 83.6189 109.519 83.7505 109.719C83.8867 109.914 83.9548 110.148 83.9548 110.42C83.9548 110.697 83.8867 110.942 83.7505 111.156C83.6143 111.365 83.4236 111.528 83.1785 111.646C82.9379 111.76 82.6564 111.816 82.334 111.816H80.3455ZM81.1559 111.129H82.3408C82.586 111.129 82.779 111.063 82.9197 110.931C83.0604 110.795 83.1308 110.611 83.1308 110.379C83.1308 110.157 83.0604 109.982 82.9197 109.855C82.779 109.723 82.586 109.658 82.3408 109.658H81.0878V108.977H82.2251C82.4475 108.977 82.6223 108.918 82.7494 108.8C82.8766 108.677 82.9401 108.509 82.9401 108.296C82.9401 108.091 82.8766 107.93 82.7494 107.812C82.6223 107.694 82.4475 107.635 82.2251 107.635H81.1559V111.129ZM85.7912 111.816H84.9808V106.947H86.8263C87.1441 106.947 87.4234 107.009 87.664 107.131C87.9091 107.254 88.0998 107.424 88.236 107.642C88.3722 107.86 88.4403 108.114 88.4403 108.405C88.4403 108.691 88.3722 108.945 88.236 109.167C88.0998 109.385 87.9091 109.555 87.664 109.678C87.4234 109.796 87.1441 109.855 86.8263 109.855H85.7231V109.161H86.8263C87.0715 109.161 87.2645 109.092 87.4052 108.956C87.5459 108.82 87.6163 108.636 87.6163 108.405C87.6163 108.164 87.5459 107.978 87.4052 107.846C87.2645 107.71 87.0715 107.642 86.8263 107.642H85.7912V111.816ZM92.1546 111.319H91.5621L89.7779 107.322L90.1865 107.308V111.816H89.4033V106.947H90.3499L92.0388 110.781H91.6915L93.394 106.947H94.327V111.816H93.537V107.308L93.9592 107.322L92.1546 111.319Z" fill="#0B0A0A"/>
<path d="M100.069 57H70.9376C66.0016 57 62 61.0016 62 65.9376V138.352C62 143.288 66.0016 147.29 70.9376 147.29H100.069C105.005 147.29 109.007 143.288 109.007 138.352V65.9376C109.007 61.0013 105.005 57 100.069 57ZM107.241 138.476C107.241 142.209 104.215 145.234 100.483 145.234H70.524C66.7916 145.234 63.7659 142.209 63.7659 138.476V65.8133C63.7659 62.081 66.7916 59.0553 70.524 59.0553H100.483C104.215 59.0553 107.241 62.081 107.241 65.8133V138.476Z" fill="#1C1C1C"/>
<path d="M91.3714 62.092H79.6356C78.1038 62.092 76.8623 60.8503 76.8623 59.3188V58.3887H94.145V59.3188C94.1447 60.8506 92.9032 62.092 91.3714 62.092Z" fill="#1C1C1C"/>
<path d="M87.6551 59.4824H80.5018V60.0633H87.6551V59.4824Z" fill="#232323"/>
<path d="M90.5047 59.7748C90.5047 60.0019 90.3207 60.1863 90.0932 60.1863C89.8661 60.1863 89.6818 60.0022 89.6818 59.7748C89.6818 59.5477 89.8658 59.3633 90.0932 59.3633C90.3207 59.3636 90.5047 59.5477 90.5047 59.7748Z" fill="#232323"/>
<path d="M112.842 129.168L94.817 113.24C94.817 113.24 88.4759 118.954 95.198 127.449C101.92 135.944 103.437 137.158 103.437 137.158C103.437 137.158 90.8337 151.124 105.531 165.528L123.037 158.84L112.842 129.168Z" fill="#FFC7CC"/>
<path d="M16.9993 6C16.9997 2.68629 19.6863 0.000328873 23 0.000734558L185.931 0.0206816C189.245 0.0210873 191.931 2.70771 191.93 6.02142L191.928 22.0214C191.928 25.3351 189.241 28.0211 185.928 28.0207L22.9966 28.0007C19.6829 28.0003 16.9969 25.3137 16.9973 22L16.9993 6Z" fill="#E538FE"/>
<path d="M63.3663 18L64.4064 17.2002C64.7903 17.7976 65.3023 18.2669 65.9422 18.6084C66.5822 18.9391 67.2755 19.1045 68.0222 19.1046C68.9182 19.1047 69.6382 18.8915 70.1822 18.4649C70.7263 18.0276 70.9984 17.4516 70.9984 16.737C70.9985 16.2143 70.8012 15.7983 70.4066 15.4889C70.0226 15.1689 69.372 14.8914 68.4547 14.6567C67.2921 14.3685 66.4388 13.9951 65.8948 13.5364C65.3616 13.067 65.095 12.4696 65.0951 11.7443C65.0951 11.0616 65.2712 10.4643 65.6233 9.95232C65.9753 9.44036 66.466 9.04042 67.0954 8.7525C67.7248 8.45391 68.4501 8.30467 69.2715 8.30477C70.1568 8.30488 70.9568 8.49164 71.6714 8.86506C72.3967 9.22782 72.9886 9.75589 73.4472 10.4493L72.4231 11.2332C71.6446 10.0491 70.578 9.45693 69.2233 9.45676C68.3913 9.45666 67.714 9.65391 67.1913 10.0485C66.6792 10.4431 66.4231 10.9551 66.4231 11.5844C66.423 12.0431 66.6043 12.4218 66.9669 12.7205C67.3296 13.0085 67.9482 13.2593 68.8228 13.4727C70.0175 13.7609 70.8974 14.161 71.4627 14.673C72.0386 15.1744 72.3266 15.8145 72.3265 16.5931C72.3264 17.3185 72.145 17.9585 71.7822 18.5131C71.4195 19.0677 70.9128 19.4996 70.2621 19.8089C69.6114 20.1075 68.854 20.2567 67.99 20.2566C67.35 20.2565 66.7314 20.1658 66.134 19.9844C65.5474 19.803 65.0141 19.5416 64.5341 19.2002C64.0648 18.8588 63.6756 18.4587 63.3663 18ZM75.3221 16.4975L75.3222 15.4895L78.7782 15.4899C79.3756 15.49 79.8342 15.3887 80.1543 15.1861C80.4849 14.9728 80.6503 14.6742 80.6504 14.2902C80.6504 13.8955 80.4851 13.5755 80.1545 13.3301C79.8345 13.0741 79.4185 12.946 78.9065 12.9459C78.2665 12.9459 77.6905 13.1165 77.1785 13.4577C76.6771 13.7883 76.2824 14.2523 75.9943 14.8496C75.7062 15.4362 75.5621 16.1135 75.562 16.8815C75.562 17.5749 75.7752 18.1349 76.2018 18.5616C76.6285 18.9777 77.1991 19.1857 77.9138 19.1858C78.9591 19.186 79.8338 18.7114 80.5379 17.7621L81.3218 18.6102C80.3937 19.7088 79.2416 20.258 77.8656 20.2578C77.1403 20.2577 76.5057 20.119 75.9617 19.8416C75.4177 19.5642 74.9964 19.1748 74.6978 18.6734C74.4099 18.1614 74.266 17.5587 74.2661 16.8654C74.2661 16.1614 74.3835 15.5054 74.6183 14.8974C74.853 14.2895 75.1784 13.7615 75.5945 13.3135C76.0212 12.8549 76.5119 12.503 77.0666 12.2577C77.632 12.0018 78.24 11.8739 78.8907 11.8739C79.488 11.874 80.0053 11.9754 80.4426 12.1781C80.8906 12.3809 81.2372 12.6636 81.4825 13.0263C81.7385 13.389 81.8664 13.8103 81.8664 14.2903C81.8663 14.973 81.5889 15.5116 81.0342 15.9062C80.4901 16.3008 79.7381 16.498 78.7781 16.4979L75.3221 16.4975ZM83.5684 17.7945L85.5536 8.48276L86.7856 8.48291L84.8164 17.7147C84.7844 17.8853 84.7631 18.0133 84.7524 18.0987C84.7417 18.1733 84.7364 18.264 84.7364 18.3707C84.7363 18.552 84.779 18.6907 84.8643 18.7867C84.9603 18.8827 85.115 18.9307 85.3283 18.9307L86.1923 18.9308L85.9682 20.0028L85.1842 20.0027C84.6295 20.0026 84.2082 19.8853 83.9202 19.6506C83.6322 19.4052 83.4883 19.0372 83.4883 18.5465C83.4884 18.4292 83.4937 18.3118 83.5044 18.1945C83.5151 18.0665 83.5364 17.9332 83.5684 17.7945ZM88.8533 16.4992L88.8535 15.4912L92.3095 15.4916C92.9068 15.4917 93.3655 15.3904 93.6855 15.1878C94.0162 14.9745 94.1816 14.6758 94.1816 14.2918C94.1817 13.8972 94.0164 13.5771 93.6857 13.3318C93.3658 13.0757 92.9498 12.9477 92.4378 12.9476C91.7978 12.9475 91.2218 13.1181 90.7097 13.4594C90.2083 13.79 89.8136 14.2539 89.5255 14.8512C89.2375 15.4379 89.0934 16.1152 89.0933 16.8832C89.0932 17.5765 89.3065 18.1366 89.7331 18.5633C90.1597 18.9793 90.7303 19.1874 91.445 19.1875C92.4903 19.1876 93.3651 18.7131 94.0692 17.7638L94.8531 18.6119C93.925 19.7105 92.7729 20.2596 91.3969 20.2595C90.6716 20.2594 90.0369 20.1206 89.4929 19.8432C88.949 19.5658 88.5277 19.1765 88.2291 18.6751C87.9411 18.1631 87.7972 17.5604 87.7973 16.867C87.7974 16.163 87.9148 15.5071 88.1495 14.8991C88.3843 14.2911 88.7097 13.7631 89.1257 13.3152C89.5525 12.8566 90.0432 12.5046 90.5979 12.2594C91.1632 12.0034 91.7712 11.8755 92.4219 11.8756C93.0192 11.8757 93.5366 11.9771 93.9739 12.1798C94.4218 12.3825 94.7685 12.6652 95.0138 13.0279C95.2697 13.3906 95.3977 13.812 95.3976 14.292C95.3975 14.9746 95.1201 15.5133 94.5654 15.9079C94.0214 16.3025 93.2693 16.4997 92.3093 16.4996L88.8533 16.4992ZM102.86 17.7809L103.66 18.645C103.233 19.1569 102.721 19.5569 102.123 19.8448C101.537 20.1221 100.929 20.2606 100.299 20.2606C99.6167 20.2605 99.0141 20.1217 98.4914 19.8443C97.9795 19.5563 97.5795 19.1562 97.2916 18.6442C97.0036 18.1322 96.8597 17.5401 96.8598 16.8681C96.8599 16.1748 96.972 15.5295 97.196 14.9322C97.4308 14.3242 97.7508 13.7963 98.1562 13.3483C98.5723 12.8897 99.0523 12.5324 99.5964 12.2765C100.14 12.0099 100.727 11.8766 101.356 11.8767C102.05 11.8768 102.658 12.0262 103.18 12.3249C103.714 12.6237 104.13 13.0557 104.428 13.6211L103.452 14.293C103.004 13.3969 102.29 12.9488 101.308 12.9487C100.7 12.9486 100.156 13.1245 99.6762 13.4765C99.2068 13.8178 98.8334 14.2871 98.556 14.8844C98.2893 15.471 98.1559 16.1323 98.1558 16.8683C98.1557 17.5616 98.3476 18.1217 98.7316 18.5484C99.1262 18.9751 99.6648 19.1885 100.348 19.1886C101.34 19.1887 102.177 18.7195 102.86 17.7809ZM106.302 17.5573L107.951 9.8295L109.183 9.82965L107.502 17.7334C107.48 17.8614 107.459 17.9734 107.438 18.0694C107.427 18.1654 107.422 18.2508 107.422 18.3254C107.422 18.5494 107.47 18.7094 107.566 18.8055C107.662 18.8908 107.838 18.9335 108.094 18.9335L109.39 18.9337L109.166 20.0057L107.87 20.0055C107.283 20.0054 106.851 19.8774 106.574 19.6213C106.307 19.3653 106.174 18.992 106.174 18.5013C106.174 18.3733 106.184 18.2293 106.206 18.0693C106.227 17.9093 106.259 17.7386 106.302 17.5573ZM105.806 13.1892L106.031 12.1333L110.591 12.1338L110.366 13.1898L105.806 13.1892ZM117.371 20.0067L119.581 9.54293L120.861 9.54308L118.651 20.0068L117.371 20.0067ZM116.077 9.7025L116.317 8.56653L124.541 8.56753L124.301 9.7035L116.077 9.7025ZM124.4 16.5035L124.4 15.4955L127.856 15.4959C128.454 15.496 128.912 15.3947 129.232 15.1921C129.563 14.9788 129.728 14.6802 129.728 14.2962C129.729 13.9015 129.563 13.5815 129.233 13.3361C128.913 13.0801 128.497 12.952 127.985 12.952C127.345 12.9519 126.769 13.1225 126.257 13.4637C125.755 13.7943 125.36 14.2583 125.072 14.8556C124.784 15.4422 124.64 16.1195 124.64 16.8875C124.64 17.5809 124.853 18.1409 125.28 18.5676C125.707 18.9837 126.277 19.1917 126.992 19.1918C128.037 19.192 128.912 18.7174 129.616 17.7682L130.4 18.6163C129.472 19.7148 128.32 20.264 126.944 20.2638C126.218 20.2637 125.584 20.125 125.04 19.8476C124.496 19.5702 124.075 19.1808 123.776 18.6794C123.488 18.1674 123.344 17.5647 123.344 16.8714C123.344 16.1674 123.462 15.5114 123.696 14.9034C123.931 14.2955 124.257 13.7675 124.673 13.3196C125.099 12.8609 125.59 12.509 126.145 12.2637C126.71 12.0078 127.318 11.8799 127.969 11.88C128.566 11.88 129.083 11.9814 129.521 12.1841C129.969 12.3869 130.315 12.6696 130.561 13.0323C130.817 13.395 130.945 13.8163 130.944 14.2963C130.944 14.979 130.667 15.5176 130.112 15.9122C129.568 16.3068 128.816 16.5041 127.856 16.5039L124.4 16.5035ZM131.526 18.5684L132.487 17.8485C132.753 18.2752 133.105 18.6112 133.542 18.8566C133.99 19.102 134.481 19.2248 135.014 19.2248C135.43 19.2249 135.788 19.1662 136.086 19.0489C136.385 18.921 136.614 18.7503 136.774 18.537C136.945 18.3131 137.031 18.0517 137.031 17.7531C137.031 17.4437 136.892 17.193 136.615 17.001C136.337 16.7983 135.879 16.6223 135.239 16.4728C134.396 16.2701 133.772 15.998 133.367 15.6566C132.972 15.3152 132.775 14.8832 132.775 14.3605C132.775 13.8805 132.908 13.4539 133.175 13.0806C133.453 12.7073 133.831 12.414 134.311 12.2007C134.791 11.9875 135.335 11.8809 135.943 11.8809C136.583 11.881 137.17 12.0197 137.703 12.2971C138.237 12.5745 138.684 12.9746 139.047 13.4973L138.103 14.1692C137.826 13.7318 137.506 13.4171 137.143 13.2251C136.791 13.0224 136.38 12.921 135.911 12.9209C135.346 12.9209 134.892 13.0381 134.551 13.2728C134.21 13.5074 134.039 13.8274 134.039 14.2327C134.039 14.4994 134.156 14.7234 134.391 14.9047C134.636 15.0861 135.026 15.2408 135.559 15.3689C136.519 15.593 137.217 15.8811 137.655 16.2331C138.092 16.5852 138.311 17.0439 138.311 17.6092C138.311 18.1212 138.166 18.5799 137.878 18.9852C137.601 19.3798 137.212 19.6944 136.71 19.929C136.22 20.153 135.649 20.2649 134.998 20.2648C134.518 20.2648 134.06 20.1954 133.622 20.0566C133.185 19.9179 132.785 19.7259 132.422 19.4805C132.07 19.2245 131.772 18.9204 131.526 18.5684ZM140.896 17.5615L142.545 9.83374L143.777 9.83389L142.096 17.7377C142.074 17.8657 142.053 17.9777 142.032 18.0737C142.021 18.1697 142.016 18.255 142.015 18.3297C142.015 18.5537 142.063 18.7137 142.159 18.8097C142.255 18.895 142.431 18.9377 142.687 18.9378L143.983 18.9379L143.759 20.0099L142.463 20.0097C141.877 20.0097 141.445 19.8816 141.167 19.6256C140.901 19.3695 140.767 18.9962 140.767 18.5055C140.767 18.3775 140.778 18.2335 140.8 18.0735C140.821 17.9135 140.853 17.7429 140.896 17.5615ZM140.4 13.1935L140.624 12.1375L145.184 12.1381L144.96 13.194L140.4 13.1935Z" fill="#FAFAFA"/>
</svg>
