<svg width="208" height="214" viewBox="0 0 208 214" fill="none" xmlns="http://www.w3.org/2000/svg">
<rect width="207.122" height="197.593" rx="12" transform="matrix(0.999977 0.00680144 -0.00446903 0.99999 0.882935 14.0137)" fill="#FFE1B0"/>
<path d="M149.201 159.128L143.055 113.266L121.336 75.8359C121.336 75.8359 114.376 80.0339 118.173 89.609C121.97 99.1841 134.212 127.148 134.212 127.148L149.201 159.128Z" fill="#FFC7CC"/>
<path d="M121.712 161.305L134.715 212.928H172L149.201 159.127L121.712 161.305Z" fill="#FFC7CC"/>
<path d="M136.016 161.745L131.772 130.557L111.597 131.845C111.597 131.845 109.404 137.686 109.953 146.251C110.377 152.864 115.319 162.93 122.188 164.258C125.013 164.804 127.767 164.098 130.515 163.5C131.082 163.376 136.129 162.58 136.016 161.745Z" fill="#FFBFC7"/>
<path d="M54.5577 66.6641H38V83.2221H54.5577V66.6641ZM52.0267 80.6908H40.531V69.1951H52.0267V80.6908Z" fill="#313131"/>
<path d="M49.4506 71.7695H43.1072V78.1133H49.4506V71.7695Z" fill="#313131"/>
<path d="M89.3635 66.6641V83.2221H105.922V66.6641H89.3635ZM103.391 80.6908H91.8945V69.1951H103.391V80.6908Z" fill="#313131"/>
<path d="M100.814 71.7695H94.4707V78.1133H100.814V71.7695Z" fill="#313131"/>
<path d="M38.009 134.578H54.5668V118.02H38.009V134.578ZM40.54 120.551H52.0358V132.047H40.54V120.551Z" fill="#313131"/>
<path d="M49.4597 123.127H43.1163V129.471H49.4597V123.127Z" fill="#313131"/>
<path d="M65.163 66.6641H62.4465V69.3802H65.163V66.6641Z" fill="#313131"/>
<path d="M73.3116 77.5291V80.2453H76.0275V77.5291V74.8126H78.7434H81.4602V77.5291H78.7434V80.2453V82.9612H76.0275H73.3116V80.2453H70.5952V82.9612H67.8793V85.6773H70.5952H73.3116V85.6776H70.5952V88.3935H73.3116H76.0278V85.6773H78.7434V88.3935H81.4602H84.1773H86.8935V85.6773H84.1773V82.9612V80.2453H86.8935V77.5291H84.1773V74.8126H86.8935V72.0964H86.8938V69.3799H86.8935V66.6641H84.1773V69.3799H84.177V72.0964H81.4602V69.3799V66.6641H78.7434H76.0275V69.3799V72.0964H73.3116V74.8126H70.5952V77.5291H73.3116Z" fill="#313131"/>
<path d="M62.4466 88.3922H65.1631H67.8793V85.676H65.1631V82.9598V80.2436H67.8793H70.5955V77.5274H67.8793V74.811H70.5955V72.0948L70.5952 69.3783H73.312V66.6621H70.5955H67.8793V69.3783H65.1631V72.0948H62.4466H59.7305V69.3783V66.6621H57.0143V69.3783V72.0948V74.811H59.7305V77.5271H57.0143V80.2436H59.7305V82.9595H57.0143V85.6757H59.7305V85.6763H57.0143V88.3919H59.7305H62.4466V88.3922ZM59.7305 77.5277H62.4466V80.2439L59.7305 80.2436V77.5277Z" fill="#313131"/>
<path d="M70.5952 91.1133H67.8793V93.8295V96.5456H70.5952V93.8295V91.1133Z" fill="#313131"/>
<path d="M65.163 104.695H62.4465V107.411H65.163V104.695Z" fill="#313131"/>
<path d="M70.5955 104.695H67.8793V107.411H70.5955V104.695Z" fill="#313131"/>
<path d="M67.8792 107.411H65.1627V110.127H62.4465V107.411H59.7304V110.127H57.0139V107.411H59.7304V104.695H57.0139H54.2977V107.411H51.5812V110.127H48.8653V107.411H46.1488V104.695V101.979H43.4324V104.695V107.411H40.7162H38V110.127V112.843V112.844V115.56H40.7162V112.844H43.4324H46.1488V115.56H48.8653H51.5812V112.844H54.2977H57.0139V115.56H59.7304V112.844H62.4465H65.1627H67.8792V110.127V107.411Z" fill="#313131"/>
<path d="M43.4324 91.1124H46.1488V93.8285H48.8653H51.5812V96.5447H54.2977H57.0139H59.7304H62.4465V93.8285V91.1124V88.3965H59.7304H57.0139H54.2977H51.5812H48.8653H46.1488H43.4324H40.7162H38V91.1124V93.8285H40.7162V91.1124H43.4324Z" fill="#313131"/>
<path d="M46.1489 85.6758H43.4324V88.3914H46.1489V85.6758Z" fill="#313131"/>
<path d="M51.5815 85.6758H48.8654V88.3914H51.5815V85.6758Z" fill="#313131"/>
<path d="M40.7162 85.6758H38V88.3914H40.7162V85.6758Z" fill="#313131"/>
<path d="M84.1772 112.844H86.8934H89.6093V110.127H86.8934H84.1772V112.844Z" fill="#313131"/>
<path d="M100.475 88.3965H97.7585H95.0417H92.3255H89.6093H86.8934H84.1772V91.1124V93.8285V96.5447H86.8934V93.8285H89.6093V96.5447H86.8934V99.2615V101.977V104.694V107.409H89.6093H92.3255V110.126H95.0417H97.7585V107.409H100.475V104.694V101.977V99.2615H103.191H105.907V96.5447H103.191H100.475H97.7585H95.0417V99.2615H97.7585V101.977V104.694H95.0417H92.3255H89.6093V101.977H92.3255V99.2615V96.5447V93.8285V91.1124H95.0417H97.7585H100.475H103.191H105.907V88.3965H103.191H100.475Z" fill="#313131"/>
<path d="M92.3254 85.6758H89.6093V88.3914H92.3254V85.6758Z" fill="#313131"/>
<path d="M100.474 85.6758H97.7584V88.3914H100.474V85.6758Z" fill="#313131"/>
<path d="M105.907 85.6758H103.191V88.3914H105.907V85.6758Z" fill="#313131"/>
<path d="M103.19 104.695V107.411V110.127H100.475V112.844H97.7584H95.0416V115.56H97.7584V118.276H100.475V120.992H97.7584V123.708H100.475V126.424H97.7584V129.141V131.857H100.475V134.575H103.19H105.907V131.857H103.19V129.141V126.424V123.708V120.992V118.276V115.56V112.844H105.907V110.127V107.411V104.695V101.979H103.19V104.695Z" fill="#313131"/>
<path d="M78.7433 120.991H81.4601V118.275V115.559V112.843V110.126V107.409H84.1772V104.694V101.977V99.2615H81.4601V101.977H78.7433V99.2615H81.4601V96.5447V93.8285V91.1124H78.7433H76.0278V88.3965H73.3116V91.1124V93.8285V96.5447H70.5951V99.2615H67.8792H65.1627H62.4465H59.7304H57.0139H54.2977H51.5812V96.5447H48.8653H46.1488V93.8285H43.4324H40.7162V96.5447H38V99.2615V101.977H40.7162V99.2615H43.4324H46.1488V101.977H48.8653V104.694V107.409H51.5812V104.694H54.2977V101.977H57.0139H59.7304V104.694H62.4465V101.977H65.1627V104.694H67.8792V101.977H70.5951H73.3116H76.0275V104.694V107.409H78.7433V110.126V112.843H76.0275V110.126H73.3116H70.5951V112.843H67.8792V115.559H70.5951H73.3116H76.0275V118.275H78.7433V120.991Z" fill="#313131"/>
<path d="M95.0417 110.129H92.3256V112.845H95.0417V110.129Z" fill="#313131"/>
<path d="M95.0416 123.709V120.993V118.277H92.3255V115.561H89.6093H86.8931H84.1769V118.277V120.993H81.4601V123.709H84.1769H86.8931V126.425V129.142H84.1769V126.425H81.4601V129.142H78.7436V126.425V123.709H78.743V120.993H76.0271V118.277H73.3116H70.5951V120.993H67.8789V123.709V126.425H70.5951V129.142V131.858V134.575H73.3116V131.858V129.142V126.425V123.709H76.0268V126.425V129.142H78.7433V131.858H76.0268V134.575H78.7436V131.858H81.4601L81.4604 134.575H84.1766V131.858H86.8931H89.6093V129.142V126.425V123.709H92.3255V126.425H95.0416H97.7587V123.709H95.0416ZM86.8934 120.993V118.277H89.6096V120.993H86.8934Z" fill="#313131"/>
<path d="M57.0139 118.277V120.993H59.7304V123.709H57.0139V126.425V129.142V131.858V134.575H59.7304V131.858V129.142H62.4466V131.858H65.1628V134.575H67.8789V131.858H67.8793V129.142H65.1628V126.425V123.709V120.993V118.277V115.561H62.4466H59.7304V118.277H57.0139Z" fill="#313131"/>
<path d="M133.517 138.909C133.517 142.615 130.513 145.619 126.808 145.619H97.0626C93.3569 145.619 90.3528 142.615 90.3528 138.909V66.7645C90.3528 63.0588 93.3569 60.0547 97.0626 60.0547H126.808C130.513 60.0547 133.517 63.0588 133.517 66.7645V138.909Z" fill="#FFFEFE"/>
<path d="M126.397 58.0137H97.4732C92.5724 58.0137 88.5994 61.9867 88.5994 66.8875V138.785C88.5994 143.686 92.5724 147.659 97.4732 147.659H126.397C131.298 147.659 135.271 143.686 135.271 138.785V66.8875C135.271 61.9864 131.298 58.0137 126.397 58.0137ZM133.517 138.908C133.517 142.614 130.513 145.618 126.807 145.618H97.0625C93.3568 145.618 90.3527 142.614 90.3527 138.908V66.7641C90.3527 63.0584 93.3568 60.0543 97.0625 60.0543H126.807C130.513 60.0543 133.517 63.0584 133.517 66.7641V138.908Z" fill="#1C1C1C"/>
<path d="M117.761 63.0695H106.109C104.588 63.0695 103.356 61.8366 103.356 60.3161V59.3926H120.515V60.3161C120.515 61.8369 119.282 63.0695 117.761 63.0695Z" fill="#1C1C1C"/>
<path d="M114.072 60.4805H106.969V61.0572H114.072V60.4805Z" fill="#232323"/>
<path d="M116.901 60.7699C116.901 60.9954 116.718 61.1784 116.492 61.1784C116.267 61.1784 116.084 60.9957 116.084 60.7699C116.084 60.5444 116.266 60.3613 116.492 60.3613C116.718 60.3616 116.901 60.5444 116.901 60.7699Z" fill="#232323"/>
<path d="M104.138 90.082H96.7526V97.4677H104.138V90.082ZM103.009 96.3388H97.8815V91.211H103.009V96.3388Z" fill="#313131"/>
<path d="M101.86 92.3594H99.0309V95.1889H101.86V92.3594Z" fill="#313131"/>
<path d="M119.663 90.082V97.4677H127.049V90.082H119.663ZM125.92 96.3388H120.792V91.211H125.92V96.3388Z" fill="#313131"/>
<path d="M124.771 92.3594H121.941V95.1889H124.771V92.3594Z" fill="#313131"/>
<path d="M96.7568 120.376H104.143V112.99H96.7568V120.376ZM97.8858 114.119H103.014V119.247H97.8858V114.119Z" fill="#313131"/>
<path d="M101.864 115.268H99.0348V118.097H101.864V115.268Z" fill="#313131"/>
<path d="M108.869 90.082H107.657V91.2934H108.869V90.082Z" fill="#313131"/>
<path d="M112.503 94.9285V96.1399H113.715V94.9285V93.7168H114.926H116.138V94.9285H114.926V96.1399V97.3513H113.715H112.503V96.1399H111.292V97.3513H110.08V98.5631H111.292H112.503H111.292V99.7745H112.503H112.503H113.715V98.5631H114.926V99.7745H116.138H117.35H118.561V98.5631H117.35V97.3513V96.1399H118.561V94.9285H117.35V93.7168H118.561V92.5051H118.562V91.2934H118.561V90.082H117.35V91.2934H117.35V92.5051H116.138V91.2934V90.082H114.926H113.715V91.2934V92.5051H112.503V93.7168H111.292V94.9285H112.503Z" fill="#313131"/>
<path d="M107.657 99.7761H108.869H110.08V98.5644H108.869V97.353V96.1416H110.08H111.292V94.9302H110.08V93.7185H111.292V92.5071V91.2954H112.504V90.084H111.292H110.08V91.2954H108.869V92.5071H107.657H106.446V91.2954V90.084H105.234V91.2954V92.5071V93.7185H106.446V94.9302H105.234V96.1419H106.446V97.3533H105.234V98.5647V99.7764H106.446L107.657 99.7761ZM106.445 94.9302H107.657V96.1416H106.445V94.9302Z" fill="#313131"/>
<path d="M111.292 100.988H110.08V102.2V103.411H111.292V102.2V100.988Z" fill="#313131"/>
<path d="M108.869 107.045H107.657V108.256H108.869V107.045Z" fill="#313131"/>
<path d="M111.291 107.045H110.08V108.256H111.291V107.045Z" fill="#313131"/>
<path d="M110.08 108.257H108.869V109.468H107.657V108.257H106.445V109.468H105.234V108.257H106.445V107.046H105.234H104.022V108.257H102.81V109.468H101.599V108.257H100.387V107.046V105.834H99.176V107.046V108.257H97.9643H96.7526V109.468V110.68V110.68V111.892H97.9643V110.68H99.176H100.387V111.892H101.599H102.81V110.68H104.022H105.234V111.892H106.445V110.68H107.657H108.869H110.08V109.468V108.257Z" fill="#313131"/>
<path d="M99.176 100.989H100.387V102.2H101.599H102.81V103.412H104.022H105.234H106.445H107.657V102.2V100.989V99.7773H106.445H105.234H104.022H102.81H101.599H100.387H99.176H97.9643H96.7526V100.989V102.2H97.9643V100.989H99.176Z" fill="#313131"/>
<path d="M100.388 98.5625H99.176V99.7739H100.388V98.5625Z" fill="#313131"/>
<path d="M102.81 98.5625H101.599V99.7739H102.81V98.5625Z" fill="#313131"/>
<path d="M97.9643 98.5625H96.7526V99.7739H97.9643V98.5625Z" fill="#313131"/>
<path d="M117.35 110.681H118.561H119.773V109.469H118.561H117.35V110.681Z" fill="#313131"/>
<path d="M124.619 99.7773H123.408H122.196H120.984H119.773H118.561H117.35V100.989V102.2V103.412H118.561V102.2H119.773V103.412H118.561V104.624V105.835V107.047V108.258H119.773H120.984V109.469H122.196H123.408V108.258H124.619V107.047V105.835V104.624H125.831H127.042V103.412H125.831H124.619H123.408H122.196V104.624H123.408V105.835V107.047H122.196H120.984H119.773V105.835H120.984V104.624V103.412V102.2V100.989H122.196H123.408H124.619H125.831H127.042V99.7773H125.831H124.619Z" fill="#313131"/>
<path d="M120.985 98.5625H119.773V99.7739H120.985V98.5625Z" fill="#313131"/>
<path d="M124.619 98.5625H123.408V99.7739H124.619V98.5625Z" fill="#313131"/>
<path d="M127.042 98.5625H125.831V99.7739H127.042V98.5625Z" fill="#313131"/>
<path d="M125.831 107.046V108.257V109.468H124.619V110.68H123.408H122.196V111.892H123.408V113.104H124.619V114.315H123.408V115.527H124.619V116.738H123.408V117.95V119.162H124.619V120.374H125.831H127.042V119.162H125.831V117.95V116.738V115.527V114.315V113.104V111.892V110.68H127.042V109.468V108.257V107.046V105.834H125.831V107.046Z" fill="#313131"/>
<path d="M114.926 114.316H116.138V113.105V111.893V110.681V109.469V108.258H117.35V107.047V105.835V104.624H116.138V105.835H114.926V104.624H116.138V103.412V102.2V100.989H114.926H113.715V99.7773H112.503V100.989H112.504V102.2V103.412H111.292V104.624H110.08H108.869H107.657H106.445H105.234H104.022H102.81V103.412H101.599H100.387V102.2H99.176H97.9643V103.412H96.7526V104.624V105.835H97.9643V104.624H99.176H100.387V105.835H101.599V107.047V108.258H102.81V107.047H104.022V105.835H105.234H106.445V107.047H107.657V105.835H108.869V107.047H110.08V105.835H111.292H112.504H113.715V107.047V108.258H114.926V109.469V110.681H113.715V109.469H112.504H111.292V110.681H110.08V111.893H111.292H112.504H113.715V113.105H114.926V114.316Z" fill="#313131"/>
<path d="M122.196 109.471H120.984V110.682H122.196V109.471Z" fill="#313131"/>
<path d="M122.196 115.527V114.315V113.104H120.985V111.893H119.773H118.562H117.35V113.104V114.315H116.138V115.527H117.35H118.562V116.738V117.95H117.35V116.738H116.138V117.95H114.927V116.738V115.527L114.926 114.315H113.715V113.104H112.504H111.292V114.315H110.08V115.527V116.738H111.292V117.95V119.162V120.374H112.504V119.162V117.95V116.738V115.527H113.715V116.738V117.95H114.927L114.926 119.162H113.715V120.374H114.927L114.926 119.162H116.138H116.139V120.374H117.35V119.162H117.35H118.562H119.773V117.95V116.738V115.527H120.985V116.738H122.196H123.408V115.527H122.196ZM118.561 114.315V113.104H119.773V114.315H118.561Z" fill="#313131"/>
<path d="M105.234 113.104V114.315H106.445V115.527H105.234V116.738V117.95V119.162V120.374H106.445V119.162V117.95H107.657V119.162H108.869V120.374H110.08V119.162V117.95H108.869V116.738V115.527V114.315V113.104V111.893H107.657H106.445V113.104H105.234Z" fill="#313131"/>
<path d="M94.084 94.1593V91.2567C94.084 89.1 95.8324 87.3516 97.9891 87.3516H103.422" stroke="#0B0A0A" stroke-width="2" stroke-miterlimit="10" stroke-linecap="round" stroke-linejoin="round"/>
<path d="M103.718 123.412H97.9889C95.8322 123.412 94.0837 121.664 94.0837 119.507V116.508" stroke="#0B0A0A" stroke-width="2" stroke-miterlimit="10" stroke-linecap="round" stroke-linejoin="round"/>
<path d="M129.777 94.1593V91.2567C129.777 89.1 128.028 87.3516 125.871 87.3516H120.438" stroke="#0B0A0A" stroke-width="2" stroke-miterlimit="10" stroke-linecap="round" stroke-linejoin="round"/>
<path d="M120.142 123.412H125.871C128.028 123.412 129.777 121.664 129.777 119.507V116.508" stroke="#0B0A0A" stroke-width="2" stroke-miterlimit="10" stroke-linecap="round" stroke-linejoin="round"/>
<path d="M94.0841 105.129H129.777" stroke="#9BF3FF" stroke-width="2" stroke-miterlimit="10"/>
<path opacity="0.56" d="M129.777 94.9492H94.0841V104.75H129.777V94.9492Z" fill="url(#paint0_linear_434_11)"/>
<path d="M97.1349 84.4854C96.6927 84.4854 96.2688 84.4275 95.8634 84.3116C95.4579 84.1905 95.1315 84.0352 94.884 83.8457L95.3184 82.8821C95.5553 83.0506 95.8344 83.1901 96.1556 83.3007C96.482 83.406 96.8111 83.4586 97.1428 83.4586C97.3956 83.4586 97.5983 83.435 97.751 83.3876C97.909 83.3349 98.0248 83.2638 98.0985 83.1743C98.1722 83.0848 98.2091 82.9821 98.2091 82.8663C98.2091 82.7189 98.1512 82.603 98.0353 82.5188C97.9195 82.4293 97.7668 82.3582 97.5772 82.3055C97.3877 82.2476 97.1771 82.195 96.9454 82.1476C96.719 82.0949 96.4899 82.0317 96.2583 81.958C96.0318 81.8843 95.8239 81.7895 95.6343 81.6737C95.4448 81.5578 95.2894 81.4051 95.1683 81.2156C95.0525 81.026 94.9946 80.7838 94.9946 80.489C94.9946 80.173 95.0788 79.8861 95.2473 79.6281C95.4211 79.3648 95.6791 79.1568 96.0213 79.0041C96.3688 78.8462 96.8032 78.7672 97.3245 78.7672C97.672 78.7672 98.0143 78.8093 98.3513 78.8935C98.6882 78.9725 98.9857 79.0936 99.2437 79.2569L98.8488 80.2283C98.5908 80.0809 98.3328 79.973 98.0748 79.9045C97.8168 79.8308 97.5641 79.7939 97.3166 79.7939C97.0691 79.7939 96.8664 79.8229 96.7084 79.8808C96.5505 79.9387 96.4373 80.0151 96.3688 80.1099C96.3004 80.1994 96.2662 80.3047 96.2662 80.4258C96.2662 80.5679 96.3241 80.6838 96.4399 80.7733C96.5558 80.8575 96.7084 80.926 96.898 80.9786C97.0876 81.0313 97.2955 81.084 97.522 81.1366C97.7536 81.1893 97.9827 81.2498 98.2091 81.3183C98.4408 81.3867 98.6514 81.4789 98.8409 81.5947C99.0305 81.7105 99.1832 81.8632 99.299 82.0528C99.4201 82.2423 99.4807 82.4819 99.4807 82.7715C99.4807 83.0822 99.3938 83.3665 99.22 83.6245C99.0463 83.8825 98.7857 84.0905 98.4381 84.2485C98.0959 84.4064 97.6615 84.4854 97.1349 84.4854ZM103.001 84.4854C102.574 84.4854 102.177 84.417 101.808 84.2801C101.445 84.1379 101.129 83.9378 100.86 83.6798C100.592 83.4218 100.381 83.119 100.229 82.7715C100.081 82.424 100.007 82.0423 100.007 81.6263C100.007 81.2103 100.081 80.8286 100.229 80.4811C100.381 80.1335 100.592 79.8308 100.86 79.5728C101.134 79.3148 101.453 79.1173 101.816 78.9804C102.179 78.8383 102.577 78.7672 103.009 78.7672C103.488 78.7672 103.92 78.8514 104.304 79.0199C104.694 79.1831 105.02 79.4254 105.283 79.7465L104.462 80.5048C104.272 80.2889 104.062 80.1283 103.83 80.023C103.598 79.9124 103.346 79.8571 103.072 79.8571C102.814 79.8571 102.577 79.8992 102.361 79.9835C102.145 80.0677 101.958 80.1888 101.8 80.3468C101.642 80.5048 101.519 80.6917 101.429 80.9076C101.345 81.1234 101.303 81.363 101.303 81.6263C101.303 81.8896 101.345 82.1291 101.429 82.345C101.519 82.5609 101.642 82.7478 101.8 82.9058C101.958 83.0637 102.145 83.1848 102.361 83.2691C102.577 83.3533 102.814 83.3955 103.072 83.3955C103.346 83.3955 103.598 83.3428 103.83 83.2375C104.062 83.1269 104.272 82.9611 104.462 82.7399L105.283 83.4981C105.02 83.8193 104.694 84.0642 104.304 84.2327C103.92 84.4012 103.485 84.4854 103.001 84.4854ZM105.321 84.3906L107.785 78.862H109.048L111.521 84.3906H110.178L108.156 79.5096H108.661L106.632 84.3906H105.321ZM106.553 83.2059L106.892 82.2344H109.736L110.083 83.2059H106.553ZM112.094 84.3906V78.862H113.152L116.414 82.8426H115.901V78.862H117.165V84.3906H116.114L112.844 80.41H113.358V84.3906H112.094ZM118.473 84.3906V78.862H119.531L122.793 82.8426H122.28V78.862H123.543V84.3906H122.493L119.223 80.41H119.736V84.3906H118.473ZM95.3184 94.3906V88.862H96.5979V94.3906H95.3184ZM97.9099 94.3906V88.862H98.9683L102.23 92.8426H101.717V88.862H102.981V94.3906H101.93L98.6603 90.41H99.1736V94.3906H97.9099ZM106.958 94.4854C106.521 94.4854 106.118 94.417 105.75 94.2801C105.386 94.1379 105.068 93.9378 104.794 93.6798C104.526 93.4218 104.315 93.119 104.162 92.7715C104.015 92.424 103.941 92.0423 103.941 91.6263C103.941 91.2103 104.015 90.8286 104.162 90.4811C104.315 90.1335 104.528 89.8308 104.802 89.5728C105.076 89.3148 105.397 89.1173 105.766 88.9804C106.134 88.8383 106.54 88.7672 106.982 88.7672C107.472 88.7672 107.911 88.8488 108.301 89.012C108.696 89.1752 109.027 89.4122 109.296 89.7228L108.475 90.4811C108.274 90.2704 108.056 90.1151 107.819 90.0151C107.582 89.9098 107.324 89.8571 107.045 89.8571C106.776 89.8571 106.532 89.8992 106.311 89.9835C106.089 90.0677 105.897 90.1888 105.734 90.3468C105.576 90.5048 105.452 90.6917 105.363 90.9076C105.278 91.1234 105.236 91.363 105.236 91.6263C105.236 91.8843 105.278 92.1212 105.363 92.3371C105.452 92.553 105.576 92.7426 105.734 92.9058C105.897 93.0637 106.087 93.1848 106.303 93.2691C106.524 93.3533 106.766 93.3955 107.029 93.3955C107.282 93.3955 107.527 93.356 107.764 93.277C108.006 93.1927 108.24 93.0532 108.467 92.8584L109.193 93.7825C108.893 94.0089 108.543 94.1826 108.143 94.3037C107.748 94.4249 107.353 94.4854 106.958 94.4854ZM108.024 93.6166V91.5394H109.193V93.7825L108.024 93.6166Z" fill="#0B0A0A"/>
<path d="M139.079 129.668L121.182 113.854C121.182 113.854 114.887 119.527 121.561 127.961C128.235 136.395 129.74 137.601 129.74 137.601C129.74 137.601 117.228 151.467 131.82 165.768L149.201 159.128L139.079 129.668Z" fill="#FFC7CC"/>
<path d="M17.0027 6.01367C17.0031 2.69996 19.6897 0.0140007 23.0034 0.0144064L185.934 0.0343535C189.248 0.0347592 191.934 2.72138 191.934 6.03509L191.932 22.0351C191.931 25.3488 189.245 28.0348 185.931 28.0344L23 28.0144C19.6863 28.014 17.0003 25.3274 17.0007 22.0137L17.0027 6.01367Z" fill="#E58E00"/>
<path d="M22.8655 20.0138L25.2829 8.57407L29.1869 8.57455C29.8055 8.57463 30.3388 8.68669 30.7868 8.91075C31.2348 9.1348 31.5814 9.44951 31.8267 9.85487C32.072 10.2602 32.1946 10.7456 32.1945 11.3109C32.1944 12.0576 32.013 12.7082 31.6503 13.2629C31.2982 13.8175 30.7968 14.2494 30.1461 14.5587C29.5061 14.8573 28.7487 15.0065 27.8741 15.0064L25.0421 15.006L25.2822 13.8861L28.0822 13.8864C28.9569 13.8865 29.6396 13.6626 30.1303 13.2147C30.6317 12.7561 30.8824 12.1268 30.8825 11.3268C30.8826 10.8041 30.712 10.4041 30.3707 10.1267C30.04 9.83866 29.5654 9.6946 28.9467 9.69452L26.3227 9.6942L24.1455 20.0139L22.8655 20.0138ZM33.5443 16.5111L33.5444 15.5031L37.0004 15.5035C37.5977 15.5036 38.0564 15.4023 38.3764 15.1997C38.7071 14.9864 38.8725 14.6877 38.8725 14.3037C38.8726 13.9091 38.7073 13.589 38.3767 13.3437C38.0567 13.0876 37.6407 12.9596 37.1287 12.9595C36.4887 12.9594 35.9127 13.13 35.4006 13.4713C34.8993 13.8019 34.5045 14.2659 34.2165 14.8632C33.9284 15.4498 33.7843 16.1271 33.7842 16.8951C33.7841 17.5884 33.9974 18.1485 34.424 18.5752C34.8506 18.9912 35.4213 19.1993 36.1359 19.1994C37.1813 19.1995 38.056 18.725 38.7601 17.7757L39.544 18.6238C38.6159 19.7224 37.4638 20.2716 36.0878 20.2714C35.3625 20.2713 34.7278 20.1326 34.1839 19.8552C33.6399 19.5778 33.2186 19.1884 32.92 18.687C32.6321 18.175 32.4881 17.5723 32.4882 16.879C32.4883 16.175 32.6057 15.519 32.8405 14.911C33.0752 14.303 33.4006 13.7751 33.8167 13.3271C34.2434 12.8685 34.7341 12.5166 35.2888 12.2713C35.8541 12.0154 36.4622 11.8874 37.1128 11.8875C37.7102 11.8876 38.2275 11.989 38.6648 12.1917C39.1128 12.3944 39.4594 12.6771 39.7047 13.0398C39.9606 13.4025 40.0886 13.8239 40.0885 14.3039C40.0885 14.9866 39.8111 15.5252 39.2563 15.9198C38.7123 16.3144 37.9603 16.5116 37.0003 16.5115L33.5443 16.5111ZM41.3263 20.016L42.9913 12.1442L44.2073 12.1444L43.679 14.6563L43.487 14.6563C43.7751 13.835 44.2285 13.1897 44.8472 12.7205C45.466 12.2512 46.154 12.0166 46.9113 12.0167L47.1513 12.0168L46.8952 13.2167L46.6232 13.2167C45.8445 13.2166 45.1511 13.4992 44.5431 14.0644C43.9457 14.6297 43.5189 15.515 43.2627 16.7203L42.5583 20.0162L41.3263 20.016ZM46.5455 18.5767L47.5056 17.8568C47.7722 18.2835 48.1242 18.6195 48.5615 18.8649C49.0094 19.1103 49.5001 19.233 50.0334 19.2331C50.4494 19.2332 50.8068 19.1745 51.1055 19.0572C51.4041 18.9293 51.6335 18.7586 51.7935 18.5453C51.9642 18.3213 52.0496 18.06 52.0496 17.7614C52.0496 17.452 51.911 17.2013 51.6337 17.0093C51.3564 16.8066 50.8977 16.6305 50.2578 16.4811C49.4151 16.2784 48.7912 16.0063 48.3859 15.6649C47.9912 15.3235 47.794 14.8915 47.794 14.3688C47.7941 13.8888 47.9275 13.4622 48.1942 13.0889C48.4716 12.7156 48.8503 12.4223 49.3303 12.209C49.8103 11.9957 50.3543 11.8891 50.9623 11.8892C51.6023 11.8893 52.189 12.028 52.7223 12.3054C53.2556 12.5828 53.7035 12.9829 54.0661 13.5056L53.122 14.1775C52.8448 13.7401 52.5248 13.4254 52.1622 13.2334C51.8102 13.0307 51.3995 12.9293 50.9302 12.9292C50.3649 12.9291 49.9115 13.0464 49.5702 13.281C49.2288 13.5157 49.0581 13.8357 49.058 14.241C49.058 14.5077 49.1753 14.7317 49.41 14.913C49.6553 15.0944 50.0446 15.2491 50.5779 15.3772C51.5379 15.6013 52.2365 15.8894 52.6738 16.2414C53.1111 16.5935 53.3297 17.0522 53.3296 17.6175C53.3296 18.1295 53.1855 18.5882 52.8975 18.9935C52.6201 19.3881 52.2307 19.7027 51.7293 19.9373C51.2387 20.1613 50.668 20.2732 50.0173 20.2731C49.5373 20.273 49.0786 20.2037 48.6413 20.0649C48.204 19.9262 47.804 19.7342 47.4414 19.4888C47.0894 19.2327 46.7908 18.9287 46.5455 18.5767ZM55.0507 16.8817C55.0508 16.1884 55.1629 15.5431 55.387 14.9458C55.6217 14.3378 55.9418 13.8045 56.3472 13.3459C56.7632 12.8873 57.2379 12.53 57.7713 12.2741C58.3153 12.0181 58.8967 11.8902 59.5153 11.8903C60.2193 11.8904 60.8326 12.0344 61.3553 12.3225C61.8779 12.5999 62.2832 12.9946 62.5711 13.5066C62.8591 14.008 63.003 14.6 63.0029 15.2827C63.0028 15.976 62.8854 16.6267 62.6507 17.2346C62.4266 17.832 62.1065 18.3599 61.6905 18.8185C61.2851 19.2771 60.8104 19.6344 60.2664 19.8904C59.733 20.1463 59.157 20.2742 58.5383 20.2741C57.845 20.2741 57.2317 20.1353 56.6984 19.8579C56.1757 19.5699 55.7704 19.1698 55.4825 18.6578C55.1946 18.1457 55.0506 17.5537 55.0507 16.8817ZM58.5384 19.2021C59.1358 19.2022 59.6691 19.0316 60.1385 18.6903C60.6185 18.3384 60.9973 17.8638 61.2747 17.2665C61.5627 16.6692 61.7068 16.0079 61.7069 15.2825C61.707 14.5892 61.5044 14.0292 61.0991 13.6025C60.7045 13.1757 60.1765 12.9623 59.5152 12.9623C58.9285 12.9622 58.3952 13.1381 57.9151 13.4901C57.4351 13.8313 57.051 14.3006 56.763 14.8979C56.4856 15.4846 56.3468 16.1459 56.3467 16.8819C56.3466 17.5752 56.5439 18.1352 56.9385 18.5619C57.3438 18.9887 57.8771 19.2021 58.5384 19.2021ZM64.2795 20.0188L65.9444 12.1471L67.1604 12.1472L66.6481 14.5631L66.088 15.6831C66.2694 14.9044 66.5362 14.2325 66.8882 13.6672C67.251 13.1019 67.6777 12.6646 68.1684 12.3553C68.6591 12.0461 69.1818 11.8914 69.7365 11.8915C70.4405 11.8916 71.0058 12.0997 71.4324 12.5157C71.8697 12.9318 72.0883 13.5078 72.0882 14.2438C72.0881 14.3825 72.0775 14.5425 72.0561 14.7238C72.0348 14.8945 71.9974 15.1131 71.944 15.3798L70.9675 20.0197L69.7355 20.0195L70.712 15.3796C70.7547 15.1983 70.7867 15.017 70.8081 14.8356C70.8295 14.6436 70.8401 14.4837 70.8402 14.3557C70.8402 13.929 70.7176 13.593 70.4723 13.3476C70.227 13.1022 69.8857 12.9795 69.4483 12.9795C68.6057 12.9794 67.9016 13.3846 67.3362 14.1952C66.7814 15.0058 66.3226 16.2484 65.9597 17.9231L65.5115 20.019L64.2795 20.0188ZM78.4571 20.0206L78.8093 18.4366L78.8253 18.1966L79.4337 15.2047C79.5831 14.4687 79.5192 13.9087 79.2419 13.5247C78.9753 13.1406 78.506 12.9486 77.834 12.9485C77.3326 12.9484 76.8526 13.0551 76.3939 13.2683C75.9459 13.4709 75.5405 13.7749 75.1778 14.1802L74.4419 13.3481C74.8686 12.8895 75.3913 12.5322 76.01 12.2763C76.6287 12.0204 77.2741 11.8924 77.9461 11.8925C78.8314 11.8926 79.5087 12.1114 79.978 12.5488C80.4579 12.9862 80.6979 13.6049 80.6978 14.4049C80.6978 14.5435 80.6871 14.7035 80.6657 14.8849C80.6444 15.0555 80.6177 15.2208 80.5857 15.3808L79.6091 20.0207L78.4571 20.0206ZM77.2257 15.1724L79.6577 15.1727L79.4016 16.1647L77.2096 16.1644C76.3776 16.1643 75.7269 16.3189 75.2575 16.6282C74.7988 16.9268 74.5694 17.3481 74.5693 17.8921C74.5693 18.2974 74.7133 18.6281 75.0012 18.8842C75.2892 19.1295 75.6625 19.2522 76.1212 19.2523C76.8358 19.2524 77.4919 18.9538 78.0893 18.3565C78.6974 17.7593 79.1721 16.9327 79.5136 15.8767L79.8016 16.1487C79.4707 17.482 78.9693 18.506 78.2972 19.2206C77.6251 19.9245 76.8251 20.2764 75.8971 20.2763C75.3851 20.2762 74.9317 20.1748 74.5371 19.9721C74.1531 19.7694 73.8491 19.492 73.6252 19.14C73.4012 18.788 73.2893 18.3826 73.2893 17.924C73.2894 17.3693 73.4495 16.8893 73.7695 16.484C74.1002 16.068 74.5589 15.7481 75.1456 15.5242C75.743 15.2896 76.4363 15.1723 77.2257 15.1724ZM82.6187 17.8131L84.6039 8.50134L85.8359 8.50149L83.8667 17.7332C83.8347 17.9039 83.8134 18.0319 83.8027 18.1172C83.792 18.1919 83.7867 18.2826 83.7867 18.3892C83.7866 18.5706 83.8293 18.7092 83.9146 18.8053C84.0106 18.9013 84.1653 18.9493 84.3786 18.9493L85.2426 18.9494L85.0185 20.0214L84.2345 20.0213C83.6798 20.0212 83.2585 19.9038 82.9705 19.6691C82.6825 19.4238 82.5386 19.0557 82.5386 18.5651C82.5387 18.4477 82.544 18.3304 82.5547 18.2131C82.5654 18.0851 82.5867 17.9518 82.6187 17.8131ZM86.6232 20.0216L88.2882 12.1498L89.5202 12.1499L87.8552 20.0217L86.6232 20.0216ZM88.6245 9.33383C88.6246 9.03516 88.7259 8.78984 88.9286 8.59786C89.1313 8.39522 89.3766 8.29392 89.6646 8.29395C89.8993 8.29398 90.0806 8.36334 90.2086 8.50202C90.3473 8.63004 90.4166 8.80071 90.4166 9.01405C90.4165 9.30205 90.3152 9.54737 90.1125 9.75001C89.9204 9.95265 89.6751 10.054 89.3764 10.0539C89.1418 10.0539 88.9551 9.98987 88.8165 9.86185C88.6885 9.72317 88.6245 9.54716 88.6245 9.33383ZM89.9233 20.022L90.1315 18.998L95.7162 13.1907L91.3002 13.1902L91.5243 12.1502L97.4443 12.1509L97.2202 13.1909L91.6195 18.9982L96.1635 18.9988L95.9553 20.0227L89.9233 20.022ZM98.9349 16.5191L98.935 15.5111L102.391 15.5115C102.988 15.5116 103.447 15.4103 103.767 15.2077C104.098 14.9944 104.263 14.6957 104.263 14.3117C104.263 13.9171 104.098 13.5971 103.767 13.3517C103.447 13.0956 103.031 12.9676 102.519 12.9675C101.879 12.9675 101.303 13.138 100.791 13.4793C100.29 13.8099 99.8952 14.2739 99.6071 14.8712C99.319 15.4578 99.1749 16.1351 99.1748 16.9031C99.1748 17.5965 99.388 18.1565 99.8146 18.5832C100.241 18.9993 100.812 19.2073 101.527 19.2074C102.572 19.2075 103.447 18.733 104.151 17.7837L104.935 18.6318C104.006 19.7304 102.854 20.2796 101.478 20.2794C100.753 20.2793 100.118 20.1406 99.5745 19.8632C99.0305 19.5858 98.6092 19.1964 98.3106 18.695C98.0227 18.183 97.8788 17.5803 97.8788 16.887C97.8789 16.183 97.9963 15.527 98.2311 14.919C98.4658 14.311 98.7912 13.7831 99.2073 13.3351C99.634 12.8765 100.125 12.5246 100.679 12.2793C101.245 12.0234 101.853 11.8954 102.503 11.8955C103.101 11.8956 103.618 11.997 104.055 12.1997C104.503 12.4024 104.85 12.6851 105.095 13.0478C105.351 13.4105 105.479 13.8319 105.479 14.3119C105.479 14.9946 105.202 15.5332 104.647 15.9278C104.103 16.3224 103.351 16.5196 102.391 16.5195L98.9349 16.5191ZM112.621 20.0248L113.261 16.9848C113.315 16.7075 113.352 16.4515 113.373 16.2169C113.405 15.9715 113.421 15.7155 113.422 15.4489C113.422 14.6595 113.24 14.0515 112.878 13.6248C112.515 13.1874 112.019 12.9687 111.39 12.9686C110.814 12.9685 110.286 13.1445 109.806 13.4964C109.336 13.8377 108.958 14.3017 108.67 14.8883C108.382 15.4749 108.237 16.1309 108.237 16.8562C108.237 17.6029 108.413 18.1843 108.765 18.6003C109.117 19.0057 109.597 19.2084 110.205 19.2085C110.962 19.2086 111.624 18.878 112.189 18.2167C112.755 17.5448 113.203 16.6382 113.534 15.4969L113.869 16.1049C113.507 17.4062 113.01 18.4301 112.381 19.1767C111.762 19.9127 110.952 20.2806 109.949 20.2804C109.01 20.2803 108.274 19.9709 107.741 19.3522C107.208 18.7334 106.941 17.9067 106.941 16.8721C106.941 16.2107 107.054 15.5814 107.278 14.9841C107.502 14.3868 107.811 13.8588 108.206 13.4002C108.611 12.9309 109.081 12.563 109.614 12.2964C110.158 12.0298 110.745 11.8965 111.374 11.8966C112.163 11.8967 112.787 12.1208 113.246 12.5688C113.715 13.0169 113.992 13.6463 114.078 14.4569L113.758 14.7289L115.086 8.50507L116.302 8.50522L113.853 20.0249L112.621 20.0248ZM127.63 15.7866L130.654 20.075L129.742 20.7149L126.718 16.4265L127.63 15.7866ZM127.279 8.33056C128.25 8.33068 129.093 8.53878 129.807 8.95487C130.522 9.37096 131.076 9.95236 131.471 10.6991C131.876 11.4351 132.079 12.3045 132.079 13.3071C132.079 14.2671 131.908 15.1685 131.566 16.0111C131.225 16.8537 130.755 17.595 130.158 18.2349C129.561 18.8748 128.867 19.3761 128.078 19.7387C127.288 20.1012 126.446 20.2825 125.55 20.2823C124.59 20.2822 123.747 20.0741 123.022 19.658C122.307 19.242 121.747 18.6606 121.342 17.9138C120.948 17.1671 120.75 16.2978 120.75 15.3058C120.751 14.3458 120.921 13.4444 121.263 12.6018C121.604 11.7592 122.074 11.0179 122.671 10.378C123.268 9.73807 123.962 9.23682 124.751 8.87425C125.541 8.51168 126.383 8.33045 127.279 8.33056ZM127.183 9.48255C126.5 9.48246 125.85 9.63705 125.231 9.94631C124.623 10.2556 124.079 10.6822 123.599 11.2261C123.13 11.7701 122.756 12.394 122.479 13.098C122.212 13.7913 122.079 14.5273 122.078 15.3059C122.078 16.0739 122.228 16.7459 122.526 17.322C122.825 17.8873 123.241 18.3301 123.774 18.6501C124.307 18.9702 124.931 19.1303 125.646 19.1304C126.329 19.1304 126.974 18.9759 127.582 18.6666C128.201 18.3573 128.745 17.9307 129.214 17.3868C129.694 16.8429 130.068 16.2242 130.334 15.5309C130.612 14.827 130.751 14.0857 130.751 13.307C130.751 12.539 130.602 11.867 130.303 11.2909C130.004 10.7149 129.588 10.2722 129.055 9.96278C128.522 9.64271 127.898 9.48264 127.183 9.48255ZM140.58 20.0282L137.588 14.6998L138.98 14.7L142.052 20.0284L140.58 20.0282ZM133.444 20.0273L135.861 8.58761L139.717 8.58808C140.656 8.5882 141.397 8.83362 141.941 9.32435C142.485 9.81509 142.757 10.4818 142.757 11.3245C142.757 12.0711 142.575 12.7218 142.212 13.2764C141.86 13.831 141.359 14.263 140.708 14.5722C140.068 14.8708 139.311 15.02 138.436 15.0199L135.604 15.0196L135.844 13.8996L138.644 13.9C139.508 13.9001 140.191 13.6761 140.692 13.2282C141.194 12.7696 141.445 12.151 141.445 11.3723C141.445 10.839 141.279 10.4283 140.949 10.1402C140.618 9.85219 140.149 9.70814 139.541 9.70806L136.901 9.70774L134.724 20.0275L133.444 20.0273ZM156.744 17.2462L157.527 18.2063C156.941 18.8889 156.279 19.4061 155.543 19.758C154.807 20.1099 154.023 20.2858 153.191 20.2857C152.21 20.2856 151.357 20.0828 150.631 19.6774C149.906 19.2613 149.346 18.6799 148.951 17.9332C148.557 17.1865 148.36 16.3118 148.36 15.3091C148.36 14.3598 148.531 13.4638 148.872 12.6212C149.214 11.7786 149.683 11.0373 150.28 10.3974C150.878 9.74678 151.566 9.2402 152.345 8.87763C153.123 8.51506 153.955 8.33383 154.841 8.33393C155.705 8.33404 156.478 8.52613 157.161 8.91022C157.854 9.2943 158.414 9.84371 158.84 10.5584L157.832 11.3263C157.47 10.6969 157.032 10.2329 156.52 9.93414C156.019 9.63541 155.422 9.48601 154.729 9.48592C154.046 9.48584 153.4 9.64042 152.792 9.94968C152.184 10.2589 151.646 10.6855 151.176 11.2295C150.718 11.7628 150.355 12.3814 150.088 13.0854C149.821 13.7787 149.688 14.52 149.688 15.3093C149.688 16.0666 149.832 16.7333 150.12 17.3094C150.418 17.8854 150.829 18.3334 151.351 18.6535C151.885 18.9736 152.498 19.1336 153.191 19.1337C153.853 19.1338 154.482 18.9739 155.079 18.654C155.677 18.334 156.231 17.8648 156.744 17.2462ZM159.176 16.8945C159.176 16.2011 159.288 15.5558 159.512 14.9585C159.747 14.3505 160.067 13.8172 160.472 13.3586C160.888 12.9 161.363 12.5427 161.896 12.2868C162.44 12.0309 163.022 11.9029 163.64 11.903C164.344 11.9031 164.958 12.0472 165.48 12.3352C166.003 12.6126 166.408 13.0074 166.696 13.5194C166.984 14.0208 167.128 14.6128 167.128 15.2954C167.128 15.9888 167.01 16.6394 166.776 17.2474C166.552 17.8447 166.232 18.3727 165.815 18.8313C165.41 19.2899 164.935 19.6472 164.391 19.9031C163.858 20.159 163.282 20.287 162.663 20.2869C161.97 20.2868 161.357 20.1481 160.823 19.8707C160.301 19.5826 159.895 19.1826 159.608 18.6705C159.32 18.1585 159.176 17.5665 159.176 16.8945ZM162.663 19.2149C163.261 19.215 163.794 19.0444 164.263 18.7031C164.744 18.3511 165.122 17.8765 165.4 17.2792C165.688 16.6819 165.832 16.0206 165.832 15.2953C165.832 14.6019 165.629 14.0419 165.224 13.6152C164.83 13.1885 164.302 12.9751 163.64 12.975C163.054 12.9749 162.52 13.1509 162.04 13.5028C161.56 13.8441 161.176 14.3134 160.888 14.9107C160.611 15.4973 160.472 16.1586 160.472 16.8946C160.472 17.588 160.669 18.148 161.064 18.5747C161.469 19.0014 162.002 19.2148 162.663 19.2149ZM174.308 20.0323L174.949 16.9924C175.002 16.7151 175.04 16.4591 175.061 16.2244C175.093 15.9791 175.109 15.7231 175.109 15.4564C175.109 14.6671 174.928 14.0591 174.565 13.6323C174.203 13.195 173.707 12.9762 173.077 12.9762C172.501 12.9761 171.973 13.152 171.493 13.504C171.024 13.8452 170.645 14.3092 170.357 14.8958C170.069 15.4825 169.925 16.1384 169.925 16.8638C169.925 17.6104 170.101 18.1918 170.453 18.6078C170.805 19.0132 171.285 19.2159 171.893 19.216C172.65 19.2161 173.311 18.8855 173.877 18.2243C174.442 17.5523 174.89 16.6457 175.221 15.5044L175.557 16.1125C175.194 17.4138 174.698 18.4377 174.069 19.1843C173.45 19.9202 172.639 20.2881 171.636 20.288C170.698 20.2879 169.962 19.9785 169.429 19.3597C168.895 18.741 168.629 17.9143 168.629 16.8796C168.629 16.2183 168.741 15.589 168.965 14.9917C169.189 14.3944 169.499 13.8664 169.893 13.4078C170.299 12.9385 170.768 12.5706 171.301 12.3039C171.845 12.0373 172.432 11.9041 173.061 11.9042C173.851 11.9043 174.475 12.1283 174.933 12.5764C175.403 13.0245 175.68 13.6538 175.765 14.4645L175.445 14.7365L176.774 8.51262L177.99 8.51277L175.54 20.0325L174.308 20.0323ZM179.388 16.5289L179.388 15.5209L182.844 15.5214C183.441 15.5214 183.9 15.4202 184.22 15.2175C184.551 15.0042 184.716 14.7056 184.716 14.3216C184.716 13.9269 184.551 13.6069 184.22 13.3615C183.9 13.1055 183.484 12.9774 182.972 12.9774C182.332 12.9773 181.756 13.1479 181.244 13.4892C180.743 13.8198 180.348 14.2837 180.06 14.881C179.772 15.4677 179.628 16.145 179.628 16.913C179.628 17.6063 179.841 18.1663 180.268 18.593C180.694 19.0091 181.265 19.2172 181.98 19.2173C183.025 19.2174 183.9 18.7428 184.604 17.7936L185.388 18.6417C184.46 19.7402 183.308 20.2894 181.932 20.2893C181.206 20.2892 180.572 20.1504 180.028 19.873C179.484 19.5956 179.062 19.2062 178.764 18.7049C178.476 18.1928 178.332 17.5901 178.332 16.8968C178.332 16.1928 178.449 15.5368 178.684 14.9289C178.919 14.3209 179.244 13.7929 179.66 13.345C180.087 12.8864 180.578 12.5344 181.133 12.2892C181.698 12.0332 182.306 11.9053 182.957 11.9054C183.554 11.9054 184.071 12.0068 184.509 12.2096C184.957 12.4123 185.303 12.695 185.548 13.0577C185.804 13.4204 185.932 13.8417 185.932 14.3217C185.932 15.0044 185.655 15.543 185.1 15.9376C184.556 16.3322 183.804 16.5295 182.844 16.5294L179.388 16.5289Z" fill="#FAFAFA"/>
<defs>
<linearGradient id="paint0_linear_434_11" x1="111.93" y1="104.75" x2="111.93" y2="94.9491" gradientUnits="userSpaceOnUse">
<stop stop-color="#9BF3FF" stop-opacity="0.8"/>
<stop offset="0.8078" stop-color="#9BF3FF" stop-opacity="0"/>
</linearGradient>
</defs>
</svg>
