<svg width="144" height="144" viewBox="0 0 144 144" fill="none" xmlns="http://www.w3.org/2000/svg">
<path d="M79.5962 12.6885C78.9936 12.6123 78.4421 12.4219 77.9417 12.1173C77.4418 11.8084 77.017 11.4163 76.6675 10.941C76.3222 10.4662 76.0701 9.93644 75.9112 9.35157C75.757 8.763 75.7202 8.15044 75.8006 7.5139C75.8815 6.87311 76.0696 6.28896 76.3647 5.76146C76.6646 5.23025 77.0406 4.77978 77.4925 4.41005C77.9493 4.03662 78.4579 3.76458 79.0184 3.59395C79.5794 3.41907 80.1612 3.3697 80.7638 3.44582C81.4852 3.53696 82.1282 3.78848 82.6927 4.20039C83.2577 4.60805 83.7045 5.11504 84.0332 5.72134L82.5515 6.2908C82.3402 5.94939 82.0597 5.66173 81.7098 5.42784C81.3642 5.19448 80.9835 5.05153 80.5676 4.99899C80.1772 4.94967 79.7999 4.98393 79.4358 5.10176C79.0722 5.21536 78.7431 5.39796 78.4483 5.64958C78.154 5.89696 77.9112 6.19826 77.7197 6.55347C77.5288 6.90444 77.4068 7.28998 77.3537 7.7101C77.3001 8.13447 77.3222 8.54036 77.4198 8.92778C77.5217 9.31574 77.6841 9.66823 77.907 9.98526C78.1305 10.298 78.4018 10.5565 78.7209 10.7606C79.0448 10.9611 79.402 11.086 79.7924 11.1353C80.2168 11.1889 80.6232 11.1454 81.0118 11.0048C81.4051 10.8604 81.7465 10.6492 82.036 10.3711L83.3288 11.2975C82.8602 11.7988 82.3013 12.1787 81.6521 12.4373C81.0029 12.6959 80.3176 12.7796 79.5962 12.6885Z" fill="black"/>
<path d="M86.6598 14.0308C86.0714 13.8797 85.5481 13.6217 85.0898 13.2567C84.6326 12.8876 84.2604 12.4454 83.9732 11.93C83.686 11.4147 83.5002 10.8569 83.4158 10.2567C83.3325 9.65242 83.3706 9.03954 83.5302 8.41809C83.6897 7.79665 83.9511 7.24328 84.3141 6.75799C84.6783 6.26856 85.1103 5.86723 85.6103 5.55398C86.1102 5.24074 86.6489 5.0346 87.2264 4.93556C87.8049 4.83238 88.3883 4.85631 88.9766 5.00736C89.569 5.15948 90.0939 5.4201 90.5511 5.78921C91.0094 6.15419 91.3822 6.59435 91.6694 7.1097C91.9566 7.62506 92.1398 8.18436 92.2189 8.78761C92.3033 9.38778 92.2657 9.99859 92.1061 10.62C91.9466 11.2415 91.6847 11.7969 91.3206 12.2864C90.9617 12.7727 90.5322 13.1725 90.0323 13.4857C89.5323 13.799 88.9931 14.0072 88.4146 14.1104C87.8371 14.2094 87.2522 14.1829 86.6598 14.0308ZM87.0491 12.5144C87.4302 12.6123 87.8088 12.6256 88.1848 12.5543C88.5608 12.4831 88.9103 12.3432 89.2332 12.1346C89.5613 11.923 89.8421 11.655 90.0755 11.3308C90.3131 11.0075 90.4845 10.6409 90.5898 10.2307C90.6951 9.82056 90.7216 9.41664 90.6691 9.01897C90.6177 8.61716 90.4987 8.24656 90.312 7.90717C90.1295 7.56885 89.8907 7.27789 89.5955 7.03429C89.3045 6.79176 88.9684 6.62156 88.5873 6.52369C88.2061 6.42583 87.8275 6.41253 87.4515 6.4838C87.0755 6.55507 86.7234 6.69652 86.3953 6.90815C86.0724 7.1167 85.7921 7.38258 85.5546 7.70578C85.3212 8.03006 85.1518 8.39727 85.0465 8.80742C84.9401 9.22172 84.9132 9.62771 84.9656 10.0254C85.0181 10.423 85.1351 10.7931 85.3165 11.1356C85.5032 11.475 85.742 11.7659 86.033 12.0085C86.3292 12.2479 86.6679 12.4166 87.0491 12.5144Z" fill="black"/>
<path d="M89.98 14.6341L93.2867 6.28243L94.8616 6.90597L96.1221 14.0228L98.3872 8.30186L99.8427 8.87816L96.5361 17.2298L94.9671 16.6087L93.7006 9.48951L91.4356 15.2104L89.98 14.6341Z" fill="black"/>
<path d="M100.612 19.5066C100.177 19.2676 99.7961 18.9704 99.4693 18.6149C99.1482 18.2578 98.9078 17.8694 98.7481 17.4497C98.5904 17.0262 98.5449 16.5985 98.6115 16.1665L100.159 16.4021C100.129 16.5808 100.16 16.7764 100.253 16.9887C100.347 17.201 100.489 17.4085 100.68 17.6112C100.871 17.8139 101.1 17.9885 101.366 18.1348C101.64 18.2852 101.917 18.3841 102.199 18.4314C102.486 18.4771 102.744 18.4652 102.972 18.3956C103.203 18.3223 103.374 18.1844 103.485 17.982C103.599 17.7759 103.615 17.5649 103.533 17.3493C103.454 17.1298 103.316 16.9148 103.119 16.7042C102.922 16.4936 102.708 16.2977 102.476 16.1163C101.965 15.7231 101.537 15.3149 101.194 14.8918C100.851 14.4688 100.637 14.0268 100.554 13.566C100.474 13.1073 100.573 12.6249 100.851 12.1189C101.113 11.6429 101.479 11.3021 101.948 11.0964C102.417 10.8907 102.93 10.8112 103.485 10.8577C104.04 10.9043 104.576 11.0698 105.094 11.3541C105.525 11.5911 105.904 11.8873 106.231 12.2427C106.557 12.5982 106.8 12.9876 106.957 13.4111C107.119 13.8366 107.165 14.2673 107.097 14.703L105.547 14.4587C105.577 14.2799 105.545 14.0844 105.452 13.8721C105.359 13.6598 105.216 13.4541 105.022 13.2552C104.831 13.0524 104.603 12.8779 104.336 12.7316C104.072 12.5816 103.796 12.4856 103.506 12.4437C103.223 12.4 102.965 12.412 102.732 12.4795C102.5 12.547 102.33 12.6782 102.223 12.8731C102.085 13.1243 102.05 13.3517 102.119 13.5554C102.191 13.7611 102.329 13.9589 102.532 14.1487C102.738 14.3347 102.971 14.5314 103.233 14.7388C103.712 15.1098 104.122 15.5153 104.46 15.9554C104.799 16.3956 105.014 16.8529 105.105 17.3273C105.197 17.798 105.115 18.2677 104.857 18.7362C104.596 19.2122 104.231 19.556 103.763 19.7675C103.298 19.9752 102.787 20.0558 102.232 20.0092C101.677 19.9626 101.137 19.7951 100.612 19.5066Z" fill="black"/>
<path d="M106.729 23.3449C106.148 22.9226 105.74 22.4098 105.507 21.8068C105.277 21.2062 105.215 20.5792 105.319 19.9257C105.427 19.2687 105.693 18.6478 106.118 18.063L109.195 13.8274L110.461 14.7476L107.384 18.9831C107.133 19.3292 106.965 19.6941 106.882 20.0778C106.805 20.4605 106.825 20.8264 106.941 21.1754C107.064 21.5235 107.3 21.8245 107.649 22.0784C108.002 22.3349 108.361 22.4663 108.727 22.4728C109.095 22.4757 109.445 22.3789 109.779 22.1822C110.118 21.9845 110.413 21.7127 110.665 21.3666L113.742 17.131L115.008 18.0512L111.931 22.2868C111.612 22.7263 111.243 23.0878 110.826 23.3713C110.411 23.6514 109.97 23.8438 109.502 23.9484C109.035 24.053 108.564 24.0572 108.09 23.9608C107.619 23.867 107.165 23.6617 106.729 23.3449Z" fill="black"/>
<path d="M109.329 24.8352L116.75 19.4819L117.695 20.3691L115.35 26.0622L120.885 23.3646L121.829 24.2518L116.953 31.9943L115.788 30.9007L118.806 26.1125L113.67 28.6296L112.889 27.8961L115.078 22.612L110.494 25.9288L109.329 24.8352Z" fill="black"/>
<path d="M116.159 31.3673L123.08 25.6417L126.671 29.9822L125.464 30.9801L122.871 27.8458L121.467 29.0073L123.525 31.494L122.318 32.4919L120.261 30.0052L118.363 31.5757L120.956 34.71L119.749 35.7079L116.159 31.3673Z" fill="black"/>
<path d="M120.72 36.9511L128.304 32.138L130.15 35.0471C130.412 35.4588 130.545 35.8961 130.55 36.359C130.555 36.8219 130.446 37.2609 130.223 37.6759C130.004 38.0887 129.684 38.428 129.265 38.6939C128.922 38.9116 128.566 39.0489 128.197 39.1059C127.834 39.1641 127.476 39.1478 127.125 39.0568C126.776 38.9694 126.455 38.8157 126.163 38.5955L124.179 42.4008L123.213 40.8786L125.116 37.2085L124.576 36.358L121.559 38.2729L120.72 36.9511ZM125.898 35.5191L126.809 36.9547C126.928 37.1425 127.084 37.2843 127.277 37.38C127.469 37.4757 127.675 37.52 127.893 37.5131C128.112 37.5062 128.318 37.4408 128.513 37.317C128.712 37.191 128.861 37.0306 128.96 36.8358C129.06 36.6411 129.107 36.4363 129.102 36.2214C129.098 36.0065 129.036 35.8052 128.916 35.6174L128.005 34.1818L125.898 35.5191Z" fill="black"/>
<path d="M127.681 49.5557L136.224 46.7799L137.143 49.6113C137.335 50.2011 137.402 50.7887 137.345 51.374C137.293 51.962 137.134 52.5154 136.866 53.0341C136.604 53.5556 136.25 54.0101 135.805 54.3976C135.365 54.7879 134.85 55.0789 134.26 55.2706C133.67 55.4622 133.08 55.5301 132.491 55.4742C131.907 55.4211 131.354 55.2613 130.831 54.9949C130.314 54.7313 129.859 54.3775 129.467 53.9336C129.081 53.4924 128.792 52.9769 128.601 52.387L127.681 49.5557ZM129.653 50.5608L130.09 51.9032C130.212 52.2815 130.399 52.6144 130.65 52.9017C130.906 53.1917 131.202 53.4239 131.538 53.5983C131.877 53.7713 132.237 53.8768 132.619 53.9149C133.004 53.9516 133.39 53.9072 133.776 53.7817C134.163 53.6561 134.499 53.4659 134.785 53.2111C135.071 52.9562 135.3 52.659 135.473 52.3195C135.646 51.9799 135.75 51.6202 135.784 51.2404C135.822 50.8592 135.779 50.4774 135.655 50.095L135.218 48.7526L129.653 50.5608Z" fill="black"/>
<path d="M130.551 60.2769C130.416 59.571 130.47 58.9184 130.713 58.3191C130.957 57.7239 131.34 57.224 131.864 56.8193C132.392 56.4138 133.011 56.1433 133.721 56.0078L138.864 55.0268L139.157 56.5646L134.014 57.5456C133.594 57.6258 133.222 57.7772 132.899 58C132.581 58.2262 132.345 58.5064 132.191 58.8406C132.042 59.1782 132.008 59.5592 132.089 59.9835C132.171 60.4121 132.342 60.7538 132.604 61.0086C132.871 61.2627 133.192 61.432 133.57 61.5168C133.953 61.6049 134.354 61.6089 134.774 61.5287L139.917 60.5477L140.21 62.0855L135.068 63.0665C134.534 63.1683 134.018 63.1797 133.519 63.1006C133.025 63.0207 132.572 62.8589 132.16 62.6153C131.748 62.3717 131.401 62.0524 131.121 61.6573C130.842 61.2664 130.652 60.8063 130.551 60.2769Z" fill="black"/>
<path d="M131.529 64.7446L140.494 64.1805L140.71 67.6192C140.741 68.1058 140.647 68.5532 140.428 68.9612C140.21 69.3693 139.903 69.7014 139.507 69.9578C139.116 70.2138 138.673 70.3574 138.178 70.3885C137.772 70.4141 137.394 70.3629 137.043 70.2349C136.697 70.111 136.392 69.9245 136.127 69.6754C135.863 69.4306 135.657 69.1414 135.507 68.808L131.934 71.1864L131.821 69.387L135.257 67.0879L135.194 66.0826L131.627 66.307L131.529 64.7446ZM136.756 65.9843L136.863 67.6812C136.877 67.9032 136.945 68.1025 137.068 68.279C137.191 68.4556 137.349 68.5935 137.544 68.6927C137.739 68.7918 137.952 68.8342 138.182 68.8197C138.417 68.8049 138.625 68.7361 138.805 68.6133C138.986 68.4905 139.126 68.3338 139.226 68.1433C139.325 67.9527 139.368 67.7465 139.354 67.5245L139.247 65.8276L136.756 65.9843Z" fill="black"/>
<path d="M140.752 75.5015L140.638 77.3008L131.469 79.9961L131.573 78.3376L133.197 77.8613L133.439 74.0192L131.887 73.343L131.991 71.6845L140.752 75.5015ZM134.965 74.6874L134.796 77.3833L138.576 76.2646L134.965 74.6874Z" fill="black"/>
<path d="M131.496 79.4569L140.319 81.1401L139.706 84.3543C139.617 84.8207 139.44 85.2224 139.176 85.5595C138.915 85.9015 138.585 86.1478 138.186 86.2981C137.79 86.4535 137.351 86.4851 136.868 86.3929C136.654 86.352 136.443 86.2792 136.237 86.1745C136.03 86.0698 135.851 85.9355 135.7 85.7716C135.552 85.6085 135.456 85.416 135.411 85.1941C135.292 85.4543 135.128 85.6538 134.918 85.7924C134.709 85.931 134.475 86.0258 134.218 86.0767C133.964 86.1285 133.71 86.1475 133.456 86.1338C133.205 86.1252 132.974 86.1008 132.764 86.0607C132.298 85.9717 131.904 85.7769 131.582 85.476C131.261 85.1752 131.03 84.809 130.891 84.3774C130.75 83.9499 130.725 83.5009 130.814 83.0304L131.496 79.4569ZM132.52 81.246L132.162 83.1241C132.114 83.3762 132.131 83.6147 132.215 83.8396C132.298 84.0645 132.435 84.2583 132.626 84.4211C132.817 84.5838 133.049 84.6912 133.322 84.7433C133.558 84.7882 133.792 84.7697 134.025 84.688C134.259 84.6062 134.46 84.4769 134.628 84.3001C134.797 84.1232 134.905 83.9088 134.954 83.6567L135.312 81.7786L132.52 81.246ZM136.61 82.0262L136.324 83.5262C136.265 83.8371 136.311 84.1203 136.462 84.3756C136.613 84.6352 136.848 84.7954 137.168 84.8563C137.508 84.9212 137.785 84.8588 138 84.669C138.218 84.4841 138.357 84.2363 138.416 83.9253L138.703 82.4254L136.61 82.0262Z" fill="black"/>
<path d="M129.881 87.4655L138.423 90.2412L137.94 91.7301L130.886 89.4381L129.73 92.9956L128.241 92.5118L129.881 87.4655Z" fill="black"/>
<path d="M127.474 94.597L135.602 98.4216L133.203 103.519L131.787 102.852L133.519 99.1715L131.87 98.3957L130.496 101.316L129.08 100.649L130.454 97.7291L128.224 96.6801L126.492 100.361L125.076 99.6942L127.474 94.597Z" fill="black"/>
<path d="M122.49 103.74C122.756 103.321 123.077 102.96 123.452 102.656C123.828 102.358 124.231 102.142 124.66 102.009C125.093 101.878 125.522 101.86 125.949 101.953L125.617 103.483C125.441 103.442 125.243 103.461 125.026 103.54C124.808 103.62 124.592 103.749 124.378 103.927C124.163 104.105 123.975 104.322 123.812 104.579C123.645 104.842 123.529 105.113 123.464 105.391C123.4 105.675 123.396 105.933 123.451 106.166C123.509 106.401 123.636 106.58 123.831 106.704C124.03 106.83 124.239 106.859 124.46 106.791C124.684 106.725 124.907 106.601 125.13 106.418C125.352 106.235 125.561 106.033 125.757 105.813C126.181 105.328 126.616 104.927 127.059 104.611C127.503 104.295 127.958 104.109 128.423 104.055C128.886 104.004 129.361 104.133 129.848 104.443C130.307 104.734 130.624 105.12 130.8 105.602C130.976 106.083 131.023 106.599 130.942 107.15C130.86 107.702 130.661 108.227 130.345 108.725C130.082 109.14 129.762 109.5 129.387 109.804C129.012 110.108 128.608 110.325 128.175 110.456C127.74 110.59 127.308 110.609 126.877 110.514L127.218 108.982C127.395 109.023 127.592 109.004 127.81 108.924C128.027 108.845 128.242 108.715 128.452 108.534C128.667 108.356 128.855 108.139 129.018 107.883C129.184 107.628 129.297 107.358 129.357 107.072C129.419 106.792 129.423 106.534 129.37 106.298C129.318 106.062 129.197 105.884 129.009 105.765C128.767 105.611 128.543 105.562 128.335 105.618C128.125 105.677 127.919 105.802 127.717 105.993C127.518 106.186 127.307 106.407 127.084 106.655C126.684 107.11 126.253 107.493 125.793 107.804C125.332 108.115 124.862 108.3 124.383 108.361C123.907 108.424 123.444 108.312 122.993 108.025C122.534 107.734 122.214 107.349 122.032 106.869C121.854 106.391 121.806 105.876 121.887 105.325C121.968 104.774 122.169 104.246 122.49 103.74Z" fill="black"/>
<path d="M113.518 114.797C113.902 114.436 114.333 114.208 114.811 114.111C115.289 114.014 115.76 114.035 116.225 114.174C116.69 114.318 117.089 114.568 117.422 114.924C117.61 115.123 117.755 115.316 117.858 115.5C117.961 115.685 118.034 115.89 118.075 116.115C118.119 116.344 118.142 116.615 118.145 116.93C118.15 117.248 118.145 117.637 118.131 118.096C118.382 118.107 118.6 118.121 118.788 118.139C118.971 118.16 119.135 118.194 119.279 118.241C119.426 118.291 119.56 118.356 119.682 118.435C119.8 118.518 119.921 118.624 120.044 118.755C120.313 119.042 120.485 119.362 120.558 119.716C120.635 120.072 120.621 120.423 120.516 120.767C120.411 121.112 120.227 121.409 119.962 121.658C119.684 121.918 119.37 122.087 119.02 122.164C118.669 122.247 118.32 122.237 117.972 122.135C117.621 122.037 117.314 121.847 117.05 121.566C116.924 121.432 116.824 121.301 116.75 121.171C116.672 121.045 116.616 120.907 116.581 120.757C116.543 120.611 116.521 120.444 116.515 120.256C116.506 120.071 116.506 119.856 116.517 119.611L114.123 119.536L114.055 121.826L112.54 120.213L112.563 119.478L110.455 119.416L110.508 117.852L112.603 117.918C112.618 117.452 112.638 117.061 112.663 116.744C112.688 116.427 112.73 116.156 112.788 115.931C112.847 115.712 112.934 115.515 113.052 115.34C113.163 115.165 113.319 114.984 113.518 114.797ZM114.59 115.938C114.481 116.04 114.397 116.142 114.34 116.243C114.285 116.347 114.248 116.47 114.228 116.612C114.212 116.757 114.202 116.936 114.198 117.151C114.191 117.369 114.182 117.641 114.172 117.967L116.566 118.042C116.574 117.701 116.583 117.42 116.593 117.199C116.6 116.981 116.596 116.803 116.583 116.663C116.572 116.527 116.544 116.406 116.499 116.302C116.45 116.2 116.376 116.097 116.277 115.991C116.119 115.822 115.938 115.711 115.734 115.656C115.526 115.604 115.322 115.602 115.121 115.65C114.917 115.701 114.74 115.797 114.59 115.938ZM117.928 119.492C117.914 119.758 117.904 119.958 117.9 120.091C117.893 120.227 117.9 120.331 117.922 120.405C117.944 120.484 117.994 120.566 118.073 120.65C118.22 120.806 118.387 120.878 118.575 120.865C118.763 120.853 118.918 120.79 119.039 120.676C119.17 120.553 119.24 120.396 119.249 120.206C119.255 120.018 119.194 119.856 119.065 119.719C118.986 119.635 118.906 119.578 118.825 119.548C118.741 119.521 118.631 119.507 118.495 119.506C118.359 119.504 118.17 119.5 117.928 119.492Z" fill="black"/>
<path d="M101.682 123.889L106.01 131.761L104.638 132.515L100.31 124.644L101.682 123.889Z" fill="black"/>
<path d="M94.18 137.157L93.6037 135.702L96.1569 134.691L93.4265 127.795L94.8821 127.218L97.6125 134.114L100.166 133.104L100.742 134.559L94.18 137.157Z" fill="black"/>
<path d="M82.5022 135.574L78.4283 136.089L78.2321 134.536L82.306 134.021L82.5022 135.574Z" fill="black"/>
<path d="M64.4038 131.105C65.0064 131.181 65.5579 131.371 66.0583 131.676C66.5582 131.985 66.983 132.377 67.3325 132.852C67.6778 133.327 67.9299 133.857 68.0888 134.441C68.243 135.03 68.2798 135.643 68.1994 136.279C68.1185 136.92 67.9304 137.504 67.6353 138.032C67.3354 138.563 66.9594 139.013 66.5075 139.383C66.0507 139.756 65.5421 140.028 64.9816 140.199C64.4206 140.374 63.8388 140.423 63.2362 140.347C62.5148 140.256 61.8718 140.004 61.3073 139.593C60.7423 139.185 60.2955 138.678 59.9668 138.072L61.4485 137.502C61.6598 137.844 61.9403 138.131 62.2902 138.365C62.6358 138.598 63.0165 138.741 63.4324 138.794C63.8228 138.843 64.2001 138.809 64.5642 138.691C64.9278 138.578 65.2569 138.395 65.5517 138.143C65.846 137.896 66.0888 137.595 66.2803 137.239C66.4712 136.889 66.5932 136.503 66.6463 136.083C66.6999 135.659 66.6778 135.253 66.5802 134.865C66.4783 134.477 66.3159 134.125 66.093 133.808C65.8695 133.495 65.5982 133.236 65.2791 133.032C64.9552 132.832 64.598 132.707 64.2076 132.658C63.7832 132.604 63.3768 132.648 62.9882 132.788C62.5949 132.933 62.2535 133.144 61.964 133.422L60.6712 132.495C61.1398 131.994 61.6987 131.614 62.3479 131.356C62.9971 131.097 63.6824 131.013 64.4038 131.105Z" fill="black"/>
<path d="M57.3422 129.762C57.9305 129.913 58.4538 130.171 58.9121 130.536C59.3693 130.905 59.7416 131.348 60.0288 131.863C60.316 132.378 60.5018 132.936 60.5862 133.536C60.6695 134.141 60.6313 134.753 60.4718 135.375C60.3122 135.996 60.0509 136.55 59.6878 137.035C59.3237 137.524 58.8916 137.926 58.3917 138.239C57.8917 138.552 57.353 138.758 56.7756 138.857C56.1971 138.961 55.6137 138.937 55.0254 138.786C54.4329 138.633 53.9081 138.373 53.4508 138.004C52.9925 137.639 52.6198 137.199 52.3326 136.683C52.0454 136.168 51.8622 135.609 51.783 135.005C51.6986 134.405 51.7362 133.794 51.8958 133.173C52.0554 132.551 52.3172 131.996 52.6814 131.507C53.0403 131.02 53.4697 130.62 53.9697 130.307C54.4696 129.994 55.0089 129.786 55.5874 129.683C56.1648 129.584 56.7498 129.61 57.3422 129.762ZM56.9529 131.279C56.5717 131.181 56.1931 131.167 55.8171 131.239C55.4411 131.31 55.0917 131.45 54.7687 131.658C54.4406 131.87 54.1598 132.138 53.9264 132.462C53.6889 132.785 53.5174 133.152 53.4121 133.562C53.3068 133.972 53.2804 134.376 53.3329 134.774C53.3843 135.176 53.5033 135.546 53.6899 135.886C53.8725 136.224 54.1113 136.515 54.4064 136.759C54.6975 137.001 55.0335 137.171 55.4147 137.269C55.7959 137.367 56.1744 137.38 56.5504 137.309C56.9264 137.238 57.2785 137.096 57.6066 136.885C57.9296 136.676 58.2098 136.41 58.4474 136.087C58.6808 135.763 58.8501 135.396 58.9554 134.986C59.0618 134.571 59.0888 134.165 59.0363 133.768C58.9839 133.37 58.8669 133 58.6854 132.657C58.4988 132.318 58.26 132.027 57.9689 131.785C57.6727 131.545 57.334 131.376 56.9529 131.279Z" fill="black"/>
<path d="M54.022 129.159L50.7153 137.511L49.1404 136.887L47.8799 129.77L45.6148 135.491L44.1592 134.915L47.4659 126.563L49.0348 127.184L50.3013 134.303L52.5664 128.583L54.022 129.159Z" fill="black"/>
<path d="M43.3902 124.286C43.825 124.525 44.2058 124.823 44.5327 125.178C44.8538 125.535 45.0942 125.924 45.2539 126.343C45.4116 126.767 45.4571 127.195 45.3905 127.626L43.8433 127.391C43.8732 127.212 43.8416 127.017 43.7485 126.804C43.6553 126.592 43.5131 126.384 43.3219 126.182C43.1307 125.979 42.9021 125.805 42.636 125.658C42.3623 125.508 42.0848 125.409 41.8033 125.362C41.516 125.316 41.2581 125.328 41.0295 125.397C40.7988 125.471 40.6278 125.609 40.5166 125.811C40.4032 126.017 40.3873 126.228 40.4689 126.444C40.5484 126.663 40.6864 126.878 40.8831 127.089C41.0797 127.299 41.2941 127.495 41.5263 127.677C42.0374 128.07 42.4646 128.478 42.808 128.901C43.1514 129.324 43.3649 129.766 43.4483 130.227C43.5281 130.686 43.4288 131.168 43.1506 131.674C42.8889 132.15 42.5234 132.491 42.054 132.697C41.5846 132.902 41.0723 132.982 40.517 132.935C39.9618 132.889 39.4255 132.723 38.9083 132.439C38.4772 132.202 38.0982 131.906 37.7714 131.55C37.4445 131.195 37.2022 130.805 37.0445 130.382C36.8831 129.956 36.8367 129.526 36.9054 129.09L38.4551 129.334C38.4252 129.513 38.4568 129.709 38.55 129.921C38.6431 130.133 38.7863 130.339 38.9796 130.538C39.1708 130.741 39.3994 130.915 39.6655 131.061C39.9296 131.211 40.2063 131.307 40.4957 131.349C40.7792 131.393 41.0371 131.381 41.2695 131.313C41.5019 131.246 41.6716 131.115 41.7788 130.92C41.9168 130.669 41.9516 130.441 41.8829 130.238C41.8106 130.032 41.6728 129.834 41.4696 129.644C41.2644 129.458 41.0309 129.262 40.769 129.054C40.2896 128.683 39.8804 128.278 39.5416 127.838C39.2027 127.397 38.9879 126.94 38.8973 126.466C38.8047 125.995 38.8871 125.525 39.1447 125.057C39.4064 124.581 39.7711 124.237 40.2388 124.026C40.7044 123.818 41.2149 123.737 41.7701 123.784C42.3254 123.83 42.8654 123.998 43.3902 124.286Z" fill="black"/>
<path d="M37.271 120.45C37.8524 120.872 38.2597 121.385 38.493 121.988C38.7229 122.589 38.7854 123.216 38.6807 123.869C38.5735 124.526 38.3074 125.147 37.8825 125.732L34.8051 129.968L33.5386 129.047L36.616 124.812C36.8674 124.466 37.0347 124.101 37.1178 123.717C37.195 123.334 37.1753 122.969 37.0588 122.619C36.9363 122.271 36.7003 121.97 36.3508 121.716C35.9979 121.46 35.6387 121.329 35.2732 121.322C34.9053 121.319 34.5547 121.416 34.2214 121.613C33.8822 121.81 33.5869 122.082 33.3355 122.428L30.2581 126.664L28.9916 125.744L32.069 121.508C32.3883 121.069 32.7567 120.707 33.1741 120.424C33.5891 120.144 34.0302 119.951 34.4975 119.847C34.9648 119.742 35.4357 119.738 35.9103 119.834C36.3814 119.928 36.835 120.133 37.271 120.45Z" fill="black"/>
<path d="M34.6709 118.958L27.2498 124.311L26.3051 123.424L28.6499 117.731L23.1153 120.428L22.1705 119.541L27.0473 111.799L28.2119 112.892L25.1941 117.681L30.3304 115.163L31.1115 115.897L28.9217 121.181L33.5064 117.864L34.6709 118.958Z" fill="black"/>
<path d="M27.8413 112.426L20.9202 118.151L17.3294 113.811L18.5357 112.813L21.1286 115.947L22.5326 114.786L20.4754 112.299L21.6817 111.301L23.7388 113.788L25.6372 112.217L23.0443 109.083L24.2505 108.085L27.8413 112.426Z" fill="black"/>
<path d="M23.2799 106.842L15.6958 111.655L13.8497 108.746C13.5884 108.334 13.4552 107.897 13.4502 107.434C13.4452 106.971 13.5542 106.532 13.7771 106.117C13.9965 105.704 14.3156 105.365 14.7345 105.099C15.0776 104.881 15.4337 104.744 15.8029 104.687C16.1661 104.629 16.5235 104.645 16.8751 104.736C17.2244 104.824 17.5448 104.977 17.8365 105.197L19.8214 101.392L20.7875 102.914L18.884 106.584L19.4237 107.435L22.4411 105.52L23.2799 106.842ZM18.1019 108.274L17.1909 106.838C17.0717 106.65 16.9159 106.509 16.7234 106.413C16.531 106.317 16.3255 106.273 16.107 106.28C15.8885 106.287 15.6817 106.352 15.4867 106.476C15.2881 106.602 15.1391 106.762 15.0398 106.957C14.9405 107.152 14.8931 107.357 14.8978 107.572C14.9024 107.786 14.9644 107.988 15.0835 108.176L15.9946 109.611L18.1019 108.274Z" fill="black"/>
<path d="M16.3193 94.2393L7.77647 97.015L6.85652 94.1836C6.66486 93.5938 6.59764 93.0062 6.65483 92.4209C6.70664 91.8329 6.8664 91.2796 7.13411 90.7608C7.39643 90.2393 7.75022 89.7848 8.19548 89.3973C8.63535 89.007 9.15022 88.716 9.74008 88.5244C10.3299 88.3327 10.9195 88.2648 11.5089 88.3207C12.0928 88.3738 12.6462 88.5336 13.169 88.8C13.6864 89.0636 14.1409 89.4174 14.5325 89.8613C14.9188 90.3025 15.2077 90.8181 15.3994 91.4079L16.3193 94.2393ZM14.3466 93.2341L13.9105 91.8917C13.7875 91.5134 13.6007 91.1806 13.3499 90.8932C13.0938 90.6032 12.7979 90.371 12.4625 90.1966C12.1229 90.0236 11.7625 89.9181 11.3814 89.88C10.9962 89.8433 10.6103 89.8877 10.2238 90.0133C9.83739 90.1388 9.50116 90.329 9.21517 90.5839C8.92917 90.8387 8.69967 91.1359 8.52665 91.4755C8.35364 91.815 8.25014 92.1747 8.21614 92.5545C8.17808 92.9357 8.22117 93.3175 8.34541 93.6999L8.7816 95.0423L14.3466 93.2341Z" fill="black"/>
<path d="M13.447 83.5161C13.5817 84.222 13.5276 84.8746 13.2849 85.4739C13.0413 86.069 12.6577 86.5689 12.134 86.9737C11.6061 87.3792 10.9871 87.6497 10.277 87.7851L5.13428 88.7662L4.84092 87.2284L9.98368 86.2473C10.4038 86.1672 10.7756 86.0157 11.0988 85.7929C11.4171 85.5668 11.6532 85.2866 11.8072 84.9524C11.9562 84.6148 11.9902 84.2338 11.9092 83.8095C11.8275 83.3809 11.6556 83.0392 11.3936 82.7844C11.1274 82.5303 10.8056 82.3609 10.428 82.2762C10.0454 82.1881 9.64401 82.1841 9.22385 82.2642L4.0811 83.2453L3.78775 81.7075L8.9305 80.7264C9.4641 80.6247 9.98012 80.6133 10.4786 80.6924C10.9728 80.7723 11.426 80.934 11.8383 81.1776C12.2505 81.4212 12.5967 81.7406 12.8767 82.1357C13.1559 82.5266 13.346 82.9867 13.447 83.5161Z" fill="black"/>
<path d="M12.4709 79.0503L3.50621 79.6144L3.28986 76.1758C3.25924 75.6891 3.35324 75.2418 3.57186 74.8337C3.79048 74.4257 4.09745 74.0935 4.49276 73.8372C4.8838 73.5811 5.32692 73.4375 5.82212 73.4064C6.22766 73.3809 6.60589 73.4321 6.95681 73.56C7.30319 73.6839 7.6085 73.8704 7.87275 74.1195C8.13673 74.3643 8.3435 74.6535 8.49305 74.9869L12.0656 72.6085L12.1789 74.4079L8.7427 76.707L8.80596 77.7123L12.3726 77.4879L12.4709 79.0503ZM7.24353 77.8106L7.13677 76.1137C7.1228 75.8917 7.05455 75.6925 6.93201 75.5159C6.80947 75.3393 6.65079 75.2014 6.45597 75.1023C6.26116 75.0031 6.04849 74.9607 5.81797 74.9753C5.58318 74.99 5.37536 75.0588 5.19451 75.1816C5.01366 75.3044 4.87351 75.4611 4.77407 75.6517C4.67463 75.8422 4.63189 76.0485 4.64585 76.2705L4.75262 77.9674L7.24353 77.8106Z" fill="black"/>
<path d="M3.24848 68.2915L3.36169 66.4921L12.5315 63.7968L12.4271 65.4553L10.8028 65.9317L10.5611 69.7737L12.1129 70.45L12.0085 72.1084L3.24848 68.2915ZM9.03455 69.1055L9.20416 66.4097L5.42441 67.5284L9.03455 69.1055Z" fill="black"/>
<path d="M12.504 64.3341L3.68063 62.6509L4.29378 59.4367C4.38275 58.9703 4.55954 58.5686 4.82414 58.2316C5.08535 57.8895 5.41536 57.6433 5.81417 57.4929C6.20959 57.3375 6.64889 57.306 7.13207 57.3981C7.34635 57.439 7.55672 57.5118 7.76318 57.6165C7.96964 57.7212 8.14868 57.8555 8.3003 58.0194C8.44772 58.1825 8.54381 58.375 8.58857 58.5969C8.70789 58.3367 8.87222 58.1372 9.08155 57.9986C9.29088 57.86 9.5245 57.7652 9.78243 57.7143C10.0362 57.6625 10.2902 57.6435 10.5445 57.6572C10.7954 57.6659 11.0259 57.6902 11.236 57.7303C11.7023 57.8193 12.0962 58.0142 12.4177 58.315C12.7392 58.6158 12.9698 58.982 13.1095 59.4136C13.25 59.8411 13.2754 60.2901 13.1857 60.7607L12.504 64.3341ZM11.4801 62.5451L11.8384 60.6669C11.8865 60.4148 11.8689 60.1763 11.7855 59.9514C11.7021 59.7265 11.5649 59.5327 11.3739 59.37C11.1828 59.2072 10.9508 59.0998 10.6776 59.0477C10.4424 59.0028 10.2081 59.0213 9.97473 59.103C9.74141 59.1848 9.54038 59.3141 9.37166 59.491C9.20294 59.6678 9.09453 59.8822 9.04644 60.1343L8.68817 62.0125L11.4801 62.5451ZM7.38988 61.7648L7.67602 60.2648C7.73533 59.9539 7.68918 59.6708 7.53759 59.4154C7.3868 59.1559 7.15174 58.9956 6.83242 58.9347C6.49209 58.8698 6.21455 58.9322 5.99981 59.1221C5.78166 59.3069 5.64293 59.5547 5.58362 59.8657L5.29748 61.3656L7.38988 61.7648Z" fill="black"/>
<path d="M14.1174 56.3294L5.57457 53.5537L6.05834 52.0648L13.1123 54.3568L14.2682 50.7993L15.7571 51.2831L14.1174 56.3294Z" fill="black"/>
<path d="M16.5275 49.1959L8.39997 45.3714L10.7985 40.2742L12.215 40.9408L10.4831 44.6214L12.1318 45.3973L13.5059 42.4771L14.9224 43.1437L13.5483 46.0638L15.7776 47.1129L17.5096 43.4322L18.9261 44.0988L16.5275 49.1959Z" fill="black"/>
<path d="M21.5098 40.053C21.244 40.4719 20.9234 40.8334 20.5482 41.1373C20.1716 41.4353 19.7688 41.6508 19.3399 41.7839C18.9074 41.9147 18.4776 41.9333 18.0507 41.8396L18.3829 40.3103C18.5595 40.3514 18.7566 40.3321 18.9743 40.2525C19.1921 40.1728 19.4081 40.044 19.6224 39.8659C19.8368 39.6878 20.0253 39.4706 20.188 39.2141C20.3553 38.9505 20.4715 38.6797 20.5364 38.4018C20.6 38.1179 20.6043 37.8597 20.5492 37.6272C20.4905 37.3924 20.3637 37.2131 20.1686 37.0893C19.97 36.9633 19.7605 36.9342 19.5401 37.002C19.3162 37.0676 19.0929 37.1919 18.8704 37.3749C18.6479 37.5579 18.4388 37.7596 18.2432 37.98C17.8187 38.4653 17.3845 38.8661 16.9407 39.1823C16.4969 39.4984 16.0424 39.6837 15.5773 39.7381C15.1145 39.7888 14.6393 39.6595 14.1517 39.3501C13.6931 39.059 13.3759 38.6728 13.2001 38.1914C13.0243 37.7101 12.9771 37.1937 13.0584 36.6425C13.1397 36.0913 13.3385 35.5665 13.6548 35.0681C13.9184 34.6527 14.2378 34.2931 14.613 33.9892C14.9883 33.6853 15.3922 33.4679 15.8247 33.3372C16.2596 33.2028 16.6923 33.1835 17.1228 33.2794L16.7817 34.8108C16.6052 34.7696 16.408 34.7889 16.1903 34.8686C15.9726 34.9482 15.7583 35.0782 15.5476 35.2586C15.3333 35.4367 15.1448 35.6539 14.982 35.9103C14.8157 36.1645 14.7025 36.4346 14.6425 36.7207C14.5812 37.001 14.5769 37.2592 14.6297 37.4953C14.6825 37.7314 14.8028 37.9091 14.9906 38.0283C15.2326 38.1818 15.4573 38.2308 15.6649 38.1751C15.8748 38.1158 16.0808 37.9907 16.283 37.7998C16.4816 37.6067 16.6926 37.386 16.916 37.1377C17.3163 36.6825 17.7468 36.2996 18.2073 35.989C18.6678 35.6784 19.1377 35.4928 19.6169 35.4322C20.0925 35.3693 20.556 35.481 21.0075 35.7675C21.4661 36.0586 21.7863 36.4442 21.968 36.9242C22.1461 37.402 22.1945 37.9165 22.1131 38.4677C22.0318 39.019 21.8307 39.5474 21.5098 40.053Z" fill="black"/>
<path d="M30.4817 28.9984C30.0982 29.3585 29.6673 29.587 29.1892 29.684C28.7111 29.7809 28.2397 29.7601 27.775 29.6214C27.3105 29.4767 26.9114 29.2266 26.5776 28.8711C26.3902 28.6716 26.2449 28.4794 26.1418 28.2946C26.0386 28.1098 25.9664 27.9048 25.9251 27.6796C25.8808 27.4512 25.8575 27.1797 25.8553 26.8649C25.8502 26.547 25.8548 26.1583 25.8693 25.6988C25.6185 25.6879 25.3995 25.6734 25.2125 25.6554C25.0285 25.6345 24.8647 25.6006 24.7209 25.5538C24.5742 25.5038 24.4401 25.439 24.3185 25.3595C24.2 25.2771 24.0793 25.1705 23.9564 25.0395C23.687 24.7527 23.5155 24.4326 23.4418 24.0792C23.3653 23.7228 23.3793 23.3722 23.484 23.0275C23.5886 22.6828 23.7734 22.386 24.0385 22.1371C24.316 21.8765 24.6299 21.7078 24.9803 21.6311C25.3309 21.5483 25.6801 21.5577 26.028 21.6595C26.3789 21.7582 26.6861 21.9479 26.9497 22.2286C27.0756 22.3626 27.1758 22.4944 27.2504 22.6238C27.3282 22.7503 27.3844 22.8883 27.419 23.0376C27.4568 23.1841 27.4788 23.3512 27.485 23.539C27.4943 23.7239 27.4936 23.9387 27.4829 24.1835L29.8771 24.2587L29.9445 21.9686L31.4598 23.5822L31.4367 24.3168L33.5455 24.3785L33.4918 25.9428L31.3968 25.877C31.3822 26.3425 31.3623 26.7338 31.3372 27.0507C31.3121 27.3677 31.2703 27.6387 31.2118 27.8638C31.1535 28.0829 31.0656 28.2799 30.9481 28.4547C30.8367 28.6297 30.6812 28.811 30.4817 28.9984ZM29.41 27.8571C29.5191 27.7547 29.6025 27.6529 29.6602 27.5518C29.7149 27.4476 29.752 27.3247 29.7716 27.1831C29.7883 27.0384 29.7985 26.8587 29.8022 26.6439C29.809 26.4263 29.8176 26.1542 29.8278 25.8277L27.4336 25.7525C27.4259 26.0942 27.417 26.3753 27.4071 26.5959C27.4002 26.8136 27.4037 26.9922 27.4175 27.1318C27.4283 27.2683 27.4563 27.3888 27.5014 27.4931C27.5497 27.5944 27.6236 27.6981 27.7231 27.8041C27.8813 27.9725 28.0623 28.0841 28.2664 28.1389C28.4736 28.1908 28.6778 28.1927 28.879 28.1446C29.0833 28.0935 29.2603 27.9977 29.41 27.8571ZM26.072 24.3026C26.0864 24.0367 26.0957 23.8373 26.0999 23.7043C26.1072 23.5684 26.0999 23.4637 26.078 23.3904C26.0563 23.311 26.0059 23.2293 25.9268 23.1451C25.7804 22.9892 25.6132 22.9174 25.4252 22.9296C25.2372 22.9419 25.0824 23.0051 24.9608 23.1193C24.8299 23.2423 24.7599 23.3989 24.7509 23.5893C24.745 23.7767 24.8064 23.939 24.9353 24.0762C25.0143 24.1604 25.0943 24.2174 25.175 24.2472C25.2589 24.274 25.3689 24.288 25.505 24.2893C25.6412 24.2905 25.8302 24.295 26.072 24.3026Z" fill="black"/>
<path d="M42.3178 19.9055L37.9904 12.0342L39.3623 11.28L43.6897 19.1513L42.3178 19.9055Z" fill="black"/>
<path d="M49.82 6.63773L50.3963 8.09331L47.8431 9.1042L50.5735 16.0003L49.1179 16.5766L46.3875 9.68051L43.8343 10.6914L43.258 9.23583L49.82 6.63773Z" fill="black"/>
<path d="M61.4978 8.21889L65.5717 7.70424L65.7679 9.25741L61.694 9.77206L61.4978 8.21889Z" fill="black"/>
</svg>
