<svg width="81" height="130" viewBox="0 0 81 130" fill="none" xmlns="http://www.w3.org/2000/svg">
<mask id="path-1-inside-1_6321_4535" fill="white">
<path d="M7.83912 0.822712C6.13885 1.70027 4.65797 3.51024 4.16434 5.37505C3.9998 6.03322 3.8901 11.1889 3.8901 18.6481V30.8243L1.97044 34.6087L0.0507812 38.3932V41.6841C0.0507812 44.6458 0.160475 45.1394 0.818644 46.5106C1.20258 47.3882 2.08014 48.7045 2.73831 49.4175L3.8901 50.7339V86.8235C3.8901 126.972 3.78041 124.833 5.80976 127.027C6.35824 127.63 7.40034 128.453 8.00366 128.782L9.15546 129.385H40.4185H71.6816L72.8334 128.782C73.4915 128.453 74.4788 127.63 75.0821 126.917C77.0566 124.613 76.9469 126.752 76.9469 86.7686V50.679L78.0987 49.4175C80.0184 47.3333 80.7314 45.4137 80.8411 41.9034L80.9508 38.8868L78.9214 34.8281L76.8921 30.7694V18.5933C76.8921 11.1889 76.7824 6.03322 76.6178 5.37505C76.1242 3.51024 74.6433 1.64542 72.9431 0.822712L71.4073 0H40.3637H9.37485L7.83912 0.822712ZM71.6267 4.60718C72.8334 5.53959 72.9979 6.69139 72.8882 14.8637L72.7785 22.4326L71.4622 19.7999C70.4201 17.8254 69.8716 17.0576 69.1586 16.6736C68.281 16.18 66.5259 16.18 40.3637 16.18C14.6402 16.18 12.5012 16.2348 11.6236 16.6736C10.9654 17.0576 10.3621 17.8803 9.32 19.7999L7.89397 22.4326L7.78427 14.5894C7.67458 6.25261 7.78427 5.59444 9.10061 4.60718C9.81363 4.05871 10.417 4.05871 40.254 4.05871C70.6943 4.00386 70.8589 4.00386 71.6267 4.60718ZM21.3864 20.1839C21.4961 20.4032 18.9732 37.3511 18.5892 38.9965L18.4247 39.6547H11.1848H3.8901L8.82637 29.7822L13.7626 19.9096H17.4923C19.5765 19.9645 21.3316 20.0742 21.3864 20.1839ZM34.4401 20.4581C34.4401 21.5002 33.2883 38.3932 33.1238 38.9965C33.0141 39.6547 32.9593 39.6547 27.7487 39.6547H22.4285L22.5931 38.9965C22.7028 38.6674 23.3061 34.5539 24.0191 29.9467C24.7321 25.3395 25.3903 21.1711 25.5 20.7323L25.6645 19.9645H30.0523C34.0562 19.9645 34.4401 20.0193 34.4401 20.4581ZM42.8318 22.1584C42.9415 23.365 43.1609 27.2043 43.2706 30.6597C43.4351 34.1151 43.5997 37.5156 43.7094 38.2835L43.8191 39.6547H40.4185C38.1698 39.6547 37.018 39.545 37.018 39.3256C37.018 38.3384 38.4989 20.6226 38.6085 20.2936C38.7182 20.0742 39.3764 19.9645 40.7476 19.9645H42.7221L42.8318 22.1584ZM55.3919 20.7323C55.5016 21.1711 56.1597 25.3395 56.8728 29.9467C57.5858 34.5539 58.1891 38.6674 58.2988 38.9965L58.4633 39.6547H53.1431H47.8778L47.7132 38.7223C47.4938 37.1866 46.726 20.4581 46.8357 20.1839C46.9454 20.0742 48.8102 19.9645 51.1138 19.9645H55.1725L55.3919 20.7323ZM71.7913 29.2337C74.3142 34.3345 76.3984 38.7771 76.3984 39.1062C76.3984 39.6547 76.1791 39.6547 69.4328 39.6547H62.4672L62.3027 38.9965C61.9187 37.3511 59.3957 20.3484 59.5054 20.1839C59.5603 20.0742 61.3154 19.9645 63.3996 19.9645H67.1841L71.7913 29.2337ZM15.0241 43.9876C15.0241 44.7555 13.7078 46.6203 12.6657 47.443C11.6784 48.2657 11.3494 48.3206 9.59424 48.3206C7.83912 48.3206 7.56488 48.2109 6.52278 47.443C5.48068 46.5655 4.16434 44.7007 4.16434 43.9876C4.16434 43.7134 5.42583 43.6586 9.59424 43.6586C13.7626 43.6586 15.0241 43.7683 15.0241 43.9876ZM30.2717 44.3167C29.9426 45.5234 28.5166 47.2785 27.4197 47.8818C26.1582 48.5948 24.4031 48.7594 23.0867 48.2109C21.6058 47.6624 19.5765 45.304 19.5765 44.0973C19.5765 43.7134 20.2895 43.6586 25.0064 43.6586H30.4363L30.2717 44.3167ZM45.8484 43.9876C45.8484 44.7555 44.5321 46.6203 43.49 47.443C42.5027 48.2657 42.1736 48.3206 40.4185 48.3206C38.6634 48.3206 38.3892 48.2109 37.3471 47.443C36.305 46.5655 34.9886 44.7007 34.9886 43.9876C34.9886 43.7134 36.2501 43.6586 40.4185 43.6586C44.5869 43.6586 45.8484 43.7683 45.8484 43.9876ZM61.2606 43.9328C61.2606 45.1943 59.4506 47.4979 57.9149 48.1561C56.5437 48.7594 54.7337 48.6497 53.4174 47.8818C52.3204 47.2785 50.8944 45.5234 50.5653 44.3167L50.4008 43.7134H55.8306C59.0118 43.6586 61.2606 43.7683 61.2606 43.9328ZM76.6727 44.207C76.6727 45.2491 75.0821 47.2785 73.7658 47.9367C72.2849 48.6497 70.1458 48.7594 69.0489 48.1561C67.7326 47.443 65.8677 45.0297 65.8677 43.9876C65.8677 43.8231 67.6777 43.7134 71.2976 43.7134C76.2888 43.6586 76.6727 43.7134 76.6727 44.207ZM20.7831 51.5017C21.9349 52.1051 22.7576 52.3245 24.4579 52.4342C27.31 52.5987 29.3942 51.8308 31.3138 49.966L32.685 48.6497L34.1659 49.966C37.8407 53.3117 43.106 53.3117 46.8357 49.9112L48.3165 48.5948L49.3038 49.6918C49.7974 50.2403 51.0041 51.1178 51.8816 51.5566C53.3077 52.2696 53.8561 52.3793 56.1049 52.3793C58.4085 52.3793 58.7924 52.2696 60.1636 51.5566C60.9863 51.063 62.0833 50.2403 62.6317 49.6369L63.5641 48.5948L64.1675 49.1982C64.7708 49.8015 64.7708 49.9112 64.7708 75.5798V101.303H40.5282H16.1759V75.5798C16.1759 49.9112 16.1759 49.8563 16.7793 49.1982L17.3826 48.5948L18.315 49.6369C18.8635 50.2403 19.9604 51.063 20.7831 51.5017ZM12.1721 78.9255V105.307H40.4185H68.665V78.9255V52.5438H70.804H72.9431V87.701C72.9431 126.259 73.0528 124.065 71.2428 125.162C70.4749 125.601 68.1713 125.655 40.3637 125.655C7.2358 125.655 9.21031 125.765 8.2779 123.846C7.83912 122.968 7.83912 119.677 7.83912 87.6462V52.4342L9.97817 52.5438L12.1172 52.6535L12.1721 78.9255Z"/>
</mask>
<path d="M7.83912 0.822712C6.13885 1.70027 4.65797 3.51024 4.16434 5.37505C3.9998 6.03322 3.8901 11.1889 3.8901 18.6481V30.8243L1.97044 34.6087L0.0507812 38.3932V41.6841C0.0507812 44.6458 0.160475 45.1394 0.818644 46.5106C1.20258 47.3882 2.08014 48.7045 2.73831 49.4175L3.8901 50.7339V86.8235C3.8901 126.972 3.78041 124.833 5.80976 127.027C6.35824 127.63 7.40034 128.453 8.00366 128.782L9.15546 129.385H40.4185H71.6816L72.8334 128.782C73.4915 128.453 74.4788 127.63 75.0821 126.917C77.0566 124.613 76.9469 126.752 76.9469 86.7686V50.679L78.0987 49.4175C80.0184 47.3333 80.7314 45.4137 80.8411 41.9034L80.9508 38.8868L78.9214 34.8281L76.8921 30.7694V18.5933C76.8921 11.1889 76.7824 6.03322 76.6178 5.37505C76.1242 3.51024 74.6433 1.64542 72.9431 0.822712L71.4073 0H40.3637H9.37485L7.83912 0.822712ZM71.6267 4.60718C72.8334 5.53959 72.9979 6.69139 72.8882 14.8637L72.7785 22.4326L71.4622 19.7999C70.4201 17.8254 69.8716 17.0576 69.1586 16.6736C68.281 16.18 66.5259 16.18 40.3637 16.18C14.6402 16.18 12.5012 16.2348 11.6236 16.6736C10.9654 17.0576 10.3621 17.8803 9.32 19.7999L7.89397 22.4326L7.78427 14.5894C7.67458 6.25261 7.78427 5.59444 9.10061 4.60718C9.81363 4.05871 10.417 4.05871 40.254 4.05871C70.6943 4.00386 70.8589 4.00386 71.6267 4.60718ZM21.3864 20.1839C21.4961 20.4032 18.9732 37.3511 18.5892 38.9965L18.4247 39.6547H11.1848H3.8901L8.82637 29.7822L13.7626 19.9096H17.4923C19.5765 19.9645 21.3316 20.0742 21.3864 20.1839ZM34.4401 20.4581C34.4401 21.5002 33.2883 38.3932 33.1238 38.9965C33.0141 39.6547 32.9593 39.6547 27.7487 39.6547H22.4285L22.5931 38.9965C22.7028 38.6674 23.3061 34.5539 24.0191 29.9467C24.7321 25.3395 25.3903 21.1711 25.5 20.7323L25.6645 19.9645H30.0523C34.0562 19.9645 34.4401 20.0193 34.4401 20.4581ZM42.8318 22.1584C42.9415 23.365 43.1609 27.2043 43.2706 30.6597C43.4351 34.1151 43.5997 37.5156 43.7094 38.2835L43.8191 39.6547H40.4185C38.1698 39.6547 37.018 39.545 37.018 39.3256C37.018 38.3384 38.4989 20.6226 38.6085 20.2936C38.7182 20.0742 39.3764 19.9645 40.7476 19.9645H42.7221L42.8318 22.1584ZM55.3919 20.7323C55.5016 21.1711 56.1597 25.3395 56.8728 29.9467C57.5858 34.5539 58.1891 38.6674 58.2988 38.9965L58.4633 39.6547H53.1431H47.8778L47.7132 38.7223C47.4938 37.1866 46.726 20.4581 46.8357 20.1839C46.9454 20.0742 48.8102 19.9645 51.1138 19.9645H55.1725L55.3919 20.7323ZM71.7913 29.2337C74.3142 34.3345 76.3984 38.7771 76.3984 39.1062C76.3984 39.6547 76.1791 39.6547 69.4328 39.6547H62.4672L62.3027 38.9965C61.9187 37.3511 59.3957 20.3484 59.5054 20.1839C59.5603 20.0742 61.3154 19.9645 63.3996 19.9645H67.1841L71.7913 29.2337ZM15.0241 43.9876C15.0241 44.7555 13.7078 46.6203 12.6657 47.443C11.6784 48.2657 11.3494 48.3206 9.59424 48.3206C7.83912 48.3206 7.56488 48.2109 6.52278 47.443C5.48068 46.5655 4.16434 44.7007 4.16434 43.9876C4.16434 43.7134 5.42583 43.6586 9.59424 43.6586C13.7626 43.6586 15.0241 43.7683 15.0241 43.9876ZM30.2717 44.3167C29.9426 45.5234 28.5166 47.2785 27.4197 47.8818C26.1582 48.5948 24.4031 48.7594 23.0867 48.2109C21.6058 47.6624 19.5765 45.304 19.5765 44.0973C19.5765 43.7134 20.2895 43.6586 25.0064 43.6586H30.4363L30.2717 44.3167ZM45.8484 43.9876C45.8484 44.7555 44.5321 46.6203 43.49 47.443C42.5027 48.2657 42.1736 48.3206 40.4185 48.3206C38.6634 48.3206 38.3892 48.2109 37.3471 47.443C36.305 46.5655 34.9886 44.7007 34.9886 43.9876C34.9886 43.7134 36.2501 43.6586 40.4185 43.6586C44.5869 43.6586 45.8484 43.7683 45.8484 43.9876ZM61.2606 43.9328C61.2606 45.1943 59.4506 47.4979 57.9149 48.1561C56.5437 48.7594 54.7337 48.6497 53.4174 47.8818C52.3204 47.2785 50.8944 45.5234 50.5653 44.3167L50.4008 43.7134H55.8306C59.0118 43.6586 61.2606 43.7683 61.2606 43.9328ZM76.6727 44.207C76.6727 45.2491 75.0821 47.2785 73.7658 47.9367C72.2849 48.6497 70.1458 48.7594 69.0489 48.1561C67.7326 47.443 65.8677 45.0297 65.8677 43.9876C65.8677 43.8231 67.6777 43.7134 71.2976 43.7134C76.2888 43.6586 76.6727 43.7134 76.6727 44.207ZM20.7831 51.5017C21.9349 52.1051 22.7576 52.3245 24.4579 52.4342C27.31 52.5987 29.3942 51.8308 31.3138 49.966L32.685 48.6497L34.1659 49.966C37.8407 53.3117 43.106 53.3117 46.8357 49.9112L48.3165 48.5948L49.3038 49.6918C49.7974 50.2403 51.0041 51.1178 51.8816 51.5566C53.3077 52.2696 53.8561 52.3793 56.1049 52.3793C58.4085 52.3793 58.7924 52.2696 60.1636 51.5566C60.9863 51.063 62.0833 50.2403 62.6317 49.6369L63.5641 48.5948L64.1675 49.1982C64.7708 49.8015 64.7708 49.9112 64.7708 75.5798V101.303H40.5282H16.1759V75.5798C16.1759 49.9112 16.1759 49.8563 16.7793 49.1982L17.3826 48.5948L18.315 49.6369C18.8635 50.2403 19.9604 51.063 20.7831 51.5017ZM12.1721 78.9255V105.307H40.4185H68.665V78.9255V52.5438H70.804H72.9431V87.701C72.9431 126.259 73.0528 124.065 71.2428 125.162C70.4749 125.601 68.1713 125.655 40.3637 125.655C7.2358 125.655 9.21031 125.765 8.2779 123.846C7.83912 122.968 7.83912 119.677 7.83912 87.6462V52.4342L9.97817 52.5438L12.1172 52.6535L12.1721 78.9255Z" fill="#434343" stroke="white" mask="url(#path-1-inside-1_6321_4535)"/>
<path d="M15.1345 11.2262L15.1345 11.2262L15.1312 11.2295C15.0234 11.3373 14.8338 11.4592 14.6174 11.5547C14.3996 11.6508 14.1893 11.7048 14.0465 11.7048C13.6619 11.7048 13.2568 11.5102 12.9429 11.1901C12.6297 10.8708 12.4316 10.451 12.4316 10.0351C12.4316 9.55846 12.4993 9.27733 12.6348 9.07935C12.7695 8.88245 12.999 8.72731 13.4208 8.56908C15.1059 7.94357 16.405 10.0028 15.1345 11.2262Z" fill="black" stroke="white" strokeWidth="0.5"/>
<path d="M32.6457 9.9837H32.6458L32.6456 9.97695L32.5977 8.20616L40.1256 8.25917L40.1274 8.25919L47.6812 8.36558L47.7776 10.0528L47.8722 11.7082H40.2389H32.6457V9.9837Z" fill="#434343" stroke="white" strokeWidth="0.5"/>
<path d="M25.632 60.7469L25.6756 60.9313L27.5953 69.0487L27.5956 69.0498C28.6377 73.5476 29.9536 79.1399 30.5563 81.5508L30.5568 81.553L31.5989 85.8859L31.6343 86.0329L31.5205 86.1325L30.6429 86.9004L30.6387 86.9041L30.6387 86.904C27.7517 89.3186 28.0684 94.1048 31.2687 96.0984C32.5155 96.8674 33.8035 97.1658 35.0233 97.0288C36.2433 96.8918 37.4126 96.3174 38.419 95.3111C39.7389 93.9911 40.365 92.2041 40.1037 90.4793L40.1033 90.4772L39.9388 89.3254L39.8981 89.0401H40.1863H42.435H44.6838H44.9417L44.9337 89.2979L44.8789 91.0498C44.8789 91.0503 44.8789 91.0508 44.8789 91.0513C44.8267 93.8982 46.4513 96.0447 49.1371 96.7823L25.632 60.7469ZM25.632 60.7469L25.4428 60.739M25.632 60.7469L25.4428 60.739M25.4428 60.739L22.8101 60.6293L20.417 60.5296V58.7982L20.4653 56.9607H24.0063C25.1064 56.9607 25.9237 56.9608 26.5479 56.998C27.1754 57.0353 27.5762 57.1091 27.8571 57.2392C28.1225 57.3621 28.2963 57.5428 28.4502 57.8428C28.6109 58.1565 28.7414 58.5829 28.9214 59.1919L29.3045 60.615L29.3539 60.7986L29.5441 60.8L44.5723 60.9097L44.5732 60.9097L59.4733 60.9641L59.9473 61.6277L59.9538 61.6367L59.961 61.6451C60.1145 61.8242 60.2556 62.0296 60.3569 62.2134C60.4076 62.3052 60.4463 62.388 60.4717 62.4564C60.4945 62.5177 60.5018 62.5551 60.5036 62.5719C60.5027 62.5773 60.5005 62.5895 60.4958 62.6111C60.4876 62.6491 60.4748 62.7021 60.4572 62.7705C60.422 62.907 60.3695 63.0971 60.3012 63.3359C60.1647 63.8128 59.9664 64.478 59.7198 65.2828C59.2267 66.8922 58.5416 69.057 57.7743 71.3864L57.7742 71.3864L57.773 71.3903C56.8686 74.2954 56.1434 76.4571 55.5971 77.9321C55.3238 78.67 55.0966 79.2325 54.9152 79.6289C54.8244 79.8273 54.7468 79.9803 54.6822 80.0914C54.6134 80.2097 54.5718 80.2581 54.5582 80.2698L54.5581 80.2698L54.5548 80.2728C54.3839 80.4246 54.1205 80.552 52.6931 80.6213C51.2883 80.6895 48.8275 80.7033 44.3547 80.7033C41.0367 80.7033 38.5793 80.717 36.9508 80.7582C36.1375 80.7788 35.5258 80.8064 35.1155 80.8431C34.912 80.8613 34.7484 80.8826 34.6318 80.9088C34.5756 80.9215 34.5148 80.9386 34.4626 80.9646C34.4367 80.9776 34.3992 80.9994 34.3652 81.0351C34.3291 81.073 34.287 81.1383 34.287 81.2275C34.287 81.2905 34.3006 81.4016 34.3198 81.5295C34.3401 81.6647 34.3699 81.8378 34.4081 82.0359C34.4843 82.4306 34.595 82.9289 34.7336 83.4286L35.1712 85.2886L35.2166 85.4814H35.4146H44.0256H52.549L53.8517 86.5235L53.8516 86.5236L53.8569 86.5276C54.7408 87.1972 55.371 87.8974 55.7748 88.6659C56.1776 89.4326 56.3622 90.2806 56.3358 91.2578L56.3357 91.2612M25.4428 60.739L56.3357 91.2612M56.3357 91.2612C56.283 95.1065 52.8144 97.78 49.1378 96.7825L56.3357 91.2612ZM54.1358 71.1585L54.1361 71.1574C54.3064 70.6285 54.4724 70.1141 54.6309 69.6229C54.9571 68.612 55.2516 67.6994 55.487 66.9608C55.6618 66.4122 55.8046 65.9582 55.9037 65.6307C55.9532 65.4672 55.9923 65.3334 56.0193 65.2345C56.0327 65.1852 56.0437 65.1424 56.0515 65.1078C56.0571 65.0831 56.0678 65.0356 56.0678 64.9927C56.0678 64.8506 55.9597 64.7839 55.9457 64.7752L55.9452 64.7749C55.9158 64.7567 55.8881 64.7476 55.8755 64.7437C55.8466 64.7347 55.8157 64.729 55.7907 64.7251C55.7375 64.7168 55.6651 64.7094 55.5787 64.7026C55.4039 64.6888 55.1496 64.6756 54.8265 64.6631C54.1792 64.6382 53.2445 64.6159 52.0919 64.5987C49.7864 64.5644 46.6037 64.5507 43.0922 64.5781H30.3686H30.0372L30.1282 64.8968L30.3465 65.6606C30.3654 65.7363 30.3998 65.8772 30.4477 66.0732C30.6834 67.0378 31.245 69.3362 31.8816 71.7463C31.8817 71.7468 31.8819 71.7474 31.882 71.7479L33.1975 77.01L33.2449 77.1994H33.4401H42.7093H51.9785H52.1598L52.2161 77.0271L54.1358 71.1585ZM35.9985 89.9079L35.9985 89.9079L35.9958 89.9045C34.6821 88.2154 32.0931 89.1876 32.0931 91.3743C32.0931 93.4147 34.7491 94.3551 35.9967 92.7334L35.9985 92.7309C36.1721 92.4994 36.3315 92.239 36.4485 91.9975C36.5602 91.7673 36.6518 91.5175 36.6518 91.3194C36.6518 91.1214 36.5602 90.8716 36.4485 90.6413C36.3315 90.3999 36.1721 90.1395 35.9985 89.9079ZM52.2882 89.9079L52.2883 89.9079L52.2834 89.9018C52.0455 89.6044 51.796 89.397 51.5041 89.2673C51.2141 89.1384 50.9016 89.0949 50.5525 89.0949C49.9518 89.0949 49.3583 89.3921 48.92 89.8081C48.4829 90.2229 48.1634 90.7916 48.1634 91.3743C48.1634 91.6302 48.2665 91.8922 48.4109 92.1285C48.5575 92.3685 48.7592 92.6025 48.9863 92.8076C49.4295 93.208 50.0225 93.5439 50.5525 93.5439C51.0825 93.5439 51.6754 93.208 52.1187 92.8076C52.3457 92.6025 52.5474 92.3685 52.694 92.1285C52.8385 91.8922 52.9415 91.6302 52.9415 91.3743C52.9415 91.1535 52.8536 90.8934 52.7395 90.6508C52.6218 90.4008 52.4619 90.1395 52.2882 89.9079Z" fill="#434343" stroke="white" strokeWidth="0.5"/>
<path d="M36.2265 119.455L36.2251 119.453C34.7998 117.869 34.3875 116.042 34.9598 114.216C35.6449 112.322 36.9528 111.061 39.0738 110.371C39.2396 110.324 39.5309 110.285 39.8661 110.265C40.1996 110.245 40.5562 110.245 40.8419 110.271C45.5267 110.746 47.6133 115.992 44.5188 119.454L44.5179 119.455C43.9029 120.15 43.3276 120.603 42.6848 120.886C42.0413 121.169 41.3109 121.29 40.3722 121.29C39.4335 121.29 38.7031 121.169 38.0596 120.886C37.4167 120.603 36.8414 120.15 36.2265 119.455L36.2265 119.455ZM40.3722 117.841C41.361 117.841 42.1032 117.357 42.4167 116.666C42.7303 115.974 42.5906 115.127 41.926 114.458C41.7144 114.218 41.4463 114.01 41.1839 113.868C40.9387 113.735 40.6526 113.634 40.4074 113.666C40.1611 113.671 39.9054 113.767 39.6715 113.899C39.4276 114.037 39.1871 114.227 38.9751 114.439C38.763 114.651 38.5735 114.891 38.4355 115.135C38.2996 115.375 38.2025 115.638 38.2025 115.891C38.2025 116.398 38.5016 116.886 38.8968 117.236C39.2949 117.589 39.8315 117.841 40.3722 117.841Z" fill="#434343" stroke="white" strokeWidth="0.5"/>
</svg>
