<svg width="101" height="103" viewBox="0 0 101 103" fill="none" xmlns="http://www.w3.org/2000/svg">
<mask id="path-1-inside-1_6146_4452" fill="white">
<path d="M48.229 0.949837C47.3659 1.10353 46.5383 1.75379 46.089 2.64052C45.8053 3.1962 45.8053 3.25531 45.8053 6.37657C45.8053 8.68205 45.7698 9.5806 45.6634 9.687C45.557 9.79341 44.8121 9.82888 43.015 9.82888C40.7923 9.82888 40.4613 9.85252 40.0002 10.0535C39.1489 10.4318 38.4987 11.2476 38.2622 12.2171C38.0612 13.0093 38.0849 19.7956 38.2859 20.3513C38.3686 20.5878 38.6524 20.9306 38.9361 21.1435L39.4445 21.5336H44.0318C46.9166 21.5336 48.6546 21.5809 48.7019 21.6518C48.7374 21.711 48.7728 24.5958 48.7728 28.0599C48.7728 35.0354 48.8083 34.6571 48.0043 34.6571C47.3186 34.6571 45.4506 35.2955 44.1382 35.9694C42.885 36.6079 42.2938 37.0099 41.3598 37.8138C40.9578 38.1567 40.5677 38.4404 40.4731 38.4404C40.3785 38.4404 37.8129 35.9458 34.7626 32.8955C30.7073 28.8402 29.2413 27.3032 29.2886 27.1613C29.3359 27.0549 29.4896 26.9131 29.6314 26.8539C29.9743 26.7002 30.2581 26.5229 30.8492 26.0854C31.4758 25.6125 31.6768 25.3761 32.0551 24.6667C32.3271 24.1583 32.3625 23.9337 32.3625 23.0115C32.3625 22.1011 32.3271 21.8647 32.0551 21.3563C31.7123 20.6705 30.9438 19.8902 30.2581 19.5237C29.998 19.3818 29.6314 19.169 29.4305 19.039C29.2413 18.9207 28.9694 18.767 28.8275 18.7079C28.6974 18.6488 28.2363 18.3887 27.8225 18.1404C27.4087 17.8803 26.9831 17.632 26.8885 17.5847C26.7939 17.5375 26.6048 17.4429 26.4747 17.3601C26.3447 17.2773 25.7299 16.9227 25.1151 16.568C24.5003 16.2133 23.8855 15.8586 23.7554 15.7758C23.6254 15.6931 23.4362 15.5867 23.3416 15.5394C23.247 15.4921 22.6559 15.161 22.0411 14.7945C21.4263 14.428 20.8352 14.097 20.7406 14.0497C20.646 14.0024 20.3031 13.8014 19.9721 13.6004C18.9317 12.9738 18.3405 12.7492 17.5838 12.69C15.9523 12.5718 14.3443 13.6359 13.7296 15.2438C13.5522 15.6931 13.5286 16.5443 13.5286 23.0706V30.4008L13.9069 31.1811C14.3089 31.9969 14.8646 32.5644 15.704 33.0255C16.106 33.2383 16.3897 33.2856 17.3119 33.2856C18.3878 33.2975 18.4706 33.2738 19.2036 32.8718C20.5396 32.127 21.1307 31.7959 21.982 31.2876C22.4431 31.0275 22.8924 30.7673 22.9869 30.7201C23.0815 30.6728 23.3298 30.5309 23.519 30.4008C23.72 30.2708 23.9564 30.1289 24.051 30.0816C24.1456 30.0343 24.4766 29.857 24.7722 29.6678C25.0678 29.4905 25.4225 29.3368 25.5643 29.3368C25.7299 29.3368 27.7989 31.3348 31.9015 35.4374C35.2592 38.7833 38.0021 41.5854 38.0021 41.6445C38.0021 41.7036 37.8484 42.0583 37.6592 42.4248C37.4701 42.8031 37.2454 43.3233 37.139 43.5834C37.0444 43.8435 36.8789 44.2692 36.7843 44.5293C36.6779 44.7894 36.5715 45.1441 36.5361 45.3096C36.4769 45.5697 36.3469 45.6525 35.7321 45.8298C35.3183 45.948 34.4789 46.2909 33.8641 46.5865C32.8709 47.0594 32.599 47.2604 31.5468 48.3244L30.3408 49.5304L26.2264 49.554C23.9564 49.5659 22.0175 49.5777 21.911 49.5659C21.7573 49.554 21.7101 49.3649 21.6509 48.5727C21.4736 46.0308 20.0903 44.2337 17.6075 43.3233C17.0636 43.1342 16.5316 43.1105 11.164 43.1105C5.65447 43.1105 5.27614 43.1223 4.66134 43.347C3.37264 43.7962 2.3204 44.6357 1.57555 45.7825C0.783412 47.0121 0.759766 47.1658 0.759766 51.4457C0.759766 55.5601 0.759766 55.5719 1.41003 56.8606C1.74107 57.4991 2.93519 58.6932 3.62092 59.0479C4.96874 59.7691 5.47713 59.84 10.1236 59.84H14.3325L14.9119 60.2656C15.4557 60.6913 16.9572 61.9445 17.0755 62.0982C17.17 62.2164 18.5297 63.316 18.8489 63.5406C19.2982 63.8598 20.2322 63.8125 20.776 63.446C21.6273 62.8549 21.6155 62.9022 21.6864 57.9483L21.7455 53.5147H25.2924H28.8393L28.8511 54.4606C28.8866 57.5464 30.1398 60.1119 32.4453 61.8736C33.2493 62.4884 34.7271 63.2568 35.3301 63.3751C35.5193 63.4224 35.7084 63.5288 35.7321 63.6115C35.7676 63.7061 33.6394 65.9052 30.6955 68.8609C25.8836 73.6729 25.588 73.933 25.2806 73.862C24.3466 73.6374 24.0746 73.5665 23.6963 73.4364C23.2352 73.2709 22.6677 73.0936 21.6273 72.7862C21.2371 72.6679 20.7288 72.5142 20.5041 72.4315C20.2795 72.3487 19.7711 72.195 19.3809 72.0768C17.9858 71.663 17.4774 71.5093 17.04 71.3438C16.2833 71.0836 15.6331 71.1428 15.0892 71.5447C14.8173 71.7339 14.5099 72.0295 14.4035 72.195C14.1434 72.597 14.1197 73.6847 14.368 74.3823C14.4744 74.6778 14.6399 75.2099 14.7463 75.5646C14.8527 75.9192 15.101 76.7232 15.302 77.338C15.7513 78.7686 15.9286 79.3479 16.1887 80.2346C16.307 80.6248 16.4725 81.1213 16.5552 81.3342C16.6498 81.547 16.7208 81.8189 16.7208 81.9489C16.7208 82.079 16.7917 82.3509 16.8863 82.5637C16.9809 82.7766 17.1464 83.2731 17.2528 83.6633C17.371 84.0534 17.5247 84.5618 17.6075 84.7865C17.6902 85.0111 17.8439 85.5195 17.9622 85.9096C18.5533 87.8959 18.778 88.2861 19.5819 88.6999C20.1376 88.9836 20.6342 88.9836 21.2017 88.6999C21.6628 88.4634 22.384 87.7304 22.6441 87.2456C22.8451 86.8791 24.4885 84.7037 24.6422 84.6091C24.7131 84.5618 25.4461 85.1884 26.2855 86.016C27.7398 87.4585 27.8107 87.5176 28.39 87.5767C29.6906 87.7304 30.5536 86.9974 30.5536 85.7441C30.5536 84.9638 30.3645 84.6919 28.7447 83.0721C28.1772 82.5165 27.6688 81.9608 27.6097 81.8425C27.5033 81.6534 27.6097 81.547 28.3073 81.0504C29.8443 79.9745 31.2039 78.9459 31.4049 78.6976C31.7478 78.2838 31.8778 77.539 31.7123 76.9124C31.5468 76.2976 30.8729 75.6237 30.2699 75.47C30.0807 75.4227 29.9034 75.3281 29.8797 75.2572C29.8561 75.198 32.4098 72.5852 35.5547 69.4403L41.2534 63.7416H44.9422C47.0112 63.7416 48.6546 63.7889 48.6901 63.848C48.7846 64.0017 48.7965 81.2041 48.7019 81.346C48.6664 81.4169 48.2999 81.476 47.8861 81.476C45.4742 81.476 43.3106 83.0721 42.483 85.4722C42.2702 86.0752 42.2584 86.5481 42.2584 91.8684C42.2584 98.241 42.2347 98.0282 43.0623 99.4706C43.4761 100.192 44.4693 101.149 45.1195 101.469C46.4792 102.143 46.1718 102.107 51.5394 102.107H56.505L57.3326 101.705C58.3139 101.22 59.7091 99.8962 60.0756 99.0922C60.7022 97.709 60.7022 97.6853 60.7022 91.8329C60.7022 86.8082 60.6785 86.3234 60.4776 85.6614C59.8391 83.6396 58.5031 82.3273 56.3986 81.6652C55.9848 81.5351 55.3346 81.476 54.2468 81.476C52.9345 81.476 52.6744 81.4524 52.6153 81.2869C52.5798 81.1805 52.5443 77.2552 52.5443 72.5615C52.5443 66.0825 52.5798 63.9899 52.6862 63.8835C52.7926 63.7771 53.7976 63.7416 56.505 63.7416H60.182L65.727 69.2984C68.7891 72.3605 71.2956 74.8788 71.3192 74.9025C71.331 74.9261 71.2128 75.2453 71.0355 75.6237C70.1487 77.6572 69.8532 79.6435 70.1724 81.5824C70.5271 83.746 71.4729 85.6968 72.8917 87.1511C73.5301 87.8013 74.9134 88.9245 75.0789 88.9245C75.1262 88.9245 75.2563 88.9954 75.3508 89.0782C75.6346 89.3147 77.2189 89.9294 78.1056 90.1541C79.2524 90.426 81.8062 90.4142 83.0121 90.1186C85.0457 89.6102 85.9797 89.1018 86.358 88.2861C86.6418 87.6476 86.6536 87.3757 86.4053 86.8791C86.0979 86.288 85.6368 85.8624 85.1521 85.7205C84.7028 85.6022 83.9343 85.6732 83.6979 85.8505C83.6387 85.9096 83.2368 86.0633 82.8111 86.2052C81.7825 86.5599 79.2642 86.5954 78.4366 86.2643C77.3726 85.8505 76.9351 85.6022 76.2494 85.0466C75.54 84.4791 74.5587 83.2377 74.5469 82.883C74.5351 82.7884 74.4759 82.6465 74.4168 82.5874C74.2158 82.3864 73.8257 80.6602 73.8257 79.9982C73.8375 79.2533 74.1804 77.9173 74.6178 77.0188C75.0198 76.1793 76.4977 74.666 77.2543 74.3113C78.6967 73.6256 78.7795 73.6138 80.3874 73.6138C81.9953 73.6138 82.1136 73.6374 83.5087 74.3113C84.1353 74.6069 85.3058 75.6591 85.6605 76.2266C86.0033 76.7823 86.027 77.9883 85.7078 78.473C85.2467 79.206 84.4072 79.6908 83.6151 79.7026C82.9885 79.7026 82.3382 79.1233 82.3382 78.5676C82.3382 78.1065 82.0072 77.3735 81.6761 77.0897C81.5461 76.9833 81.215 76.8178 80.9313 76.6996C80.4584 76.5222 80.3638 76.5222 79.7017 76.6877C77.9992 77.1252 77.0179 78.3429 77.0179 80.0455C77.0179 81.7598 78.0347 82.9894 79.7726 83.3677C80.3165 83.4978 80.5293 83.4978 80.9076 83.3677C81.2032 83.2731 81.5934 83.2495 81.9481 83.2968C83.8397 83.5569 84.7383 83.4859 86.2516 82.9539C86.9019 82.7293 88.0723 81.7598 88.628 81.0031C90.0586 79.076 90.165 76.3567 88.9118 74.2167C88.4389 73.4009 87.162 72.1004 86.2516 71.4975C85.3885 70.93 84.1117 70.3033 83.5678 70.1851C83.3786 70.1378 82.9885 70.0196 82.6929 69.925C81.9008 69.6649 78.9214 69.6767 78.011 69.9486C76.6277 70.3506 75.5282 70.8472 74.4996 71.5211C74.1804 71.7339 73.8611 71.8876 73.8139 71.8758C73.5419 71.7812 65.6678 63.7771 65.6915 63.6234C65.7151 63.5288 65.9161 63.4105 66.1408 63.3751C66.8383 63.2332 68.4935 62.5356 69.2738 62.0509C70.598 61.2233 72.2059 59.6981 72.9862 58.5395C73.8375 57.2508 74.7242 55.1463 74.8779 53.9876L74.9489 53.5147L79.1105 53.4793L83.2722 53.4556L83.8634 54.6261C85.5422 58.0429 88.1078 60.7858 90.3778 61.6135C91.3473 61.9681 91.7848 61.9918 92.6242 61.7553C94.0902 61.3179 95.6509 60.2065 96.8805 58.705C97.2351 58.2794 97.5898 57.8538 97.6489 57.7828C98.2165 57.1562 99.3633 55.2291 99.848 54.1059C100.522 52.5452 100.829 51.0674 100.747 49.8023C100.628 48.0762 100.321 47.0712 99.4579 45.5933C98.5593 44.0445 96.8805 42.5548 95.3435 41.94C95.0479 41.8218 94.6814 41.6681 94.5159 41.609C94.0666 41.4198 92.4114 41.1597 91.6784 41.1597C90.969 41.1597 89.5029 41.408 88.8408 41.6326C86.6418 42.3775 84.62 44.1628 83.6624 46.1845C83.1895 47.1894 83.0831 47.5205 82.8584 48.5254L82.6338 49.554L78.815 49.5304L74.9843 49.4949L74.7479 48.7264C74.2631 47.154 73.6956 45.9007 72.9862 44.8248C72.2296 43.6898 70.5744 42.1174 69.2738 41.3134C68.8955 41.077 67.3231 40.3321 67.2048 40.3321C67.1457 40.3321 66.9211 40.2612 66.7083 40.1666C66.4954 40.072 66.1171 39.9538 65.8688 39.9183C65.5614 39.871 65.4314 39.7883 65.455 39.6819C65.4787 39.5873 67.7841 37.2109 70.5862 34.397L75.6819 29.2658L77.5617 29.2776C79.5835 29.2776 80.1628 29.1712 81.416 28.5801C81.7707 28.4146 82.1609 28.2727 82.2673 28.2727C82.3855 28.2727 83.5914 29.3841 84.9511 30.7437C87.1383 32.9309 87.4812 33.2265 87.895 33.2975C89.4675 33.5694 90.5552 32.4107 90.1532 30.8974C90.035 30.4954 89.6093 30.0107 87.5994 28.0008C86.2634 26.6648 85.1757 25.4825 85.1757 25.3643C85.1757 25.2578 85.3176 24.8677 85.4831 24.5248C86.76 21.8055 86.4171 18.4478 84.5964 16.0359C83.9343 15.1492 83.7333 14.9482 82.9294 14.3571C80.5175 12.56 77.7154 12.1935 74.7715 13.2812C73.1399 13.8842 71.3547 15.5275 70.5389 17.1709C69.3684 19.5355 69.262 21.64 70.1842 24.1347C70.4325 24.8086 71.0473 25.8017 71.6266 26.4756C71.9222 26.8303 72.1705 27.1613 72.1705 27.2205C72.1705 27.3623 61.4352 38.1803 61.1278 38.3459C60.9623 38.4404 60.8441 38.3932 60.5958 38.1685C58.8342 36.5251 55.9257 35.0946 53.4902 34.6571C53.1118 34.5862 52.769 34.4561 52.6862 34.3379C52.5562 34.1605 52.5325 32.9073 52.568 27.9417C52.6035 22.6095 52.6271 21.7464 52.7808 21.6518C52.8872 21.5809 55.1099 21.5336 58.2194 21.5336C64.0244 21.5336 63.7643 21.5691 64.391 20.7651L64.6629 20.4104V13.7305V7.05048L64.3318 6.4948C63.989 5.9273 63.4096 5.40709 62.7712 5.09969C62.5111 4.96964 61.7544 4.91053 59.8155 4.86324L57.2144 4.80412L57.1435 3.97651C57.0962 3.51542 56.978 2.94791 56.8715 2.71146C56.6351 2.15578 55.9967 1.51733 55.3464 1.17447C54.8735 0.914368 54.7198 0.902542 51.7759 0.878899C50.0852 0.867073 48.4891 0.902542 48.229 0.949837ZM53.1946 11.1885V17.6911L51.6576 17.7266C50.8182 17.7384 50.0024 17.7266 49.8605 17.6911L49.5886 17.632V11.2713C49.5886 6.40022 49.6241 4.87506 49.7305 4.76865C49.8369 4.66225 50.3453 4.62678 51.5394 4.65042L53.1946 4.68589V11.1885ZM60.9386 13.1984V17.632L60.6785 17.6911C60.5248 17.7266 59.6854 17.7384 58.8105 17.7266L57.2144 17.6911L57.1789 13.2221L57.1553 8.76481H59.047H60.9386V13.1984ZM45.6634 13.7541C45.8644 13.9551 45.8644 17.4074 45.6634 17.6084C45.5688 17.703 44.9895 17.7503 43.8545 17.7503C42.7195 17.7503 42.1401 17.703 42.0456 17.6084C41.8919 17.4547 41.8327 14.1679 41.9746 13.8014C42.0337 13.6359 42.3057 13.6122 43.7835 13.6122C44.9776 13.6122 45.5688 13.6595 45.6634 13.7541ZM79.8554 16.9581C80.2101 17.1355 80.6357 17.3956 80.8012 17.5493C81.2741 17.9749 81.9835 18.8853 81.9835 19.0744C81.9835 19.1572 82.0426 19.2991 82.1136 19.37C82.4801 19.7365 82.4683 21.8174 82.0781 22.846C81.7707 23.6736 80.5884 24.7849 79.5362 25.246C78.8623 25.5416 76.9942 25.5534 76.4267 25.2697C76.2139 25.1633 75.9775 25.0805 75.9183 25.0805C75.7765 25.0805 74.8188 24.312 74.4523 23.8982C74.2986 23.7327 74.0267 23.2716 73.8257 22.8578C73.5065 22.1957 73.471 22.0065 73.471 21.0016C73.471 19.9966 73.5065 19.7956 73.8257 19.1217C74.2513 18.235 75.1971 17.2773 76.0366 16.899C77.1479 16.4024 78.7677 16.4261 79.8554 16.9581ZM18.1395 16.9699C18.2341 17.0172 18.4233 17.1118 18.5533 17.1946C18.6834 17.2773 19.2982 17.632 19.913 17.9867C20.5278 18.3414 21.1426 18.6961 21.2726 18.7789C21.4027 18.8616 21.5918 18.9562 21.6864 19.0035C21.781 19.0508 22.3721 19.3937 22.9869 19.7602C23.6017 20.1267 24.1929 20.4577 24.2875 20.505C24.382 20.5523 24.5712 20.6587 24.7013 20.7415C24.8313 20.8242 25.4461 21.1789 26.0609 21.5336C26.6757 21.8883 27.2905 22.243 27.4205 22.3258C27.5506 22.4085 27.7634 22.5149 27.8935 22.5859C28.2363 22.7396 28.4846 23.0588 28.3546 23.177C28.2954 23.2361 27.9289 23.4489 27.5388 23.6617C27.1486 23.8864 26.4629 24.2765 26.0018 24.5485C25.5525 24.8086 25.0914 25.0687 24.9968 25.116C24.9023 25.1633 24.6658 25.3051 24.4648 25.4352C24.2756 25.5652 24.0274 25.7071 23.9328 25.7544C23.8382 25.8017 23.3889 26.0618 22.9278 26.3219C22.4785 26.5938 22.0175 26.8421 21.9229 26.8894C21.8283 26.9367 21.5918 27.0786 21.3908 27.2086C21.2017 27.3387 20.9534 27.4806 20.8588 27.5279C20.646 27.6224 18.3996 28.9348 18.1395 29.1003C17.8085 29.3249 17.6666 29.3604 17.4893 29.2895C17.3356 29.2304 17.3119 28.4264 17.3119 22.9642C17.3119 16.4616 17.3237 16.367 17.7848 16.7453C17.8794 16.8162 18.0449 16.9227 18.1395 16.9699ZM52.8517 38.4286C55.1454 38.937 56.6114 39.7055 58.3258 41.3371C58.7396 41.7272 59.2007 42.2474 59.3662 42.4957C59.9219 43.3706 60.2411 43.4652 62.653 43.477C64.9348 43.4889 65.2895 43.5598 66.7792 44.3046C68.2571 45.0495 69.7113 46.5274 70.4207 48.017C71.4611 50.2279 71.5793 52.3443 70.7754 54.4606C70.1251 56.1749 69.3566 57.2271 68.0324 58.2203C67.0038 59.0006 66.7201 59.1543 65.3723 59.639L64.6629 59.8991H50.6527H36.6425L35.7557 59.4499C32.3389 57.7119 31.6532 53.5738 34.3252 50.9018C35.0582 50.157 36.1695 49.6013 37.1154 49.4949C39.1371 49.2703 39.6218 48.9629 39.9411 47.7215C40.0475 47.3431 40.1302 46.9057 40.1302 46.7638C40.1302 46.6338 40.2721 46.149 40.4376 45.6997C40.6032 45.2505 40.7687 44.7776 40.816 44.6475C40.8987 44.3756 41.4308 43.4416 41.9155 42.744C42.4002 42.0346 43.8663 40.604 44.623 40.1075C47.1531 38.4286 50.097 37.8375 52.8517 38.4286ZM92.9789 45.1677C94.575 45.6288 95.71 46.551 96.4075 47.9579C96.774 48.691 96.8213 48.9156 96.8568 49.8733C96.8923 50.76 96.8568 51.1028 96.644 51.694C96.4194 52.3679 95.8755 53.5502 95.5445 54.1059C94.6814 55.5483 92.9907 57.4163 92.1158 57.8892L91.6902 58.1139L91.0163 57.6528C89.4675 56.5887 87.5758 53.9522 86.8309 51.824C86.4053 50.6181 86.5945 48.3244 87.1738 47.7451C87.2447 47.6742 87.3039 47.556 87.3039 47.4732C87.3039 47.2367 88.5216 46.0544 89.1009 45.7234C89.8103 45.3214 90.9926 44.9667 91.6784 44.9549C91.9739 44.9431 92.5533 45.0377 92.9789 45.1677ZM16.638 47.0594C16.9336 47.1658 17.2173 47.3786 17.442 47.686L17.7848 48.1707V52.829C17.7848 55.3828 17.7375 57.4754 17.6784 57.4754C17.6311 57.4754 17.3474 57.2981 17.0636 57.0853C15.6331 56.033 15.0656 55.9384 10.029 55.9384C5.47713 55.9266 5.4653 55.9266 4.87416 55.1699C4.60223 54.8271 4.60223 54.8034 4.60223 51.4457C4.60223 48.289 4.61405 48.0525 4.82686 47.7688C5.19338 47.3077 5.55989 47.0712 6.11557 46.9648C6.99047 46.8111 16.1296 46.8939 16.638 47.0594ZM20.1494 76.3212C20.3741 76.4158 20.8824 76.5695 21.2726 76.6877C21.6628 76.806 22.1948 76.9597 22.4549 77.0424C22.916 77.1961 25.2569 77.9055 25.5643 78.0001C25.8008 78.071 25.6589 78.2247 24.4293 79.1587C23.0933 80.1755 22.8096 80.4711 21.8638 81.8071C21.0834 82.8948 21.0007 82.9066 20.7288 81.8898C20.6578 81.6297 20.5278 81.2277 20.445 81.0031C20.3622 80.7785 20.2085 80.2937 20.1021 79.939C20.0075 79.5844 19.7829 78.8632 19.6174 78.3429C19.2863 77.3143 19.109 76.7232 19.0026 76.3094C18.9435 76.0611 18.9671 76.0375 19.3336 76.1084C19.5583 76.1439 19.9248 76.2385 20.1494 76.3212ZM56.2922 85.9096L56.8006 86.4417V91.8566V97.2715L56.4223 97.6735C55.8902 98.2055 55.4173 98.3829 54.436 98.3829H53.6084V97.7326C53.6084 96.9878 53.2774 96.2547 52.7926 95.9237C51.7049 95.167 50.5699 95.3089 49.7778 96.2902C49.4704 96.6685 49.3994 96.8814 49.3521 97.5316L49.293 98.3238L48.5245 98.3592C47.5669 98.4065 46.9876 98.2292 46.491 97.709L46.1008 97.307V91.9039V86.5008L46.3728 86.1461C46.9994 85.354 46.8457 85.3776 51.5276 85.3776H55.772L56.2922 85.9096Z"/>
</mask>
<path d="M48.229 0.949837C47.3659 1.10353 46.5383 1.75379 46.089 2.64052C45.8053 3.1962 45.8053 3.25531 45.8053 6.37657C45.8053 8.68205 45.7698 9.5806 45.6634 9.687C45.557 9.79341 44.8121 9.82888 43.015 9.82888C40.7923 9.82888 40.4613 9.85252 40.0002 10.0535C39.1489 10.4318 38.4987 11.2476 38.2622 12.2171C38.0612 13.0093 38.0849 19.7956 38.2859 20.3513C38.3686 20.5878 38.6524 20.9306 38.9361 21.1435L39.4445 21.5336H44.0318C46.9166 21.5336 48.6546 21.5809 48.7019 21.6518C48.7374 21.711 48.7728 24.5958 48.7728 28.0599C48.7728 35.0354 48.8083 34.6571 48.0043 34.6571C47.3186 34.6571 45.4506 35.2955 44.1382 35.9694C42.885 36.6079 42.2938 37.0099 41.3598 37.8138C40.9578 38.1567 40.5677 38.4404 40.4731 38.4404C40.3785 38.4404 37.8129 35.9458 34.7626 32.8955C30.7073 28.8402 29.2413 27.3032 29.2886 27.1613C29.3359 27.0549 29.4896 26.9131 29.6314 26.8539C29.9743 26.7002 30.2581 26.5229 30.8492 26.0854C31.4758 25.6125 31.6768 25.3761 32.0551 24.6667C32.3271 24.1583 32.3625 23.9337 32.3625 23.0115C32.3625 22.1011 32.3271 21.8647 32.0551 21.3563C31.7123 20.6705 30.9438 19.8902 30.2581 19.5237C29.998 19.3818 29.6314 19.169 29.4305 19.039C29.2413 18.9207 28.9694 18.767 28.8275 18.7079C28.6974 18.6488 28.2363 18.3887 27.8225 18.1404C27.4087 17.8803 26.9831 17.632 26.8885 17.5847C26.7939 17.5375 26.6048 17.4429 26.4747 17.3601C26.3447 17.2773 25.7299 16.9227 25.1151 16.568C24.5003 16.2133 23.8855 15.8586 23.7554 15.7758C23.6254 15.6931 23.4362 15.5867 23.3416 15.5394C23.247 15.4921 22.6559 15.161 22.0411 14.7945C21.4263 14.428 20.8352 14.097 20.7406 14.0497C20.646 14.0024 20.3031 13.8014 19.9721 13.6004C18.9317 12.9738 18.3405 12.7492 17.5838 12.69C15.9523 12.5718 14.3443 13.6359 13.7296 15.2438C13.5522 15.6931 13.5286 16.5443 13.5286 23.0706V30.4008L13.9069 31.1811C14.3089 31.9969 14.8646 32.5644 15.704 33.0255C16.106 33.2383 16.3897 33.2856 17.3119 33.2856C18.3878 33.2975 18.4706 33.2738 19.2036 32.8718C20.5396 32.127 21.1307 31.7959 21.982 31.2876C22.4431 31.0275 22.8924 30.7673 22.9869 30.7201C23.0815 30.6728 23.3298 30.5309 23.519 30.4008C23.72 30.2708 23.9564 30.1289 24.051 30.0816C24.1456 30.0343 24.4766 29.857 24.7722 29.6678C25.0678 29.4905 25.4225 29.3368 25.5643 29.3368C25.7299 29.3368 27.7989 31.3348 31.9015 35.4374C35.2592 38.7833 38.0021 41.5854 38.0021 41.6445C38.0021 41.7036 37.8484 42.0583 37.6592 42.4248C37.4701 42.8031 37.2454 43.3233 37.139 43.5834C37.0444 43.8435 36.8789 44.2692 36.7843 44.5293C36.6779 44.7894 36.5715 45.1441 36.5361 45.3096C36.4769 45.5697 36.3469 45.6525 35.7321 45.8298C35.3183 45.948 34.4789 46.2909 33.8641 46.5865C32.8709 47.0594 32.599 47.2604 31.5468 48.3244L30.3408 49.5304L26.2264 49.554C23.9564 49.5659 22.0175 49.5777 21.911 49.5659C21.7573 49.554 21.7101 49.3649 21.6509 48.5727C21.4736 46.0308 20.0903 44.2337 17.6075 43.3233C17.0636 43.1342 16.5316 43.1105 11.164 43.1105C5.65447 43.1105 5.27614 43.1223 4.66134 43.347C3.37264 43.7962 2.3204 44.6357 1.57555 45.7825C0.783412 47.0121 0.759766 47.1658 0.759766 51.4457C0.759766 55.5601 0.759766 55.5719 1.41003 56.8606C1.74107 57.4991 2.93519 58.6932 3.62092 59.0479C4.96874 59.7691 5.47713 59.84 10.1236 59.84H14.3325L14.9119 60.2656C15.4557 60.6913 16.9572 61.9445 17.0755 62.0982C17.17 62.2164 18.5297 63.316 18.8489 63.5406C19.2982 63.8598 20.2322 63.8125 20.776 63.446C21.6273 62.8549 21.6155 62.9022 21.6864 57.9483L21.7455 53.5147H25.2924H28.8393L28.8511 54.4606C28.8866 57.5464 30.1398 60.1119 32.4453 61.8736C33.2493 62.4884 34.7271 63.2568 35.3301 63.3751C35.5193 63.4224 35.7084 63.5288 35.7321 63.6115C35.7676 63.7061 33.6394 65.9052 30.6955 68.8609C25.8836 73.6729 25.588 73.933 25.2806 73.862C24.3466 73.6374 24.0746 73.5665 23.6963 73.4364C23.2352 73.2709 22.6677 73.0936 21.6273 72.7862C21.2371 72.6679 20.7288 72.5142 20.5041 72.4315C20.2795 72.3487 19.7711 72.195 19.3809 72.0768C17.9858 71.663 17.4774 71.5093 17.04 71.3438C16.2833 71.0836 15.6331 71.1428 15.0892 71.5447C14.8173 71.7339 14.5099 72.0295 14.4035 72.195C14.1434 72.597 14.1197 73.6847 14.368 74.3823C14.4744 74.6778 14.6399 75.2099 14.7463 75.5646C14.8527 75.9192 15.101 76.7232 15.302 77.338C15.7513 78.7686 15.9286 79.3479 16.1887 80.2346C16.307 80.6248 16.4725 81.1213 16.5552 81.3342C16.6498 81.547 16.7208 81.8189 16.7208 81.9489C16.7208 82.079 16.7917 82.3509 16.8863 82.5637C16.9809 82.7766 17.1464 83.2731 17.2528 83.6633C17.371 84.0534 17.5247 84.5618 17.6075 84.7865C17.6902 85.0111 17.8439 85.5195 17.9622 85.9096C18.5533 87.8959 18.778 88.2861 19.5819 88.6999C20.1376 88.9836 20.6342 88.9836 21.2017 88.6999C21.6628 88.4634 22.384 87.7304 22.6441 87.2456C22.8451 86.8791 24.4885 84.7037 24.6422 84.6091C24.7131 84.5618 25.4461 85.1884 26.2855 86.016C27.7398 87.4585 27.8107 87.5176 28.39 87.5767C29.6906 87.7304 30.5536 86.9974 30.5536 85.7441C30.5536 84.9638 30.3645 84.6919 28.7447 83.0721C28.1772 82.5165 27.6688 81.9608 27.6097 81.8425C27.5033 81.6534 27.6097 81.547 28.3073 81.0504C29.8443 79.9745 31.2039 78.9459 31.4049 78.6976C31.7478 78.2838 31.8778 77.539 31.7123 76.9124C31.5468 76.2976 30.8729 75.6237 30.2699 75.47C30.0807 75.4227 29.9034 75.3281 29.8797 75.2572C29.8561 75.198 32.4098 72.5852 35.5547 69.4403L41.2534 63.7416H44.9422C47.0112 63.7416 48.6546 63.7889 48.6901 63.848C48.7846 64.0017 48.7965 81.2041 48.7019 81.346C48.6664 81.4169 48.2999 81.476 47.8861 81.476C45.4742 81.476 43.3106 83.0721 42.483 85.4722C42.2702 86.0752 42.2584 86.5481 42.2584 91.8684C42.2584 98.241 42.2347 98.0282 43.0623 99.4706C43.4761 100.192 44.4693 101.149 45.1195 101.469C46.4792 102.143 46.1718 102.107 51.5394 102.107H56.505L57.3326 101.705C58.3139 101.22 59.7091 99.8962 60.0756 99.0922C60.7022 97.709 60.7022 97.6853 60.7022 91.8329C60.7022 86.8082 60.6785 86.3234 60.4776 85.6614C59.8391 83.6396 58.5031 82.3273 56.3986 81.6652C55.9848 81.5351 55.3346 81.476 54.2468 81.476C52.9345 81.476 52.6744 81.4524 52.6153 81.2869C52.5798 81.1805 52.5443 77.2552 52.5443 72.5615C52.5443 66.0825 52.5798 63.9899 52.6862 63.8835C52.7926 63.7771 53.7976 63.7416 56.505 63.7416H60.182L65.727 69.2984C68.7891 72.3605 71.2956 74.8788 71.3192 74.9025C71.331 74.9261 71.2128 75.2453 71.0355 75.6237C70.1487 77.6572 69.8532 79.6435 70.1724 81.5824C70.5271 83.746 71.4729 85.6968 72.8917 87.1511C73.5301 87.8013 74.9134 88.9245 75.0789 88.9245C75.1262 88.9245 75.2563 88.9954 75.3508 89.0782C75.6346 89.3147 77.2189 89.9294 78.1056 90.1541C79.2524 90.426 81.8062 90.4142 83.0121 90.1186C85.0457 89.6102 85.9797 89.1018 86.358 88.2861C86.6418 87.6476 86.6536 87.3757 86.4053 86.8791C86.0979 86.288 85.6368 85.8624 85.1521 85.7205C84.7028 85.6022 83.9343 85.6732 83.6979 85.8505C83.6387 85.9096 83.2368 86.0633 82.8111 86.2052C81.7825 86.5599 79.2642 86.5954 78.4366 86.2643C77.3726 85.8505 76.9351 85.6022 76.2494 85.0466C75.54 84.4791 74.5587 83.2377 74.5469 82.883C74.5351 82.7884 74.4759 82.6465 74.4168 82.5874C74.2158 82.3864 73.8257 80.6602 73.8257 79.9982C73.8375 79.2533 74.1804 77.9173 74.6178 77.0188C75.0198 76.1793 76.4977 74.666 77.2543 74.3113C78.6967 73.6256 78.7795 73.6138 80.3874 73.6138C81.9953 73.6138 82.1136 73.6374 83.5087 74.3113C84.1353 74.6069 85.3058 75.6591 85.6605 76.2266C86.0033 76.7823 86.027 77.9883 85.7078 78.473C85.2467 79.206 84.4072 79.6908 83.6151 79.7026C82.9885 79.7026 82.3382 79.1233 82.3382 78.5676C82.3382 78.1065 82.0072 77.3735 81.6761 77.0897C81.5461 76.9833 81.215 76.8178 80.9313 76.6996C80.4584 76.5222 80.3638 76.5222 79.7017 76.6877C77.9992 77.1252 77.0179 78.3429 77.0179 80.0455C77.0179 81.7598 78.0347 82.9894 79.7726 83.3677C80.3165 83.4978 80.5293 83.4978 80.9076 83.3677C81.2032 83.2731 81.5934 83.2495 81.9481 83.2968C83.8397 83.5569 84.7383 83.4859 86.2516 82.9539C86.9019 82.7293 88.0723 81.7598 88.628 81.0031C90.0586 79.076 90.165 76.3567 88.9118 74.2167C88.4389 73.4009 87.162 72.1004 86.2516 71.4975C85.3885 70.93 84.1117 70.3033 83.5678 70.1851C83.3786 70.1378 82.9885 70.0196 82.6929 69.925C81.9008 69.6649 78.9214 69.6767 78.011 69.9486C76.6277 70.3506 75.5282 70.8472 74.4996 71.5211C74.1804 71.7339 73.8611 71.8876 73.8139 71.8758C73.5419 71.7812 65.6678 63.7771 65.6915 63.6234C65.7151 63.5288 65.9161 63.4105 66.1408 63.3751C66.8383 63.2332 68.4935 62.5356 69.2738 62.0509C70.598 61.2233 72.2059 59.6981 72.9862 58.5395C73.8375 57.2508 74.7242 55.1463 74.8779 53.9876L74.9489 53.5147L79.1105 53.4793L83.2722 53.4556L83.8634 54.6261C85.5422 58.0429 88.1078 60.7858 90.3778 61.6135C91.3473 61.9681 91.7848 61.9918 92.6242 61.7553C94.0902 61.3179 95.6509 60.2065 96.8805 58.705C97.2351 58.2794 97.5898 57.8538 97.6489 57.7828C98.2165 57.1562 99.3633 55.2291 99.848 54.1059C100.522 52.5452 100.829 51.0674 100.747 49.8023C100.628 48.0762 100.321 47.0712 99.4579 45.5933C98.5593 44.0445 96.8805 42.5548 95.3435 41.94C95.0479 41.8218 94.6814 41.6681 94.5159 41.609C94.0666 41.4198 92.4114 41.1597 91.6784 41.1597C90.969 41.1597 89.5029 41.408 88.8408 41.6326C86.6418 42.3775 84.62 44.1628 83.6624 46.1845C83.1895 47.1894 83.0831 47.5205 82.8584 48.5254L82.6338 49.554L78.815 49.5304L74.9843 49.4949L74.7479 48.7264C74.2631 47.154 73.6956 45.9007 72.9862 44.8248C72.2296 43.6898 70.5744 42.1174 69.2738 41.3134C68.8955 41.077 67.3231 40.3321 67.2048 40.3321C67.1457 40.3321 66.9211 40.2612 66.7083 40.1666C66.4954 40.072 66.1171 39.9538 65.8688 39.9183C65.5614 39.871 65.4314 39.7883 65.455 39.6819C65.4787 39.5873 67.7841 37.2109 70.5862 34.397L75.6819 29.2658L77.5617 29.2776C79.5835 29.2776 80.1628 29.1712 81.416 28.5801C81.7707 28.4146 82.1609 28.2727 82.2673 28.2727C82.3855 28.2727 83.5914 29.3841 84.9511 30.7437C87.1383 32.9309 87.4812 33.2265 87.895 33.2975C89.4675 33.5694 90.5552 32.4107 90.1532 30.8974C90.035 30.4954 89.6093 30.0107 87.5994 28.0008C86.2634 26.6648 85.1757 25.4825 85.1757 25.3643C85.1757 25.2578 85.3176 24.8677 85.4831 24.5248C86.76 21.8055 86.4171 18.4478 84.5964 16.0359C83.9343 15.1492 83.7333 14.9482 82.9294 14.3571C80.5175 12.56 77.7154 12.1935 74.7715 13.2812C73.1399 13.8842 71.3547 15.5275 70.5389 17.1709C69.3684 19.5355 69.262 21.64 70.1842 24.1347C70.4325 24.8086 71.0473 25.8017 71.6266 26.4756C71.9222 26.8303 72.1705 27.1613 72.1705 27.2205C72.1705 27.3623 61.4352 38.1803 61.1278 38.3459C60.9623 38.4404 60.8441 38.3932 60.5958 38.1685C58.8342 36.5251 55.9257 35.0946 53.4902 34.6571C53.1118 34.5862 52.769 34.4561 52.6862 34.3379C52.5562 34.1605 52.5325 32.9073 52.568 27.9417C52.6035 22.6095 52.6271 21.7464 52.7808 21.6518C52.8872 21.5809 55.1099 21.5336 58.2194 21.5336C64.0244 21.5336 63.7643 21.5691 64.391 20.7651L64.6629 20.4104V13.7305V7.05048L64.3318 6.4948C63.989 5.9273 63.4096 5.40709 62.7712 5.09969C62.5111 4.96964 61.7544 4.91053 59.8155 4.86324L57.2144 4.80412L57.1435 3.97651C57.0962 3.51542 56.978 2.94791 56.8715 2.71146C56.6351 2.15578 55.9967 1.51733 55.3464 1.17447C54.8735 0.914368 54.7198 0.902542 51.7759 0.878899C50.0852 0.867073 48.4891 0.902542 48.229 0.949837ZM53.1946 11.1885V17.6911L51.6576 17.7266C50.8182 17.7384 50.0024 17.7266 49.8605 17.6911L49.5886 17.632V11.2713C49.5886 6.40022 49.6241 4.87506 49.7305 4.76865C49.8369 4.66225 50.3453 4.62678 51.5394 4.65042L53.1946 4.68589V11.1885ZM60.9386 13.1984V17.632L60.6785 17.6911C60.5248 17.7266 59.6854 17.7384 58.8105 17.7266L57.2144 17.6911L57.1789 13.2221L57.1553 8.76481H59.047H60.9386V13.1984ZM45.6634 13.7541C45.8644 13.9551 45.8644 17.4074 45.6634 17.6084C45.5688 17.703 44.9895 17.7503 43.8545 17.7503C42.7195 17.7503 42.1401 17.703 42.0456 17.6084C41.8919 17.4547 41.8327 14.1679 41.9746 13.8014C42.0337 13.6359 42.3057 13.6122 43.7835 13.6122C44.9776 13.6122 45.5688 13.6595 45.6634 13.7541ZM79.8554 16.9581C80.2101 17.1355 80.6357 17.3956 80.8012 17.5493C81.2741 17.9749 81.9835 18.8853 81.9835 19.0744C81.9835 19.1572 82.0426 19.2991 82.1136 19.37C82.4801 19.7365 82.4683 21.8174 82.0781 22.846C81.7707 23.6736 80.5884 24.7849 79.5362 25.246C78.8623 25.5416 76.9942 25.5534 76.4267 25.2697C76.2139 25.1633 75.9775 25.0805 75.9183 25.0805C75.7765 25.0805 74.8188 24.312 74.4523 23.8982C74.2986 23.7327 74.0267 23.2716 73.8257 22.8578C73.5065 22.1957 73.471 22.0065 73.471 21.0016C73.471 19.9966 73.5065 19.7956 73.8257 19.1217C74.2513 18.235 75.1971 17.2773 76.0366 16.899C77.1479 16.4024 78.7677 16.4261 79.8554 16.9581ZM18.1395 16.9699C18.2341 17.0172 18.4233 17.1118 18.5533 17.1946C18.6834 17.2773 19.2982 17.632 19.913 17.9867C20.5278 18.3414 21.1426 18.6961 21.2726 18.7789C21.4027 18.8616 21.5918 18.9562 21.6864 19.0035C21.781 19.0508 22.3721 19.3937 22.9869 19.7602C23.6017 20.1267 24.1929 20.4577 24.2875 20.505C24.382 20.5523 24.5712 20.6587 24.7013 20.7415C24.8313 20.8242 25.4461 21.1789 26.0609 21.5336C26.6757 21.8883 27.2905 22.243 27.4205 22.3258C27.5506 22.4085 27.7634 22.5149 27.8935 22.5859C28.2363 22.7396 28.4846 23.0588 28.3546 23.177C28.2954 23.2361 27.9289 23.4489 27.5388 23.6617C27.1486 23.8864 26.4629 24.2765 26.0018 24.5485C25.5525 24.8086 25.0914 25.0687 24.9968 25.116C24.9023 25.1633 24.6658 25.3051 24.4648 25.4352C24.2756 25.5652 24.0274 25.7071 23.9328 25.7544C23.8382 25.8017 23.3889 26.0618 22.9278 26.3219C22.4785 26.5938 22.0175 26.8421 21.9229 26.8894C21.8283 26.9367 21.5918 27.0786 21.3908 27.2086C21.2017 27.3387 20.9534 27.4806 20.8588 27.5279C20.646 27.6224 18.3996 28.9348 18.1395 29.1003C17.8085 29.3249 17.6666 29.3604 17.4893 29.2895C17.3356 29.2304 17.3119 28.4264 17.3119 22.9642C17.3119 16.4616 17.3237 16.367 17.7848 16.7453C17.8794 16.8162 18.0449 16.9227 18.1395 16.9699ZM52.8517 38.4286C55.1454 38.937 56.6114 39.7055 58.3258 41.3371C58.7396 41.7272 59.2007 42.2474 59.3662 42.4957C59.9219 43.3706 60.2411 43.4652 62.653 43.477C64.9348 43.4889 65.2895 43.5598 66.7792 44.3046C68.2571 45.0495 69.7113 46.5274 70.4207 48.017C71.4611 50.2279 71.5793 52.3443 70.7754 54.4606C70.1251 56.1749 69.3566 57.2271 68.0324 58.2203C67.0038 59.0006 66.7201 59.1543 65.3723 59.639L64.6629 59.8991H50.6527H36.6425L35.7557 59.4499C32.3389 57.7119 31.6532 53.5738 34.3252 50.9018C35.0582 50.157 36.1695 49.6013 37.1154 49.4949C39.1371 49.2703 39.6218 48.9629 39.9411 47.7215C40.0475 47.3431 40.1302 46.9057 40.1302 46.7638C40.1302 46.6338 40.2721 46.149 40.4376 45.6997C40.6032 45.2505 40.7687 44.7776 40.816 44.6475C40.8987 44.3756 41.4308 43.4416 41.9155 42.744C42.4002 42.0346 43.8663 40.604 44.623 40.1075C47.1531 38.4286 50.097 37.8375 52.8517 38.4286ZM92.9789 45.1677C94.575 45.6288 95.71 46.551 96.4075 47.9579C96.774 48.691 96.8213 48.9156 96.8568 49.8733C96.8923 50.76 96.8568 51.1028 96.644 51.694C96.4194 52.3679 95.8755 53.5502 95.5445 54.1059C94.6814 55.5483 92.9907 57.4163 92.1158 57.8892L91.6902 58.1139L91.0163 57.6528C89.4675 56.5887 87.5758 53.9522 86.8309 51.824C86.4053 50.6181 86.5945 48.3244 87.1738 47.7451C87.2447 47.6742 87.3039 47.556 87.3039 47.4732C87.3039 47.2367 88.5216 46.0544 89.1009 45.7234C89.8103 45.3214 90.9926 44.9667 91.6784 44.9549C91.9739 44.9431 92.5533 45.0377 92.9789 45.1677ZM16.638 47.0594C16.9336 47.1658 17.2173 47.3786 17.442 47.686L17.7848 48.1707V52.829C17.7848 55.3828 17.7375 57.4754 17.6784 57.4754C17.6311 57.4754 17.3474 57.2981 17.0636 57.0853C15.6331 56.033 15.0656 55.9384 10.029 55.9384C5.47713 55.9266 5.4653 55.9266 4.87416 55.1699C4.60223 54.8271 4.60223 54.8034 4.60223 51.4457C4.60223 48.289 4.61405 48.0525 4.82686 47.7688C5.19338 47.3077 5.55989 47.0712 6.11557 46.9648C6.99047 46.8111 16.1296 46.8939 16.638 47.0594ZM20.1494 76.3212C20.3741 76.4158 20.8824 76.5695 21.2726 76.6877C21.6628 76.806 22.1948 76.9597 22.4549 77.0424C22.916 77.1961 25.2569 77.9055 25.5643 78.0001C25.8008 78.071 25.6589 78.2247 24.4293 79.1587C23.0933 80.1755 22.8096 80.4711 21.8638 81.8071C21.0834 82.8948 21.0007 82.9066 20.7288 81.8898C20.6578 81.6297 20.5278 81.2277 20.445 81.0031C20.3622 80.7785 20.2085 80.2937 20.1021 79.939C20.0075 79.5844 19.7829 78.8632 19.6174 78.3429C19.2863 77.3143 19.109 76.7232 19.0026 76.3094C18.9435 76.0611 18.9671 76.0375 19.3336 76.1084C19.5583 76.1439 19.9248 76.2385 20.1494 76.3212ZM56.2922 85.9096L56.8006 86.4417V91.8566V97.2715L56.4223 97.6735C55.8902 98.2055 55.4173 98.3829 54.436 98.3829H53.6084V97.7326C53.6084 96.9878 53.2774 96.2547 52.7926 95.9237C51.7049 95.167 50.5699 95.3089 49.7778 96.2902C49.4704 96.6685 49.3994 96.8814 49.3521 97.5316L49.293 98.3238L48.5245 98.3592C47.5669 98.4065 46.9876 98.2292 46.491 97.709L46.1008 97.307V91.9039V86.5008L46.3728 86.1461C46.9994 85.354 46.8457 85.3776 51.5276 85.3776H55.772L56.2922 85.9096Z" fill="#464646" stroke="white" mask="url(#path-1-inside-1_6146_4452)"/>
</svg>
