<svg width="101" height="94" viewBox="0 0 101 94" fill="none" xmlns="http://www.w3.org/2000/svg">
<path d="M2.73522 1.07813H2.7351C2.50856 1.07801 2.28424 1.12249 2.07496 1.20908C1.86563 1.29569 1.67544 1.42262 1.51524 1.58272C1.35504 1.74281 1.22793 1.933 1.14119 2.14228C1.05446 2.35152 1.0098 2.57581 1.00977 2.80231C1.00977 2.80232 1.00977 2.80233 1.00977 2.80234V69.5971C1.0098 69.8236 1.05444 70.0476 1.14119 70.2569C1.22793 70.4662 1.35504 70.6564 1.51524 70.8165C1.67544 70.9766 1.86563 71.1035 2.07496 71.1901C2.2844 71.2768 2.50873 71.3214 2.7351 71.3213H2.73522H40.7582C41.0504 71.3214 41.3397 71.379 41.6096 71.4908C41.8794 71.6027 42.1247 71.7664 42.3313 71.9731C42.5379 72.1798 42.7017 72.4252 42.8134 72.6952C42.9251 72.9652 42.9825 73.2548 42.9824 73.5469M2.73522 1.07813L42.7324 73.5468M2.73522 1.07813H98.7855C99.2428 1.07818 99.6813 1.25984 100.005 1.58319C100.328 1.90653 100.51 2.34506 100.51 2.80231V69.5971C100.51 70.0544 100.328 70.4929 100.005 70.8163C99.6813 71.1396 99.2428 71.3213 98.7855 71.3213H60.7626C60.4704 71.3214 60.181 71.379 59.9111 71.4908C59.6413 71.6027 59.396 71.7664 59.1894 71.9731C58.9828 72.1798 58.819 72.4252 58.7073 72.6952C58.5956 72.9652 58.5382 73.2548 58.5384 73.5469M2.73522 1.07813L58.5384 73.5469M42.9824 73.5469L42.7324 73.5468M42.9824 73.5469V73.5468H42.7324M42.9824 73.5469V77.1381C42.9823 80.3464 41.7079 83.4231 39.4393 85.6916C37.1707 87.9602 34.0939 89.2348 30.8857 89.2348H30.1973M42.7324 73.5468V77.1381C42.7323 80.2801 41.4842 83.2932 39.2625 85.5149C37.0408 87.7365 34.0276 88.9848 30.8857 88.9848H30.1973V89.2348M30.1973 89.2348V92.7857M30.1973 89.2348H29.9473M29.9473 89.2348V92.7857H30.1973M29.9473 89.2348L0.759766 2.80231C0.759802 2.54296 0.810933 2.28614 0.910238 2.04656C1.00954 1.80697 1.15507 1.58921 1.33852 1.40588C1.52197 1.22255 1.73974 1.07722 1.97939 0.97807C2.21904 0.878918 2.47587 0.827997 2.73522 0.828125H98.7855C99.3091 0.828186 99.8112 1.03619 100.181 1.40641C100.552 1.77663 100.76 2.27873 100.76 2.80231V69.5971C100.76 70.1207 100.552 70.6228 100.181 70.993C99.8112 71.3633 99.3091 71.5713 98.7855 71.5713H60.7626C60.5032 71.5714 60.2464 71.6225 60.0068 71.7218C59.7672 71.8211 59.5496 71.9664 59.3662 72.1499C59.1829 72.3333 59.0375 72.5511 58.9383 72.7908C58.8392 73.0305 58.7882 73.2875 58.7884 73.5468M29.9473 89.2348L58.5384 73.5469M30.1973 92.7857V93.0357H71.3234V92.7857M30.1973 92.7857H71.3234M71.3234 92.7857H71.5734V89.2348H71.3234M71.3234 92.7857V89.2348M71.3234 89.2348V88.9848H70.635C67.4931 88.9848 64.4799 87.7365 62.2582 85.5149C60.0365 83.2932 58.7884 80.2801 58.7884 77.1381V73.5468M71.3234 89.2348H70.635C67.4268 89.2348 64.35 87.9602 62.0814 85.6916C59.8129 83.4231 58.5384 80.3464 58.5384 77.1381V73.5469M58.7884 73.5468H58.5384V73.5469M58.7884 73.5468L58.5384 73.5469M5.49402 4.51837H5.49384C5.21822 4.51856 4.95403 4.62826 4.75925 4.82308C4.56447 5.0179 4.45492 5.28193 4.45479 5.55755V5.55767V66.8242V66.8243C4.45492 67.0999 4.56441 67.3642 4.75925 67.5591C4.95403 67.7539 5.21822 67.8636 5.49384 67.8638H5.49402H96.0161H96.0163C96.2919 67.8636 96.5561 67.7539 96.7509 67.5591C96.9457 67.3642 97.0552 67.0999 97.0554 66.8243V66.8242V5.55767C97.0552 5.28193 96.9457 5.0179 96.7509 4.82308C96.5561 4.62826 96.2919 4.51856 96.0163 4.51837H96.0161H5.49402Z" fill="#464646" stroke="white" strokeWidth="0.5"/>
<path d="M17.1542 53.7269C17.3185 53.5611 17.5415 53.4667 17.7747 53.4644H38.5096C38.7428 53.4667 38.9658 53.5611 39.1301 53.7269L39.3077 53.5509L39.1301 53.7269C39.2946 53.8929 39.3869 54.1171 39.3869 54.3507C39.3869 54.5845 39.2946 54.8089 39.1301 54.9748L39.2999 55.1431L39.1301 54.9748C38.9659 55.1405 38.743 55.2347 38.5096 55.2371H17.7747C17.5414 55.2347 17.3184 55.1405 17.1542 54.9748C16.9898 54.8089 16.8975 54.5845 16.8975 54.3507C16.8975 54.1171 16.9897 53.8929 17.1542 53.7269Z" fill="#464646" stroke="white" strokeWidth="0.5"/>
<path d="M17.1542 48.9203C17.3185 48.7545 17.5415 48.6601 17.7747 48.6577H38.5096C38.7428 48.6601 38.9658 48.7545 39.1301 48.9203L39.3077 48.7443L39.1301 48.9203C39.2946 49.0863 39.3869 49.3104 39.3869 49.5441C39.3869 49.7778 39.2946 50.0019 39.1301 50.1679L39.3077 50.3439L39.1301 50.1679C38.9658 50.3337 38.7428 50.4281 38.5096 50.4305H17.7747C17.5415 50.4281 17.3185 50.3337 17.1542 50.1679C16.9897 50.0019 16.8975 49.7778 16.8975 49.5441C16.8975 49.3104 16.9897 49.0863 17.1542 48.9203Z" fill="#464646" stroke="white" strokeWidth="0.5"/>
<path d="M41.0631 33.9719L29.5293 27.3128V13.9943C31.7269 14.2101 33.8452 14.9361 35.7146 16.116C37.6604 17.3441 39.2783 19.0272 40.4288 21.0199C41.5793 23.0127 42.2278 25.2553 42.3184 27.5545C42.4055 29.7635 41.9751 31.9608 41.0631 33.9719Z" fill="#464646" stroke="white" strokeWidth="0.5"/>
<path d="M26.8709 28.9856L39.6661 36.3731C38.3255 38.2451 36.5484 39.7641 34.4874 40.7968C32.3456 41.87 29.967 42.3832 27.5732 42.2888C25.1795 42.1944 22.8486 41.4955 20.798 40.2571C18.7473 39.0187 17.0437 37.281 15.8459 35.2063C14.6481 33.1317 13.9952 30.7876 13.9481 28.3925C13.9009 25.9974 14.461 23.6293 15.5762 21.5091C16.6914 19.3889 18.3253 17.5857 20.3256 16.2675C22.2505 14.9989 24.4544 14.2193 26.7459 13.9943V28.7691V28.9135L26.8709 28.9856Z" fill="#464646" stroke="white" strokeWidth="0.5"/>
<path d="M66.5861 23.6632L66.5861 23.6632C66.3735 23.3267 66.0843 23.0452 65.7421 22.8418C65.3998 22.6384 65.0143 22.519 64.6172 22.4932C64.2199 22.4674 63.8222 22.5358 63.4565 22.6931C63.0909 22.8504 62.7676 23.092 62.5132 23.3981L62.5132 23.3982L56.2791 30.901L54.9155 29.7683L61.1498 22.2654C61.583 21.7441 62.1335 21.3326 62.7561 21.0647C63.3788 20.7969 64.0561 20.6801 64.7325 20.7241C65.4089 20.7681 66.0653 20.9716 66.648 21.3179C67.2307 21.6642 67.7232 22.1434 68.0852 22.7165L73.0431 30.5658C73.2615 30.9116 73.5607 31.1991 73.9149 31.4035C74.2691 31.608 74.6678 31.7232 75.0764 31.7393C75.485 31.7555 75.8915 31.6723 76.2608 31.4963C76.63 31.3205 76.951 31.0574 77.196 30.7299L84.5411 20.9141L84.6909 20.7139L84.4907 20.5641L83.7829 20.0345L87.1454 18.9127L87.0186 22.455L86.3113 21.9259L86.1112 21.7762L85.9614 21.9763L78.6162 31.7922L78.8164 31.942L78.6162 31.7922C78.1991 32.3497 77.6527 32.7973 77.024 33.0967C76.3953 33.3961 75.7033 33.5381 75.0075 33.5107C74.3117 33.4832 73.6331 33.287 73.03 32.9389C72.4268 32.5908 71.9163 32.1011 71.5445 31.5125L66.5861 23.6632Z" fill="#464646" stroke="white" strokeWidth="0.5"/>
<path d="M82.4443 31.2681H86.2818V51.3789H82.4443V31.2681Z" fill="#464646" stroke="white" strokeWidth="0.5"/>
<path d="M72.4141 51.3805V40.1558H76.2515V51.3805H72.4141Z" fill="#464646" stroke="white" strokeWidth="0.5"/>
<path d="M62.3633 51.38V28.668H66.2005V51.38H62.3633Z" fill="#464646" stroke="white" strokeWidth="0.5"/>
<path d="M56.1675 51.3771H52.3301V35.2065H56.1675V51.3771Z" fill="#464646" stroke="white" strokeWidth="0.5"/>
</svg>
