<svg width="115" height="115" viewBox="0 0 115 115" fill="none" xmlns="http://www.w3.org/2000/svg">
<path d="M55.0977 69.6449H77.2933C77.6402 69.6449 77.9729 69.5072 78.2183 69.2621C78.4636 69.0169 78.6017 68.6844 78.602 68.3375V52.6739C78.6017 52.3269 78.4637 51.9943 78.2183 51.7489C77.973 51.5036 77.6403 51.3656 77.2933 51.3652H55.0977C54.7508 51.3656 54.4183 51.5036 54.1731 51.749C53.928 51.9944 53.7903 52.3271 53.7903 52.6739V68.3375C53.7903 68.6843 53.928 69.0168 54.1732 69.262C54.4184 69.5072 54.751 69.6449 55.0977 69.6449ZM56.4064 53.9813H75.9859V67.0288H56.4064V53.9813ZM114.392 107.748L110.263 75.6273C110.121 74.8038 109.684 74.0598 109.035 73.5333C108.386 73.0068 107.568 72.7333 106.733 72.7637H103V69.6005C103 65.6161 100.308 62.4922 95.7964 61.2343C94.8803 60.9837 93.9429 60.8188 92.9963 60.7418V36.3972C95.4226 35.3502 97.4901 33.6169 98.9444 31.4104C100.399 29.204 101.177 26.6207 101.182 23.978V23.9387V23.8854C101.182 23.8486 101.182 23.813 101.171 23.7775V23.7381C101.152 23.6375 101.121 23.5395 101.079 23.4462V23.436L91.0022 1.32166C90.8974 1.09406 90.7295 0.90131 90.5185 0.766305C90.3074 0.6313 90.062 0.559717 89.8115 0.56006H11.5709C11.3204 0.559717 11.075 0.6313 10.8639 0.766305C10.6529 0.90131 10.485 1.09406 10.3803 1.32166L0.316974 23.436V23.4462C0.274944 23.5395 0.244261 23.6375 0.225582 23.7381V23.7775C0.225582 23.813 0.216697 23.8486 0.214158 23.8854L0.200195 23.9336V23.973C0.205847 26.6156 0.983666 29.1989 2.43801 31.4054C3.89235 33.6118 5.9598 35.3451 8.38614 36.3921V88.4857H4.57814C3.72415 88.4867 2.90544 88.8265 2.3017 89.4305C1.69796 90.0344 1.3585 90.8533 1.35783 91.7073V98.9336C1.35884 99.7875 1.6984 100.606 2.30207 101.21C2.90574 101.814 3.72425 102.154 4.57814 102.155H69.7357L69.0172 107.748C68.8988 108.643 68.9998 109.554 69.3116 110.401C69.6234 111.249 70.1366 112.008 70.807 112.613C72.1785 113.915 74.0077 114.624 75.8983 114.587H107.511C109.401 114.624 111.23 113.915 112.601 112.613C113.272 112.008 113.785 111.249 114.097 110.402C114.409 109.554 114.511 108.643 114.392 107.748ZM100.384 69.6005V77.7243C100.384 78.0138 100.269 78.2914 100.064 78.4962C99.8594 78.7009 99.5817 78.8159 99.2922 78.8159C99.0027 78.8159 98.725 78.7009 98.5203 78.4962C98.3156 78.2914 98.2006 78.0138 98.2006 77.7243V69.6005C98.2006 67.8641 96.8601 66.497 94.5195 65.8471C93.6014 65.5991 92.6538 65.4769 91.7028 65.4841H91.6609C90.7245 65.4806 89.7918 65.6018 88.8874 65.8446C86.548 66.4957 85.2064 67.8628 85.2064 69.5992V77.723C85.2064 78.0125 85.0913 78.2902 84.8866 78.4949C84.6819 78.6996 84.4043 78.8146 84.1147 78.8146C83.8252 78.8146 83.5475 78.6996 83.3428 78.4949C83.1381 78.2902 83.0231 78.0125 83.0231 77.723V69.5992C83.0231 65.7912 86.3361 64.3036 88.3112 63.7603C90.5312 63.1544 92.8731 63.1544 95.0932 63.7603C97.0708 64.3048 100.384 65.7938 100.384 69.6005ZM87.825 72.7637V69.6005C87.825 69.1562 88.5333 68.6599 89.5894 68.3667C89.8497 68.2972 90.1137 68.2426 90.3802 68.203V72.7637H87.825ZM92.9963 68.1941C93.274 68.234 93.549 68.2904 93.8201 68.3629C94.8762 68.6561 95.5844 69.1524 95.5844 69.5967V72.7599H92.9963V68.1941ZM87.5787 34.9045C84.9007 34.9072 82.314 33.9311 80.3054 32.1598C78.2968 30.3884 77.0048 27.9441 76.6726 25.2867H98.4849C98.1527 27.9441 96.8607 30.3884 94.8521 32.1598C92.8435 33.9311 90.2568 34.9072 87.5787 34.9045ZM49.3832 3.17108V22.6706H28.2398L32.2002 3.17108H49.3832ZM69.1848 3.17108L73.1451 22.6706H51.9993V3.17108H69.1848ZM27.708 25.2867H49.3019C48.9726 27.889 47.7238 30.2878 45.781 32.0502C43.8382 33.8125 41.3293 34.8222 38.7074 34.8969C36.0854 34.9717 33.5231 34.1067 31.483 32.4579C29.4429 30.8092 28.0594 28.4855 27.5823 25.9062L27.708 25.2867ZM73.6732 25.2867L73.8001 25.9062C73.323 28.4855 71.9396 30.8092 69.8995 32.4579C67.8594 34.1067 65.297 34.9717 62.6751 34.8969C60.0531 34.8222 57.5442 33.8125 55.6014 32.0502C53.6586 30.2878 52.4098 27.889 52.0805 25.2867H73.6732ZM97.8413 22.6706H75.812L71.8517 3.17108H88.9687L97.8413 22.6706ZM12.4137 3.17108H29.5307L25.5704 22.6706H3.54109L12.4137 3.17108ZM2.89373 25.2867H24.7098C24.375 27.943 23.0822 30.3857 21.0742 32.1565C19.0662 33.9273 16.4809 34.9043 13.8037 34.9043C11.1264 34.9043 8.54116 33.9273 6.53314 32.1565C4.52513 30.3857 3.23238 27.943 2.89753 25.2867H2.89373ZM10.9984 37.2312C13.9865 37.8572 17.0982 37.4625 19.8352 36.1102C22.5723 34.7579 24.7764 32.5262 26.0946 29.7726C27.203 32.094 28.946 34.0542 31.1219 35.4264C33.2977 36.7987 35.8176 37.527 38.3901 37.527C40.9625 37.527 43.4824 36.7987 45.6583 35.4264C47.8342 34.0542 49.5771 32.094 50.6855 29.7726C51.7941 32.0939 53.5372 34.054 55.7132 35.4262C57.8891 36.7984 60.4091 37.5266 62.9816 37.5266C65.554 37.5266 68.074 36.7984 70.2499 35.4262C72.4259 34.054 74.169 32.0939 75.2776 29.7726C76.5948 32.5276 78.7987 34.7608 81.5362 36.1144C84.2736 37.4679 87.3861 37.8634 90.3751 37.2375V60.7444C89.4396 60.8224 88.5133 60.9864 87.6079 61.2343C83.0967 62.4884 80.4045 65.6161 80.4045 69.6005V72.7637H76.6764C75.8412 72.7333 75.0233 73.0064 74.374 73.5327C73.7248 74.059 73.2882 74.8026 73.1451 75.6261L71.495 88.4857H42.6341V52.2855C42.6338 51.9387 42.496 51.6063 42.2509 51.3609C42.0058 51.1156 41.6734 50.9775 41.3267 50.9768H21.2382C20.8913 50.9772 20.5588 51.1152 20.3136 51.3606C20.0685 51.606 19.9308 51.9386 19.9308 52.2855V88.4857H11.0022L10.9984 37.2312ZM22.5494 88.4857V53.5929H40.018V88.4857H22.5494ZM4.57306 99.5391C4.41331 99.5368 4.26077 99.4722 4.14792 99.3591C4.03507 99.246 3.97082 99.0933 3.96885 98.9336V91.7073C3.97082 91.5475 4.03507 91.3948 4.14792 91.2818C4.26077 91.1687 4.41331 91.1041 4.57306 91.1018H71.1561L70.0721 99.5391H4.57306ZM110.79 110.727C110.352 111.14 109.837 111.463 109.275 111.676C108.712 111.889 108.113 111.99 107.511 111.971H75.9047C75.303 111.99 74.7035 111.89 74.1408 111.676C73.578 111.463 73.0632 111.14 72.626 110.726C72.2511 110.403 71.9626 109.993 71.7866 109.531C71.6106 109.069 71.5527 108.57 71.6181 108.08L75.7473 75.9599C75.8144 75.7716 75.9436 75.6117 76.1136 75.5065C76.2836 75.4013 76.4843 75.3571 76.6828 75.3811H80.4095V77.723C80.4095 78.7063 80.8002 79.6494 81.4955 80.3448C82.1908 81.0401 83.1339 81.4307 84.1173 81.4307C85.1006 81.4307 86.0437 81.0401 86.739 80.3448C87.4344 79.6494 87.825 78.7063 87.825 77.723V75.3811H95.5844V77.723C95.5844 78.2099 95.6804 78.692 95.8667 79.1419C96.053 79.5917 96.3261 80.0005 96.6704 80.3448C97.0147 80.689 97.4234 80.9622 97.8733 81.1485C98.3231 81.3348 98.8053 81.4307 99.2922 81.4307C99.7791 81.4307 100.261 81.3348 100.711 81.1485C101.161 80.9622 101.57 80.689 101.914 80.3448C102.258 80.0005 102.531 79.5917 102.718 79.1419C102.904 78.692 103 78.2099 103 77.723V75.3811H106.733C106.932 75.3571 107.132 75.4013 107.302 75.5065C107.472 75.6117 107.601 75.7716 107.669 75.9599L111.796 108.08C111.862 108.57 111.804 109.069 111.628 109.531C111.453 109.993 111.164 110.404 110.79 110.727Z" fill="#464646"/>
<path d="M99.7428 87.0011C99.2088 87.0252 98.7882 87.4646 98.7876 87.999V90.9987H84.0014C81.8026 90.9987 80.0011 92.7998 80.0011 94.9983V95.426C79.9821 96.7782 82.0204 96.7782 82.0013 95.426V94.9983C82.0013 93.8731 82.8761 92.9985 84.0014 92.9985H98.7876V95.9982C98.7877 96.8276 99.7394 97.2964 100.397 96.7911L105.61 92.7915C106.131 92.3912 106.131 91.6061 105.61 91.2057L100.397 87.2061C100.21 87.0628 99.9783 86.9902 99.7428 87.0011Z" fill="#464646"/>
<path d="M84.1847 97.0004C83.9744 97.0064 83.7714 97.0791 83.6046 97.2074L78.3917 101.207C77.8708 101.607 77.8708 102.392 78.3917 102.792L83.6046 106.791C84.2623 107.296 85.2139 106.828 85.214 105.998V102.999H100.001C102.2 102.999 104.001 101.198 104.001 99V98.5743C104.011 98.0106 103.549 97.552 102.985 97.5609C102.434 97.5699 101.993 98.0229 102.001 98.5743V99C102.001 100.125 101.126 101 100.001 101H85.214V98.0002C85.2142 97.4364 84.7484 96.984 84.1847 97.0004Z" fill="#464646"/>
</svg>
