<svg width="115" height="101" viewBox="0 0 115 101" fill="none" xmlns="http://www.w3.org/2000/svg">
<path d="M112.655 78.5004H1.9852C1.51178 78.5004 1.05776 78.6644 0.72301 78.9563C0.388257 79.2482 0.200195 79.6441 0.200195 80.0569L0.200195 86.283C0.200195 86.6958 0.388257 87.0917 0.72301 87.3836C1.05776 87.6755 1.51178 87.8395 1.9852 87.8395H7.3402V98.7351C7.3402 99.1479 7.52826 99.5438 7.86301 99.8358C8.19776 100.128 8.65178 100.292 9.1252 100.292H23.4052C23.8786 100.292 24.3326 100.128 24.6674 99.8358C25.0021 99.5438 25.1902 99.1479 25.1902 98.7351V87.8395H48.3952V98.7351C48.3952 99.1479 48.5833 99.5438 48.918 99.8358C49.2528 100.128 49.7068 100.292 50.1802 100.292H64.4602C64.9336 100.292 65.3876 100.128 65.7224 99.8358C66.0571 99.5438 66.2452 99.1479 66.2452 98.7351V87.8395H89.4502V98.7351C89.4502 99.1479 89.6383 99.5438 89.973 99.8358C90.3078 100.128 90.7618 100.292 91.2352 100.292H105.515C105.989 100.292 106.443 100.128 106.777 99.8358C107.112 99.5438 107.3 99.1479 107.3 98.7351V87.8395H112.655C113.129 87.8395 113.583 87.6755 113.917 87.3836C114.252 87.0917 114.44 86.6958 114.44 86.283V80.0569C114.44 79.6441 114.252 79.2482 113.917 78.9563C113.583 78.6644 113.129 78.5004 112.655 78.5004ZM21.6202 97.1786H10.9102V87.8395H21.6202V97.1786ZM62.6752 97.1786H51.9652V87.8395H62.6752V97.1786ZM103.73 97.1786H93.0202V87.8395H103.73V97.1786ZM110.87 84.7264H3.7702V81.6134H110.87V84.7264Z" fill="#464646"/>
<path d="M35.9002 34.9178H78.7402C79.2136 34.9178 79.6677 34.7538 80.0024 34.4619C80.3372 34.17 80.5252 33.7741 80.5252 33.3613V2.2309C80.5252 1.81808 80.3372 1.42218 80.0024 1.13027C79.6677 0.838367 79.2136 0.674377 78.7402 0.674377H35.9002C35.4268 0.674377 34.9728 0.838367 34.638 1.13027C34.3033 1.42218 34.1152 1.81808 34.1152 2.2309V33.3613C34.1152 33.7741 34.3033 34.17 34.638 34.4619C34.9728 34.7538 35.4268 34.9178 35.9002 34.9178ZM51.9652 3.78742H62.6752V9.37532L62.1576 8.90837C61.9916 8.76248 61.7942 8.64668 61.5767 8.56766C61.3592 8.48864 61.1259 8.44795 60.8902 8.44795C60.6546 8.44795 60.4213 8.48864 60.2038 8.56766C59.9862 8.64668 59.7888 8.76248 59.6229 8.90837L57.3202 10.9318L55.0176 8.92393C54.6831 8.63403 54.2307 8.47131 53.7592 8.47131C53.2876 8.47131 52.8352 8.63403 52.5007 8.92393L51.9652 9.40646V3.78742ZM37.6852 3.78742H48.3952V13.1265C48.397 13.4338 48.503 13.7338 48.7 13.9886C48.8969 14.2435 49.176 14.4418 49.5019 14.5585C49.8247 14.6744 50.1794 14.7052 50.522 14.6471C50.8647 14.589 51.1803 14.4445 51.4297 14.2317L53.7502 12.2082L55.9993 14.2161C56.3491 14.4983 56.808 14.6551 57.2845 14.6551C57.761 14.6551 58.22 14.4983 58.5697 14.2161L60.8902 12.2082L63.1929 14.2317C63.3597 14.3759 63.5575 14.4901 63.775 14.5675C63.9924 14.645 64.2253 14.6842 64.4602 14.6831C64.6944 14.6883 64.9267 14.6457 65.1385 14.5585C65.4645 14.4418 65.7435 14.2435 65.9405 13.9886C66.1374 13.7338 66.2435 13.4338 66.2452 13.1265V3.78742H76.9552V31.8048H37.6852V3.78742Z" fill="#464646"/>
<path d="M14.4803 73.8308H100.16C100.634 73.8308 101.088 73.6669 101.423 73.375C101.757 73.083 101.945 72.6871 101.945 72.2743V41.1439C101.945 40.7311 101.757 40.3352 101.423 40.0433C101.088 39.7514 100.634 39.5874 100.16 39.5874H14.4803C14.0069 39.5874 13.5529 39.7514 13.2181 40.0433C12.8834 40.3352 12.6953 40.7311 12.6953 41.1439V72.2743C12.6953 72.6871 12.8834 73.083 13.2181 73.375C13.5529 73.6669 14.0069 73.8308 14.4803 73.8308ZM98.3753 70.7178H59.1053V42.7004H69.8153V52.0396C69.8171 52.3469 69.9231 52.6468 70.1201 52.9017C70.317 53.1565 70.596 53.3548 70.922 53.4716C71.2448 53.5874 71.5995 53.6182 71.9421 53.5601C72.2847 53.502 72.6003 53.3576 72.8498 53.1447L75.1703 51.1212L77.4373 53.1291C77.787 53.4114 78.2459 53.5682 78.7225 53.5682C79.199 53.5682 79.6579 53.4114 80.0077 53.1291L82.3282 51.1057L84.6308 53.1291C84.9604 53.4224 85.4095 53.5902 85.8803 53.5961C86.1145 53.6013 86.3468 53.5587 86.5586 53.4716C86.8846 53.3548 87.1636 53.1565 87.3606 52.9017C87.5575 52.6468 87.6636 52.3469 87.6653 52.0396V42.7004H98.3753V70.7178ZM73.3853 42.7004H84.0953V48.2883L83.5777 47.8214C83.4117 47.6755 83.2143 47.5597 82.9968 47.4807C82.7793 47.4017 82.546 47.361 82.3103 47.361C82.0747 47.361 81.8414 47.4017 81.6238 47.4807C81.4063 47.5597 81.2089 47.6755 81.043 47.8214L78.7403 49.8449L76.4377 47.837C76.1032 47.5471 75.6508 47.3843 75.1792 47.3843C74.7077 47.3843 74.2553 47.5471 73.9208 47.837L73.3318 48.335L73.3853 42.7004ZM30.5453 42.7004H41.2553V48.2883L40.7377 47.8214C40.5717 47.6755 40.3743 47.5597 40.1568 47.4807C39.9393 47.4017 39.706 47.361 39.4703 47.361C39.2347 47.361 39.0014 47.4017 38.7838 47.4807C38.5663 47.5597 38.3689 47.6755 38.203 47.8214L35.9003 49.8449L33.5977 47.837C33.2632 47.5471 32.8108 47.3843 32.3392 47.3843C31.8677 47.3843 31.4153 47.5471 31.0808 47.837L30.4918 48.335L30.5453 42.7004ZM16.2653 42.7004H26.9753V52.0396C26.9771 52.3469 27.0831 52.6468 27.28 52.9017C27.477 53.1565 27.756 53.3548 28.082 53.4716C28.4048 53.5874 28.7595 53.6182 29.1021 53.5601C29.4447 53.502 29.7603 53.3576 30.0098 53.1447L32.3303 51.1212L34.5973 53.1291C34.947 53.4114 35.4059 53.5682 35.8825 53.5682C36.359 53.5682 36.8179 53.4114 37.1677 53.1291L39.4882 51.1057L41.7908 53.1291C42.1204 53.4224 42.5695 53.5902 43.0403 53.5961C43.2745 53.6013 43.5068 53.5587 43.7186 53.4716C44.0446 53.3548 44.3236 53.1565 44.5206 52.9017C44.7175 52.6468 44.8236 52.3469 44.8253 52.0396V42.7004H55.5353V70.7178H16.2653V42.7004Z" fill="#464646"/>
</svg>
