<svg width="115" height="112" viewBox="0 0 115 112" fill="none" xmlns="http://www.w3.org/2000/svg">
<path d="M114.327 80.6705C113.677 73.9987 110.252 67.9267 104.683 63.5728C102.535 61.8936 100.096 60.4902 97.4063 59.3725V29.2904C97.4063 28.9779 97.3239 28.6708 97.1672 28.4002C97.0105 28.1295 96.7852 27.9047 96.5138 27.7485L49.6957 0.786876C49.4244 0.630608 49.1166 0.54834 48.8032 0.54834C48.4899 0.54834 48.1821 0.630608 47.9108 0.786876L1.09269 27.7485C0.821314 27.9047 0.59596 28.1295 0.43929 28.4002C0.28262 28.6708 0.200158 28.9779 0.200195 29.2904V83.2139C0.200158 83.5264 0.28262 83.8335 0.43929 84.1041C0.59596 84.3748 0.821314 84.5995 1.09269 84.7558L47.9108 111.717C48.1821 111.874 48.4899 111.956 48.8032 111.956C49.1166 111.956 49.4244 111.874 49.6957 111.717L96.5138 84.7558C96.8744 84.547 97.1502 84.2188 97.2932 83.8281C98.511 85.3954 99.3544 87.1523 99.7527 89.0039C101.225 95.8449 96.7891 102.496 88.1768 106.362C87.8046 106.529 87.5012 106.818 87.317 107.181C87.1328 107.545 87.0789 107.96 87.1644 108.358C87.2499 108.756 87.4696 109.113 87.7869 109.369C88.1041 109.625 88.4998 109.765 88.908 109.766C89.022 109.766 89.1373 109.755 89.2529 109.732C97.5159 108.115 104.279 104.281 108.81 98.644C112.991 93.4448 114.95 87.0617 114.327 80.6705ZM48.8032 54.1963L35.7527 46.6808L79.0008 21.7749L92.0513 29.2904L48.8032 54.1963ZM22.1754 38.8619L65.4235 13.956L75.4308 19.7191L32.1828 44.625L22.1754 38.8619ZM30.398 47.7087L30.3978 64.8309L20.3907 59.068L20.3904 41.9456L30.398 47.7087ZM48.8032 4.38473L61.8535 11.9002L18.6055 36.8059L5.55517 29.2904L48.8032 4.38473ZM3.77018 32.3744L16.8205 39.8899L16.8207 60.096C16.8207 60.4086 16.9031 60.7156 17.0598 60.9863C17.2165 61.2569 17.4418 61.4817 17.7132 61.6379L31.2903 69.4565C31.5616 69.6128 31.8694 69.6951 32.1827 69.6951C32.4961 69.6951 32.8039 69.6128 33.0752 69.4566C33.3466 69.3003 33.5719 69.0755 33.7286 68.8049C33.8853 68.5342 33.9677 68.2272 33.9678 67.9147L33.968 49.7647L47.0183 57.2802V107.092L3.77018 82.1861V32.3744ZM50.5882 107.092V57.2802L93.8363 32.3744V58.1013C90.1238 56.9842 86.0261 56.3453 81.6241 56.21V50.4518C81.6242 50.113 81.5274 49.7812 81.345 49.4954C81.1627 49.2095 80.9024 48.9816 80.5946 48.8382C80.2869 48.6948 79.9445 48.642 79.6077 48.686C79.271 48.7299 78.9538 48.8688 78.6934 49.0864L58.0569 66.3145C57.8494 66.4878 57.6842 66.7059 57.5736 66.9523C57.4631 67.1987 57.4101 67.4669 57.4188 67.7367C57.4275 68.0065 57.4975 68.2709 57.6236 68.5097C57.7497 68.7485 57.9286 68.9556 58.1468 69.1154L78.7833 84.217C79.0492 84.4117 79.3641 84.5292 79.693 84.5562C80.0218 84.5832 80.3517 84.5188 80.6461 84.3701C80.9404 84.2213 81.1877 83.9941 81.3604 83.7137C81.533 83.4333 81.6244 83.1106 81.6243 82.7815V76.7956C86.3512 77.0488 90.5035 78.3172 93.7167 80.502C93.7576 80.5299 93.7962 80.5592 93.8365 80.5873V82.1861L50.5882 107.092ZM99.9223 101.858C100.358 101.291 100.762 100.7 101.132 100.087C103.378 96.3648 104.108 92.2737 103.243 88.2568C102.335 84.0365 99.6661 80.2374 95.7273 77.5594C91.5203 74.6991 86.0261 73.187 79.8391 73.187C79.3657 73.187 78.9117 73.3746 78.5769 73.7085C78.2422 74.0424 78.0541 74.4953 78.0541 74.9675V79.2666L62.0941 67.5871L78.0541 54.2633V57.9628C78.0541 58.435 78.2422 58.8879 78.5769 59.2218C78.9117 59.5557 79.3657 59.7433 79.8391 59.7433C101.143 59.7433 109.818 71.2018 110.774 81.0144C111.474 88.2054 108.191 96.5831 99.9223 101.858Z" fill="#464646"/>
</svg>
