<svg width="115" height="115" viewBox="0 0 115 115" fill="none" xmlns="http://www.w3.org/2000/svg">
<path fillRule="evenodd" clipRule="evenodd" d="M72.2326 78.252H42.4083C39.2842 78.252 36.7373 75.711 36.7373 72.581V42.7567C36.7373 39.6326 39.2783 37.0857 42.4083 37.0857H72.2326C75.3567 37.0857 77.9036 39.6267 77.9036 42.7567V72.581C77.9036 75.7051 75.3627 78.252 72.2326 78.252ZM42.4083 39.4658C40.5934 39.4658 39.1176 40.9415 39.1176 42.7565V72.5809C39.1176 74.3958 40.5933 75.8716 42.4083 75.8716H72.2326C74.0476 75.8716 75.5234 74.3959 75.5234 72.5809V42.7565C75.5234 40.9416 74.0476 39.4658 72.2326 39.4658H42.4083Z" fill="#464646" stroke="#464646" strokeWidth="0.4"/>
<path fillRule="evenodd" clipRule="evenodd" d="M69.018 70.5583H45.6208C44.9662 70.5583 44.4307 70.0227 44.4307 69.3681V45.9709C44.4307 45.3163 44.9662 44.7808 45.6208 44.7808H69.018C69.6726 44.7808 70.2082 45.3163 70.2082 45.9709V69.3681C70.2082 70.0227 69.6726 70.5583 69.018 70.5583ZM46.8105 68.178H67.8283V47.1602H46.8105V68.178Z" fill="#464646" stroke="#464646" strokeWidth="0.4"/>
<path fillRule="evenodd" clipRule="evenodd" d="M63.8907 65.429H50.7458C50.0912 65.429 49.5557 64.8935 49.5557 64.2389C49.5557 63.5843 50.0912 63.0488 50.7458 63.0488H62.7006V51.0939C62.7006 50.4394 63.2362 49.9038 63.8908 49.9038C64.5453 49.9038 65.0809 50.4394 65.0809 51.0939V64.2388C65.0809 64.8934 64.5453 65.429 63.8907 65.429Z" fill="#464646" stroke="#464646" strokeWidth="0.4"/>
<path fillRule="evenodd" clipRule="evenodd" d="M64.3718 39.4661C63.7172 39.4661 63.1816 38.9306 63.1816 38.276V22.5717C63.1816 21.9171 63.7172 21.3816 64.3718 21.3816H89.3762C90.0307 21.3816 90.5663 21.9171 90.5663 22.5717C90.5663 23.2263 90.0307 23.7618 89.3762 23.7618H65.5615V38.2753C65.5615 38.9299 65.0263 39.4661 64.3718 39.4661Z" fill="#464646" stroke="#464646" strokeWidth="0.4"/>
<path fillRule="evenodd" clipRule="evenodd" d="M50.2682 39.4663C49.6137 39.4663 49.0781 38.9308 49.0781 38.2762V26.738C49.0781 26.0834 49.6137 25.5479 50.2682 25.5479C50.9228 25.5479 51.4584 26.0834 51.4584 26.738V38.2762C51.4584 38.9308 50.9228 39.4663 50.2682 39.4663Z" fill="#464646" stroke="#464646" strokeWidth="0.4"/>
<path fillRule="evenodd" clipRule="evenodd" d="M37.9276 51.8068H22.2233C21.5688 51.8068 21.0332 51.2712 21.0332 50.6166V25.6122C21.0332 24.9577 21.5688 24.4221 22.2233 24.4221C22.8779 24.4221 23.4135 24.9577 23.4135 25.6122V49.4269H37.9269C38.5815 49.4269 39.1171 49.9624 39.1171 50.617C39.1171 51.2716 38.5822 51.8068 37.9276 51.8068Z" fill="#464646" stroke="#464646" strokeWidth="0.4"/>
<path fillRule="evenodd" clipRule="evenodd" d="M37.9276 65.9098H26.3893C25.7348 65.9098 25.1992 65.3742 25.1992 64.7197C25.1992 64.0651 25.7348 63.5295 26.3893 63.5295H37.9276C38.5821 63.5295 39.1177 64.0651 39.1177 64.7197C39.1177 65.3742 38.5821 65.9098 37.9276 65.9098Z" fill="#464646" stroke="#464646" strokeWidth="0.4"/>
<path fillRule="evenodd" clipRule="evenodd" d="M50.2687 93.955H25.2643C24.6098 93.955 24.0742 93.4194 24.0742 92.7648C24.0742 92.1103 24.6098 91.5747 25.2643 91.5747H49.079V77.0612C49.079 76.4066 49.6146 75.8711 50.2691 75.8711C50.9237 75.8711 51.4592 76.4066 51.4592 77.0612V92.7655C51.4592 93.4201 50.9233 93.955 50.2687 93.955Z" fill="#464646" stroke="#464646" strokeWidth="0.4"/>
<path fillRule="evenodd" clipRule="evenodd" d="M64.3718 89.7905C63.7172 89.7905 63.1816 89.255 63.1816 88.6004V77.0622C63.1816 76.4076 63.7172 75.8721 64.3718 75.8721C65.0263 75.8721 65.5619 76.4076 65.5619 77.0622V88.6004C65.5619 89.255 65.0263 89.7905 64.3718 89.7905Z" fill="#464646" stroke="#464646" strokeWidth="0.4"/>
<path fillRule="evenodd" clipRule="evenodd" d="M92.4162 90.9146C91.7616 90.9146 91.2261 90.379 91.2261 89.7244V65.9098H76.7126C76.058 65.9098 75.5225 65.3742 75.5225 64.7197C75.5225 64.0651 76.058 63.5295 76.7126 63.5295H92.4169C93.0715 63.5295 93.607 64.0651 93.607 64.7197V89.7241C93.607 90.3786 93.0708 90.9146 92.4162 90.9146Z" fill="#464646" stroke="#464646" strokeWidth="0.4"/>
<path fillRule="evenodd" clipRule="evenodd" d="M88.2508 51.807H76.7126C76.058 51.807 75.5225 51.2715 75.5225 50.6169C75.5225 49.9623 76.058 49.4268 76.7126 49.4268H88.2508C88.9054 49.4268 89.4409 49.9623 89.4409 50.6169C89.4409 51.2715 88.9113 51.807 88.2508 51.807Z" fill="#464646" stroke="#464646" strokeWidth="0.4"/>
<path fillRule="evenodd" clipRule="evenodd" d="M22.2238 26.8025C14.9819 26.8025 9.09668 20.9114 9.09668 13.6754C9.09668 6.43353 14.9878 0.54834 22.2238 0.54834C29.4657 0.54834 35.3508 6.43947 35.3508 13.6754C35.3508 20.9173 29.4597 26.8025 22.2238 26.8025ZM22.2238 2.92234C16.297 2.92234 11.4769 7.7424 11.4769 13.6692C11.4769 19.596 16.297 24.416 22.2238 24.416C28.1505 24.416 32.9706 19.596 32.9706 13.6692C32.9706 7.7424 28.1505 2.92234 22.2238 2.92234Z" fill="#464646" stroke="#464646" strokeWidth="0.4"/>
<path fillRule="evenodd" clipRule="evenodd" d="M22.2233 20.8527C21.5688 20.8527 21.0332 20.3171 21.0332 19.6626C21.0332 19.008 21.5688 18.4725 22.2233 18.4725C24.8714 18.4725 27.0254 16.3183 27.0254 13.6704C27.0254 11.0223 24.8712 8.86828 22.2233 8.86828C21.5688 8.86828 21.0332 8.33273 21.0332 7.67816C21.0332 7.02359 21.5688 6.48804 22.2233 6.48804C26.1806 6.48804 29.4057 9.70735 29.4057 13.6704C29.4057 17.6276 26.1863 20.8527 22.2233 20.8527Z" fill="#464646" stroke="#464646" strokeWidth="0.4"/>
<path fillRule="evenodd" clipRule="evenodd" d="M101.313 35.6985C94.0707 35.6985 88.1855 29.8074 88.1855 22.5714C88.1855 15.3295 94.0767 9.44434 101.313 9.44434C108.555 9.44434 114.44 15.3355 114.44 22.5714C114.44 29.8133 108.549 35.6985 101.313 35.6985ZM101.313 11.8183C95.3858 11.8183 90.5658 16.6384 90.5658 22.5652C90.5658 28.492 95.3858 33.312 101.313 33.312C107.239 33.312 112.065 28.492 112.065 22.5652C112.065 16.6384 107.245 11.8183 101.313 11.8183Z" fill="#464646" stroke="#464646" strokeWidth="0.4"/>
<path fillRule="evenodd" clipRule="evenodd" d="M101.312 29.7487C100.658 29.7487 100.122 29.2131 100.122 28.5586C100.122 27.904 100.658 27.3684 101.312 27.3684C103.96 27.3684 106.114 25.2143 106.114 22.5664C106.114 19.9185 103.96 17.7643 101.312 17.7643C100.658 17.7643 100.122 17.2287 100.122 16.5742C100.122 15.9196 100.658 15.384 101.312 15.384C105.269 15.384 108.495 18.6033 108.495 22.5664C108.495 26.5236 105.275 29.7487 101.312 29.7487Z" fill="#464646" stroke="#464646" strokeWidth="0.4"/>
<path fillRule="evenodd" clipRule="evenodd" d="M92.4161 114.795C85.1743 114.795 79.2891 108.904 79.2891 101.668C79.2891 94.426 85.1802 88.5408 92.4161 88.5408C99.658 88.5408 105.543 94.4319 105.543 101.668C105.543 108.91 99.6521 114.795 92.4161 114.795ZM92.4161 90.9148C86.4894 90.9148 81.6634 95.7348 81.6634 101.668C81.6634 107.594 86.4834 112.42 92.4161 112.42C98.3429 112.42 103.163 107.6 103.163 101.668C103.163 95.7408 98.3429 90.9148 92.4161 90.9148Z" fill="#464646" stroke="#464646" strokeWidth="0.4"/>
<path fillRule="evenodd" clipRule="evenodd" d="M92.4167 108.844C91.7621 108.844 91.2266 108.309 91.2266 107.654C91.2266 107 91.7621 106.464 92.4167 106.464C95.0647 106.464 97.2128 104.31 97.2128 101.662C97.2128 99.014 95.0586 96.86 92.4167 96.86C91.7621 96.86 91.2266 96.3244 91.2266 95.6699C91.2266 95.0153 91.7621 94.4797 92.4167 94.4797C96.3739 94.4797 99.5931 97.6991 99.5931 101.662C99.5931 105.619 96.3738 108.844 92.4167 108.844Z" fill="#464646" stroke="#464646" strokeWidth="0.4"/>
<path fillRule="evenodd" clipRule="evenodd" d="M13.3273 105.898C6.08538 105.898 0.200195 100.007 0.200195 92.7711C0.200195 85.5292 6.09133 79.644 13.3273 79.644C20.5692 79.644 26.4544 85.5352 26.4544 92.7711C26.4544 100.013 20.5632 105.898 13.3273 105.898ZM13.3273 82.018C7.4005 82.018 2.5745 86.8381 2.5745 92.7649C2.5745 98.6917 7.39456 103.518 13.3273 103.518C19.2541 103.518 24.0801 98.6976 24.0801 92.7649C24.0801 86.8381 19.26 82.018 13.3273 82.018Z" fill="#464646" stroke="#464646" strokeWidth="0.4"/>
<path fillRule="evenodd" clipRule="evenodd" d="M13.3278 99.9479C12.6732 99.9479 12.1377 99.4124 12.1377 98.7578C12.1377 98.1032 12.6732 97.5677 13.3278 97.5677C15.9759 97.5677 18.1299 95.4135 18.1299 92.7656C18.1299 90.1175 15.9757 87.9635 13.3278 87.9635C12.6732 87.9635 12.1377 87.4279 12.1377 86.7734C12.1377 86.1188 12.6732 85.5833 13.3278 85.5833C17.285 85.5833 20.5101 88.8026 20.5101 92.7656C20.5101 96.7228 17.2908 99.9479 13.3278 99.9479Z" fill="#464646" stroke="#464646" strokeWidth="0.4"/>
<path fillRule="evenodd" clipRule="evenodd" d="M19.9798 72.3185C15.7906 72.3185 12.3809 68.9088 12.3809 64.7196C12.3809 60.5303 15.7906 57.1206 19.9798 57.1206C24.1691 57.1206 27.5788 60.5303 27.5788 64.7196C27.5788 68.9088 24.1691 72.3185 19.9798 72.3185ZM19.9798 59.4949C17.0998 59.4949 14.7611 61.8395 14.7611 64.7136C14.7611 67.5937 17.1057 69.9324 19.9798 69.9324C22.8599 69.9324 25.1985 67.5878 25.1985 64.7136C25.1985 61.8336 22.8539 59.4949 19.9798 59.4949Z" fill="#464646" stroke="#464646" strokeWidth="0.4"/>
<path fillRule="evenodd" clipRule="evenodd" d="M19.9811 67.8574C19.3266 67.8574 18.791 67.3218 18.791 66.6673C18.791 66.0127 19.3266 65.4771 19.9811 65.4771C20.3977 65.4771 20.7369 65.138 20.7369 64.7214C20.7369 64.3049 20.3977 63.9657 19.9811 63.9657C19.3266 63.9657 18.791 63.4301 18.791 62.7756C18.791 62.121 19.3266 61.5854 19.9811 61.5854C21.7127 61.5854 23.1171 62.9957 23.1171 64.7214C23.1171 66.453 21.7068 67.8574 19.9811 67.8574Z" fill="#464646" stroke="#464646" strokeWidth="0.4"/>
<path fillRule="evenodd" clipRule="evenodd" d="M50.2689 27.9279C46.0796 27.9279 42.6699 24.5182 42.6699 20.3289C42.6699 16.1397 46.0796 12.73 50.2689 12.73C54.4581 12.73 57.8679 16.1397 57.8679 20.3289C57.8679 24.5182 54.4581 27.9279 50.2689 27.9279ZM50.2689 15.1043C47.3888 15.1043 45.0502 17.4489 45.0502 20.323C45.0502 23.2031 47.3948 25.5417 50.2689 25.5417C53.1489 25.5417 55.4876 23.1971 55.4876 20.323C55.4876 17.4429 53.143 15.1043 50.2689 15.1043Z" fill="#464646" stroke="#464646" strokeWidth="0.4"/>
<path fillRule="evenodd" clipRule="evenodd" d="M50.2682 23.4648C49.6137 23.4648 49.0781 22.9293 49.0781 22.2747C49.0781 21.6201 49.6137 21.0846 50.2682 21.0846C50.6848 21.0846 51.024 20.7454 51.024 20.3288C51.024 19.9123 50.6848 19.5731 50.2682 19.5731C49.6137 19.5731 49.0781 19.0376 49.0781 18.383C49.0781 17.7284 49.6137 17.1929 50.2682 17.1929C51.9999 17.1929 53.4042 18.6032 53.4042 20.3289C53.4042 22.0605 51.9939 23.4648 50.2682 23.4648Z" fill="#464646" stroke="#464646" strokeWidth="0.4"/>
<path fillRule="evenodd" clipRule="evenodd" d="M64.3724 102.614C60.1832 102.614 56.7734 99.2045 56.7734 95.0152C56.7734 90.826 60.1832 87.4163 64.3724 87.4163C68.5616 87.4163 71.9714 90.826 71.9714 95.0152C71.9714 99.2045 68.5616 102.614 64.3724 102.614ZM64.3724 89.7906C61.4923 89.7906 59.1537 92.1352 59.1537 95.0093C59.1537 97.8894 61.4983 100.228 64.3724 100.228C67.2525 100.228 69.5911 97.8834 69.5911 95.0093C69.5911 92.1292 67.2465 89.7906 64.3724 89.7906Z" fill="#464646" stroke="#464646" strokeWidth="0.4"/>
<path fillRule="evenodd" clipRule="evenodd" d="M64.3718 98.1506C63.7172 98.1506 63.1816 97.6151 63.1816 96.9605C63.1816 96.3059 63.7172 95.7704 64.3718 95.7704C64.7883 95.7704 65.1275 95.4312 65.1275 95.0146C65.1275 94.5981 64.7883 94.2589 64.3718 94.2589C63.7172 94.2589 63.1816 93.7234 63.1816 93.0688C63.1816 92.4142 63.7172 91.8787 64.3718 91.8787C66.1034 91.8787 67.5077 93.289 67.5077 95.0146C67.5077 96.7463 66.0975 98.1506 64.3718 98.1506Z" fill="#464646" stroke="#464646" strokeWidth="0.4"/>
<path fillRule="evenodd" clipRule="evenodd" d="M94.6595 58.216C90.4703 58.216 87.0605 54.8063 87.0605 50.617C87.0605 46.4278 90.4703 43.0181 94.6595 43.0181C98.8488 43.0181 102.258 46.4278 102.258 50.617C102.258 54.8063 98.8488 58.216 94.6595 58.216ZM94.6595 45.3924C91.7795 45.3924 89.4408 47.737 89.4408 50.6111C89.4408 53.4912 91.7854 55.8298 94.6595 55.8298C97.5396 55.8298 99.8782 53.4852 99.8782 50.6111C99.8782 47.731 97.5336 45.3924 94.6595 45.3924Z" fill="#464646" stroke="#464646" strokeWidth="0.4"/>
<path fillRule="evenodd" clipRule="evenodd" d="M94.6608 53.7536C94.0063 53.7536 93.4707 53.2181 93.4707 52.5635C93.4707 51.9089 94.0063 51.3734 94.6608 51.3734C95.0774 51.3734 95.4165 51.0342 95.4165 50.6177C95.4165 50.2011 95.0774 49.8619 94.6608 49.8619C94.0063 49.8619 93.4707 49.3264 93.4707 48.6718C93.4707 48.0172 94.0063 47.4817 94.6608 47.4817C96.3924 47.4817 97.7968 48.892 97.7968 50.6177C97.7968 52.3493 96.3865 53.7536 94.6608 53.7536Z" fill="#464646" stroke="#464646" strokeWidth="0.4"/>
</svg>
