<svg width="160" height="156" viewBox="0 0 160 156" fill="none" xmlns="http://www.w3.org/2000/svg">
<path d="M160 135.005V93.34L128.746 80.2455V38.7163H114.339V14.3932L80 0L45.6611 14.3932V38.7163H31.2593V80.2399L0 93.34V135.005L34.3446 149.404L52.7876 141.669L80.0859 155.2L105.61 140.994L125.661 149.404L160 135.005ZM125.661 85.5877L148.993 95.3703L125.661 105.159L102.318 95.3703L125.661 85.5877ZM122.576 110.506V141.476L97.4986 130.951V99.9808L122.576 110.506ZM128.746 141.476V110.501L153.824 99.9808V130.951L128.746 141.476ZM108.168 52.0037L83.0853 62.5235V31.5538L108.163 21.034L108.168 52.0037ZM76.9204 62.5235L51.8432 52.0037V21.034L76.9204 31.5595V62.5235ZM103.343 16.4234L80.0115 26.2117L56.6686 16.4234L80.0057 6.63514L103.343 16.4234ZM62.5186 130.951L37.4413 141.476V110.501L62.5129 99.9808V130.951H62.5186ZM34.3675 105.159L11.0246 95.3703L34.3618 85.5877L57.6932 95.3703L34.3675 105.159ZM6.19347 99.9808L31.2822 110.506V141.476L6.1992 130.951V99.9808H6.19347ZM79.9313 148.281L60.2748 138.538L68.6949 135.005V93.34L37.4471 80.2455V44.8298H45.6783V56.0528L80.0115 70.4459L114.35 56.0528V44.8298H122.582V80.2455L91.328 93.34V135.005L98.4316 137.983L79.9199 148.281H79.9313Z" fill="#464646"/>
</svg>
