<svg width="101" height="104" viewBox="0 0 101 104" fill="none" xmlns="http://www.w3.org/2000/svg">
<path d="M24.7602 20.9517L24.8349 21.3622H25.2521H53.3278C54.7777 21.3622 55.9531 22.5376 55.9531 23.9874C55.9531 25.4373 54.7777 26.6127 53.3278 26.6127H26.3886H25.7895L25.8967 27.2021L30.4424 52.2038L30.5171 52.6144H30.9344H80.4553H80.8652L80.9456 52.2124L81.6932 48.4743C81.9776 47.0526 83.3606 46.1306 84.7823 46.4149C86.204 46.6993 87.126 48.0823 86.8417 49.504L85.5916 55.7544C85.3462 56.9815 84.2688 57.8648 83.0174 57.8648H32.0708H31.4717L31.5789 58.4542L33.5677 69.3925L33.6423 69.803H34.0596H78.3295C79.7794 69.803 80.9548 70.9784 80.9548 72.4282C80.9548 73.8781 79.7794 75.0535 78.3295 75.0535H31.4514C30.1826 75.0535 29.0954 74.1461 28.8685 72.8978L16.8342 6.70933L16.7595 6.29877H16.3423H3.32443C1.87457 6.29877 0.699219 5.12342 0.699219 3.67356C0.699219 2.22369 1.87457 1.04834 3.32443 1.04834H18.9505C20.2192 1.04834 21.3064 1.9557 21.5334 3.20396L24.7602 20.9517ZM69.8949 8.00782L69.0413 8.86137H70.2484H84.5679C92.9201 8.86137 99.6992 15.643 99.6992 23.9874C99.6992 32.3456 92.9336 39.1135 84.5679 39.1135H65.8287C64.3788 39.1135 63.2035 37.9382 63.2035 36.4883C63.2035 35.0384 64.3788 33.8631 65.8287 33.8631H84.5679C90.0332 33.8631 94.4488 29.4465 94.4488 23.9874C94.4488 18.5421 90.0197 14.1118 84.5679 14.1118H70.2484H69.0413L69.8949 14.9654L72.3728 17.4433C73.398 18.4685 73.398 20.1307 72.3728 21.1559C71.3476 22.1811 69.6854 22.1811 68.6602 21.1559L60.8472 13.3429C59.822 12.3177 59.822 10.6555 60.8472 9.63028L68.6602 1.81725C69.6854 0.792038 71.3476 0.792037 72.3728 1.81725C73.398 2.84246 73.398 4.50465 72.3728 5.52986L69.8949 8.00782ZM34.5766 103.18C28.8117 103.18 24.1383 98.507 24.1383 92.7421C24.1383 86.9773 28.8117 82.3039 34.5766 82.3039C40.3414 82.3039 45.0148 86.9773 45.0148 92.7421C45.0148 98.507 40.3414 103.18 34.5766 103.18ZM34.5766 97.93C37.4417 97.93 39.7644 95.6073 39.7644 92.7421C39.7644 89.877 37.4417 87.5543 34.5766 87.5543C31.7114 87.5543 29.3887 89.877 29.3887 92.7421C29.3887 95.6073 31.7114 97.93 34.5766 97.93ZM72.0791 103.18C66.3142 103.18 61.6409 98.507 61.6409 92.7421C61.6409 86.9773 66.3142 82.3039 72.0791 82.3039C77.844 82.3039 82.5174 86.9772 82.5174 92.7421C82.5174 98.507 77.844 103.18 72.0791 103.18ZM72.0791 97.93C74.9443 97.93 77.2669 95.6073 77.2669 92.7421C77.2669 89.877 74.9443 87.5543 72.0791 87.5543C69.214 87.5543 66.8913 89.877 66.8913 92.7421C66.8913 95.6073 69.214 97.93 72.0791 97.93Z" fill="#464646" stroke="white"/>
</svg>
