<svg width="115" height="115" viewBox="0 0 115 115" fill="none" xmlns="http://www.w3.org/2000/svg">
<path d="M74.4554 53.86H68.7434V36.724C68.7434 35.673 67.8923 34.82 66.8394 34.82H51.6074V29.108C51.6074 28.057 50.7563 27.204 49.7034 27.204H28.7594C27.7065 27.204 26.8554 28.057 26.8554 29.108V53.86H22.7961L21.1263 42.1656C20.9911 41.2288 20.1876 40.532 19.2394 40.532H7.81543V44.34H17.5887L19.2585 56.0343L19.2756 56.0324C19.2794 56.061 19.268 56.0877 19.2737 56.1162L24.9857 86.5802C25.1513 87.4789 25.9396 88.132 26.8554 88.132H68.7434C69.6593 88.132 70.4475 87.4789 70.6132 86.5783L76.3251 56.1143C76.4318 55.5583 76.2833 54.9833 75.9196 54.5473C75.5559 54.1113 75.0228 53.86 74.4554 53.86ZM64.9354 53.86H40.1834V38.628H49.7034H64.9354V53.86ZM30.6634 31.012H47.7994V34.82H38.2794C37.2265 34.82 36.3754 35.673 36.3754 36.724V53.86H30.6634V31.012ZM67.1631 84.324H28.4357L23.4377 57.668H28.7594H38.2794H66.8394H72.1611L67.1631 84.324Z" fill="#464646"/>
<path d="M102.458 26.646C102.974 26.1319 103.147 25.3703 102.913 24.681C102.677 23.9937 102.07 23.5006 101.348 23.4111L86.1161 21.5071C85.5373 21.4328 84.9489 21.6346 84.5338 22.0497C84.1169 22.4648 83.9189 23.0493 83.9912 23.6319L85.8952 38.8639C85.9847 39.5856 86.4797 40.1929 87.1671 40.429C87.8506 40.667 88.6179 40.49 89.1301 39.974L91.592 37.5121L97.8619 43.782C98.2331 44.1533 98.7206 44.3398 99.208 44.3398C99.6954 44.3398 100.183 44.1533 100.554 43.782L106.266 38.07C107.011 37.3255 107.011 36.1222 106.266 35.3777L99.9962 29.1078L102.458 26.646ZM102.228 36.7238L99.208 39.7436L92.9381 33.4737C92.5668 33.1024 92.0794 32.9158 91.592 32.9158C91.1046 32.9158 90.6171 33.1024 90.2459 33.4737L89.1891 34.5285L88.0715 25.5893L97.0108 26.7069L95.9559 27.7617C95.2115 28.5062 95.2115 29.7095 95.9559 30.454L102.228 36.7238Z" fill="#464646"/>
<path d="M63.0333 76.7087H32.5693V80.5167H63.0333V76.7087Z" fill="#464646"/>
<path d="M64.9351 69.0923H30.6631V72.9003H64.9351V69.0923Z" fill="#464646"/>
<path d="M66.8398 61.476H28.7598V65.284H66.8398V61.476Z" fill="#464646"/>
<path d="M34.4734 91.9403C30.2732 91.9403 26.8574 95.3561 26.8574 99.5563C26.8574 103.757 30.2732 107.172 34.4734 107.172C38.6736 107.172 42.0894 103.757 42.0894 99.5563C42.0894 95.3561 38.6736 91.9403 34.4734 91.9403ZM34.4734 103.364C32.3733 103.364 30.6654 101.656 30.6654 99.5563C30.6654 97.4562 32.3733 95.7483 34.4734 95.7483C36.5735 95.7483 38.2814 97.4562 38.2814 99.5563C38.2814 101.656 36.5735 103.364 34.4734 103.364Z" fill="#464646"/>
<path d="M61.1277 91.9403C56.9275 91.9403 53.5117 95.3561 53.5117 99.5563C53.5117 103.757 56.9275 107.172 61.1277 107.172C65.3279 107.172 68.7437 103.757 68.7437 99.5563C68.7437 95.3561 65.3279 91.9403 61.1277 91.9403ZM61.1277 103.364C59.0276 103.364 57.3197 101.656 57.3197 99.5563C57.3197 97.4562 59.0276 95.7483 61.1277 95.7483C63.2278 95.7483 64.9357 97.4562 64.9357 99.5563C64.9357 101.656 63.2278 103.364 61.1277 103.364Z" fill="#464646"/>
<path d="M95.4002 12.0694V2.45234C95.4002 1.40133 94.5491 0.54834 93.4962 0.54834H2.1042C1.05128 0.54834 0.200195 1.40133 0.200195 2.45234V112.884C0.200195 113.935 1.05128 114.788 2.1042 114.788H93.4962C94.5491 114.788 95.4002 113.935 95.4002 112.884V53.7632C106.059 52.7979 114.44 43.8224 114.44 32.9163C114.44 22.0102 106.059 13.0348 95.4002 12.0694ZM91.5922 110.98H4.0082V4.35634H91.5922V12.058C91.5503 12.0618 91.5103 12.0713 91.4684 12.0752C91.2 12.1018 90.941 12.1494 90.6764 12.1856C90.2632 12.2408 89.8481 12.2941 89.4426 12.3741C89.1646 12.4293 88.8923 12.5036 88.6181 12.5702C88.2373 12.6616 87.8565 12.7511 87.4834 12.8634C87.2054 12.9472 86.935 13.0481 86.6608 13.1414C86.3048 13.2652 85.9487 13.387 85.6022 13.5298C85.3299 13.6402 85.0653 13.7659 84.7987 13.8878C84.4636 14.042 84.1323 14.1962 83.8067 14.3657C83.544 14.5028 83.2908 14.6513 83.0356 14.7979C82.7234 14.9807 82.413 15.1653 82.1103 15.3615C81.8628 15.5233 81.6209 15.6928 81.3791 15.8641C81.0859 16.0736 80.7984 16.2868 80.5166 16.5096C80.2843 16.6943 80.0578 16.8828 79.8331 17.077C79.5627 17.3112 79.2981 17.5511 79.0391 17.7986C78.8259 18.0042 78.6145 18.2117 78.4089 18.425C78.1614 18.6839 77.9215 18.9486 77.6873 19.219C77.4931 19.4417 77.3027 19.6664 77.118 19.8987C76.8933 20.1805 76.682 20.4699 76.4725 20.7612C76.3012 21.0011 76.1298 21.241 75.9661 21.4885C75.768 21.7913 75.5834 22.1054 75.4006 22.4196C75.2521 22.6728 75.1035 22.9241 74.9646 23.185C74.7932 23.5106 74.6371 23.8476 74.4828 24.1846C74.361 24.4492 74.2353 24.7082 74.123 24.9786C73.9783 25.3308 73.8545 25.6926 73.7289 26.0524C73.6356 26.3209 73.5328 26.5836 73.4509 26.8578C73.3347 27.2424 73.2433 27.6346 73.15 28.0288C73.0872 28.2915 73.013 28.5486 72.9596 28.8151C72.8721 29.2569 72.813 29.7081 72.754 30.1593C72.7235 30.3878 72.6779 30.6087 72.655 30.8391C72.5903 31.5207 72.5522 32.2138 72.5522 32.9163C72.5522 33.6189 72.5903 34.312 72.6569 34.9974C72.6798 35.2278 72.7255 35.4506 72.7559 35.6771C72.8149 36.1284 72.874 36.5796 72.9616 37.0214C73.0149 37.2879 73.0891 37.545 73.1519 37.8077C73.2471 38.1999 73.3366 38.5941 73.4528 38.9787C73.5347 39.2509 73.6375 39.5156 73.7308 39.7841C73.8564 40.1458 73.9802 40.5057 74.1249 40.8579C74.2353 41.1283 74.3629 41.3872 74.4847 41.6519C74.639 41.9889 74.7951 42.324 74.9665 42.6515C75.1036 42.9123 75.254 43.1637 75.4025 43.4169C75.5853 43.7311 75.77 44.0433 75.968 44.348C76.1298 44.5955 76.3012 44.8354 76.4744 45.0753C76.6839 45.3685 76.8971 45.6579 77.1199 45.9378C77.3046 46.1701 77.495 46.3928 77.6892 46.6175C77.9234 46.8879 78.1633 47.1545 78.4108 47.4115C78.6164 47.6247 78.8259 47.8323 79.041 48.0379C79.3 48.2854 79.5646 48.5253 79.835 48.7595C80.0597 48.9537 80.2862 49.1422 80.5185 49.3269C80.8003 49.5497 81.0878 49.7629 81.381 49.9724C81.6228 50.1437 81.8647 50.3132 82.1122 50.475C82.4149 50.673 82.7253 50.8577 83.0394 51.0386C83.2946 51.1871 83.5497 51.3337 83.8105 51.4708C84.1361 51.6403 84.4674 51.7964 84.8025 51.9487C85.0691 52.0706 85.3337 52.1962 85.606 52.3067C85.9525 52.4476 86.3086 52.5713 86.6646 52.6951C86.9388 52.7903 87.2092 52.8912 87.4872 52.9731C87.8604 53.0854 88.2411 53.1749 88.6219 53.2663C88.8961 53.3329 89.1665 53.4072 89.4464 53.4624C89.8519 53.5424 90.2651 53.5957 90.6802 53.6509C90.9448 53.6871 91.2057 53.7347 91.4722 53.7613C91.5141 53.7651 91.5541 53.7747 91.596 53.7785V110.98H91.5922ZM93.4962 50.0523C84.0466 50.0523 76.3602 42.364 76.3602 32.9163C76.3602 23.4687 84.0466 15.7803 93.4962 15.7803C102.946 15.7803 110.632 23.4687 110.632 32.9163C110.632 42.364 102.946 50.0523 93.4962 50.0523Z" fill="#464646"/>
<path d="M47.8012 42.4368H43.9932V48.1488C43.9932 49.1998 44.8443 50.0528 45.8972 50.0528H59.2252C60.2781 50.0528 61.1292 49.1998 61.1292 48.1488V42.4368H57.3212V46.2448H47.8012V42.4368Z" fill="#464646"/>
</svg>
